<svg xmlns="http://www.w3.org/2000/svg" viewBox="-9597.291 -7887 36.601 28.001"><defs><style>.a{fill:#a121d0;}</style></defs><path class="a" d="M12178.666,2298a1.667,1.667,0,0,1,0-3.335h11.878a1.667,1.667,0,0,1,0,3.335Zm26.066-.27a1.659,1.659,0,0,1-1.309-.481l-7.071-7.072a1.667,1.667,0,0,1,2.357-2.357l4.487,4.488v-20.641a1.666,1.666,0,1,1,3.332,0v20.381l4.229-4.227a1.666,1.666,0,0,1,2.354,2.357l-7.071,7.072a1.66,1.66,0,0,1-1.178.487C12204.821,2297.737,12204.778,2297.734,12204.732,2297.731Zm-26.066-7.73a1.667,1.667,0,0,1,0-3.335h11.878a1.667,1.667,0,0,1,0,3.335Zm0-8.669a1.666,1.666,0,0,1,0-3.332h17.53a1.666,1.666,0,1,1,0,3.332Zm0-8a1.666,1.666,0,0,1,0-3.332h17.53a1.666,1.666,0,1,1,0,3.332Z" transform="translate(-21774.294 -10157)"/></svg>