<svg xmlns="http://www.w3.org/2000/svg" xmlns:xlink="http://www.w3.org/1999/xlink" viewBox="3169.114 593 115 115">
  <defs>
    <style>
      .cls-1 {
        fill: none;
      }

      .cls-2 {
        fill: #fff;
        opacity: 0.178;
      }

      .cls-3 {
        fill: #f7f7f7;
        opacity: 0.766;
      }

      .cls-4 {
        fill: #4a494a;
      }

      .cls-5 {
        clip-path: url(#clip-path);
      }

      .cls-6 {
        clip-path: url(#clip-path-2);
      }

      .cls-7 {
        fill: #ffae41;
      }
    </style>
    <clipPath id="clip-path">
      <path id="Path_4367" data-name="Path 4367" class="cls-1" d="M987.7-1025.135a1.1,1.1,0,0,0-1.432-.622l-13.705,5.42a6.069,6.069,0,0,0-5.542-3.617c-.176,0-.349.013-.522.026l-7.842-21.347a1.1,1.1,0,0,0-1.356-.677l-7.52,2.28a1.1,1.1,0,0,0-.737,1.376,1.1,1.1,0,0,0,1.378.736l6.522-1.977,7.422,20.2a6.059,6.059,0,0,0-3.4,5.437,6.067,6.067,0,0,0,6.059,6.061,6.068,6.068,0,0,0,6.06-6.061c0-.091-.009-.177-.013-.267l14.011-5.542A1.1,1.1,0,0,0,987.7-1025.135Zm-16.213-17.013-.787-2.052a.3.3,0,0,1,.157-.4l3.5-1.345a.3.3,0,0,1,.382.189l.787,2.052,2.291-.88a1.512,1.512,0,0,1,1.91.948l5.4,14.064a1.512,1.512,0,0,1-.785,1.982l-8.625,3.311a1.512,1.512,0,0,1-1.91-.948l-5.4-14.065a1.513,1.513,0,0,1,.785-1.983Zm-4.467,27.579a3.329,3.329,0,0,1-3.325-3.326,3.329,3.329,0,0,1,3.325-3.326,3.33,3.33,0,0,1,3.325,3.326A3.33,3.33,0,0,1,967.025-1014.569Zm3.9-24.985a.726.726,0,0,0-.377.952l4.319,11.253a.726.726,0,0,0,.917.455l6.9-2.649a.726.726,0,0,0,.377-.952l-4.32-11.253a.726.726,0,0,0-.917-.455Z" transform="translate(-949 1046)"/>
    </clipPath>
    <clipPath id="clip-path-2">
      <path id="Path_4366" data-name="Path 4366" class="cls-1" d="M0-40.053H1333.375V-1677H0Z" transform="translate(0 1677)"/>
    </clipPath>
  </defs>
  <g id="Group_3131" data-name="Group 3131" transform="translate(1990)">
    <g id="Symbol_25_1" data-name="Symbol 25 – 1" transform="translate(-591.886 128)">
      <circle id="Ellipse_3" data-name="Ellipse 3" class="cls-2" cx="57.5" cy="57.5" r="57.5" transform="translate(1771 465)"/>
      <circle id="Ellipse_1" data-name="Ellipse 1" class="cls-3" cx="50" cy="50" r="50" transform="translate(1778 473)"/>
      <circle id="Ellipse_2" data-name="Ellipse 2" class="cls-4" cx="45" cy="45" r="45" transform="translate(1783 478)"/>
    </g>
    <g id="Group_3099" data-name="Group 3099" class="cls-5" transform="translate(1214.254 634.973)">
      <g id="Group_3098" data-name="Group 3098" class="cls-6" transform="translate(-926.334 -615.929)">
        <path id="Path_4365" data-name="Path 4365" class="cls-7" d="M944-1007.075h48.543V-1051H944Z" transform="translate(-22.546 1662.049)"/>
      </g>
    </g>
  </g>
</svg>
