<svg xmlns="http://www.w3.org/2000/svg" viewBox="3014.4 633.997 34.554 34.164"><defs><style>.a{fill:#ffae41;}</style></defs><path class="a" d="M17.277,34.164h0L11.315,28.2h0l1.054-1.054,4.161,4.161V11.934h1.491V31.309l4.161-4.161L23.239,28.2l-5.962,5.962ZM6.5,23.594C2.614,23.594,0,19.982,0,16.6a6.171,6.171,0,0,1,2.04-4.56,6.412,6.412,0,0,1,1.582-1.058,5.642,5.642,0,0,1,.3-3.037,6.209,6.209,0,0,1,.848-1.552,6.415,6.415,0,0,1,9.081-1.2,7.953,7.953,0,0,1,.837-1.55A8.523,8.523,0,0,1,20.036.166h0l.04-.008.039-.008h0L20.2.136l.021,0L20.435.1l.011,0A8.761,8.761,0,0,1,21.737,0a8.512,8.512,0,0,1,5.675,2.247,7.989,7.989,0,0,1,2.625,5.4,7.589,7.589,0,0,1-.355,2.867,6.421,6.421,0,0,1,3.175,1.846,6.158,6.158,0,0,1,1.7,4.219c0,3.382-2.179,6.994-8.3,6.994H20.865V22.079h5.389c3.147,0,4.856-1.01,5.775-2.217a5.422,5.422,0,0,0,1.033-3.186q0-.051,0-.1a4.862,4.862,0,0,0-4.471-4.735l-1.044-.091.436-.952a6.226,6.226,0,0,0,.561-3.048A6.882,6.882,0,0,0,21.714,1.5a7.053,7.053,0,0,0-5.308,2.345l-.026.03-.02.023a6.5,6.5,0,0,0-1.388,2.6q-.03.114-.057.231l-.332,1.457-.964-1.146a4.944,4.944,0,0,0-4.23-1.686A4.891,4.891,0,0,0,5.727,7.633a4.645,4.645,0,0,0-.407.839,4.272,4.272,0,0,0-.115,2.752l.2.676-.665.229-.136.049q-.1.037-.191.077a4.92,4.92,0,0,0-1.3.814A4.692,4.692,0,0,0,1.479,16.6c0,2.6,2.052,5.5,5.01,5.5h7.188v1.491Z" transform="translate(3014.4 633.997)"/></svg>