<svg xmlns="http://www.w3.org/2000/svg" viewBox="-3548 -6705 109.682 151.121">
  <defs>
    <style>
      .cls-1 {
        fill: #ccc;
      }

      .cls-2 {
        fill: #f95428;
      }

      .cls-3 {
        fill: #f7b239;
      }

      .cls-4 {
        fill: #2ba5f7;
      }

      .cls-5 {
        fill: #333;
      }
    </style>
  </defs>
  <g id="pencil-case" transform="translate(-3618.198 -6705)">
    <path id="Path_7568" data-name="Path 7568" class="cls-1" d="M303.821,34l.535,38.1H296l.535-38.1a3.644,3.644,0,0,1,7.286,0Z" transform="translate(-159.155 -21.432)"/>
    <g id="Group_5409" data-name="Group 5409" transform="translate(152.362 15.428)">
      <path id="Path_7569" data-name="Path 7569" class="cls-2" d="M368.4,122.833l-3.722,10.956h-16.1l5.388-15.858Z" transform="translate(-348.572 -98.55)"/>
      <path id="Path_7570" data-name="Path 7570" class="cls-2" d="M381.323,52.677a7.627,7.627,0,0,1,4.768,9.674l-4.827,14.2-14.438-4.9v0l4.827-14.2A7.624,7.624,0,0,1,381.323,52.677Z" transform="translate(-361.438 -52.269)"/>
    </g>
    <path id="Path_7571" data-name="Path 7571" class="cls-1" d="M194.408,49.313a28.777,28.777,0,0,1-11.415-2.364h0l5.358-7.988a10.874,10.874,0,0,0,12.123,0l5.355,7.988h0A28.774,28.774,0,0,1,194.408,49.313Z" transform="translate(-79.5 -27.461)"/>
    <g id="Group_5410" data-name="Group 5410" transform="translate(103.49 2.459)">
      <path id="Path_7572" data-name="Path 7572" class="cls-3" d="M207.2,8.331l6.063,9.041a10.874,10.874,0,0,1-12.123,0Z" transform="translate(-195.786 -8.331)"/>
      <path id="Path_7573" data-name="Path 7573" class="cls-3" d="M233.092,66.025V97.2H221.674V68.389a28.777,28.777,0,0,0,11.415-2.364Z" transform="translate(-210.256 -48.996)"/>
      <path id="Path_7574" data-name="Path 7574" class="cls-3" d="M194.408,68.389V97.2H182.99V66.025h0A28.775,28.775,0,0,0,194.408,68.389Z" transform="translate(-182.99 -48.996)"/>
    </g>
    <path id="Path_7575" data-name="Path 7575" class="cls-4" d="M103.848,270.012v9.179H91.879a13.358,13.358,0,0,1-13.356-13.356V229.783A13.355,13.355,0,0,1,91.879,216.43h11.969v9.175H92.765a5.062,5.062,0,0,0-5.063,5.063v34.281a5.062,5.062,0,0,0,5.063,5.063Z" transform="translate(-5.868 -152.549)"/>
    <g id="Group_5411" data-name="Group 5411" transform="translate(109.625 50.666)">
      <path id="Path_7576" data-name="Path 7576" class="cls-2" d="M279.078,337.662a5.222,5.222,0,1,1-5.22,5.224A5.223,5.223,0,0,1,279.078,337.662Z" transform="translate(-253.173 -288.664)"/>
      <path id="Path_7577" data-name="Path 7577" class="cls-2" d="M233.142,171.776v30.411a4.894,4.894,0,1,1-9.788,0v-7.922a4.894,4.894,0,0,0-9.788,0v15.363a4.894,4.894,0,0,1-9.788,0v-37.97H231l0,.118Z" transform="translate(-203.777 -171.658)"/>
    </g>
    <path id="Path_7578" data-name="Path 7578" class="cls-4" d="M239.75,171.657v86.206a11.791,11.791,0,0,1-11.792,11.789H176.115a11.791,11.791,0,0,1-11.789-11.789V171.657h11.645v37.97a4.894,4.894,0,0,0,9.788,0V194.264a4.894,4.894,0,0,1,9.788,0v7.923a4.894,4.894,0,1,0,9.788,0V171.775h6.214l0-.118h28.2ZM207.1,225.879a5.222,5.222,0,1,0-5.224,5.22A5.223,5.223,0,0,0,207.1,225.879Z" transform="translate(-66.345 -120.991)"/>
    <g id="Group_5412" data-name="Group 5412" transform="translate(70.198)">
      <path id="Path_7579" data-name="Path 7579" class="cls-5" d="M273.2,329.332a7.682,7.682,0,1,0,7.682,7.681A7.69,7.69,0,0,0,273.2,329.332Zm0,10.444a2.763,2.763,0,1,1,2.763-2.763A2.766,2.766,0,0,1,273.2,339.776Z" transform="translate(-207.87 -232.127)"/>
      <path id="Path_7580" data-name="Path 7580" class="cls-5" d="M175.271,14.588l1.047-3.082a2.459,2.459,0,1,0-4.657-1.582L170.615,13a10.1,10.1,0,0,0-10.366,6.812l-9.648,28.4h-2.973l-.5-35.676a6.1,6.1,0,0,0-12.2,0l-.5,35.676h-5.634V19.489a2.459,2.459,0,0,0-.417-1.37L116.951,1.09a2.459,2.459,0,0,0-4.085,0L101.449,18.119a2.46,2.46,0,0,0-.417,1.37V48.208h-6a2.459,2.459,0,1,0,0,4.919h.495V61.42H86.013A15.833,15.833,0,0,0,70.2,77.236v36.049A15.833,15.833,0,0,0,86.013,129.1h9.509v7.772a14.265,14.265,0,0,0,14.249,14.249h51.843a14.265,14.265,0,0,0,14.249-14.249V53.127h.495a2.459,2.459,0,0,0,0-4.919H171.9L179.344,26.3A10.105,10.105,0,0,0,175.271,14.588ZM95.521,115.005H86.9a2.609,2.609,0,0,1-2.606-2.606V78.121A2.609,2.609,0,0,1,86.9,75.515h8.624Zm0-44.409H86.9a7.533,7.533,0,0,0-7.524,7.524V112.4a7.533,7.533,0,0,0,7.524,7.524h8.624v4.257H86.012a10.908,10.908,0,0,1-10.9-10.9V77.236a10.908,10.908,0,0,1,10.9-10.9h9.509Zm63.767-32.67,9.78,3.323L166.7,48.208H155.8ZM139.84,12.6a1.183,1.183,0,0,1,2.366,0l.5,35.607h-3.37ZM136.1,53.127a2.454,2.454,0,0,0,.429.093V81.2a2.434,2.434,0,1,1-4.869,0V73.273a7.353,7.353,0,1,0-14.707,0V88.635a2.435,2.435,0,0,1-4.869,0V53.127Zm-12.234-4.919h-6.5v-24a31.271,31.271,0,0,0,6.5-1.211V48.208ZM114.909,6.876l2.446,3.648a8.465,8.465,0,0,1-4.892,0Zm-5.257,7.841a13.258,13.258,0,0,0,10.515,0l2.37,3.536a26.424,26.424,0,0,1-15.256,0Zm-3.7,8.275a31.248,31.248,0,0,0,6.5,1.211v24h-6.5V22.993Zm64.994,113.879a9.341,9.341,0,0,1-9.33,9.33H109.771a9.341,9.341,0,0,1-9.33-9.33V53.127h6.726V88.635a7.353,7.353,0,0,0,14.707,0V73.273a2.434,2.434,0,0,1,4.869,0V81.2a7.353,7.353,0,1,0,14.707,0V53.243l29.5-.116v83.745Zm3.742-112.154-4.035,11.874-9.78-3.323,4.034-11.875a5.165,5.165,0,1,1,9.781,3.323Z" transform="translate(-70.198)"/>
    </g>
  </g>
</svg>
