<svg xmlns="http://www.w3.org/2000/svg" viewBox="-2900.119 -5983.5 84 136">
  <defs>
    <style>
      .cls-1 {
        fill: #85a1a6;
      }

      .cls-2 {
        fill: #f4c49d;
      }

      .cls-3, .cls-7 {
        fill: #333;
      }

      .cls-3 {
        opacity: 0.15;
      }

      .cls-4 {
        fill: #fccda2;
      }

      .cls-5 {
        fill: #ff8095;
      }

      .cls-6 {
        fill: #fff9f2;
      }

      .cls-7 {
        opacity: 0.1;
      }

      .cls-8 {
        fill: #26150c;
      }
    </style>
  </defs>
  <g id="teacher_1_" data-name="teacher (1)" transform="translate(-2991.04 -5983.5)">
    <path id="Path_7613" data-name="Path 7613" class="cls-1" d="M134.464,120.251v35.96c0,9.7,7.535,17.57,16.829,17.57h28.186c9.294,0,16.829-7.866,16.829-17.57v-35.96Z" transform="translate(-32.465 -88.309)"/>
    <g id="Group_5423" data-name="Group 5423" transform="translate(92.955 40.208)">
      <path id="Path_7614" data-name="Path 7614" class="cls-2" d="M108.829,151.37a10.141,10.141,0,0,0-9.915,10.352h0a10.141,10.141,0,0,0,9.915,10.352h4.551v-20.7Z" transform="translate(-98.914 -151.37)"/>
      <path id="Path_7615" data-name="Path 7615" class="cls-2" d="M360.777,151.37a10.141,10.141,0,0,1,9.915,10.352h0a10.141,10.141,0,0,1-9.915,10.352h-4.551v-20.7Z" transform="translate(-290.759 -151.37)"/>
      <rect id="Rectangle_1245" data-name="Rectangle 1245" class="cls-2" width="17.09" height="17.395" transform="translate(31.421 34.533)"/>
    </g>
    <path id="Path_7616" data-name="Path 7616" class="cls-3" d="M222.412,289.836a34.906,34.906,0,0,0,17.091,0v-13.3H222.412v13.3Z" transform="translate(-98.036 -203.083)"/>
    <path id="Path_7617" data-name="Path 7617" class="cls-4" d="M196.307,65.358V82.107c0,17.829-13.844,32.283-30.922,32.283h0c-17.078,0-30.922-14.453-30.922-32.283V65.358l30.922-23.211Z" transform="translate(-32.465 -30.952)"/>
    <path id="Path_7618" data-name="Path 7618" class="cls-1" d="M165.386,7.993h0c-17.078,0-30.922,14.454-30.922,32.283v5.8c25.207-4.7,30.922-21.827,30.922-21.827s5.715,17.129,30.922,21.827v-5.8C196.307,22.446,182.463,7.993,165.386,7.993Z" transform="translate(-32.465 -5.87)"/>
    <path id="Path_7619" data-name="Path 7619" class="cls-5" d="M155.533,346.863H122.228c-12.876,0-23.314,10.9-23.314,24.34v17.4h79.932V371.2C178.847,357.761,168.409,346.863,155.533,346.863Z" transform="translate(-5.959 -254.727)"/>
    <path id="Path_7620" data-name="Path 7620" class="cls-6" d="M207.2,346.864h16.653v4.069a8.334,8.334,0,1,1-16.652,0h0a8.334,8.334,0,1,1-16.652,0v-4.069H207.2Z" transform="translate(-74.282 -254.728)"/>
    <path id="Path_7621" data-name="Path 7621" class="cls-7" d="M140.024,57.026V40.277c0-16.851,12.367-30.684,28.142-32.152-.916-.085-1.842-.131-2.779-.131h0c-17.078,0-30.921,14.454-30.921,32.283v16.75c0,17.829,13.844,32.283,30.921,32.283h0c.937,0,1.864-.046,2.779-.131C152.391,87.71,140.024,73.877,140.024,57.026Z" transform="translate(-32.466 -5.871)"/>
    <g id="Group_5424" data-name="Group 5424" transform="translate(90.921)">
      <ellipse id="Ellipse_185" data-name="Ellipse 185" class="cls-8" cx="4.003" cy="4.179" rx="4.003" ry="4.179" transform="translate(23.5 41.917)"/>
      <ellipse id="Ellipse_186" data-name="Ellipse 186" class="cls-8" cx="4.003" cy="4.179" rx="4.003" ry="4.179" transform="translate(52.495 41.917)"/>
      <path id="Path_7622" data-name="Path 7622" class="cls-8" d="M149.576,90.013H143.5V87.594h3.514c10.4,0,18.862-8.834,18.862-19.692V62.661a12.612,12.612,0,0,0,0-24.195V34.407C165.876,15.434,151.092,0,132.921,0S99.966,15.434,99.966,34.406v4.059a12.613,12.613,0,0,0,0,24.2V67.9c0,10.859,8.461,19.692,18.862,19.692h3.514v2.419h-6.073c-13.977,0-25.347,11.871-25.347,26.463v17.4A2.08,2.08,0,0,0,92.955,136h79.933a2.08,2.08,0,0,0,2.034-2.123v-17.4C174.921,101.885,163.552,90.014,149.576,90.013Zm16.3-38.858V42.916a8.358,8.358,0,0,1,0,15.288Zm-18.334,43.1V96.2a6.3,6.3,0,1,1-12.585,0V94.259h12.585Zm-14.621-4.246h-6.512V84.888a19.563,19.563,0,0,0,2.9.465q1.565.179,3.142.2a31.805,31.805,0,0,0,6.269-.529c.238-.044.477-.089.714-.138v5.125ZM161.809,67.9c0,8.517-6.637,15.446-14.795,15.446h-2.45c.116-.046.231-.1.347-.145l.24-.1a33.111,33.111,0,0,0,9.761-6.338,33.726,33.726,0,0,0,4.2-4.731,34.942,34.942,0,0,0,2.694-4.3V67.9h0Zm-57.776-33.5c0-16.63,12.959-30.16,28.888-30.16s28.888,13.53,28.888,30.16v3.213c-10.351-2.39-21.387-8.372-26.386-18.6q-.06-.122-.117-.244c-.322-.681-.461-1.08-.465-1.09a2,2,0,0,0-3.8-.088c-.011.027-.025.052-.034.08a22.309,22.309,0,0,1-2.733,4.936l-.015.021c-.059.084-.121.169-.182.254-.045.061-.089.123-.135.185l-.063.084a34.272,34.272,0,0,1-7.937,7.636l-.065.045q-.248.173-.5.345-.22.147-.441.291l-.18.118a46.978,46.978,0,0,1-14.716,6.027V34.406h0ZM99.966,51.155V58.2a8.359,8.359,0,0,1,0-15.289Zm18.862,32.193c-8.158,0-14.8-6.929-14.8-15.446v-.165a34.936,34.936,0,0,0,2.694,4.3,33.811,33.811,0,0,0,8.453,8.1,32.467,32.467,0,0,0,5.511,2.966l.24.1c.116.048.23.1.347.145h-2.45Zm3.325-4.269a30.614,30.614,0,0,1-18.039-25.687c-.278-3.781-.082-7.639-.082-11.43,0-.13,5.851-1.538,6.405-1.726a45.851,45.851,0,0,0,6.684-2.878,40.306,40.306,0,0,0,14.951-13c.313-.47.595-.921.847-1.345a34.823,34.823,0,0,0,4.557,6q.2.214.413.431l.148.15A43.351,43.351,0,0,0,149.7,37.849a51.537,51.537,0,0,0,12.112,4.112c0,6.885.456,13.848-2.059,20.374A30.292,30.292,0,0,1,150.114,75.3a28.233,28.233,0,0,1-16.15,6A27.4,27.4,0,0,1,122.153,79.079ZM118.3,94.259h12.585V96.2a6.443,6.443,0,0,1-6.293,6.57h0A6.443,6.443,0,0,1,118.3,96.2Zm52.552,37.5H94.988V116.475c0-11.534,8.463-21.04,19.247-22.113V96.2a10.607,10.607,0,0,0,10.36,10.816,10.217,10.217,0,0,0,8.327-4.39,10.218,10.218,0,0,0,8.327,4.39A10.607,10.607,0,0,0,151.609,96.2V94.362c10.783,1.074,19.244,10.579,19.244,22.113v15.279Z" transform="translate(-90.921)"/>
      <path id="Path_7623" data-name="Path 7623" class="cls-8" d="M231.317,230.717a2.183,2.183,0,0,0,.469-2.962,1.979,1.979,0,0,0-2.838-.49c-1.908,1.427-5.4,2.313-9.126,2.313s-7.221-.887-9.128-2.314a1.978,1.978,0,0,0-2.838.489,2.184,2.184,0,0,0,.468,2.963c2.6,1.947,6.9,3.109,11.5,3.109S228.715,232.663,231.317,230.717Z" transform="translate(-177.82 -166.605)"/>
    </g>
  </g>
</svg>
