<svg xmlns="http://www.w3.org/2000/svg" viewBox="-3061 -5666.319 150 150.319">
  <defs>
    <style>
      .cls-1 {
        fill: #2dace2;
      }

      .cls-2 {
        fill: gray;
      }

      .cls-3 {
        fill: #00252c;
      }

      .cls-4 {
        fill: #9e9e9e;
      }

      .cls-5 {
        fill: #f5f5f5;
      }

      .cls-6 {
        fill: #ffb301;
      }

      .cls-7 {
        fill: #fec108;
      }

      .cls-8 {
        fill: #37474f;
      }

      .cls-9 {
        fill: #607d8b;
      }

      .cls-10 {
        fill: #00838f;
      }

      .cls-11 {
        fill: #00bcd4;
      }

      .cls-12 {
        stroke: #000;
        stroke-width: 3px;
      }
    </style>
  </defs>
  <g id="Group_5441" data-name="Group 5441" transform="translate(-3852 -7539)">
    <g id="Group_5415" data-name="Group 5415" transform="translate(127 25)">
      <path id="Path_7612" data-name="Path 7612" class="cls-1" d="M75,0A75,75,0,1,1,0,75,75,75,0,0,1,75,0Z" transform="translate(664 1848)"/>
      <circle id="Ellipse_182" data-name="Ellipse 182" class="cls-2" cx="60.239" cy="60.239" r="60.239" transform="translate(678.362 1862.362)"/>
      <circle id="Ellipse_183" data-name="Ellipse 183" class="cls-3" cx="49.468" cy="49.468" r="49.468" transform="translate(689.532 1873.532)"/>
    </g>
    <g id="Group_5414" data-name="Group 5414" transform="translate(61 785)">
      <g id="peanut-butter" transform="translate(766 1087.681)">
        <path id="Path_7582" data-name="Path 7582" class="cls-4" d="M185.349,89.71v11.118a40.289,40.289,0,0,0-37.207,0,37.474,37.474,0,0,1-18.6,4.531,37.474,37.474,0,0,1-18.6-4.531V89.71a4.376,4.376,0,0,1,4.377-4.377h65.66A4.376,4.376,0,0,1,185.349,89.71Z" transform="translate(-108.746 -63.446)"/>
        <path id="Path_7583" data-name="Path 7583" class="cls-5" d="M176.574,89.71v11.118a31.871,31.871,0,0,0-32.83,0,32,32,0,0,1-32.83,0V89.71a4.16,4.16,0,0,1,3.852-4.377h57.956A4.159,4.159,0,0,1,176.574,89.71Z" transform="translate(-108.726 -63.446)"/>
        <path id="Path_7584" data-name="Path 7584" d="M123.192,101.2a39.641,39.641,0,0,1-19.7-4.837,2.188,2.188,0,0,1-1.094-1.882V83.366a6.565,6.565,0,0,1,6.566-6.566h65.66a6.565,6.565,0,0,1,6.566,6.566V94.484a2.188,2.188,0,0,1-3.3,1.882,38.224,38.224,0,0,0-35.019,0A39.627,39.627,0,0,1,123.192,101.2Zm-16.415-8.01a36.143,36.143,0,0,0,16.415,3.633A35.213,35.213,0,0,0,140.7,92.6a39.409,39.409,0,0,1,19.7-4.859,41.733,41.733,0,0,1,16.415,3.173V83.366a2.189,2.189,0,0,0-2.189-2.189h-65.66a2.189,2.189,0,0,0-2.189,2.189Z" transform="translate(-102.4 -57.102)"/>
        <path id="Path_7585" data-name="Path 7585" class="cls-6" d="M185.348,132.53v15.146H110.933V132.53a37.474,37.474,0,0,0,18.6,4.531,37.474,37.474,0,0,0,18.6-4.531,37.217,37.217,0,0,1,18.6-4.552,41.043,41.043,0,0,1,9.783,1.138A31.483,31.483,0,0,1,185.348,132.53Z" transform="translate(-108.744 -95.148)"/>
        <path id="Path_7586" data-name="Path 7586" class="cls-7" d="M176.593,129.16v18.516h-65.66V132.53a37.474,37.474,0,0,0,18.6,4.531,37.474,37.474,0,0,0,18.6-4.531,37.217,37.217,0,0,1,18.6-4.552,41.043,41.043,0,0,1,9.783,1.138Z" transform="translate(-108.744 -95.148)"/>
        <path id="Path_7587" data-name="Path 7587" d="M179,143.522H104.589a2.189,2.189,0,0,1-2.189-2.189V126.188a2.189,2.189,0,0,1,3.283-1.882,35.212,35.212,0,0,0,17.509,4.224,35.213,35.213,0,0,0,17.509-4.224,42.358,42.358,0,0,1,39.4,0,2.187,2.187,0,0,1,1.072,1.882v15.146A2.189,2.189,0,0,1,179,143.522Zm-72.226-4.377h70.037V127.479a35.95,35.95,0,0,0-16.415-3.655,35.032,35.032,0,0,0-17.509,4.246,39.642,39.642,0,0,1-19.7,4.837,41.889,41.889,0,0,1-16.415-3.173Z" transform="translate(-102.4 -88.805)"/>
        <path id="Path_7588" data-name="Path 7588" class="cls-6" d="M185.348,426.667V437.61a8.755,8.755,0,0,1-8.755,8.755H119.689a8.755,8.755,0,0,1-8.755-8.755V426.667Z" transform="translate(-108.745 -317.234)"/>
        <path id="Path_7589" data-name="Path 7589" class="cls-7" d="M176.552,426.667V437.61a8.294,8.294,0,0,1-7.726,8.755H118.618a8.294,8.294,0,0,1-7.726-8.755V426.667Z" transform="translate(-108.704 -317.234)"/>
        <path id="Path_7590" data-name="Path 7590" d="M170.248,442.208h-56.9A10.944,10.944,0,0,1,102.4,431.265V420.322a2.189,2.189,0,0,1,2.189-2.189H179a2.189,2.189,0,0,1,2.189,2.189v10.943A10.944,10.944,0,0,1,170.248,442.208Zm-63.471-19.7v8.755a6.566,6.566,0,0,0,6.566,6.566h56.905a6.566,6.566,0,0,0,6.566-6.566h0V422.51Z" transform="translate(-102.4 -310.889)"/>
        <path id="Path_7591" data-name="Path 7591" class="cls-8" d="M119.688,8.533h56.905a8.755,8.755,0,0,1,8.755,8.755v6.566a4.376,4.376,0,0,1-4.377,4.377H115.31a4.376,4.376,0,0,1-4.377-4.377V17.288A8.755,8.755,0,0,1,119.688,8.533Z" transform="translate(-108.744 -6.344)"/>
        <path id="Path_7592" data-name="Path 7592" class="cls-9" d="M119.688,8.533h48.15a8.755,8.755,0,0,1,8.755,8.755v6.566a4.376,4.376,0,0,1-4.377,4.377h-56.9a4.376,4.376,0,0,1-4.377-4.377V17.288A8.755,8.755,0,0,1,119.688,8.533Z" transform="translate(-108.744 -6.344)"/>
        <path id="Path_7593" data-name="Path 7593" d="M174.626,24.075h-65.66a6.565,6.565,0,0,1-6.566-6.566V10.943A10.944,10.944,0,0,1,113.343,0h56.905a10.944,10.944,0,0,1,10.943,10.943v6.566A6.566,6.566,0,0,1,174.626,24.075Zm-61.282-19.7a6.565,6.565,0,0,0-6.566,6.566v6.566a2.189,2.189,0,0,0,2.189,2.189h65.66a2.189,2.189,0,0,0,2.189-2.189V10.943a6.565,6.565,0,0,0-6.566-6.566Z" transform="translate(-102.4)"/>
        <path id="Path_7594" data-name="Path 7594" d="M147.256,62.144a2.189,2.189,0,0,1-2.189-2.189V53.39a2.189,2.189,0,1,1,4.377,0v6.566A2.189,2.189,0,0,1,147.256,62.144Z" transform="translate(-134.124 -38.069)"/>
        <path id="Path_7595" data-name="Path 7595" d="M181.389,62.144a2.189,2.189,0,0,1-2.189-2.189V53.39a2.189,2.189,0,1,1,4.377,0v6.566A2.189,2.189,0,0,1,181.389,62.144Z" transform="translate(-159.502 -38.069)"/>
        <path id="Path_7596" data-name="Path 7596" d="M215.523,62.144a2.189,2.189,0,0,1-2.189-2.189V53.39a2.189,2.189,0,1,1,4.377,0v6.566A2.189,2.189,0,0,1,215.523,62.144Z" transform="translate(-184.881 -38.069)"/>
        <path id="Path_7597" data-name="Path 7597" d="M249.656,62.144a2.189,2.189,0,0,1-2.189-2.189V53.39a2.189,2.189,0,1,1,4.377,0v6.566A2.189,2.189,0,0,1,249.656,62.144Z" transform="translate(-210.26 -38.069)"/>
        <path id="Path_7598" data-name="Path 7598" d="M283.789,62.144a2.189,2.189,0,0,1-2.189-2.189V53.39a2.189,2.189,0,1,1,4.377,0v6.566A2.189,2.189,0,0,1,283.789,62.144Z" transform="translate(-235.638 -38.069)"/>
        <path id="Path_7599" data-name="Path 7599" d="M317.923,62.144a2.189,2.189,0,0,1-2.189-2.189V53.39a2.189,2.189,0,1,1,4.377,0v6.566A2.189,2.189,0,0,1,317.923,62.144Z" transform="translate(-261.017 -38.069)"/>
        <path id="Path_7600" data-name="Path 7600" d="M352.056,62.144a2.189,2.189,0,0,1-2.189-2.189V53.39a2.189,2.189,0,1,1,4.377,0v6.566A2.189,2.189,0,0,1,352.056,62.144Z" transform="translate(-286.396 -38.069)"/>
        <rect id="Rectangle_1239" data-name="Rectangle 1239" class="cls-10" width="74.414" height="56.905" transform="translate(2.189 52.528)"/>
        <rect id="Rectangle_1240" data-name="Rectangle 1240" class="cls-11" width="65.66" height="56.905" transform="translate(2.189 52.528)"/>
        <path id="Path_7601" data-name="Path 7601" d="M179,257.549H104.589a2.189,2.189,0,0,1-2.189-2.189V198.456a2.189,2.189,0,0,1,2.189-2.189H179a2.189,2.189,0,0,1,2.189,2.189v56.905A2.189,2.189,0,0,1,179,257.549Zm-72.226-4.377h70.037V200.644H106.777Z" transform="translate(-102.4 -145.928)"/>
        <path id="Path_7605" data-name="Path 7605" d="M147.287,465.187a2.189,2.189,0,0,1-2.014-3.02,1.974,1.974,0,0,1,1.182-1.182,2.119,2.119,0,0,1,2.845,1.182,1.854,1.854,0,0,1,.175.832,2.187,2.187,0,0,1-.635,1.554,2.547,2.547,0,0,1-.722.46A2.215,2.215,0,0,1,147.287,465.187Z" transform="translate(-134.155 -342.622)"/>
        <path id="Path_7606" data-name="Path 7606" d="M181.42,465.187a2.187,2.187,0,1,1,.832-4.2,2.057,2.057,0,0,1,.722.46,2.3,2.3,0,0,1,.635,1.554A2.189,2.189,0,0,1,181.42,465.187Z" transform="translate(-159.533 -342.622)"/>
        <path id="Path_7607" data-name="Path 7607" d="M215.554,465.176a2.188,2.188,0,1,1,2.013-3.02,2.213,2.213,0,0,1,.175.832,1.851,1.851,0,0,1-.175.832,2.548,2.548,0,0,1-.46.722A2.186,2.186,0,0,1,215.554,465.176Z" transform="translate(-184.912 -342.61)"/>
        <path id="Path_7608" data-name="Path 7608" d="M249.687,465.187a2.187,2.187,0,1,1,.832-4.2,1.974,1.974,0,0,1,1.182,1.182,2.189,2.189,0,0,1-2.013,3.02Z" transform="translate(-210.291 -342.622)"/>
        <path id="Path_7609" data-name="Path 7609" d="M283.788,465.187a2.187,2.187,0,0,1-1.554-.635,2.547,2.547,0,0,1-.46-.722A2.212,2.212,0,0,1,281.6,463a2.3,2.3,0,0,1,.635-1.554,2.025,2.025,0,0,1,.722-.46,2.182,2.182,0,1,1,.832,4.2Z" transform="translate(-235.637 -342.622)"/>
        <path id="Path_7610" data-name="Path 7610" d="M317.954,465.187a2.215,2.215,0,0,1-1.554-3.743,2.547,2.547,0,0,1,.722-.46,2.182,2.182,0,1,1,.832,4.2Z" transform="translate(-261.048 -342.622)"/>
        <path id="Path_7611" data-name="Path 7611" d="M352.058,465.215a2.187,2.187,0,0,1-1.554-.635,2.545,2.545,0,0,1-.46-.722,2.073,2.073,0,0,1,0-1.663,2.189,2.189,0,0,1,2.845-1.182,2.057,2.057,0,0,1,.722.46,2.2,2.2,0,0,1,.46.722,2.057,2.057,0,0,1,0,1.663,2.548,2.548,0,0,1-.46.722A2.186,2.186,0,0,1,352.058,465.215Z" transform="translate(-286.398 -342.65)"/>
      </g>
      <path id="Path_7581" data-name="Path 7581" class="cls-12" d="M46.153,6.931H43.681V3.159A3.163,3.163,0,0,0,40.522,0H3.159A3.163,3.163,0,0,0,0,3.159V21.926a3.163,3.163,0,0,0,3.159,3.159H40.522a3.163,3.163,0,0,0,3.159-3.159V18.154h2.472a2.108,2.108,0,0,0,2.106-2.106V9.037A2.108,2.108,0,0,0,46.153,6.931ZM33.248,22.979H3.159a1.054,1.054,0,0,1-1.053-1.053V3.159A1.054,1.054,0,0,1,3.159,2.106H33.248V22.979Zm7.274,0H35.354V2.106h5.168a1.054,1.054,0,0,1,1.053,1.053V21.926h0A1.054,1.054,0,0,1,40.522,22.979Zm5.631-6.931H43.681V9.037h2.472v7.01Z" transform="matrix(0.848, -0.53, 0.53, 0.848, 776.101, 1170.171)"/>
    </g>
  </g>
</svg>
