<svg xmlns="http://www.w3.org/2000/svg" viewBox="-3624 -4917.006 133.869 122.005">
  <defs>
    <style>
      .cls-1 {
        fill: #eac71c;
      }

      .cls-2 {
        fill: #ede21b;
      }

      .cls-3 {
        fill: #ef8229;
      }

      .cls-4 {
        fill: #f29f26;
      }

      .cls-5 {
        fill: #231f20;
      }

      .cls-6 {
        fill: #4eb9ff;
      }

      .cls-7 {
        fill: #01121c;
      }

      .cls-8 {
        fill: #ff0505;
        stroke: #000;
        stroke-width: 4px;
      }

      .cls-9 {
        stroke: none;
      }

      .cls-10 {
        fill: none;
      }
    </style>
  </defs>
  <g id="Group_5403" data-name="Group 5403" transform="translate(-3771.48 -7614.98)">
    <g id="sun" transform="translate(147.48 2697.974)">
      <path id="Path_7545" data-name="Path 7545" class="cls-1" d="M145.879,157.537a33.043,33.043,0,1,1,4.781-3.435" transform="translate(-76.283 -76.283)"/>
      <path id="Path_7546" data-name="Path 7546" class="cls-2" d="M208.108,102.676a32.848,32.848,0,0,0-19.741-6.555h0a33.191,33.191,0,0,0-5.789.508,36.216,36.216,0,0,0,19.289,62.6c.1-.044.195-.086.291-.13l.264-.123q.342-.162.681-.331l.2-.1q.429-.219.851-.449l.179-.1q.337-.187.67-.381l.126-.072.022-.015a33.078,33.078,0,0,0,4.754-3.416l0,0,.016-.014q.32-.277.634-.562l0,0q.307-.279.606-.566c.059-.057.117-.115.176-.172.14-.136.28-.272.417-.41.073-.073.144-.147.215-.221q.184-.188.364-.378c.076-.08.151-.162.227-.244q.17-.184.338-.369c.077-.086.153-.172.23-.259q.162-.184.32-.369.114-.133.227-.268.156-.186.309-.375c.074-.091.148-.182.221-.274.1-.128.2-.257.3-.387.07-.091.141-.182.21-.273.1-.135.2-.271.3-.408.065-.088.13-.176.193-.265.106-.149.21-.3.314-.449.054-.079.11-.157.164-.236q.2-.3.4-.6l.064-.1q.226-.352.442-.709c.044-.073.087-.147.13-.221.1-.166.2-.332.294-.5.054-.094.106-.189.159-.284.083-.149.167-.3.248-.449.056-.1.11-.208.164-.311.076-.144.151-.289.225-.434.055-.108.108-.216.161-.325.071-.144.141-.288.209-.433q.079-.166.156-.333.1-.217.2-.436.075-.169.148-.338.1-.221.187-.445c.046-.112.093-.224.138-.337.061-.153.121-.308.18-.462.042-.11.084-.219.125-.329.061-.164.119-.329.177-.495.035-.1.073-.2.108-.305.065-.193.128-.387.19-.581.024-.077.051-.153.074-.229q.127-.406.243-.817c.018-.062.033-.126.051-.188.059-.212.117-.425.171-.639.026-.1.05-.2.075-.306.043-.176.086-.352.126-.529.026-.115.05-.23.075-.345.036-.166.072-.333.105-.5.024-.121.047-.241.07-.363q.047-.245.09-.491c.021-.124.041-.247.061-.371q.04-.245.076-.492c.018-.125.036-.25.052-.375.023-.166.043-.332.063-.5.015-.125.029-.249.042-.374.018-.17.034-.34.05-.511.011-.122.023-.245.032-.367.014-.178.026-.356.037-.535.007-.116.015-.232.022-.348.011-.2.018-.4.025-.595,0-.1.009-.2.011-.294q.012-.446.012-.894a32.918,32.918,0,0,0-13.252-26.44Z" transform="translate(-135.536 -76.285)"/>
      <path id="Path_7547" data-name="Path 7547" class="cls-3" d="M180.833,146.236a24.941,24.941,0,1,1-3.865-4.474" transform="translate(-107.339 -107.338)"/>
      <path id="Path_7548" data-name="Path 7548" class="cls-4" d="M213.258,159.1q-.036-.852-.128-1.688c-.008-.069-.015-.138-.024-.207q-.1-.835-.253-1.653-.019-.1-.038-.2-.16-.816-.372-1.613c-.017-.064-.034-.128-.052-.192q-.219-.8-.488-1.568l-.064-.183q-.275-.771-.6-1.518l-.077-.175q-.329-.744-.7-1.463l-.088-.168q-.38-.714-.8-1.4-.05-.082-.1-.163a25.044,25.044,0,0,0-4.3-5.145l0,0-.018-.016c-.067-.061-.136-.121-.2-.182s-.152-.136-.229-.2-.143-.123-.215-.184l-.228-.193c-.073-.061-.148-.121-.222-.181l-.229-.185-.228-.178c-.077-.06-.154-.119-.232-.178l-.233-.173c-.078-.058-.156-.115-.235-.171l-.238-.169-.239-.166-.24-.162-.246-.162-.243-.156-.25-.156-.246-.15-.256-.151-.247-.143-.263-.147-.249-.137-.27-.142c-.083-.043-.165-.087-.248-.129s-.188-.094-.282-.14l-.243-.12c-.1-.048-.2-.095-.3-.142l-.228-.106c-.128-.058-.257-.113-.386-.169l-.153-.067q-.268-.114-.54-.221l-.21-.08c-.114-.044-.228-.088-.343-.13l-.237-.084c-.107-.038-.214-.077-.321-.113l-.252-.083c-.1-.034-.208-.069-.313-.1l-.26-.079-.311-.093-.265-.074-.312-.084-.269-.068-.313-.076-.272-.062-.317-.069-.274-.056-.319-.061-.276-.05-.325-.054-.275-.043c-.11-.017-.221-.032-.331-.046l-.273-.036c-.113-.014-.226-.026-.339-.039l-.271-.029c-.116-.011-.232-.021-.348-.031l-.265-.022c-.122-.009-.245-.016-.367-.023-.083,0-.167-.011-.25-.015-.136-.007-.273-.011-.41-.015l-.211-.008q-.31-.008-.621-.008h-.007q-.311,0-.621.008l-.211.008c-.137,0-.274.009-.41.015l-.25.015c-.122.007-.245.014-.367.023l-.265.022c-.116.01-.232.019-.348.031l-.271.029c-.113.012-.226.025-.338.039l-.273.036c-.111.015-.221.03-.331.046l-.275.043-.324.054-.276.05-.319.061-.274.056-.317.069-.272.062L182.3,136l-.269.068-.311.084-.266.074c-.1.03-.207.061-.311.093l-.26.079c-.105.033-.209.068-.313.1l-.252.083c-.108.037-.214.075-.322.113l-.237.084c-.115.042-.229.086-.343.13l-.21.08q-.271.107-.54.221l-.153.067c-.129.056-.258.111-.386.169l-.228.106c-.1.047-.2.094-.3.142-.082.039-.163.08-.244.12s-.188.092-.281.14-.166.086-.249.13l-.269.142-.249.137-.263.147-.247.143-.256.151-.246.15-.25.156-.243.156-.246.162-.24.162-.239.166-.238.169-.053.038a36.241,36.241,0,0,0,13.907,45.116c.223.006.446.014.671.014h0A24.89,24.89,0,0,0,213,163.967q.094-.619.158-1.247a25.168,25.168,0,0,0,.129-2.548c0-.287-.006-.572-.016-.857C213.264,159.244,213.261,159.173,213.258,159.1Z" transform="translate(-135.532 -107.341)"/>
      <g id="Group_5402" data-name="Group 5402">
        <path id="Path_7549" data-name="Path 7549" class="cls-5" d="M138.146,149.18a31.268,31.268,0,1,1,4.524-3.251,1.776,1.776,0,1,0,2.32,2.689,34.669,34.669,0,1,0-5.037,3.62,1.776,1.776,0,0,0-1.807-3.058Z" transform="translate(-69.454 -69.454)"/>
        <path id="Path_7550" data-name="Path 7550" class="cls-5" d="M153.339,130.195a23.084,23.084,0,0,1,15.6,6.048,1.776,1.776,0,1,0,2.395-2.623,26.662,26.662,0,1,0,4.14,4.791,1.776,1.776,0,1,0-2.943,1.988,23.146,23.146,0,1,1-19.193-10.2Z" transform="translate(-100.509 -100.508)"/>
        <path id="Path_7551" data-name="Path 7551" class="cls-5" d="M249.171,13.8a1.776,1.776,0,0,0,1.776-1.776V1.776a1.776,1.776,0,1,0-3.552,0V12.021A1.776,1.776,0,0,0,249.171,13.8Z" transform="translate(-196.34)"/>
        <path id="Path_7552" data-name="Path 7552" class="cls-5" d="M249.171,445.144a1.776,1.776,0,0,0-1.776,1.776v10.245a1.776,1.776,0,1,0,3.552,0V446.92A1.776,1.776,0,0,0,249.171,445.144Z" transform="translate(-196.34 -353.28)"/>
        <path id="Path_7553" data-name="Path 7553" class="cls-5" d="M129.059,44.681a1.776,1.776,0,1,0,3.076-1.776l-5.123-8.873a1.776,1.776,0,0,0-3.076,1.776Z" transform="translate(-98.171 -26.304)"/>
        <path id="Path_7554" data-name="Path 7554" class="cls-5" d="M349.581,419.536a1.776,1.776,0,1,0-3.076,1.776l5.123,8.873a1.776,1.776,0,0,0,3.076-1.776Z" transform="translate(-274.807 -332.252)"/>
        <path id="Path_7555" data-name="Path 7555" class="cls-5" d="M34.033,127.009l8.873,5.122a1.776,1.776,0,0,0,1.776-3.076l-8.873-5.123a1.776,1.776,0,0,0-1.776,3.076Z" transform="translate(-26.305 -98.168)"/>
        <path id="Path_7556" data-name="Path 7556" class="cls-5" d="M430.185,351.629l-8.873-5.123a1.776,1.776,0,1,0-1.776,3.076l8.873,5.123a1.776,1.776,0,0,0,1.776-3.076Z" transform="translate(-332.251 -274.809)"/>
        <path id="Path_7557" data-name="Path 7557" class="cls-5" d="M13.8,249.171a1.776,1.776,0,0,0-1.776-1.776H1.776a1.776,1.776,0,1,0,0,3.552H12.021A1.776,1.776,0,0,0,13.8,249.171Z" transform="translate(0 -196.34)"/>
        <path id="Path_7558" data-name="Path 7558" class="cls-5" d="M457.165,247.4H446.92a1.776,1.776,0,0,0,0,3.552h10.245a1.776,1.776,0,1,0,0-3.552Z" transform="translate(-353.28 -196.34)"/>
        <path id="Path_7559" data-name="Path 7559" class="cls-5" d="M42.9,346.506l-8.873,5.123a1.776,1.776,0,1,0,1.776,3.076l8.873-5.123a1.776,1.776,0,0,0-1.776-3.076Z" transform="translate(-26.303 -274.809)"/>
        <path id="Path_7560" data-name="Path 7560" class="cls-5" d="M420.425,132.373a1.769,1.769,0,0,0,.886-.238l8.873-5.123a1.776,1.776,0,1,0-1.776-3.076l-8.873,5.122a1.776,1.776,0,0,0,.89,3.314Z" transform="translate(-332.251 -98.171)"/>
        <path id="Path_7561" data-name="Path 7561" class="cls-5" d="M131.483,418.886a1.776,1.776,0,0,0-2.426.65l-5.123,8.873a1.776,1.776,0,1,0,3.076,1.776l5.123-8.873A1.776,1.776,0,0,0,131.483,418.886Z" transform="translate(-98.17 -332.252)"/>
        <path id="Path_7562" data-name="Path 7562" class="cls-5" d="M347.155,45.329a1.775,1.775,0,0,0,2.426-.65l5.123-8.873a1.776,1.776,0,0,0-3.076-1.776L346.5,42.9A1.776,1.776,0,0,0,347.155,45.329Z" transform="translate(-274.807 -26.303)"/>
      </g>
    </g>
    <g id="printing" transform="translate(227.616 2728.658)">
      <path id="Path_7538" data-name="Path 7538" class="cls-6" d="M11.584,142.973a24.11,24.11,0,1,0,48.22,0c0-15.344-24.11-54.8-24.11-54.8S11.584,127.63,11.584,142.973Z" transform="translate(-8.861 -85.452)"/>
      <g id="Group_5401" data-name="Group 5401">
        <path id="Path_7543" data-name="Path 7543" class="cls-7" d="M29.157,77.894a2.723,2.723,0,0,0-4.647,0C23.509,79.532,0,118.185,0,134.112a26.833,26.833,0,0,0,53.667,0C53.667,118.185,30.158,79.532,29.157,77.894Zm-2.324,77.6A21.411,21.411,0,0,1,5.446,134.112c0-10.731,13.794-36.515,21.387-49.486C34.426,97.6,48.22,123.376,48.22,134.112A21.411,21.411,0,0,1,26.833,155.5Z" transform="translate(0 -76.591)"/>
        <path id="Path_7544" data-name="Path 7544" class="cls-7" d="M117.135,309.684a2.723,2.723,0,0,0-2.723,2.723,9.143,9.143,0,0,1-9.133,9.132,2.723,2.723,0,1,0,0,5.447,14.6,14.6,0,0,0,14.579-14.579A2.723,2.723,0,0,0,117.135,309.684Z" transform="translate(-78.446 -254.886)"/>
      </g>
    </g>
    <g id="Rectangle_1235" data-name="Rectangle 1235" class="cls-8" transform="translate(183.583 2712.295) rotate(45)">
      <rect class="cls-9" width="138.261" height="14.027"/>
      <rect class="cls-10" x="2" y="2" width="134.261" height="10.027"/>
    </g>
  </g>
</svg>
