<svg xmlns="http://www.w3.org/2000/svg" viewBox="-3614 -4377 113 113.657">
  <defs>
    <style>
      .cls-1 {
        fill: #81bda4;
      }

      .cls-2 {
        fill: #e56a77;
      }

      .cls-3, .cls-4 {
        fill: #fff;
        font-family: OpenSans-ExtraboldItalic, Open Sans;
        font-weight: 800;
        font-style: italic;
      }

      .cls-3 {
        font-size: 35px;
      }

      .cls-4 {
        font-size: 28px;
      }
    </style>
  </defs>
  <g id="Group_5408" data-name="Group 5408" transform="translate(-3739 -7628)">
    <g id="scale" transform="translate(124.817 3251)">
      <g id="group-5svg" transform="translate(0.183)">
        <path id="path-1_25_" class="cls-1" d="M101.2,23.387h-19.1C80.526,12.625,70.686,3,58.748,3S36.969,12.625,35.4,23.387h-22.1c-3.948,0-7.124,3.7-7.124,7.645v73.54c0,3.962,3.162,6.7,7.124,6.7H101.2c3.946,0,7.225-2.759,7.225-6.7V31.031C108.421,27.085,105.142,23.387,101.2,23.387Z" transform="translate(4.579 2.381)"/>
        <path id="path-2_25_" class="cls-2" d="M59.939,25.441a16.95,16.95,0,1,1-16.95-16.95A16.951,16.951,0,0,1,59.939,25.441Z" transform="translate(20.338 6.739)"/>
        <path id="path-3_25_" d="M98.784,113.657H10.895c-5.605,0-10.712-4.906-10.712-10.292V29.825c0-5.646,5.539-9.438,10.712-9.438H30.774C33.583,8.785,44.382,0,56.335,0S79.088,8.785,81.9,20.387H98.784c5.311,0,9.018,3.881,9.018,9.438v73.54C107.8,109.232,103.924,113.657,98.784,113.657ZM10.895,25.768c-2.516,0-5.331,1.734-5.331,4.057v73.54c0,2.387,2.739,4.911,5.331,4.911H98.784c2.389,0,3.638-2.47,3.638-4.911V29.825c0-1.22-.353-4.057-3.638-4.057h-19.1a2.69,2.69,0,0,1-2.662-2.3C75.567,13.494,66.288,5.381,56.335,5.381S37.1,13.494,35.652,23.465a2.69,2.69,0,0,1-2.662,2.3Z" transform="translate(-0.183)"/>
        <path id="path-4_25_" d="M40.179,44.27A19.64,19.64,0,1,1,59.82,24.631,19.662,19.662,0,0,1,40.179,44.27Zm0-33.9a14.259,14.259,0,1,0,14.26,14.26A14.276,14.276,0,0,0,40.179,10.372Z" transform="translate(15.973 3.961)"/>
        <path id="path-5_25_" d="M32.3,23.16,27.59,10.588,36.861,20.3a2.746,2.746,0,1,1-3.971,3.794A2.839,2.839,0,0,1,32.3,23.16Z" transform="translate(21.569 8.403)"/>
      </g>
    </g>
    <g id="Group_5407" data-name="Group 5407" transform="translate(-45 116.815)">
      <text id="_20" data-name="20" class="cls-3" transform="translate(227 3212)"><tspan x="-20.303" y="0">20</tspan></text>
      <text id="kG" class="cls-4" transform="translate(226.525 3239.687)"><tspan x="-18.416" y="0">kG</tspan></text>
    </g>
  </g>
</svg>
