<svg xmlns="http://www.w3.org/2000/svg" viewBox="2767.249 28.915 18.972 24"><defs><style>.a{fill:#fff;}</style></defs><g transform="translate(2243.135 8.915)"><path class="a" d="M.779,24A.772.772,0,0,1,0,23.219V2.648a.771.771,0,0,1,.759-.781H4.22V.781A.772.772,0,0,1,5,0h9.334a.772.772,0,0,1,.779.781V1.867h3.1a.771.771,0,0,1,.759.781V23.219a.772.772,0,0,1-.779.781Zm16.634-1.562V3.429h-2.3V4.8a.772.772,0,0,1-.779.781H5A.772.772,0,0,1,4.22,4.8V3.429H1.559V22.438ZM13.554,4.019V1.562H5.779V4.019Zm-9.5,14.837a.781.781,0,0,1,0-1.562H9.676a.781.781,0,0,1-.019,1.562Zm0-3.771a.82.82,0,0,1-.1-.006.77.77,0,0,1-.679-.774h0a.77.77,0,0,1,.6-.761.809.809,0,0,1,.178-.02H15.284a.809.809,0,0,1,.178.02.77.77,0,0,1,.6.761h0a.77.77,0,0,1-.679.774.82.82,0,0,1-.1.006Zm0-3.791a.772.772,0,0,1-.779-.781.784.784,0,0,1,.779-.781H15.3a.781.781,0,0,1-.02,1.562Z" transform="translate(524.114 20)"/></g></svg>