<svg xmlns="http://www.w3.org/2000/svg" viewBox="3188.96 30.643 30.5 28.458"><defs><style>.a{fill:#fff;stroke:#fff;stroke-width:0.5px;}</style></defs><path class="a" d="M24.015,27.576l-.5-2a.5.5,0,0,1,.969-.244l.5,2a.5.5,0,0,1-.97.241ZM22,27.456v-1.5a.5.5,0,0,1,1,0v1.5a.5.5,0,0,1-1,0Zm-1.621.484a.5.5,0,0,1-.364-.606l.5-2a.5.5,0,0,1,.969.244l-.5,2a.5.5,0,0,1-.484.379A.5.5,0,0,1,20.379,27.94ZM21,23.461a1.493,1.493,0,0,1,1-1.4V9.757L16.294,7.631A2.423,2.423,0,0,1,15,7.987c-1.122,0-2-.658-2-1.5s.879-1.5,2-1.5,2,.657,2,1.5a1.194,1.194,0,0,1-.047.323l5.5,2.049,5.74-2.372L15,1.039,1.807,6.489,15,11.939l5.051-2.086a.5.5,0,1,1,.382.921l-5.242,2.166A.5.5,0,0,1,15,12.98a.487.487,0,0,1-.191-.039L.309,6.95a.5.5,0,0,1,0-.922l14.5-5.99a.49.49,0,0,1,.381,0l14.5,5.99a.5.5,0,0,1,0,.922L23,9.716v.9l6-2.465V7.987a.5.5,0,0,1,1,0v.5a.5.5,0,0,1-.309.462L23,11.7v6.192a5.1,5.1,0,0,0,1-1.508v-3.4a.5.5,0,0,1,1,0v3.493a.516.516,0,0,1-.027.164A6.089,6.089,0,0,1,23,19.223v2.835a1.495,1.495,0,1,1-2,1.4Zm1,0a.5.5,0,1,0,.5-.5A.5.5,0,0,0,22,23.461ZM14,6.489c0,.2.389.5,1,.5s1-.3,1-.5-.389-.5-1-.5S14,6.285,14,6.489ZM5.036,16.659A.513.513,0,0,1,5,16.473V12.98a.5.5,0,0,1,1,0v3.39c.287.625,2.291,4.379,8.5,4.576V16.473a.5.5,0,0,1,1,0v4.479a11.678,11.678,0,0,0,4.778-1.089.5.5,0,1,1,.443.894A12.849,12.849,0,0,1,15,21.963C7.251,21.963,5.123,16.875,5.036,16.659Zm9.774-1.721L.309,8.947A.5.5,0,0,1,0,8.486v-.5a.5.5,0,0,1,1,0v.167l14,5.782,5.307-2.193a.5.5,0,1,1,.383.922l-5.5,2.274a.511.511,0,0,1-.381,0Z" transform="translate(3189.21 30.896)"/></svg>