<svg xmlns="http://www.w3.org/2000/svg" viewBox="-224 -8592.813 52.402 59.93">
  <defs>
    <style>
      .cls-1 {
        fill: #fff;
      }
    </style>
  </defs>
  <path id="Path_7429" data-name="Path 7429" class="cls-1" d="M73.716,12.437A15.5,15.5,0,0,0,45.346,7.308a9.082,9.082,0,0,0-1.157-.073,8.858,8.858,0,0,0-8.843,8.843,9.773,9.773,0,0,0,.1,1.34A12.014,12.014,0,0,0,30.9,26.8a12.818,12.818,0,0,0,3.24,8.453A11.645,11.645,0,0,0,42.216,39.3H47.9a2.193,2.193,0,1,0,0-4.385H42.4c-3.861-.256-7.114-3.959-7.114-8.125a7.589,7.589,0,0,1,3.764-6.541A2.19,2.19,0,0,0,40,17.589a4.458,4.458,0,0,1,4.19-5.981,4.2,4.2,0,0,1,1.51.268,2.181,2.181,0,0,0,2.741-1.121A11.214,11.214,0,0,1,58.514,4.385,11.066,11.066,0,0,1,69.586,14.422,2.186,2.186,0,0,0,71.4,16.371a9.392,9.392,0,0,1-.865,18.539H57.1A2.2,2.2,0,0,0,54.908,37.1V52.438l-3.362-3.362a2.2,2.2,0,0,0-3.106,3.106l7.1,7.1a2.2,2.2,0,0,0,1.547.646,2.154,2.154,0,0,0,1.547-.646l7.1-7.1a2.2,2.2,0,1,0-3.106-3.106l-3.338,3.362V39.3H70.78a13.29,13.29,0,0,0,8.9-4.4,13.805,13.805,0,0,0-5.969-22.461Z" transform="translate(-254.9 -8592.813)"/>
</svg>
