<?xml version="1.0" encoding="utf-8"?>
<!-- Generator: Adobe Illustrator 21.1.0, SVG Export Plug-In . SVG Version: 6.00 Build 0)  -->
<svg version="1.1" id="Layer_1" xmlns="http://www.w3.org/2000/svg" xmlns:xlink="http://www.w3.org/1999/xlink" x="0px" y="0px"
	 viewBox="0 0 56 34" style="enable-background:new 0 0 56 34;" xml:space="preserve">
<style type="text/css">
	.st0{fill:#FFFFFF;stroke:#FFFFFF;stroke-width:0.5;}
	.st1{opacity:9.500000e-02;fill:#FFFFFF;enable-background:new    ;}
	.st2{opacity:4.600000e-02;fill:#FFFFFF;enable-background:new    ;}
</style>
<g transform="translate(-10655 -8739)">
	<g transform="translate(216.188 -30.057)">
		<path class="st0" d="M10452.6,8802.9c-0.1,0-0.1,0-0.2,0c-0.3-0.1-0.4-0.4-0.3-0.7c0,0,0,0,0,0l3.4-8.4c0.1-0.2,0.3-0.4,0.5-0.4
			h5.2c0.3,0,0.6,0.2,0.6,0.6c0,0,0,0,0,0c0,0.3-0.3,0.5-0.6,0.5h-0.8c-0.4,0.7-0.5,1.6-0.2,2.3c0.5,1,2,1.2,3.2,1.3
			c0.9,0.1,1.9,0.1,2.8,0.1c2.2,0,4.3,0.2,6.5,0.7c1.8,0.5,2.8,1.5,2.9,2.8h3.7l-3.5-7.3h-4.8c-0.3,0-0.6-0.2-0.6-0.6c0,0,0,0,0,0
			c0-0.3,0.3-0.5,0.6-0.5h5.1c0.2,0,0.4,0.1,0.5,0.3l4,8.4c0.1,0.3,0,0.6-0.3,0.7c-0.1,0-0.2,0.1-0.2,0.1L10452.6,8802.9z
			 M10453.4,8801.8h21c-0.2-0.8-0.8-1.4-2.1-1.7c-2-0.4-4.1-0.7-6.2-0.7c-0.9,0-1.8-0.1-2.8-0.1c-2.1-0.1-3.5-0.8-4.1-1.9
			c-0.4-0.9-0.4-1.9,0-2.8h-2.8L10453.4,8801.8z M10465.7,8797.1c-0.3-0.3-7.3-7.6-7.3-13.3c0-4.3,3.4-7.8,7.7-7.8
			c4.3,0,7.8,3.4,7.8,7.7c0,0.1,0,0.1,0,0.2c0,5.7-7,13-7.3,13.3c-0.1,0.1-0.3,0.2-0.4,0.2
			C10466,8797.3,10465.8,8797.2,10465.7,8797.1L10465.7,8797.1z M10459.5,8783.8c0,4.6,5.1,10.5,6.6,12.1c1.5-1.7,6.6-7.6,6.6-12.1
			c0.1-3.7-2.8-6.7-6.5-6.8c-3.7-0.1-6.7,2.8-6.8,6.5C10459.5,8783.6,10459.5,8783.7,10459.5,8783.8z M10462.4,8784.1
			c0-2.1,1.7-3.7,3.8-3.7c2,0,3.6,1.7,3.7,3.7c0,2.1-1.7,3.7-3.8,3.7C10464,8787.7,10462.4,8786.1,10462.4,8784.1z M10463.5,8784.1
			c0,1.4,1.1,2.6,2.5,2.6c1.4,0,2.6-1.1,2.6-2.5c0-1.4-1.1-2.6-2.5-2.6c0,0,0,0-0.1,0C10464.7,8781.5,10463.6,8782.7,10463.5,8784.1
			C10463.5,8784.1,10463.5,8784.1,10463.5,8784.1z"/>
	</g>
	<path class="st1" d="M10663,8741.4l-3.3-2.3c-3.1,4.6-4.7,10-4.7,15.5c0,5.5,1.6,10.9,4.7,15.5l3.3-2.3
		C10657.6,8759.9,10657.6,8749.5,10663,8741.4L10663,8741.4z"/>
	<path class="st2" d="M10669.7,8745.8l-3.3-2.3c-4.5,6.7-4.5,15.5,0,22.2l3.3-2.3C10666.1,8758.2,10666.1,8751.2,10669.7,8745.8z"/>
	<path class="st2" d="M10699.7,8743.6l-3.3,2.3c3.6,5.3,3.6,12.4,0,17.7l3.3,2.3c2.2-3.3,3.4-7.1,3.4-11.1
		C10703,8750.8,10701.8,8746.9,10699.7,8743.6z"/>
	<path class="st1" d="M10706.3,8739.2l-3.3,2.3c5.4,8,5.4,18.5,0,26.6l3.3,2.3c3.1-4.6,4.7-10,4.7-15.5
		C10711,8749.2,10709.4,8743.7,10706.3,8739.2z"/>
</g>
</svg>
