<?xml version="1.0" encoding="utf-8"?>
<!-- Generator: Adobe Illustrator 21.1.0, SVG Export Plug-In . SVG Version: 6.00 Build 0)  -->
<svg version="1.1" id="Layer_1" xmlns="http://www.w3.org/2000/svg" xmlns:xlink="http://www.w3.org/1999/xlink" x="0px" y="0px"
	 viewBox="0 0 34 38" style="enable-background:new 0 0 34 38;" xml:space="preserve">
<style type="text/css">
	.st0{fill:#FFFFFF;}
</style>
<g transform="translate(-10791 -8848)">
	<path class="st0" d="M10819.2,8875.9v-23h-3c-0.6,0-1-0.4-1-1c0-0.6,0.4-1,1-1h8.5l-3.7,25H10819.2z"/>
	<g transform="translate(996.972 20.565)">
		<path class="st0" d="M9801.5,8827.9c-2.3,0-4.1,1.8-4.1,4.1s1.8,4.1,4.1,4.1h0c2.3,0,4.1-1.8,4.1-4.1
			C9805.6,8829.7,9803.8,8827.9,9801.5,8827.9z M9801.5,8834.1c-1.2,0-2.1-1-2.1-2.1c0-1.2,1-2.1,2.1-2.1h0c1.2,0,2.1,1,2.1,2.1
			C9803.6,8833.2,9802.7,8834.1,9801.5,8834.1z"/>
		<path class="st0" d="M9808,8862.8c0,0.5-0.4,1-1,1h-2.7c0,0-0.1,0-0.1,0c0,0,0,0,0,0c0,0,0,0-0.1,0c0,0,0,0,0,0c0,0,0,0-0.1,0
			c0,0,0,0,0,0c0,0,0,0,0,0c0,0,0,0,0,0c0,0,0,0,0,0c0,0,0,0,0,0c0,0,0,0,0,0c0,0,0,0,0,0l0,0l0,0c0,0,0,0,0,0c0,0,0,0,0,0
			c0,0,0,0,0,0c0,0,0,0,0,0c0,0,0,0,0-0.1c0,0,0-0.1,0-0.1c0,0,0,0,0,0c0,0,0,0,0-0.1c0,0,0,0,0,0c0,0,0,0,0-0.1c0,0,0,0,0,0
			c0,0,0,0,0-0.1v-0.1l-2-15.1c-0.1-0.5,0.3-1,0.9-1.1c0.5-0.1,1,0.3,1.1,0.8l1.9,14.3h1.8C9807.6,8861.8,9808,8862.2,9808,8862.8z"
			/>
		<path class="st0" d="M9800.8,8852.7l-3.1,9.1h1.3c0.5,0,1,0.4,1,1s-0.4,1-1,1h-2.8c0,0-0.1,0-0.1,0s0,0,0,0c0,0,0,0-0.1,0
			c0,0,0,0,0,0h0c0,0,0,0,0,0c0,0,0,0-0.1,0c0,0,0,0,0,0c0,0,0,0,0,0c0,0,0,0,0,0c0,0,0,0,0,0c0,0,0,0-0.1,0c0,0,0,0,0,0l0,0l0,0
			c0,0,0,0,0,0c0,0,0,0,0,0c0,0,0,0,0,0c0,0,0,0,0,0c0,0,0,0,0,0c0,0,0,0,0,0c0,0,0,0,0,0c0,0,0,0,0,0c0,0,0,0,0,0c0,0,0,0,0-0.1
			c0,0,0,0,0,0c0,0,0,0,0,0c0,0,0,0,0-0.1v-0.2c0,0,0,0,0,0c0,0,0,0,0-0.1c0,0,0,0,0,0c0,0,0,0,0-0.1v0l3.5-10.4
			c0.2-0.5,0.7-0.8,1.2-0.6l0,0C9800.6,8851.6,9800.9,8852.2,9800.8,8852.7z"/>
		<path class="st0" d="M9818.4,8846.1v2.4c0,0.3-0.2,0.5-0.5,0.5c0,0.2-0.1,0.3-0.3,0.3h-0.2c-0.2,0-0.3-0.1-0.3-0.3l0,0
			c-0.3,0-0.5-0.2-0.5-0.5v-2.4c0-0.3,0.2-0.5,0.5-0.5h0.7C9818.2,8845.6,9818.4,8845.8,9818.4,8846.1L9818.4,8846.1L9818.4,8846.1z
			"/>
		<path class="st0" d="M9818.4,8852.1v2.4c0,0.3-0.2,0.5-0.5,0.5c0,0.2-0.1,0.3-0.3,0.3h-0.2c-0.2,0-0.3-0.1-0.3-0.3l0,0
			c-0.3,0-0.5-0.2-0.5-0.5v-2.4c0-0.3,0.2-0.5,0.5-0.5h0.7C9818.2,8851.6,9818.4,8851.8,9818.4,8852.1L9818.4,8852.1z"/>
		<path class="st0" d="M9813,8843.6c0.1-0.1,0.1-0.3,0-0.4l-0.2-0.1c-0.1-0.1-0.3-0.1-0.4,0c-0.2-0.2-0.5-0.1-0.7,0.1l-0.7,0.8
			l-3.4-1.2l-0.2-0.4c-0.8-2-1.9-4.2-3.9-5c-0.2-0.1-0.4-0.2-0.6-0.2c-1-0.1-1.9-0.1-2.9,0c-0.1,0-0.3,0.1-0.4,0.1l0,0
			c-2.3,0.7-3.7,2.9-4.9,5l-0.3,0.5c-0.1,0.3-0.2,0.6-0.1,0.8l1.7,4.5c0.2,0.4,0.7,0.7,1.2,0.5c0,0,0,0,0,0c0.5-0.2,0.8-0.7,0.6-1.2
			l-1.5-4.1l0-0.1c0.7-1.5,1.8-2.9,3.2-3.9l0,0c0.2-0.2,0.4-0.3,0.7-0.3c0.8-0.1,1.6-0.1,2.4,0c0.3,0.1,0.7,0.3,0.9,0.5l0,0
			c1,1,1.7,2.2,2.1,3.5l0.5,1.2l4.1,1.5l0,0l0.2,0.3c0,0,0,0,0,0c0.1,0.1,0.2,0.1,0.3,0.1c0.2,0.2,0.5,0.1,0.7-0.1l1-1.3l0.1-0.1
			l0,0c0,0,0-0.1,0.1-0.1l0.4-0.5C9813.2,8844.1,9813.2,8843.8,9813,8843.6z"/>
		<path class="st0" d="M9814.8,8841.9c0,0,0.1-0.1,0.1-0.1c0.3-0.1,0.7-0.2,1.1-0.2c0.1,0,0.2-0.1,0.2-0.2c0-0.2,0.1-0.3,0.3-0.3
			c0.3,0,0.5-0.1,0.8-0.1c0.3,0,0.5,0,0.8,0.1c0.2,0,0.3,0.1,0.3,0.3c0,0.1,0.1,0.2,0.2,0.2c0.4,0.1,0.7,0.1,1.1,0.2
			c0.1,0,0.1,0,0.1,0.1c0.1,0.1,0.1,0.2,0,0.2c0,0,0,0,0,0c0,0-0.1,0.1-0.1,0.1c-0.4,0.1-0.8,0.2-1.2,0.2c-0.4,0-0.7,0.1-1.1,0.1
			l0,0c-0.4,0-0.7,0-1.1-0.1c-0.4,0-0.8-0.1-1.2-0.2c0,0-0.1,0-0.1-0.1C9814.7,8842.1,9814.7,8842.1,9814.8,8841.9
			C9814.7,8841.9,9814.7,8841.9,9814.8,8841.9L9814.8,8841.9z"/>
		<path class="st0" d="M9821.3,8862.2L9821.3,8862.2c-0.3-0.2-0.5-0.3-0.8-0.4c0.2-0.2,0.3-0.5,0.4-0.8l0-17.5c0-0.1,0-0.2,0-0.3
			c0-0.2-0.1-0.5-0.3-0.6c-0.2-0.1-0.4-0.2-0.7-0.1c0,0-0.1,0-0.1,0c-0.1,0-0.2,0.1-0.2,0.1l-0.1,0l-0.4,0.1
			c-0.6,0.1-1.1,0.2-1.7,0.2h-0.4c-0.6,0-1.1-0.1-1.7-0.2l-0.4-0.1l-0.1,0c-0.1,0-0.2,0-0.2-0.1c0,0,0,0-0.1,0
			c-0.2-0.1-0.5,0-0.7,0.1c-0.2,0.1-0.3,0.4-0.3,0.6c0,0.1,0,0.2,0,0.3l0,17.5c0,0.3,0.2,0.6,0.4,0.8c-0.3,0.1-0.6,0.2-0.8,0.4
			c-0.3,0.2-0.5,0.5-0.5,0.9c0,0.4,0.2,0.7,0.5,0.9c0.2,0.1,0.3,0.3,0.5,0.3l0.1,0.1c0.3,0.1,0.6,0.2,0.9,0.3
			c0.8,0.2,1.6,0.3,2.4,0.2h0.1c0.8,0,1.6-0.1,2.4-0.2c0.3-0.1,0.6-0.2,0.9-0.3l0.1-0.1c0.2-0.1,0.4-0.2,0.5-0.3
			c0.3-0.2,0.5-0.6,0.5-0.9C9821.8,8862.7,9821.6,8862.4,9821.3,8862.2z M9819.7,8844.7c0,0.8,0,15.7,0,16l0,0
			c0,0.1-0.1,0.2-0.1,0.3c-0.1,0.1-0.2,0.1-0.3,0.2l0.1-0.9c0-0.2-0.1-0.5-0.4-0.5c0-0.2-0.1-0.3-0.2-0.3l-0.2,0
			c-0.2,0-0.3,0.1-0.3,0.2c-0.2,0-0.5,0.2-0.5,0.4l-0.1,0.8l-0.4-0.6c-0.1-0.2-0.3-0.2-0.5-0.1c-0.1-0.1-0.2-0.1-0.3-0.1
			c0,0,0,0,0,0l0,0l-0.1,0.1c-0.1,0.1-0.1,0.2-0.1,0.3c-0.1,0.1-0.2,0.3-0.1,0.4l-0.1-0.1c-0.2-0.1-0.4-0.1-0.6,0.1c0,0,0,0,0,0
			l-0.1,0.2c-0.1-0.1-0.2-0.1-0.3-0.2c-0.1-0.1-0.1-0.2-0.1-0.3c0-0.2,0-15.2,0-16c0-0.3,0-0.6,0-0.9c0.8,0.3,1.6,0.4,2.5,0.4
			c0.8,0,1.7-0.1,2.5-0.4C9819.7,8844.1,9819.7,8844.4,9819.7,8844.7L9819.7,8844.7z"/>
		<path class="st0" d="M9820,8861.7h-5.8v-5.5c0.9,0.6,1.9,0.8,2.9,0.8c1,0,2-0.3,2.9-0.8V8861.7z"/>
	</g>
</g>
</svg>
