<svg xmlns="http://www.w3.org/2000/svg" viewBox="3011.657 29.654 25.5 24.796"><defs><style>.a{fill:#fff;stroke:#fff;stroke-width:0.5px;}</style></defs><g transform="translate(2261.907 8.905)"><path class="a" d="M12.328,24.255l-12-4.462A.5.5,0,0,1,0,19.321V4.964a.5.5,0,0,1,.213-.411.553.553,0,0,1,.113-.059l12-4.462a.5.5,0,0,1,.345,0l12,4.462a.5.5,0,0,1,.325.47V19.321a.5.5,0,0,1-.325.471l-12,4.462h0a.482.482,0,0,1-.172.032A.512.512,0,0,1,12.328,24.255ZM13,9.776V23.064L24,18.972V5.684Zm-12,9.2L12,23.064V9.776l-2.39-.889V14.6a.5.5,0,0,1-.213.412.5.5,0,0,1-.284.09.518.518,0,0,1-.173-.031l-5.378-2a.5.5,0,0,1-.325-.471V6.517L1,5.684Zm3.237-6.724,4.382,1.629V8.517L4.233,6.887ZM9.286,3.693l5.378,2a.5.5,0,0,1,0,.942L10.547,8.166l1.953.726L23.064,4.964,12.5,1.037,1.937,4.964l1.793.667L8.941,3.693a.5.5,0,0,1,.345,0ZM5.174,6.163l3.94,1.466,3.939-1.466L9.114,4.7ZM15.221,20.628a.5.5,0,0,1,.294-.644l.22-.082a.5.5,0,0,1,.344.942l-.219.083a.5.5,0,0,1-.639-.3Zm1.643-.61a.5.5,0,0,1,.3-.645l5.179-1.925a.5.5,0,0,1,.639.3.5.5,0,0,1-.294.645L17.5,20.313a.493.493,0,0,1-.172.031A.5.5,0,0,1,16.863,20.017Zm1.087-2.449a.5.5,0,0,1,.294-.643L22.338,15.4a.5.5,0,0,1,.639.3.5.5,0,0,1-.294.645l-4.093,1.522a.5.5,0,0,1-.639-.3Zm0-2.023a.5.5,0,0,1,.294-.645l4.093-1.522a.5.5,0,0,1,.345.942l-4.093,1.522a.5.5,0,0,1-.639-.3Z" transform="translate(750 21)"/></g></svg>