<svg xmlns="http://www.w3.org/2000/svg" viewBox="-13314.756 -4202.22 46.86 46.855"><defs><style>.a{fill:#ffae41;}</style></defs><path class="a" d="M23.053,0A23.519,23.519,0,0,0-.013,22.81,23.262,23.262,0,0,0,5.249,38.2a1.468,1.468,0,0,1,0,1.874L1.681,44.362A1.531,1.531,0,0,0,2.87,46.849H23.413A23.428,23.428,0,1,0,23.053,0Zm.36,43.789H6.186l1.442-1.73a4.56,4.56,0,0,0,.036-5.766A20.362,20.362,0,0,1,23.089,3.059h.324a20.363,20.363,0,0,1,0,40.726Zm.757-11.137a2.275,2.275,0,0,1,0,3.027,1.94,1.94,0,0,1-1.406.613,1.96,1.96,0,0,1-1.442-.613,2.275,2.275,0,0,1,0-3.027,1.929,1.929,0,0,1,1.442-.577A1.9,1.9,0,0,1,24.17,32.649Zm6.487-16.074a5.892,5.892,0,0,1-.469,2.487,5.731,5.731,0,0,1-1.153,1.8c-.469.5-1.081,1.045-1.8,1.694a18.852,18.852,0,0,0-1.658,1.55,6.061,6.061,0,0,0-1.009,1.55,5.1,5.1,0,0,0-.432,2.126H21.467a6.918,6.918,0,0,1,.432-2.559,5.842,5.842,0,0,1,1.081-1.8,18.824,18.824,0,0,1,1.694-1.658,12.16,12.16,0,0,0,2.054-2.2,4.274,4.274,0,0,0,.649-2.451,3.162,3.162,0,0,0-1.117-2.631,4.636,4.636,0,0,0-3.063-.9,4.461,4.461,0,0,0-3.1,1.009,4.056,4.056,0,0,0-1.225,2.919l-2.739-.036a6.793,6.793,0,0,1,2.09-5.046,7.412,7.412,0,0,1,5.262-1.8,8.024,8.024,0,0,1,5.19,1.55A5.091,5.091,0,0,1,30.657,16.575Z" transform="translate(-13314.736 -4202.214)"/></svg>