<svg xmlns="http://www.w3.org/2000/svg" viewBox="-13512.555 -4198.252 62.637 38.887"><defs><style>.a{fill:#ffae41;}</style></defs><g transform="translate(-14724.555 -4830)"><path class="a" d="M38.025,33.331h-20.5a6.482,6.482,0,0,1-12.831,0H2.777A2.786,2.786,0,0,1,0,30.553V2.777A2.786,2.786,0,0,1,2.777,0H44.441a3.317,3.317,0,0,1,2.315,1.019l8.055,8.888a2.93,2.93,0,0,1,.834,2.129V30.553a3,3,0,0,1-2.87,2.778H50.857a6.482,6.482,0,0,1-12.831,0Zm1.787-.926a4.629,4.629,0,1,0,4.629-4.63A4.583,4.583,0,0,0,39.813,32.406Zm-33.331,0a4.629,4.629,0,1,0,4.63-4.63A4.584,4.584,0,0,0,6.481,32.406Zm44.376-.926h1.825a.927.927,0,0,0,.926-.926V23.147h-.353a.926.926,0,0,1,0-1.852h.353V16.666H44.583a1.623,1.623,0,0,1-1.575-1.575V5.277A1.623,1.623,0,0,1,44.583,3.7h2.1L45.368,2.222a1.959,1.959,0,0,0-.927-.37H2.777a1,1,0,0,0-.926.926c.04,10.192.118,21.295,0,27.776a.928.928,0,0,0,.926.926H4.63a6.478,6.478,0,0,1,6.388-5.555h.093a6.435,6.435,0,0,1,6.416,5.555H37.868a6.478,6.478,0,0,1,6.388-5.555l.1,0,.089,0A6.434,6.434,0,0,1,50.857,31.48Zm-6-16.666h8.747v-2.87a1,1,0,0,0-.37-.833L50.614,8.148,48.238,5.555H44.86ZM43.725,32.2a.926.926,0,1,1,.926.926A.929.929,0,0,1,43.725,32.2Zm-33.331-.1a1.03,1.03,0,1,1,1.031,1.03A1.034,1.034,0,0,1,10.394,32.092Zm11.49-9.183v0a.581.581,0,0,1-.173-.425v-1.1a.254.254,0,0,0-.078-.185.259.259,0,0,0-.189-.077.247.247,0,0,0-.183.075.25.25,0,0,0-.075.187v1.1a.565.565,0,0,1-.18.421.587.587,0,0,1-.423.173.559.559,0,0,1-.411-.172A.6.6,0,0,1,20,22.481v-1.1a.267.267,0,0,0-.076-.189.234.234,0,0,0-.176-.077.268.268,0,0,0-.192.074.244.244,0,0,0-.081.188v1.115a.586.586,0,0,1-.592.595.561.561,0,0,1-.416-.176.582.582,0,0,1-.174-.427V20.688a.595.595,0,0,1,.6-.6.861.861,0,0,1,.445.226l.115-.074a1.782,1.782,0,0,1,.315-.106,1.458,1.458,0,0,1,.326-.046,1.209,1.209,0,0,1,.4.066,1.664,1.664,0,0,1,.4.218l.156-.08a1.714,1.714,0,0,1,.748-.2,1.105,1.105,0,0,1,.775.29.94.94,0,0,1,.316.717v1.387a.586.586,0,0,1-.174.427.6.6,0,0,1-.845,0Zm11.545,0a.576.576,0,0,1-.18-.425V21.365a.3.3,0,0,0-.079-.213.273.273,0,0,0-.21-.087.3.3,0,0,0-.214.087.283.283,0,0,0-.091.215V22.48a.59.59,0,0,1-.6.6.566.566,0,0,1-.419-.172.588.588,0,0,1-.17-.428v-1.8a.594.594,0,0,1,.17-.419.561.561,0,0,1,.419-.178.818.818,0,0,1,.47.289l.153-.108a1.338,1.338,0,0,1,.653-.181,1.135,1.135,0,0,1,.794.293.924.924,0,0,1,.324.72v1.372a.591.591,0,0,1-.171.428.553.553,0,0,1-.418.178h-.011A.6.6,0,0,1,33.429,22.906Zm3.826-.246a1.345,1.345,0,0,1-.486-1.079,1.38,1.38,0,0,1,.458-1.052,1.678,1.678,0,0,1,2.209-.018,1.218,1.218,0,0,1,.468.94.412.412,0,0,1-.111.322.59.59,0,0,1-.376.094H38.02a1.129,1.129,0,0,0,.151.137.587.587,0,0,0,.143.066,1.207,1.207,0,0,0,.326.039,2.165,2.165,0,0,0,.231-.01,2.017,2.017,0,0,0,.221-.047c.092-.024.166-.041.219-.05a.83.83,0,0,1,.132-.016.435.435,0,0,1,.307.125.381.381,0,0,1,.133.285.427.427,0,0,1-.044.188.673.673,0,0,1-.16.2,1.156,1.156,0,0,1-.447.2,2.633,2.633,0,0,1-.7.09l-.089,0A1.915,1.915,0,0,1,37.254,22.66Zm.776-1.368h.643c-.029-.212-.131-.316-.306-.316S38.085,21.08,38.03,21.292ZM28.577,22.66h0a1.343,1.343,0,0,1-.487-1.079,1.377,1.377,0,0,1,.458-1.052,1.676,1.676,0,0,1,2.208-.018,1.216,1.216,0,0,1,.469.94.412.412,0,0,1-.112.322.586.586,0,0,1-.375.094h-1.4a1.13,1.13,0,0,0,.151.137.586.586,0,0,0,.143.066,1.207,1.207,0,0,0,.326.039,2.195,2.195,0,0,0,.233-.01,1.981,1.981,0,0,0,.219-.047c.091-.024.163-.041.22-.05a.8.8,0,0,1,.131-.016.44.44,0,0,1,.308.125.39.39,0,0,1,.131.285.427.427,0,0,1-.044.188.666.666,0,0,1-.158.2,1.152,1.152,0,0,1-.448.2,2.633,2.633,0,0,1-.7.09l-.089,0A1.9,1.9,0,0,1,28.577,22.66Zm1.415-1.368c-.029-.212-.13-.316-.307-.316s-.281.1-.335.316Zm-.642,0h0ZM16.216,23.07a1.3,1.3,0,0,1-.979-.422,1.448,1.448,0,0,1-.4-1.031,1.55,1.55,0,0,1,.409-1.082,1.3,1.3,0,0,1,.993-.448,1.135,1.135,0,0,1,.357.044,1.123,1.123,0,0,1,.312.2.937.937,0,0,1,.491-.247.577.577,0,0,1,.418.168.555.555,0,0,1,.171.422v1.794a.581.581,0,0,1-.171.422.569.569,0,0,1-.423.176.936.936,0,0,1-.486-.249,1.038,1.038,0,0,1-.309.2,1.212,1.212,0,0,1-.336.048Zm-.08-1.8a.532.532,0,0,0-.111.351.47.47,0,0,0,.116.322.384.384,0,0,0,.574-.005.539.539,0,0,0,0-.668.383.383,0,0,0-.583,0Zm8.455,1.751h0a1.264,1.264,0,0,1-.328-.225.854.854,0,0,1-.471.256.553.553,0,0,1-.41-.172.566.566,0,0,1-.173-.422V19.422a.577.577,0,0,1,.169-.415.551.551,0,0,1,.414-.174.594.594,0,0,1,.43.172.568.568,0,0,1,.176.423V20.2a1.547,1.547,0,0,1,.293-.091,1.512,1.512,0,0,1,.263-.024,1.335,1.335,0,0,1,1,.417,1.45,1.45,0,0,1,.4,1.044,1.535,1.535,0,0,1-.4,1.075,1.267,1.267,0,0,1-.974.445h-.053A1.145,1.145,0,0,1,24.591,23.022Zm.463-1.1a.47.47,0,0,0,.115-.328.5.5,0,0,0-.113-.334.359.359,0,0,0-.287-.133.368.368,0,0,0-.293.133h0a.488.488,0,0,0-.12.338.458.458,0,0,0,.12.325.374.374,0,0,0,.288.128A.367.367,0,0,0,25.054,21.925Zm10.166.966a.6.6,0,0,1-.173-.429V21.12H35a.519.519,0,0,1-.373-.149.489.489,0,0,1-.156-.365.445.445,0,0,1,.149-.336.526.526,0,0,1,.37-.138h.053v-.246a.606.606,0,0,1,.6-.6.559.559,0,0,1,.419.18.6.6,0,0,1,.176.431v.24h.069a.491.491,0,0,1,.351.143.459.459,0,0,1,.15.344.485.485,0,0,1-.145.351.475.475,0,0,1-.357.15H36.24V22.46a.6.6,0,0,1-1.021.431ZM26.8,22.9h0a.57.57,0,0,1-.173-.423V20.692a.56.56,0,0,1,.179-.42.594.594,0,0,1,.426-.173.561.561,0,0,1,.419.178.59.59,0,0,1,.173.425v1.766a.6.6,0,0,1-.6.6h-.015A.572.572,0,0,1,26.8,22.9ZM5.156,21.177V14.831c0,1.033,1.608,1.869,3.593,1.869,1.84,0,3.358-.718,3.568-1.646-.218.924-1.731,1.638-3.566,1.638-1.984,0-3.593-.835-3.593-1.868l0-8.451C5.156,5.341,6.765,4.5,8.749,4.5s3.593.837,3.593,1.869v8.452c0,.019,0,.039,0,.057v6.3c0,1.031-1.609,1.866-3.594,1.866S5.156,22.208,5.156,21.177Zm.8-7.936a.636.636,0,0,0,.056.484,3.086,3.086,0,0,0,2.733,1.359,3.09,3.09,0,0,0,2.734-1.359.638.638,0,1,0-1.115-.619,1.86,1.86,0,0,1-1.62.7,1.855,1.855,0,0,1-1.617-.7.636.636,0,0,0-.866-.248h0A.636.636,0,0,0,5.96,13.241Zm3.251-.583a.64.64,0,0,0,.189-.469v-.658h.651a.631.631,0,0,0,.462-.187A.615.615,0,0,0,10.7,10.9a.6.6,0,0,0-.2-.453.64.64,0,0,0-.469-.189H9.4V9.6a.646.646,0,0,0-.188-.462.6.6,0,0,0-.449-.194.638.638,0,0,0-.47.187.63.63,0,0,0-.188.461v.644H7.441a.61.61,0,0,0-.462.19.652.652,0,0,0,.465,1.11h.662v.662a.643.643,0,0,0,.186.464.6.6,0,0,0,.448.19A.648.648,0,0,0,9.211,12.658ZM8.748,8.193c1.7,0,3.08-.718,3.08-1.6s-1.377-1.6-3.079-1.6-3.08.717-3.08,1.6h0C5.669,7.474,7.047,8.193,8.748,8.193ZM27.227,19.987a.637.637,0,0,1-.63-.635.6.6,0,0,1,.185-.441.625.625,0,0,1,1.071.452.63.63,0,0,1-.618.624Zm11.519-1.064a.912.912,0,0,1-.667-.279h0a.924.924,0,0,1-.281-.679V13.573a2.88,2.88,0,0,0,1.617-.563,2.125,2.125,0,0,0,.221-.2.926.926,0,0,1,.054.312v4.841a.935.935,0,0,1-.276.673.9.9,0,0,1-.656.285Zm-18.633-.741a2.321,2.321,0,0,1,0-3.383,2.668,2.668,0,0,1,3.573,0,2.334,2.334,0,0,1,.007,3.383,2.679,2.679,0,0,1-3.58,0Zm2.272-1.1a.826.826,0,0,0,.188-.568.787.787,0,0,0-.2-.544.615.615,0,0,0-.474-.22.6.6,0,0,0-.471.216.8.8,0,0,0-.191.548.837.837,0,0,0,.186.56.594.594,0,0,0,.476.22A.612.612,0,0,0,22.385,17.08ZM25.1,18.589a.931.931,0,0,1-.273-.684V15.059a.925.925,0,0,1,.273-.664.88.88,0,0,1,.661-.282,1.3,1.3,0,0,1,.747.458l.246-.174a2.1,2.1,0,0,1,1.035-.284,1.812,1.812,0,0,1,1.261.462,1.478,1.478,0,0,1,.513,1.143V17.9a.947.947,0,0,1-.271.679.89.89,0,0,1-.663.281.955.955,0,0,1-.692-.277.91.91,0,0,1-.285-.676V16.14a.469.469,0,0,0-.127-.338.433.433,0,0,0-.331-.138.466.466,0,0,0-.338.138.445.445,0,0,0-.146.34v1.765a.942.942,0,0,1-.949.954h-.018A.9.9,0,0,1,25.1,18.589Zm-7.732.254a2.491,2.491,0,0,1-1.667-.467,2.95,2.95,0,0,1-.76-.927,2.195,2.195,0,0,1-.222-.955,2.143,2.143,0,0,1,.739-1.653,2.61,2.61,0,0,1,1.825-.668,2.739,2.739,0,0,1,1.332.27.859.859,0,0,1,.263,1.348.775.775,0,0,1-.584.229,1.062,1.062,0,0,1-.161-.008,2.869,2.869,0,0,1-.335-.084,1.89,1.89,0,0,0-.523-.078.691.691,0,0,0-.483.179.592.592,0,0,0-.2.458.632.632,0,0,0,.2.49.77.77,0,0,0,.543.188.758.758,0,0,0,.09,0,1.032,1.032,0,0,0,.148-.032l.323-.057.382-.043a.842.842,0,0,1,.595.222.731.731,0,0,1,.238.558q0,1.035-1.744,1.035Zm17.855,0a3.021,3.021,0,0,1-2.02-.65,2.131,2.131,0,0,1-.772-1.711,2.189,2.189,0,0,1,.726-1.671,2.661,2.661,0,0,1,3.5-.03,1.931,1.931,0,0,1,.742,1.493.637.637,0,0,1-.178.509.9.9,0,0,1-.594.153H34.421a1.561,1.561,0,0,0,.241.216.831.831,0,0,0,.226.106,2.005,2.005,0,0,0,.518.058,3.378,3.378,0,0,0,.367-.016,2.542,2.542,0,0,0,.348-.073c.146-.039.261-.066.348-.081a1.019,1.019,0,0,1,.208-.025.673.673,0,0,1,.486.2.608.608,0,0,1,.208.451.7.7,0,0,1-.067.3,1.007,1.007,0,0,1-.254.317,1.821,1.821,0,0,1-.707.313,4.2,4.2,0,0,1-1.094.144Zm-.789-2.823h1.019c-.046-.333-.207-.5-.483-.5S34.522,15.687,34.438,16.019Zm1.13-2.9q-.782-.394-.781-1a.83.83,0,0,1,.281-.634.974.974,0,0,1,.675-.259,1.627,1.627,0,0,1,.372.035,5.128,5.128,0,0,1,.49.163,4.657,4.657,0,0,0,.533.177,1.518,1.518,0,0,0,.326.045c.2,0,.309-.056.309-.166,0-.125-.181-.227-.542-.309l-1.068-.319a1.841,1.841,0,0,1-.871-.6,1.46,1.46,0,0,1-.31-.935,1.7,1.7,0,0,1,.749-1.438,3.265,3.265,0,0,1,1.973-.545,3.64,3.64,0,0,1,1.637.329c.437.222.658.5.658.827a.794.794,0,0,1-.255.595.9.9,0,0,1-.65.242,2.843,2.843,0,0,1-.539-.088l-.32-.089-.424-.093a1.3,1.3,0,0,0-.226-.027c-.177,0-.265.051-.265.154s.147.205.441.286l.9.285a2.493,2.493,0,0,1,1.091.706,1.548,1.548,0,0,1,.4,1.035,1.763,1.763,0,0,1-.739,1.444,3.007,3.007,0,0,1-1.884.571l-.144,0A4.322,4.322,0,0,1,35.568,13.122Zm-9.441.385a1.184,1.184,0,0,1-.872-.364,1.2,1.2,0,0,1-.365-.881V5.957a1.142,1.142,0,0,1,.365-.849,1.224,1.224,0,0,1,.882-.354,1.164,1.164,0,0,1,.853.358,1.184,1.184,0,0,1,.36.865v6.285a1.217,1.217,0,0,1-.36.876,1.153,1.153,0,0,1-.845.369Zm4.718-.013a2.747,2.747,0,0,1-2.042-.861,2.9,2.9,0,0,1-.838-2.1,3.106,3.106,0,0,1,.854-2.207,2.73,2.73,0,0,1,2.072-.909,2.393,2.393,0,0,1,.742.087,2.429,2.429,0,0,1,.653.416,1.975,1.975,0,0,1,1.027-.5,1.219,1.219,0,0,1,.87.338,1.124,1.124,0,0,1,.358.861v3.66a1.17,1.17,0,0,1-.358.86,1.186,1.186,0,0,1-.882.361,1.957,1.957,0,0,1-1.015-.513h0a2.215,2.215,0,0,1-.643.415,2.506,2.506,0,0,1-.7.1ZM30.678,9.82a1.063,1.063,0,0,0-.233.72.916.916,0,0,0,.244.654.8.8,0,0,0,1.2-.012.967.967,0,0,0,.244-.674,1.012,1.012,0,0,0-.234-.687.766.766,0,0,0-.612-.27h-.023A.763.763,0,0,0,30.678,9.82ZM22.12,13.13h0a1.186,1.186,0,0,1-.358-.874V8.586a1.15,1.15,0,0,1,.369-.863,1.217,1.217,0,0,1,.875-.359,1.172,1.172,0,0,1,.867.37,1.216,1.216,0,0,1,.356.874v3.637a1.239,1.239,0,0,1-2.109.886Zm-7.05-.019a1.293,1.293,0,0,1-.361-.935V6.847a1.433,1.433,0,0,1,.346-1.006,1.186,1.186,0,0,1,.92-.38h2.383a3.082,3.082,0,0,1,2.17.793,2.608,2.608,0,0,1,.859,2,2.626,2.626,0,0,1-.87,2.064,3.31,3.31,0,0,1-2.287.777h-.988v1.1a1.274,1.274,0,0,1-1.287,1.288h-.022A1.179,1.179,0,0,1,15.07,13.11ZM17.244,8.9H18.27a.622.622,0,0,0,.439-.166.6.6,0,0,0,0-.847.594.594,0,0,0-.439-.176H17.244ZM23,7.134a1.278,1.278,0,0,1-.911-.386h0a1.267,1.267,0,0,1-.385-.926,1.3,1.3,0,0,1,2.222-.907,1.291,1.291,0,0,1,.368.931,1.234,1.234,0,0,1-.381.907,1.278,1.278,0,0,1-.909.38ZM7.239,6.145c0-.431.675-.785,1.51-.785s1.51.354,1.51.785-.676.787-1.51.787S7.239,6.579,7.239,6.145Z" transform="translate(1218.991 631.748)"/><rect class="a" width="7.947" height="2.271" rx="1.135" transform="translate(1212 660.417)"/><rect class="a" width="7.947" height="2.271" rx="1.135" transform="translate(1215.406 663.823)"/></g></svg>