<svg xmlns="http://www.w3.org/2000/svg" viewBox="-3595 -5313.82 853 65.82">
  <defs>
    <style>
      .cls-1 {
        fill: #23d5f5;
      }

      .cls-2, .cls-3 {
        stroke: none;
      }

      .cls-3 {
        fill: #00252c;
      }
    </style>
  </defs>
  <g id="Subtraction_33" data-name="Subtraction 33" class="cls-1" transform="translate(-7518.087 -12864.511)">
    <path class="cls-2" d="M 4764.5283203125 7613.01025390625 L 3941.82275390625 7613.01025390625 L 3971.55859375 7589.720703125 L 3975.07666015625 7586.96533203125 L 3971.55859375 7584.2099609375 L 3933.231201171875 7554.1904296875 L 4765.94140625 7554.1904296875 L 4731.2021484375 7581.3994140625 L 4727.68408203125 7584.15478515625 L 4731.2021484375 7586.91015625 L 4764.5283203125 7613.01025390625 Z"/>
    <path class="cls-3" d="M 4754.3828125 7609.51025390625 L 4729.04443359375 7589.666015625 L 4722.0078125 7584.1552734375 L 4729.0439453125 7578.64404296875 L 4755.79638671875 7557.6904296875 L 3943.3759765625 7557.6904296875 L 3973.716796875 7581.45458984375 L 3980.7529296875 7586.96533203125 L 3973.716552734375 7592.47607421875 L 3951.9677734375 7609.51025390625 L 4754.3828125 7609.51025390625 M 4774.6728515625 7616.51025390625 L 3931.677734375 7616.51025390625 L 3969.400390625 7586.96533203125 L 3923.08642578125 7550.6904296875 L 4776.0859375 7550.6904296875 L 4733.3603515625 7584.15478515625 L 4774.6708984375 7616.5078125 L 4774.6728515625 7616.51025390625 Z"/>
  </g>
</svg>
