<?xml version="1.0" encoding="utf-8"?>
<!-- Generator: Adobe Illustrator 21.1.0, SVG Export Plug-In . SVG Version: 6.00 Build 0)  -->
<svg version="1.1" id="Layer_1" xmlns="http://www.w3.org/2000/svg" xmlns:xlink="http://www.w3.org/1999/xlink" x="0px" y="0px"
	 viewBox="0 0 1920 197" style="enable-background:new 0 0 1920 197;" xml:space="preserve">
<style type="text/css">
	.st0{fill:#81D02B;}
	.st1{fill:#277451;}
	.st2{fill:url(#SVGID_1_);}
</style>
<g>
	<g transform="translate(632.006 890.882)">
		<path class="st0" d="M-632-693.9h1920v-197c-5.4,0-10.8,0-16.2,0c-199.7,0-357.2,20.2-497.7,42c-22.4,3.5-44.1,6.9-65.1,10.3
			c-106.2,17-197.9,31.7-284.8,31.7h-1.1c-50-0.1-93.1-8.7-147.8-19.7c-94.4-18.9-223.8-44.8-486.8-48.6
			c-234.5,2.7-299.6,21-402,82.7c-8.4,5-13.9,10-16.6,14.7h-1.9v6.1c0,0.1,0,0.3,0,0.4h0V-693.9z"/>
	</g>
	<g transform="translate(632.006 890.882)">
		<path class="st1" d="M1288-693.9v-96.4c-59.4-34.4-175.5-51.2-355.1-51.2c-169.1,0-262,14-369.5,30.2
			c-109.6,16.5-233.9,35.2-467.4,40.5c-8.3,0.2-16.8,0.3-25.3,0.3c-81.1,0-185.3-6.3-396-51.7c-18.3-4-36.1-7.9-53.4-11.7
			c-97.6-21.5-181.9-40.1-246.5-40.1c-2.2,0-4.5,0-6.7,0.1v180H1288z"/>
	</g>
	<g transform="translate(632.006 890.882)">
		
			<linearGradient id="SVGID_1_" gradientUnits="userSpaceOnUse" x1="212.6141" y1="-346.1227" x2="212.6071" y2="-345.1747" gradientTransform="matrix(1920.0049 0 0 -879.913 -407879.5625 -304524.7188)">
			<stop  offset="0" style="stop-color:#FEFFF9"/>
			<stop  offset="1" style="stop-color:#D0D5C7"/>
		</linearGradient>
		<path class="st2" d="M1288-693.9V-798c-95.1,6.1-184.8,9-274.1,9c-202.2,0-369.3-16.1-503.5-29l-15.7-1.5
			C348-833.6,209.5-846.9,45-846.9h-3.3c-186.5,0.2-422.8,18.1-648.1,49.2c-8.5,1.2-17.1,2.4-25.6,3.6v100.2H1288z"/>
	</g>
</g>
</svg>
