<?xml version="1.0" encoding="utf-8"?>
<!-- Generator: Adobe Illustrator 21.1.0, SVG Export Plug-In . SVG Version: 6.00 Build 0)  -->
<svg version="1.1" id="Layer_1" xmlns="http://www.w3.org/2000/svg" xmlns:xlink="http://www.w3.org/1999/xlink" x="0px" y="0px"
	 viewBox="0 0 1920 146" style="enable-background:new 0 0 1920 146;" xml:space="preserve">
<style type="text/css">
	.st0{fill:#81D02B;}
	.st1{fill:#277451;}
	.st2{fill:url(#SVGID_1_);}
</style>
<g transform="translate(1990 2213)">
	<g transform="translate(-224.996 -2303)">
		<path class="st0" d="M155,236V89.6c-5.4-0.1-10.8-0.1-16.2-0.1c-199.7,0-357.2,28-497.7,58.3c-22.5,4.9-44.1,9.6-65.1,14.3
			c-106.2,23.6-198,44-284.8,44h-1.1c-49.9-0.1-93.1-12.1-147.8-27.3c-94.4-26.3-223.8-62.2-486.8-67.5
			c-234.5,3.8-299.6,29.2-402,114.8c-8.3,7.1-13.9,3.4-16.6,9.9h-1.9v-10.5L155,236z"/>
	</g>
	<g transform="translate(-224.994 -2303)">
		<path class="st1" d="M154.9,236v-45.8C95.6,155.7-20.6,139-200.2,139c-169.1,0-261.9,14-369.5,30.2
			c-109.7,16.5-233.9,35.2-467.4,40.5c-8.3,0.2-16.8,0.3-25.3,0.3c-81.1,0-185.2-6.2-396-51.7c-18.3-4-36.1-7.9-53.4-11.7
			c-97.6-21.5-181.9-40.1-246.5-40.1c-2.2,0-4.5,0.1-6.7,0.1V236H154.9z"/>
	</g>
	
		<linearGradient id="SVGID_1_" gradientUnits="userSpaceOnUse" x1="-2476.2046" y1="-2591.6741" x2="-2476.2097" y2="-2592.3662" gradientTransform="matrix(1919.994 0 0 677.9 4753276.5 1755221.375)">
		<stop  offset="0" style="stop-color:#FEFFF9"/>
		<stop  offset="1" style="stop-color:#D0D5C7"/>
	</linearGradient>
	<path class="st2" d="M-344.1-2102.7c-202.1,0-369.2-18.5-503.5-33.3l-15.7-1.7c-146.7-16.3-285.2-31.6-449.7-31.6h-3.3
		c-186.5,0.2-422.7,20.9-648.1,56.6c-8.6,1.3-17.2,2.7-25.6,4.1v41.6H-70v-46.1C-165.1-2106.1-254.8-2102.7-344.1-2102.7z"/>
</g>
</svg>
