<svg xmlns="http://www.w3.org/2000/svg" viewBox="2470 199.23 639.1 114.41"><defs><style>.a,.b,.c{fill:#ffae41;}.a{opacity:0.982;}.b{opacity:0.786;}.c{opacity:0.562;}</style></defs><g transform="translate(1830 -105.004)"><path class="a" d="M306.094,71.553c1.29-1.358,2.037-2.1,3.191-3.394-2.308.339-4.073.611-6.178.95.475.611.815,1.018,1.358,1.7-10.794,1.358-21.452,2.648-32.043,4.073-16.7,2.24-33.4,4.481-50.033,6.924-7.468,1.086-14.867,2.919-22.335,4.073-3.191.475-6.721-.611-9.844-.068-8.35,1.561-16.632,3.734-24.982,5.363a50.4,50.4,0,0,1-9.64.679c-.679,0-1.629-1.629-1.969-2.648-3.055-9.911-6.042-19.891-8.825-29.87-.611-2.24-1.629-2.715-3.8-2.58-24.914,1.561-49.829,3.055-74.811,4.616-3.937.272-7.875.815-11.812.95-3.6.136-7.332-.475-10.93-.2-4.345.339-8.622,1.29-12.966,1.9a47.033,47.033,0,0,1-6.178.272,31.139,31.139,0,0,0-5.024-.068c-1.222.2-2.24,1.358-3.462,1.629a18.275,18.275,0,0,1-5.77,0c2.24-.339,4.481-.747,6.653-1.086v-.815C15,63.542,13.3,63.2,11.67,62.727c-7.332-2.1-11.4-7.2-11.677-14.867C-.21,41,1.758,34.69,4.881,28.716c.543-1.018,2.512-1.833,3.87-1.833,5.635-.2,11.269.272,16.9-.136,18.94-1.426,37.813-3.123,56.753-4.684,12.491-1.086,24.982-2.1,37.473-3.191,13.577-1.154,27.155-2.24,40.664-3.666,4.888-.543,9.64-2.037,14.46-3.055a14.822,14.822,0,0,1,2.987-.272c8.079-.272,16.225-.407,24.3-.747Q243.639,9.4,284.982,7.6c21.249-.95,42.429-1.833,63.678-3.326C357.077,3.666,365.5,1.494,374.185,0c.068,2.919,1.969,3.937,5.092,2.919,1.222,8.282,2.444,16.157,3.6,24.236,76.78-3.937,153.22-8.35,229.593-14.324-.883.272-1.765.611-2.58.883v.815a39.973,39.973,0,0,0,6.381-.068c1.9-.339,3.666-1.494,5.5-2.24.2.272.407.475.611.747-1.426,3.055-2.715,6.11-4.345,9.029Q610.4,35.742,602.488,49.422a5.445,5.445,0,0,1-3.6,2.376c-8.961,1.018-17.99,1.765-26.951,2.783-3.8.407-7.535,1.358-11.337,1.765-3.734.339-7.535.136-11.269.339-9.368.475-18.737,1.086-28.105,1.561-7.468.407-14.867.679-22.335,1.086-2.172.136-4.413-.068-6.381.611-5.838,2.037-11.948,1.018-18.4,1.629.611,1.018,1.086,1.765,1.629,2.648-.2.136-.475.407-.747.339-1.358-.272-2.715-1.154-3.937-.95-9.233,1.765-18.465-1.086-27.766.068-9.5,1.154-19.212.883-28.784,1.358-9.5.475-18.94,1.018-28.445,1.561-20.3,1.222-40.6,2.376-60.894,3.6C318.993,70.6,312.951,71.077,306.094,71.553Z" transform="translate(640.021 318.871)"/><path class="b" d="M271.3,63.419c1.143-1.2,1.805-1.865,2.828-3.009-2.046.3-3.61.542-5.475.842.421.542.722.9,1.2,1.5-9.567,1.2-19.014,2.347-28.4,3.61-14.8,1.986-29.6,3.971-44.346,6.137-6.619.963-13.177,2.587-19.8,3.61-2.828.421-5.957-.542-8.725-.06-7.4,1.384-14.742,3.309-22.143,4.753a44.674,44.674,0,0,1-8.544.6c-.6,0-1.444-1.444-1.745-2.347-2.708-8.785-5.355-17.63-7.822-26.475-.542-1.986-1.444-2.407-3.37-2.286C102.883,51.686,80.8,53.01,58.658,54.394c-3.49.241-6.98.722-10.47.842-3.189.12-6.5-.421-9.687-.181-3.851.3-7.642,1.143-11.493,1.685a41.687,41.687,0,0,1-5.475.241,27.6,27.6,0,0,0-4.453-.06c-1.083.181-1.986,1.2-3.069,1.444a16.2,16.2,0,0,1-5.114,0c1.986-.3,3.971-.662,5.9-.963V56.68c-1.5-.361-3.009-.662-4.453-1.083C3.842,53.732.232,49.219-.008,42.42A34.087,34.087,0,0,1,4.324,25.452a4.468,4.468,0,0,1,3.43-1.625c4.994-.181,9.988.241,14.982-.12,16.788-1.264,33.515-2.768,50.3-4.152,11.071-.963,22.143-1.865,33.214-2.828,12.034-1.023,24.068-1.986,36.042-3.249,4.332-.481,8.544-1.805,12.816-2.708a13.137,13.137,0,0,1,2.647-.241c7.16-.241,14.381-.361,21.541-.662q36.644-1.534,73.287-3.129c18.833-.842,37.606-1.625,56.44-2.948C316.487,3.249,323.948,1.324,331.65,0c.06,2.587,1.745,3.49,4.513,2.587,1.083,7.341,2.166,14.321,3.189,21.481,68.052-3.49,135.8-7.4,203.5-12.7-.782.241-1.564.542-2.286.782v.722a35.429,35.429,0,0,0,5.656-.06c1.685-.3,3.249-1.324,4.874-1.986.18.241.361.421.542.662-1.264,2.708-2.407,5.415-3.851,8Q541.012,31.68,534,43.8a4.826,4.826,0,0,1-3.189,2.106c-7.942.9-15.945,1.564-23.888,2.467-3.37.361-6.679,1.2-10.048,1.564-3.309.3-6.679.12-9.988.3-8.3.421-16.607.963-24.911,1.384-6.619.361-13.177.6-19.8.963-1.925.12-3.911-.06-5.656.542-5.175,1.805-10.59.9-16.306,1.444.542.9.963,1.564,1.444,2.347-.181.12-.421.361-.662.3-1.2-.241-2.407-1.023-3.49-.842-8.183,1.564-16.366-.963-24.61.06-8.424,1.023-17.028.782-25.512,1.2-8.424.421-16.788.9-25.211,1.384-17.991,1.083-35.982,2.106-53.973,3.189C282.732,62.577,277.376,63,271.3,63.419Z" transform="translate(727.468 337.234)"/><path class="c" d="M271.3,63.419c1.143-1.2,1.805-1.865,2.828-3.009-2.046.3-3.61.542-5.475.842.421.542.722.9,1.2,1.5-9.567,1.2-19.014,2.347-28.4,3.61-14.8,1.986-29.6,3.971-44.346,6.137-6.619.963-13.177,2.587-19.8,3.61-2.828.421-5.957-.542-8.725-.06-7.4,1.384-14.742,3.309-22.143,4.753a44.674,44.674,0,0,1-8.544.6c-.6,0-1.444-1.444-1.745-2.347-2.708-8.785-5.355-17.63-7.822-26.475-.542-1.986-1.444-2.407-3.37-2.286C102.883,51.686,80.8,53.01,58.658,54.394c-3.49.241-6.98.722-10.47.842-3.189.12-6.5-.421-9.687-.181-3.851.3-7.642,1.143-11.493,1.685a41.687,41.687,0,0,1-5.475.241,27.6,27.6,0,0,0-4.453-.06c-1.083.181-1.986,1.2-3.069,1.444a16.2,16.2,0,0,1-5.114,0c1.986-.3,3.971-.662,5.9-.963V56.68c-1.5-.361-3.009-.662-4.453-1.083C3.842,53.732.232,49.219-.008,42.42A34.087,34.087,0,0,1,4.324,25.452a4.468,4.468,0,0,1,3.43-1.625c4.994-.181,9.988.241,14.982-.12,16.788-1.264,33.515-2.768,50.3-4.152,11.071-.963,22.143-1.865,33.214-2.828,12.034-1.023,24.068-1.986,36.042-3.249,4.332-.481,8.544-1.805,12.816-2.708a13.137,13.137,0,0,1,2.647-.241c7.16-.241,14.381-.361,21.541-.662q36.644-1.534,73.287-3.129c18.833-.842,37.606-1.625,56.44-2.948C316.487,3.249,323.948,1.324,331.65,0c.06,2.587,1.745,3.49,4.513,2.587,1.083,7.341,2.166,14.321,3.189,21.481,68.052-3.49,135.8-7.4,203.5-12.7-.782.241-1.564.542-2.286.782v.722a35.429,35.429,0,0,0,5.656-.06c1.685-.3,3.249-1.324,4.874-1.986.18.241.361.421.542.662-1.264,2.708-2.407,5.415-3.851,8Q541.012,31.68,534,43.8a4.826,4.826,0,0,1-3.189,2.106c-7.942.9-15.945,1.564-23.888,2.467-3.37.361-6.679,1.2-10.048,1.564-3.309.3-6.679.12-9.988.3-8.3.421-16.607.963-24.911,1.384-6.619.361-13.177.6-19.8.963-1.925.12-3.911-.06-5.656.542-5.175,1.805-10.59.9-16.306,1.444.542.9.963,1.564,1.444,2.347-.181.12-.421.361-.662.3-1.2-.241-2.407-1.023-3.49-.842-8.183,1.564-16.366-.963-24.61.06-8.424,1.023-17.028.782-25.512,1.2-8.424.421-16.788.9-25.211,1.384-17.991,1.083-35.982,2.106-53.973,3.189C282.732,62.577,277.376,63,271.3,63.419Z" transform="translate(710.468 304.234)"/></g></svg>