<svg xmlns="http://www.w3.org/2000/svg" viewBox="-11825.678 -6233 45.006 61.218"><defs><style>.a{fill:#fff;}</style></defs><path class="a" d="M-3580,61.218a5,5,0,0,1-5-5V5a5,5,0,0,1,5-5h22.693a1.21,1.21,0,0,1,.856.354l16.1,16.1a1.21,1.21,0,0,1,.354.856V56.221a5,5,0,0,1-5,5ZM-3582.58,5V56.221A2.581,2.581,0,0,0-3580,58.8h35.01a2.581,2.581,0,0,0,2.578-2.578v-37.7h-11.107a5,5,0,0,1-5-5V2.42H-3580A2.581,2.581,0,0,0-3582.58,5Zm26.481,8.528a2.58,2.58,0,0,0,2.578,2.578h9.4L-3556.1,4.132Zm-16.077,35.836a1.21,1.21,0,0,1-1.21-1.21,1.21,1.21,0,0,1,1.21-1.21h13.066a1.21,1.21,0,0,1,1.21,1.21,1.21,1.21,0,0,1-1.21,1.21Zm0-5.4a1.21,1.21,0,0,1-1.21-1.21,1.21,1.21,0,0,1,1.21-1.21h19.357a1.21,1.21,0,0,1,1.21,1.21,1.21,1.21,0,0,1-1.21,1.21Zm0-5.4a1.21,1.21,0,0,1-1.21-1.21,1.21,1.21,0,0,1,1.21-1.21h19.357a1.21,1.21,0,0,1,1.21,1.21,1.21,1.21,0,0,1-1.21,1.21Zm0-5.4a1.21,1.21,0,0,1-1.21-1.21,1.21,1.21,0,0,1,1.21-1.21h19.357a1.21,1.21,0,0,1,1.21,1.21,1.21,1.21,0,0,1-1.21,1.21Z" transform="translate(-8240.678 -6233)"/></svg>