<svg xmlns="http://www.w3.org/2000/svg" viewBox="-14021.651 -2048.275 38.532 48.745"><defs><style>.a{fill:#fff;}</style></defs><path class="a" d="M1.583,48.745A1.567,1.567,0,0,1,0,47.158V5.378A1.567,1.567,0,0,1,1.541,3.792h7.03v-2.2A1.567,1.567,0,0,1,10.154,0H29.111a1.567,1.567,0,0,1,1.583,1.587v2.2h6.3a1.567,1.567,0,0,1,1.541,1.586v41.78a1.567,1.567,0,0,1-1.583,1.587Zm33.783-3.173V6.964H30.694V9.748a1.567,1.567,0,0,1-1.583,1.587H10.154A1.567,1.567,0,0,1,8.571,9.748V6.964H3.166V45.571ZM27.528,8.163V3.173H11.737v4.99ZM8.224,38.3a1.586,1.586,0,0,1,0-3.171H19.652a1.586,1.586,0,0,1-.038,3.171Zm0-7.659a1.665,1.665,0,0,1-.2-.013,1.564,1.564,0,0,1-1.379-1.572h0a1.564,1.564,0,0,1,1.221-1.545,1.642,1.642,0,0,1,.362-.04H31.041a1.642,1.642,0,0,1,.362.04,1.564,1.564,0,0,1,1.221,1.545h0a1.565,1.565,0,0,1-1.379,1.572,1.665,1.665,0,0,1-.2.013Zm0-7.7a1.567,1.567,0,0,1-1.583-1.587,1.593,1.593,0,0,1,1.583-1.587H31.083a1.587,1.587,0,0,1-.041,3.173Z" transform="translate(-14021.651 -2048.275)"/></svg>