<svg xmlns="http://www.w3.org/2000/svg" viewBox="-6628.448 -7974.436 61.448 67.935">
  <defs>
    <style>
      .cls-1 {
        fill: gray;
      }

      .cls-2 {
        fill: #ffae41;
      }

      .cls-3 {
        fill: #70c315;
      }

      .cls-4 {
        fill: #277451;
      }

      .cls-5 {
        fill: #0cb4b4;
      }
    </style>
  </defs>
  <g id="Group_5439" data-name="Group 5439" transform="translate(-6910 -8766)">
    <path id="Path_7400" data-name="Path 7400" class="cls-1" d="M105.059,272.112a1.8,1.8,0,0,1-1.8,1.8H98.228c-.057,0-.1-.014-.156-.014-.014,0-.014,0-.042-.014a.161.161,0,0,1-.113-.042c-.014,0-.042-.014-.057-.014a.248.248,0,0,1-.1-.042c-.042-.028-.042-.014-.057-.014a.155.155,0,0,1-.085-.042c-.014-.014-.042-.014-.057-.042s-.057-.014-.085-.043-.042-.014-.057-.042a.3.3,0,0,0-.085-.057c-.014-.014-.042-.042-.057-.042l-.057-.056-.057-.057a.3.3,0,0,1-.057-.085c-.014-.014-.042-.042-.042-.056s-.042-.057-.057-.085-.014-.042-.042-.042c-.014-.042-.042-.057-.057-.1a.75.75,0,0,0-.085-.141c-.014-.042-.014-.042-.014-.056a.226.226,0,0,0-.042-.113c-.014-.042-.014-.014-.014-.042a.226.226,0,0,0-.042-.113c-.014-.042,0-.014-.014-.042a.276.276,0,0,1-.014-.113v-.127l-3.677-27.751a1.8,1.8,0,0,1,3.564-.453L100,270.316h3.267A1.8,1.8,0,0,1,105.059,272.112Z" transform="translate(201.708 583.369)"/>
    <path id="Path_7401" data-name="Path 7401" class="cls-1" d="M23.829,306.908l-5.643,16.648h2.362a1.8,1.8,0,1,1,0,3.592H15.47c-.042,0-.1-.014-.141-.014s-.042,0-.042-.014c-.028,0-.071-.014-.1-.014s-.042-.014-.057-.014H15.1c-.014,0-.042-.014-.057-.014a.247.247,0,0,1-.1-.042.16.16,0,0,1-.085-.042c-.014-.014-.057-.014-.085-.042a.3.3,0,0,1-.085-.057c-.014-.014-.042-.014-.057-.042a.307.307,0,0,0-.1-.057c-.042-.014-.042-.014-.042-.042l-.085-.085-.042-.042a.466.466,0,0,0-.085-.085c-.042-.014-.014-.042-.042-.057a.432.432,0,0,1-.057-.085c-.014-.014-.042-.042-.042-.057a.086.086,0,0,1-.042-.085c-.014-.014-.014-.057-.042-.085s-.014-.043-.042-.085a.162.162,0,0,0-.042-.085c-.014-.014-.014-.042-.014-.085a.124.124,0,0,1-.014-.1c0-.014-.014-.057-.014-.085s-.014-.057-.014-.085a.8.8,0,0,1-.014-.1V325.1a.18.18,0,0,1,.014-.085c0-.042.014-.057.014-.1s0-.042.014-.056c.014-.043.014-.085.042-.113v-.014l6.436-19.01A1.8,1.8,0,0,1,22.7,304.6h0A1.878,1.878,0,0,1,23.829,306.908Z" transform="translate(269.614 530.129)"/>
    <path id="Path_7402" data-name="Path 7402" class="cls-2" d="M293.454,230.434v4.441a.891.891,0,0,1-.849.905.537.537,0,0,1-.537.537h-.382a.537.537,0,0,1-.537-.537h0a.933.933,0,0,1-.849-.905v-4.441a.936.936,0,0,1,.905-.933h1.329a.936.936,0,0,1,.934.905l-.014.028Z" transform="translate(32.308 594.524)"/>
    <path id="Path_7404" data-name="Path 7404" class="cls-2" d="M293.854,308.033v4.441a.891.891,0,0,1-.849.905.537.537,0,0,1-.537.537h-.382a.537.537,0,0,1-.538-.537h0a.933.933,0,0,1-.849-.905v-4.441a.936.936,0,0,1,.905-.933h1.329a.949.949,0,0,1,.919.933Z" transform="translate(31.964 527.9)"/>
    <path id="Path_7405" data-name="Path 7405" class="cls-1" d="M33.7,133.072l-2.687,2.419a.743.743,0,0,1-1.061-.057l-.453-.523-7.581-2.687h0L21,129.988a16.337,16.337,0,0,0-3.847-6.478l-.014-.014a3.238,3.238,0,0,0-1.641-.962,23.905,23.905,0,0,0-4.385.014,3.294,3.294,0,0,0-1.259.58l-.014.014a18.5,18.5,0,0,0-5.926,7.1l-.057.1,2.786,7.5a1.778,1.778,0,0,1-1.188,2.235,1.8,1.8,0,0,1-2.15-.948l-3.154-8.3a1.819,1.819,0,0,1,.113-1.556l.5-.863c2.192-3.776,4.88-7.878,9.038-9.18l.042-.014A6.023,6.023,0,0,1,10.6,119a24.008,24.008,0,0,1,5.332,0,5.949,5.949,0,0,1,1.188.424c3.776,1.471,5.7,5.488,7.2,9.236l.3.721,6.223,2.221a1.992,1.992,0,0,1,.453.24l.721-.636a.737.737,0,0,1,.99.014.446.446,0,0,1,.622.042l.212.24a.473.473,0,0,1-.014.622.707.707,0,0,1-.127.948Z" transform="translate(281.523 689.524)"/>
    <path id="Path_7406" data-name="Path 7406" class="cls-2" d="M265.177,171.849a.575.575,0,0,1,.269-.113c.637-.156,1.287-.283,1.938-.382.269-.042.41-.113.354-.382-.042-.382.17-.5.5-.58a7.5,7.5,0,0,1,1.485-.113,6.573,6.573,0,0,1,1.485.113c.339.042.523.2.5.58-.028.269.113.339.354.382.651.1,1.287.24,1.938.382a2.171,2.171,0,0,1,.269.113.311.311,0,0,1,.057.424c-.014.014-.028.042-.057.057a.538.538,0,0,1-.241.113,17.867,17.867,0,0,1-2.277.41c-.665.042-1.344.1-1.98.1h0c-.665,0-1.344-.042-1.98-.1a13.99,13.99,0,0,1-2.277-.41,1.256,1.256,0,0,1-.24-.113.278.278,0,0,1-.17-.354.205.205,0,0,1,.085-.127Z" transform="translate(53.965 645.372)"/>
    <path id="Path_7408" data-name="Path 7408" class="cls-2" d="M269.136,376.585H258.5V366.5a9.13,9.13,0,0,0,5.375,1.457,9.453,9.453,0,0,0,5.262-1.457Z" transform="translate(59.61 476.901)"/>
    <path id="Union_47" data-name="Union 47" class="cls-3" d="M7.335,45.845V3.668h-5.5A1.834,1.834,0,1,1,1.834,0h15.6L10.7,45.845Z" transform="translate(325.563 796.028)"/>
    <path id="Path_7403" data-name="Path 7403" class="cls-2" d="M205.452,199.323l2.772-3.479a.879.879,0,0,1,1.216-.184.54.54,0,0,1,.764-.085h0l.3.24a.54.54,0,0,1,.085.764h0a.93.93,0,0,1,.1,1.231l-2.772,3.479a.92.92,0,0,1-1.287.156.014.014,0,0,1-.014-.014l-1.018-.82a.9.9,0,0,1-.141-1.287Z" transform="translate(105.332 623.754)"/>
    <path id="Path_7407" data-name="Path 7407" class="cls-4" d="M254.354,224.634h0a5.44,5.44,0,0,0-1.513-.764,1.992,1.992,0,0,0,.665-1.386l.043-32.164c0-.2.028-.382.028-.552a1.252,1.252,0,0,0-.523-1.1,1.341,1.341,0,0,0-1.216-.2.544.544,0,0,1-.141.042,2.661,2.661,0,0,1-.424.17l-.141.028-.721.142a14.176,14.176,0,0,1-3.083.311h-.764a14.176,14.176,0,0,1-3.083-.311l-.721-.142-.141-.028a1.116,1.116,0,0,1-.424-.17.54.54,0,0,0-.141-.042,1.3,1.3,0,0,0-1.216.2,1.323,1.323,0,0,0-.523,1.1c0,.2.028.354.028.552l.042,32.164a2.252,2.252,0,0,0,.665,1.386,7.589,7.589,0,0,0-1.513.764,2.061,2.061,0,0,0-.933,1.627,2.111,2.111,0,0,0,.834,1.726,3.016,3.016,0,0,0,.976.594l.24.1c.566.212,1.16.4,1.74.552a20.663,20.663,0,0,0,4.47.453h.1a20.661,20.661,0,0,0,4.469-.453,12.428,12.428,0,0,0,1.74-.552l.24-.1a3.117,3.117,0,0,0,.976-.594,2.193,2.193,0,0,0,.835-1.726A1.826,1.826,0,0,0,254.354,224.634ZM251.44,192.6c-.057,1.471,0,28.854-.028,29.306h0a.82.82,0,0,1-.24.523,3.713,3.713,0,0,1-.481.339l.212-1.6a.894.894,0,0,0-.665-.962.533.533,0,0,0-.453-.58l-.354-.042a.511.511,0,0,0-.58.424.851.851,0,0,0-.891.735l-.212,1.556-.721-1.1a.764.764,0,0,0-.976-.269.417.417,0,0,0-.594-.113h0l-.269.17a.449.449,0,0,0-.141.594.755.755,0,0,0-.24.82l-.212-.141a.729.729,0,0,0-1.018.184.014.014,0,0,1-.014.014l-.212.311a4.49,4.49,0,0,1-.523-.382.819.819,0,0,1-.24-.523c-.028-.453.028-27.836,0-29.278,0-.58-.042-1.146-.071-1.7a11.065,11.065,0,0,0,4.5.735,12.21,12.21,0,0,0,4.5-.735C251.482,191.452,251.44,192.032,251.44,192.6Z" transform="translate(76.698 629.814)"/>
    <circle id="Ellipse_158" data-name="Ellipse 158" class="cls-5" cx="6" cy="6" r="6" transform="translate(289 793)"/>
    <path id="Path_7399" data-name="Path 7399" class="cls-1" d="M48.382,0a7.489,7.489,0,0,0-.014,14.979H48.4A7.489,7.489,0,0,0,48.382,0Zm-.014,11.372a3.89,3.89,0,0,1,.014-7.779H48.4a3.89,3.89,0,1,1-.028,7.779Z" transform="translate(246.433 791.564)"/>
  </g>
</svg>
