<svg xmlns="http://www.w3.org/2000/svg" viewBox="-13714 -2841.882 52.699 23"><defs><style>.a{fill:#fff;}</style></defs><path class="a" d="M19.96,22.648H.436A.437.437,0,0,1,0,22.212V19.9A.468.468,0,0,1,.12,19.6L14.981,4.235a.436.436,0,0,0-.316-.741H1.547a.437.437,0,0,1-.436-.436V1.1A.437.437,0,0,1,1.547.662h18a.437.437,0,0,1,.436.436V3.32a.468.468,0,0,1-.12.305L4.935,19.074a.438.438,0,0,0,.316.741H18.14A5.69,5.69,0,0,0,19.96,22.648ZM52.6.64l-9.62,21.736a.429.429,0,0,1-.4.261H39.669a.421.421,0,0,1-.392-.251l-3.138-6.33v3.367A1.081,1.081,0,0,1,35.06,20.5h-.774a1.066,1.066,0,0,1-.447-.1l-.044.044c-1.558,1.525-4.935,2.647-7.692,2.647-5.644,0-6.907-2.92-6.907-5.121,0-3.116,1.852-4.707,7.289-5.284l3.693-.392c1.819-.2,2.953-.523,2.953-2.037,0-2.332-2.266-2.789-4.892-2.789-2.68,0-4.968.686-5.23,3.061a.352.352,0,0,1-.349.305H20.33a.352.352,0,0,1-.349-.4c.567-3.944,3.454-5.491,8.378-5.491,2.931,0,6.493.632,7.518,3.225,0,.011.011.022.022.033l4.87,10.121a.433.433,0,0,0,.8,0L49.191.368a.439.439,0,0,1,.4-.272h2.637C52.732.084,52.786.226,52.6.64ZM33.154,14.324a.346.346,0,0,0-.512-.305,8.357,8.357,0,0,1-2.669.61l-3.661.447c-2.528.327-3.857,1-3.857,2.789,0,1.591,1.591,2.691,3.955,2.691,3.661,0,6.744-1.939,6.744-4.761Z" transform="translate(-13714 -2841.977)"/></svg>