<svg id="Layer_1" xmlns="http://www.w3.org/2000/svg" viewBox="0 0 79 306.1"><style>.st0{fill:none;stroke:#23D5F5;stroke-miterlimit:10;} .st1{enable-background:new ;} .st2{fill:#23D5F5;}</style><path class="st0" d="M20.8 3.3c1.7-.3 3.4-.5 5.2-.8-1.8.3-3.5.5-5.2.8zm32-.8c1.8.3 3.5.5 5.2.8-1.7-.3-3.4-.5-5.2-.8zM39.5 27.3C18 27.3.5 21.6.5 14.5v278.3c0 7.1 17.5 12.8 39 12.8s39-5.7 39-12.8V14.5c0 7.1-17.4 12.8-39 12.8zm0 0c21.5 0 39-5.7 39-12.8 0-4.9-8.3-9.1-20.4-11.2-1.7-.3-3.4-.6-5.2-.8-.6-.1-1.2-.1-1.8-.2.3.2.5.3.6.5L53 4.9c9.3 1.6 15.7 4.8 15.7 8.5 0 5.3-13 9.5-29.1 9.5s-29.1-4.3-29.1-9.5c0-3.7 6.4-6.9 15.7-8.5l1.2-2.1c.1-.2.3-.3.6-.5-.6.1-1.2.1-1.8.2-1.8.2-3.5.5-5.2.8C8.8 5.5.5 9.7.5 14.5c0 7.1 17.5 12.8 39 12.8zm0-26.3c3.2-.1 6.5.3 9.6 1.1.7.1 1.3.1 1.9.2C49.3 1.2 44.8.5 39.7.5h-.4c-5.2 0-9.6.8-11.3 1.8.6-.1 1.3-.1 1.9-.2C33 1.3 36.3 1 39.5 1zm-9.7 1.2c-.7.1-1.3.1-1.9.2.6-.1 1.3-.2 1.9-.2zm19.2 0c.7.1 1.3.1 1.9.2-.6-.1-1.3-.2-1.9-.2zm2.6 1.7c0 .3-.2.5-.4.8.6.1 1.2.2 1.7.3l-1.2-2.1c-.1-.2-.3-.3-.6-.5-.6-.1-1.3-.1-1.9-.2 1.4.4 2.4 1 2.4 1.7zm-24.4 0c0-.7.9-1.3 2.5-1.7-.7.1-1.3.1-1.9.2-.3.2-.5.3-.6.5l-1.2 2c.6-.1 1.1-.2 1.7-.3-.3-.2-.5-.4-.5-.7zm12.3 2.8c-5.6 0-10.3-.9-11.7-2.1-.6.1-1.2.2-1.7.3l-2 3.4-.3.5h.1c0 .2-.1.3-.1.5 0 2.9 7.1 5.2 15.8 5.2 8.7 0 15.8-2.3 15.8-5.2 0-.2 0-.3-.1-.5h.1l-.4-.4L53 5c-.6-.1-1.1-.2-1.7-.3-1.5 1.2-6.2 2-11.8 2zM.5 96.6c0 7.1 17.5 12.8 39 12.8s39-5.7 39-12.8"/><path class="st1 st2" d="M54.1 61v7.4H43.3v10.8H36V68.5H25.1V61H36V50.2h7.3V61h10.8zM30.6 258.3h17.2v7.4H30.6v-7.4z"/></svg>