<svg id="Layer_1" xmlns="http://www.w3.org/2000/svg" viewBox="0 0 92.6 359.3"><style>.st0{fill:none;stroke:#39B54A;stroke-miterlimit:10;} .st1{enable-background:new ;} .st2{fill:#00FF37;} .st3{fill:none;stroke:#85FF00;} .st4{fill:#2C9643;}</style><path class="st0" d="M92.1 17.1v326.7c0 8.3-20.5 15-45.8 15S.5 352.1.5 343.8V17.1c0 8.3 20.5 15 45.8 15s45.8-6.7 45.8-15zm-45.8 15c25.3 0 45.8-6.7 45.8-15 0-5.7-9.7-10.7-24-13.2-1.9-.3-4-.6-6.1-.9-.7-.1-1.4-.2-2.1-.2.3.2.5.4.7.6L62 5.9c10.9 1.9 18.4 5.6 18.4 9.9C80.4 22 65.1 27 46.2 27S12 22 12 15.8c0-4.3 7.5-8.1 18.4-9.9L32 3.3c.2-.2.4-.4.7-.6-.7.1-1.4.2-2.1.2-2.1.3-4.1.6-6.1.9C10.2 6.3.5 11.3.5 17c0 8.4 20.5 15.1 45.8 15.1zm0-30.9c3.8-.1 7.6.4 11.3 1.3.8.1 1.5.1 2.3.2C57.8 1.4 52.7.5 46.6.5H46c-6.1 0-11.3.9-13.3 2.2.7-.1 1.5-.1 2.3-.2 3.7-.9 7.5-1.4 11.3-1.3zm14.1 3.4c0 .4-.2.7-.5.9.7.1 1.4.2 2 .3l-1.4-2.5c-.2-.2-.4-.4-.7-.6-.7-.1-1.5-.1-2.3-.2 1.8.6 2.9 1.3 2.9 2.1zm-28.2 0c0-.8 1.1-1.5 2.9-2-.8.1-1.5.1-2.3.2-.3.2-.5.4-.7.6l-1.4 2.5c.7-.1 1.3-.2 2-.3-.3-.2-.5-.6-.5-1zm14.1 3.3c-6.6 0-12.1-1-13.7-2.5-.7.1-1.4.2-2 .3l-2.4 4-.4.6h.1c-.1.2-.1.4-.1.6 0 3.3 8.3 6.1 18.5 6.1s18.5-2.7 18.5-6.1c0-.2 0-.4-.1-.6h.1l-.4-.6-2.4-4c-.7-.1-1.3-.2-2-.3-1.6 1.5-7.1 2.5-13.7 2.5zM.5 113.4c0 8.3 20.5 15 45.8 15s45.8-6.7 45.8-15"/><path class="st1 st2" d="M60.1 73v7.4H49.3v10.8H42V80.5H31.1V73H42V62.2h7.3V73h10.8z"/><path class="st1 st3" d="M60.1 73v7.4H49.3v10.8H42V80.5H31.1V73H42V62.2h7.3V73h10.8z"/><path class="st1 st4" d="M37.6 299.3h17.2v7.4H37.6v-7.4z"/></svg>