<svg id="Layer_1" xmlns="http://www.w3.org/2000/svg" viewBox="0 0 260 317.4"><style>.st0{fill:none;stroke:#FFD800;stroke-miterlimit:10;}</style><path class="st0" d="M258.6 41.1v237M130 11.7c-3.5-.3-6.9-.7-10.4-.9-5.5-.2-11-.1-16.5-.2-.8-.1-1.5-.3-2.1-.8-.7-.6-.9-1.6-.5-2.5.5-1.1 1.6-1.7 2.7-1.6 8.2-.2 16.5-.2 24.6.9 2.8.4 5.6 1.1 8.3 1.9 1.8.6 2.8 2.5 2.3 4.3-.3 1-1.1 1.8-2.1 2.2-1.9.8-3.9 1.5-5.9 2-8.8 1.9-17.8 2.4-26.7 2.7-1.8.1-3-.8-3-2.3-.1-1.5 1-2.5 2.8-2.6 4-.2 8-.3 12-.6 4.9-.5 9.7-1.2 14.6-1.8 0-.2-.1-.5-.1-.7zm-8.8 7c.4-.1.7-.2 1.1-.2 3.9-.8 7.9-1.6 11.8-2.3.3-.1.6-.1.9-.1 1.7.4 3 1.7 3.4 3.4.1 1.6-.9 3.1-2.4 3.7-1.5.7-3.1 1.2-4.7 1.6-9.2 2.1-18.5 2.7-27.8 3-1.9.1-3-.8-3-2.3 0-1.6 1-2.5 2.8-2.6 5.9-.4 11.9-.8 17.8-1.3 2.9-.2 5.8-.9 8.7-1.4v-.4c-2.9-.3-5.7-.6-8.6-.9v-.2zm.1 7.6c.4-.1.7-.1 1.1-.2 3.8-.7 7.6-1.4 11.3-2.2 1.7-.3 3.3.5 4.3 1.9.8 1.3.5 3-.6 3.9-.8.7-1.7 1.2-2.7 1.6-2.3.8-4.7 1.4-7.1 1.8-8 1.3-16.1 2-24.3 2.2-1.3.2-2.5-.6-2.7-1.9v-.5c-.1-1.4 1-2.4 2.6-2.6 5-.3 9.9-.5 14.9-1 3.9-.4 8-1 11.9-1.6v-.5c-2.8-.3-5.7-.6-8.5-1-.2.2-.2.1-.2.1zM74.1 11.8c-3.5-.3-6.9-.7-10.4-.9-5.5-.2-11-.1-16.5-.2-.8-.1-1.5-.3-2.1-.8-.7-.6-.9-1.6-.5-2.5.5-1.1 1.6-1.7 2.7-1.6 8.2-.1 16.4-.2 24.6 1 2.8.4 5.6 1.1 8.3 1.9 1.8.6 2.8 2.5 2.3 4.3-.3 1-1.1 1.8-2.1 2.2-1.9.8-3.9 1.5-5.9 2-8.8 1.9-17.8 2.4-26.7 2.7-1.8.1-3-.8-3-2.3-.1-1.5 1-2.5 2.8-2.6 4-.2 8-.3 12-.6 1.1-.1 2.3-.2 3.5-.4 3.7-.4 7.4-1 11.2-1.4-.1-.3-.2-.5-.2-.8zm-8.8 6.9c.4-.1.7-.2 1.1-.2 3.9-.8 7.9-1.6 11.8-2.3.3-.1.6-.1.9-.1 1.7.4 3 1.7 3.4 3.4.1 1.6-.9 3.1-2.4 3.7-1.5.7-3.1 1.2-4.7 1.6-9.2 2.1-18.5 2.7-27.8 3-1.9.1-3-.8-3-2.3 0-1.6 1-2.5 2.8-2.6 5.9-.4 11.9-.8 17.8-1.3 2.9-.2 5.8-.9 8.7-1.4v-.4c-2.9-.3-5.7-.6-8.6-.9v-.2zm.1 7.6c.4-.1.7-.1 1.1-.2 3.8-.7 7.6-1.4 11.3-2.2 1.7-.3 3.3.5 4.3 1.9.8 1.3.5 3-.6 3.9-.8.7-1.7 1.2-2.6 1.6-2.3.8-4.7 1.4-7.1 1.8-8 1.3-16.1 2-24.3 2.2-1.3.2-2.5-.6-2.7-1.9v-.5c-.1-1.4 1-2.4 2.6-2.6 5-.3 9.9-.5 14.9-1 3.9-.4 8-1 11.9-1.6v-.5c-2.8-.3-5.7-.6-8.5-1-.3.2-.3.1-.3.1zm193.2 123.2c0 2-1.2 3.7-4.7 5.5l-103.2 31.3c-14.3 4.2-36.8 3.4-50.2-1.8l-95-38.6c-2.5-1-4.1-3.4-4.2-6.1v-.1m257.3-97.6c0 2-1.2 3.7-4.7 5.5L150.7 78.9c-14.3 4.2-36.8 3.4-50.2-1.8l-95-38.6c-2.5-1-4.1-3.4-4.2-6.1v-.1M85.1 8.8l28.8-6.9C127.6-.6 130.8.5 146.2 4l108.3 32.8c3.4 1.7 4.4 3 4.3 4.4M81.5 9.6l3.5-.8m-21.9 5.1l9.2-2m186.3 265.5c0 2-1.2 3.7-4.7 5.5l-103.2 31.3c-14.3 4.2-36.8 3.4-50.2-1.8l-95-38.6c-2.5-1-4.1-3.4-4.2-6.1v-.1L1.2 32.7c.4-2.4 2.1-4.3 4.5-4.9l38.9-9.3"/></svg>