<svg xmlns="http://www.w3.org/2000/svg" viewBox="-7444 2394.078 157 292.44"><defs><style>.a{fill:none;stroke:aqua;stroke-linecap:round;stroke-linejoin:round;stroke-miterlimit:10;}</style></defs><path class="a" d="M-7315.42 2401.467v9.427h-.27l.27.18-9.517 6.255-18.22-.182-8.43-6.254h-.272v-9.427l9.52-6.254 18.22.18 8.067 5.985h.635zm0 6.436v3.175h-.27l.27.18-9.517 6.255-18.22-.18-8.43-6.255h-.27v-3.175c-3.627 1.45-5.8 3.354-5.8 5.44 0 4.622 10.786 8.338 24.02 8.338s24.02-3.715 24.02-8.338c0-2.085-2.176-3.99-5.802-5.44zm-79.404-13.325c-11.33 0-20.485 3.173-20.485 7.07v9.246c0 3.9 9.156 7.07 20.4 7.07 11.332 0 20.4-3.173 20.4-7.07v-9.246c.08-3.897-9.074-7.07-20.314-7.07zm20.4 14.14v1.995c0 3.9-9.155 7.07-20.4 7.07-11.33 0-20.4-3.173-20.4-7.07v-1.994c-2.085 1.268-3.263 2.718-3.263 4.35 0 4.714 10.605 8.43 23.75 8.43s23.748-3.807 23.748-8.43c-.175-1.632-1.354-3.082-3.44-4.35zm49.764-.815h-18.31v7.252h18.31zm-90.65-5.44c.636 3.717 9.52 6.71 20.4 6.71 11.332 0 20.4-3.174 20.4-7.07a3.718 3.718 0 0 0-1.45-2.63m28.1-.544l-3.817 2.448 8.7 6.436 18.22.18 9.518-6.163-3.806-2.81m31.454 21.03v258.065m-155.908-3.082l1.36-257.07m-1.27 257.07c-.09 3.444 3.264 6.98 10.153 6.617l133.34 4.35c7.25.273 12.417-3.172 12.417-7.885m-154.912-200.688c-.09 3.445 3.263 6.98 10.062 6.617l132.432 4.35c7.16.273 12.328-3.172 12.328-7.885m-155.185 154.277c-.09 3.444 3.263 6.98 10.062 6.617l132.885 4.35c7.16.273 12.328-3.172 12.328-7.885m-63.09-237.22l-12.69-.272-11.15-.27m-39.338-1.18h-7.343c-7.343.45-13.507-.634-17.858 7.343l-3.172 10.425c-.635 4.8 3.807 6.8 12.237 7.433l127.903 2.992c4.895.09 14.413-1.27 14.23-8.61l.18-7.432c0-7.433-8.612-8.974-13.507-9.064l-14.412-.366m-36.167-1.27"/></svg>