<svg xmlns="http://www.w3.org/2000/svg" xmlns:xlink="http://www.w3.org/1999/xlink" viewBox="-10107.5 -7769.5 84 84">
  <defs>
    <style>
      .cls-1 {
        fill: url(#linear-gradient);
      }

      .cls-2, .cls-3, .cls-4 {
        fill: #fff;
      }

      .cls-3 {
        opacity: 0.401;
      }

      .cls-4 {
        font-size: 11px;
        font-family: OpenSans-Bold, Open Sans;
        font-weight: 700;
      }

      .cls-5 {
        filter: url(#Rectangle_1241);
      }
    </style>
    <linearGradient id="linear-gradient" x1="0.5" x2="0.5" y2="1" gradientUnits="objectBoundingBox">
      <stop offset="0" stop-color="#0cb4b4"/>
      <stop offset="1" stop-color="#065a5a"/>
    </linearGradient>
    <filter id="Rectangle_1241" x="-10107.5" y="-7769.5" width="84" height="84" filterUnits="userSpaceOnUse">
      <feOffset dx="3" dy="3" input="SourceAlpha"/>
      <feGaussianBlur stdDeviation="1.5" result="blur"/>
      <feFlood flood-opacity="0.231"/>
      <feComposite operator="in" in2="blur"/>
      <feComposite in="SourceGraphic"/>
    </filter>
  </defs>
  <g id="Group_5419" data-name="Group 5419" transform="translate(-10685 -8766)">
    <g class="cls-5" transform="matrix(1, 0, 0, 1, 10685, 8766)">
      <rect id="Rectangle_1241-2" data-name="Rectangle 1241" class="cls-1" width="75" height="75" rx="16" transform="translate(-10106 -7768)"/>
    </g>
    <path id="Union_30" data-name="Union 30" class="cls-2" d="M0,29.155c0-2.58,4.758-3.488,8.289-3.806v-3.9a3.9,3.9,0,0,1-1.416-3V12.917a3.905,3.905,0,0,1,3.9-3.9h2.779a3.9,3.9,0,0,1,3.9,3.9v5.526a3.894,3.894,0,0,1-1.414,3v3.9c3.532.318,8.289,1.224,8.289,3.806,0,3.783-10.13,3.974-12.161,3.974S0,32.938,0,29.155Zm2.741,0c1.031.61,4.278,1.478,9.428,1.478s8.393-.87,9.422-1.478a15.479,15.479,0,0,0-5.549-1.3v1.3a1.247,1.247,0,1,1-2.494,0V20.787a1.244,1.244,0,0,1,.663-1.1,1.411,1.411,0,0,0,.75-1.244V12.917a1.406,1.406,0,0,0-1.405-1.405H10.775a1.408,1.408,0,0,0-1.407,1.405v5.526a1.409,1.409,0,0,0,.753,1.244,1.247,1.247,0,0,1,.66,1.1l0,8.367a1.247,1.247,0,1,1-2.494,0v-1.3A15.56,15.56,0,0,0,2.741,29.157ZM8.168,3.988a3.987,3.987,0,1,1,3.985,3.988A3.991,3.991,0,0,1,8.168,3.988Zm2.492,0a1.494,1.494,0,1,0,1.493-1.493A1.5,1.5,0,0,0,10.66,3.988Z" transform="translate(604 1004.627)"/>
    <path id="Subtraction_15" data-name="Subtraction 15" class="cls-3" d="M14.964,18.053h0C5.874,16.48,0,13,0,9.184,0,5.2,6.515,1.559,16.212.117v2.09C8.384,3.3,3.325,5.761,3.325,8.465c0,2.556,4.461,4.881,11.639,6.068v3.519ZM36.58,17.9h0V14.228c6.247-1.268,9.976-3.422,9.976-5.763,0-2.7-5.059-5.161-12.886-6.26V0C43.864,1.358,50.713,5.049,50.713,9.184c0,3.72-5.415,7.061-14.131,8.718Z" transform="translate(591 1025.947)"/>
    <text id="Ver_puntos_cercanos" data-name="Ver puntos
cercanos" class="cls-4" transform="translate(617 1055)"><tspan x="-29.987" y="0">Ver puntos</tspan><tspan x="-24.479" y="10">cercanos</tspan></text>
  </g>
</svg>
