<svg  version="1.1" xmlns="http://www.w3.org/2000/svg" xmlns:xlink="http://www.w3.org/1999/xlink" >

    <path id="acceso-baterias" d="M2,34.2c-1.1,0-2-0.9-2-2V4.2c0-1.1,0.9-2,2-2h3.7V0h6.8v2.3h3.7c1.1,0,2,0.9,2,2v13.9l-1.1,1.8l1.1,1.8v10.4
	c0,1.1-0.9,2-2,2H2z M2,33h14.3c0.5,0,0.8-0.4,0.8-0.8V22.1l-0.9-1.6h-1.1l-1.5,2.4v1c0,0.3-0.3,0.6-0.6,0.5c-0.3,0-0.5-0.2-0.5-0.5
	v-0.6H12c-0.3,0-0.6-0.3-0.6-0.6v0c0-0.3,0.2-0.6,0.5-0.6h0.8l1.3-2.2l-1.2-1.2h-1.5c-0.3,0-0.6-0.2-0.6-0.5c0-0.3,0.2-0.6,0.5-0.6
	c0,0,0,0,0,0h1.1v-1.1c0-0.3,0.3-0.6,0.6-0.5c0.3,0,0.5,0.2,0.5,0.5V18l1.4,1.4h1.1l0.9-1.6V4.3c0-0.5-0.4-0.8-0.8-0.8c0,0,0,0,0,0
	H2c-0.5,0-0.8,0.4-0.8,0.8v6.6c0.3,0,0.6,0.3,0.5,0.6c0,0.3-0.2,0.5-0.5,0.5v2.3c0.3,0,0.6,0.3,0.5,0.6c0,0.3-0.2,0.5-0.5,0.5v2.3
	c0.3,0,0.6,0.3,0.6,0.6c0,0.3-0.2,0.5-0.5,0.6h0v2.3c0.3,0,0.6,0.3,0.6,0.6c0,0.3-0.2,0.5-0.5,0.6h0v2.3c0.3,0,0.6,0.3,0.6,0.6
	c0,0.3-0.2,0.5-0.5,0.6h0v2.3c0.3,0,0.6,0.3,0.6,0.6c0,0.3-0.3,0.6-0.6,0.6v2.3c0.3,0,0.6,0.3,0.6,0.6c0,0.3-0.2,0.5-0.5,0.6
	c0,0.1,0.1,0.3,0.2,0.4C1.6,32.9,1.8,33,2,33L2,33z M11.4,2.3V1.1H6.8v1.1H11.4z M25.1,33.6c-0.1,0-0.3-0.1-0.4-0.2
	c-0.1-0.1-0.2-0.3-0.2-0.4c0-0.3,0.3-0.6,0.6-0.6l0,0c0.3,0,0.6,0.3,0.5,0.6C25.6,33.4,25.4,33.6,25.1,33.6L25.1,33.6z M23.9,30.7
	c0-0.3,0.3-0.6,0.6-0.6l0,0h0c0.3,0,0.6,0.3,0.5,0.6c0,0.3-0.3,0.6-0.6,0.5C24.1,31.3,23.9,31,23.9,30.7L23.9,30.7z M22.8,31.3
	c-0.3,0-0.6-0.3-0.6-0.6c0-0.3,0.3-0.6,0.6-0.6c0.3,0,0.6,0.3,0.6,0.6C23.3,31.1,23.1,31.3,22.8,31.3L22.8,31.3z M25.3,29.5
	C25,29.3,25,29,25.2,28.7c0.2-0.3,0.5-0.3,0.8-0.1c0.3,0.2,0.3,0.5,0.1,0.8c-0.1,0.1-0.3,0.2-0.5,0.2C25.5,29.6,25.4,29.6,25.3,29.5
	z M22.4,28.9c-0.2-0.2-0.2-0.6,0-0.8s0.6-0.2,0.8,0c0.1,0.1,0.2,0.3,0.2,0.4c0,0.3-0.3,0.6-0.6,0.6C22.6,29,22.5,29,22.4,28.9
	L22.4,28.9z M23.9,27.3c0-0.3,0.3-0.6,0.6-0.6l0,0h0c0.3,0,0.6,0.3,0.5,0.6c0,0.3-0.3,0.6-0.6,0.5C24.2,27.9,23.9,27.6,23.9,27.3
	L23.9,27.3z M22.2,27.3c-0.3,0-0.6-0.3-0.6-0.6c0-0.3,0.3-0.6,0.6-0.6c0.3,0,0.6,0.2,0.6,0.5v0C22.8,27.1,22.5,27.3,22.2,27.3
	L22.2,27.3L22.2,27.3z M23.3,25.6c-0.3,0-0.6-0.3-0.5-0.6c0-0.3,0.3-0.6,0.6-0.5s0.6,0.3,0.5,0.6C23.9,25.4,23.7,25.6,23.3,25.6
	L23.3,25.6z M21.1,25.6c-0.3,0-0.6-0.3-0.5-0.6c0-0.3,0.2-0.5,0.5-0.5h0c0.3,0,0.6,0.3,0.5,0.6C21.6,25.4,21.4,25.6,21.1,25.6
	L21.1,25.6z M22.8,22.8c0-0.3,0.3-0.6,0.6-0.6c0.3,0,0.6,0.3,0.6,0.6c0,0.3-0.2,0.6-0.6,0.6C23,23.4,22.8,23.1,22.8,22.8
	C22.8,22.8,22.8,22.8,22.8,22.8z M21.1,23.3c-0.1,0-0.2,0-0.3-0.1h0c-0.2-0.1-0.3-0.3-0.3-0.5c0-0.3,0.3-0.6,0.6-0.6h0
	c0.3,0,0.6,0.3,0.6,0.6C21.6,23.1,21.4,23.4,21.1,23.3L21.1,23.3z M19.4,21.1c0-0.3,0.3-0.6,0.6-0.6s0.6,0.3,0.6,0.6
	c0,0.3-0.3,0.6-0.6,0.6C19.6,21.6,19.4,21.4,19.4,21.1C19.4,21.1,19.4,21.1,19.4,21.1z"/>

    <path id="acceso-preguntas" d="M14.3,34.2c-3.8,0-7.5-1.5-10.2-4.2c-2.6-2.6-4.1-6.1-4.1-9.7V20v-0.1c0-0.4,0-0.8,0.1-1.2
	C0.7,12,5.8,6.7,12.5,5.9c0.6-0.1,1.1-0.1,1.7-0.1h0c0.5-1,1.2-1.9,2-2.6C16.2,3,16.3,3,16.3,2.9C18.3,1,20.9,0,23.6,0
	c0.1,0,0.2,0,0.3,0c2.7,0.1,5.2,1.2,7.1,3.1l0.1,0.1c4,4.1,4,10.7-0.1,14.8c-0.8,0.8-1.7,1.5-2.7,2c0,3.3-1.1,6.4-3.2,8.9
	c-0.2,0.3-0.4,0.7-0.4,1c0,0.4,0.2,0.8,0.5,1.1c0.2,0.2,0.3,0.3,0.5,0.5c0.3,0.3,0.7,0.7,0.9,0.9l0.2,0.2l0,0c0.3,0.3,0.3,0.9,0,1.2
	c-0.2,0.2-0.4,0.3-0.6,0.3L14.3,34.2z M14.3,33.1h11.4c-0.4-0.3-0.8-0.8-1.2-1.2c-1-1-1-2.5-0.1-3.6c1.8-2.2,2.8-4.9,2.9-7.8
	c-1.2,0.5-2.5,0.7-3.8,0.7h-8.9c-0.3,0-0.5-0.2-0.6-0.5c0,0,0,0,0-0.1c-0.1-0.3,0-0.6,0.2-0.8c0.3-0.3,0.7-0.7,1.2-1.1
	c0.2-0.2,0.3-0.5,0.3-0.8c0-0.2-0.1-0.4-0.2-0.6c-1.2-1.5-2-3.2-2.3-5c0-0.1,0-0.2,0-0.3c0-0.3,0.2-0.6,0.5-0.6c0,0,0,0,0.1,0
	c0.3,0,0.5,0.2,0.5,0.5c0.2,1.8,0.9,3.4,2.1,4.8c0.7,0.8,0.6,2.1-0.1,2.8c-0.2,0.2-0.5,0.5-0.7,0.7h8.1c2.6,0,5-1,6.8-2.9
	c1.8-1.8,2.8-4.2,2.8-6.7v-0.1c0-1.8-0.5-3.6-1.5-5.1c-1.7-2.7-4.7-4.4-8-4.4h0c-4.8,0-8.8,3.6-9.4,8.3c0,0.3-0.3,0.5-0.5,0.5
	c-0.3,0-0.5-0.2-0.5-0.5c0,0,0,0,0-0.1c0.1-0.8,0.3-1.6,0.6-2.4c-7,0.3-12.5,6-12.6,13V20c0,0.3,0,0.5,0,0.8
	c0.2,3.2,1.5,6.2,3.8,8.4C7.4,31.7,10.8,33.1,14.3,33.1L14.3,33.1z M11.3,22.1c-0.4,0-0.7-0.2-1-0.4c-0.3-0.3-0.4-0.6-0.4-1
	c0-0.8,0.6-1.4,1.4-1.4s1.4,0.6,1.4,1.4S12.1,22.1,11.3,22.1L11.3,22.1z M5.6,20.7c0-0.8,0.6-1.4,1.4-1.4c0.3,0,0.5,0.1,0.7,0.2h0
	c0.4,0.3,0.7,0.7,0.7,1.2c0,0.8-0.7,1.4-1.5,1.4C6.2,22.1,5.6,21.4,5.6,20.7L5.6,20.7z M24.3,17.1L24.3,17.1
	c-0.5-0.1-0.8-0.4-0.7-0.8s0.4-0.7,0.8-0.6c0.4,0.1,0.6,0.4,0.6,0.7C25,16.8,24.7,17.1,24.3,17.1L24.3,17.1z M23.7,13.7v-2.4
	c0-0.3,0.2-0.5,0.5-0.5l0,0c1.7,0,3.1-1.4,3.1-3.1c0-1.7-1.4-3.1-3.1-3.1S21.2,6,21.2,7.7c0,0,0,0,0,0c0,0.3-0.2,0.5-0.5,0.5
	S20.1,8,20.1,7.7c0-2.3,1.9-4.1,4.1-4.1c2.3,0,4.1,1.9,4.1,4.1c0,2.1-1.5,3.8-3.6,4.1v1.9c0,0.3-0.2,0.5-0.5,0.5S23.7,14,23.7,13.7
	L23.7,13.7z"/>

    <path id="acceso-descargas" d="M17.3,34.2l-6-6l1.1-1.1l4.2,4.2V11.9H18v19.4l4.2-4.2l1.1,1.1L17.3,34.2L17.3,34.2z M6.5,23.6
	c-3.9,0-6.5-3.6-6.5-7c0-1.7,0.7-3.4,2-4.6c0.5-0.4,1-0.8,1.6-1.1c-0.2-1-0.1-2.1,0.3-3c0.2-0.6,0.5-1.1,0.8-1.6
	c2.1-2.8,6.1-3.4,9-1.3c0,0,0.1,0.1,0.1,0.1c0.2-0.5,0.5-1.1,0.8-1.5C16,1.8,17.9,0.6,20,0.2l0,0l0,0l0.1,0h0l0.2,0h0
	C20.9,0,21.3,0,21.7,0c2.1,0,4.1,0.8,5.7,2.2C29,3.6,29.9,5.6,30,7.6c0.1,1-0.1,1.9-0.4,2.9c1.2,0.3,2.3,0.9,3.2,1.8
	c1.1,1.1,1.7,2.6,1.7,4.2c0,3.4-2.2,7-8.3,7h-5.4v-1.5h5.4c3.1,0,4.9-1,5.8-2.2c0.7-0.9,1-2,1-3.2v-0.1c-0.1-2.5-2-4.5-4.5-4.7
	l-1-0.1l0.4-1c0.4-1,0.6-2,0.6-3c-0.3-3.5-3.3-6.2-6.8-6.2c-2,0-4,0.8-5.3,2.3l0,0l0,0c-0.7,0.7-1.1,1.6-1.4,2.6
	c0,0.1,0,0.2-0.1,0.2l-0.3,1.5l-1-1.1C12.6,5.8,11,5.2,9.4,5.4c-1.5,0.2-2.9,1-3.7,2.3C5.6,7.9,5.4,8.2,5.3,8.5
	C5,9.4,4.9,10.3,5.2,11.2l0.2,0.7l-0.7,0.2l-0.1,0c-0.1,0-0.1,0.1-0.2,0.1c-0.5,0.2-0.9,0.5-1.3,0.8c-1,0.9-1.6,2.2-1.6,3.5
	c0,2.6,2.1,5.5,5,5.5h7.2v1.5L6.5,23.6z"/>

    <path id="acceso-puntos" d="M39.7,21.4c-0.2-0.6-0.9-0.9-1.5-0.6c0,0,0,0,0,0l-14,5.6c-1-2.2-3.2-3.7-5.7-3.7c-0.2,0-0.4,0-0.5,0
    l-8-21.9C9.7,0.2,9.1-0.1,8.5,0L0.8,2.4C0.2,2.6-0.1,3.2,0.1,3.8c0,0,0,0,0,0c0.2,0.6,0.8,0.9,1.4,0.8c0,0,0,0,0,0l6.7-2l7.6,20.7
    c-2.1,1-3.5,3.2-3.5,5.6c0,3.4,2.8,6.2,6.2,6.2c3.4,0,6.2-2.8,6.2-6.2c0-0.1,0-0.2,0-0.3L39,22.8C39.6,22.6,39.9,22,39.7,21.4
    C39.7,21.4,39.7,21.4,39.7,21.4z M23,3.9l-0.8-2.1c-0.1-0.2,0-0.3,0.2-0.4L26,0.1c0.2-0.1,0.3,0,0.4,0.2l0.8,2.1l2.3-0.9
    c0.8-0.3,1.7,0.2,2,1L37,16.8c0.3,0.8,0,1.7-0.8,2l-8.8,3.4c-0.8,0.3-1.7-0.2-2-1L19.9,6.9c-0.3-0.8,0-1.7,0.8-2L23,3.9z
    M18.5,32.2c-1.9,0-3.4-1.5-3.4-3.4c0-1.9,1.5-3.4,3.4-3.4c1.9,0,3.4,1.5,3.4,3.4C21.9,30.7,20.3,32.2,18.5,32.2L18.5,32.2z
    M22.5,6.6c-0.4,0.2-0.5,0.6-0.4,1l4.4,11.5c0.1,0.4,0.6,0.6,0.9,0.5l7.1-2.7c0.4-0.2,0.5-0.6,0.4-1L30.5,4.4
    c-0.1-0.4-0.6-0.6-0.9-0.5L22.5,6.6z"/>

  <g id="dribbble-icon">
    <path      d="M14533.069,4886.768v-50.795a1.211,1.211,0,0,1-.07-.4c0-1.571,2.707-2.983,6.684-3.654.552-.09,1.131-.184,1.713-.253.2-.022.388-.047.6-.069h.022a9.312,9.312,0,0,1,3.792-.6,9.666,9.666,0,0,1,3.769.6l-.022-.025h.022l.6.072c.6.069,1.18.161,1.707.254,4,.692,6.707,2.079,6.707,3.675v.095c.024,0,.046-.048.046-.116v51.211c0,2.31-5.711,4.186-12.784,4.186S14533.069,4889.078,14533.069,4886.768Zm2.405-1.481c0,1,3.7,2.962,10.5,2.962s10.5-1.966,10.5-2.962v-28.6c-2.245,1.572-6.687,2.289-10.451,2.289-3.837,0-8.324-.738-10.543-2.335Zm.067-31.4c1.365,1.528,5.594,2.636,10.476,2.636,4.784,0,8.948-1.065,10.38-2.542v-16.047a2.918,2.918,0,0,1-.045.463c-1.711,1.387-5.737,2.358-10.4,2.358s-8.672-.739-10.407-2.125v15.258Zm.766-18.681c0,1.734,4.254,3.122,9.525,3.122,5.246,0,9.522-1.387,9.522-3.122,0-1.2-2.079-2.241-5.107-2.774l.669,1.062v.025l.068.159c0,.047.027.094.027.163,0,.949-2.338,1.713-5.2,1.713s-5.2-.764-5.2-1.713v-.163l.116-.159v-.025l.624-1.062C14538.315,4832.967,14536.26,4834.007,14536.308,4835.208Zm5.729-2.751c0,.047.072.094.164.163h.027a8.6,8.6,0,0,0,3.581.554c2.5,0,3.769-.506,3.769-.716s-1.294-.717-3.769-.717S14542.037,4832.225,14542.037,4832.457Zm1.24,44.271v-2.4h4.8v2.4Zm1.544-24.157v-2.742h-2.743v-2.4h2.743v-2.743h2.4v2.743h2.742v2.4h-2.742v2.742Z" transform="translate(-28212.277 -9039.318)"/>
  </g>
  <g id="icono-puntos">
    <svg xmlns="http://www.w3.org/2000/svg" viewBox="-10221 -9060.999 55.932 33.923"><defs><style>.a,.b,.c{fill:#fff;}.a{stroke:#fff;stroke-width:0.5px;}.b{opacity:0.095;}.c{opacity:0.046;}</style></defs><g transform="translate(-10721.979 -9244.219)"><g transform="translate(-115.813 172.943)"><path class="a" d="M.572,26.95a.633.633,0,0,1-.209-.04.559.559,0,0,1-.324-.726l3.389-8.417a.57.57,0,0,1,.533-.357H9.176A.562.562,0,0,1,9.745,18a.584.584,0,0,1-.593.521H8.4a2.765,2.765,0,0,0-.2,2.335c.5.954,2.024,1.247,3.2,1.329.941.058,1.868.106,2.767.147a31.063,31.063,0,0,1,6.455.7c1.778.509,2.755,1.452,2.911,2.8h3.724l-3.5-7.317H18.942a.563.563,0,0,1-.569-.591.584.584,0,0,1,.593-.521H24.1a.574.574,0,0,1,.52.322l4.024,8.417a.562.562,0,0,1-.52.8Zm.809-1.111H22.374c-.15-.825-.79-1.364-2.066-1.727a30.467,30.467,0,0,0-6.185-.661c-.911-.041-1.845-.082-2.791-.147-2.149-.146-3.544-.8-4.149-1.937a3.5,3.5,0,0,1-.018-2.845H4.326Zm12.269-4.655c-.3-.31-7.347-7.568-7.347-13.328a7.761,7.761,0,1,1,15.521,0c0,5.73-7.048,13.019-7.348,13.323a.576.576,0,0,1-.413.176A.594.594,0,0,1,13.649,21.183ZM7.452,7.855c0,4.555,5.1,10.454,6.61,12.106,1.509-1.651,6.611-7.582,6.611-12.106a6.612,6.612,0,1,0-13.221,0Zm2.875.293a3.737,3.737,0,0,1,7.473,0,3.737,3.737,0,0,1-7.473,0Zm1.149,0a2.587,2.587,0,1,0,2.587-2.529A2.555,2.555,0,0,0,11.476,8.148Z" transform="translate(630 17)"/></g><path class="b" d="M17.8,8.06l-3.3-2.26A27.5,27.5,0,0,0,9.8,21.335a27.5,27.5,0,0,0,4.708,15.535l3.3-2.26a23.79,23.79,0,0,1,0-26.551Z" transform="translate(491.18 177.42)"/><path class="c" d="M24.985,12.76l-3.3-2.26a19.9,19.9,0,0,0,0,22.22l3.3-2.26a15.709,15.709,0,0,1,0-17.7Z" transform="translate(490.684 177.145)"/><path class="c" d="M57,10.5l-3.3,2.26a15.709,15.709,0,0,1,0,17.7L57,32.72a19.6,19.6,0,0,0,3.39-11.11A21.428,21.428,0,0,0,57,10.5Z" transform="translate(488.613 177.145)"/><path class="b" d="M64,5.8,60.7,8.06a23.79,23.79,0,0,1,0,26.551l3.3,2.26A27.5,27.5,0,0,0,68.7,21.335,27.009,27.009,0,0,0,64,5.8Z" transform="translate(488.204 177.42)"/></g></svg>
  </g>
  <g id="icono-tipos">
    <path class="a" d="M-13679.208-4152.55v-50.795a1.21 1.21 0 0 1-.07-.4c0-1.57 2.707-2.983 6.684-3.654.552-.09 1.13-.183 1.713-.252.2-.022.387-.047.6-.07h.02a9.312 9.312 0 0 1 3.793-.6 9.666 9.666 0 0 1 3.77.6l-.023-.024h.022l.6.072c.6.07 1.18.16 1.707.254 4 .692 6.706 2.08 6.706 3.675v.095c.024 0 .046-.048.046-.116v51.21c0 2.31-5.71 4.187-12.784 4.187s-12.786-1.87-12.786-4.18zm2.405-1.48c0 1 3.7 2.96 10.5 2.96s10.5-1.965 10.5-2.96v-28.6c-2.245 1.57-6.687 2.288-10.45 2.288-3.838 0-8.325-.738-10.544-2.335zm.067-31.4c1.365 1.527 5.594 2.635 10.476 2.635 4.784 0 8.948-1.065 10.38-2.542v-16.047a2.918 2.918 0 0 1-.045.463c-1.71 1.386-5.737 2.357-10.4 2.357s-8.672-.74-10.407-2.125v15.258zm.766-18.682c0 1.734 4.254 3.122 9.525 3.122 5.246 0 9.522-1.387 9.522-3.122 0-1.2-2.08-2.24-5.107-2.774l.67 1.062v.025l.067.16c0 .047.027.094.027.163 0 .95-2.338 1.713-5.2 1.713s-5.2-.764-5.2-1.713v-.163l.116-.16v-.024l.624-1.062c-3.036.535-5.09 1.575-5.043 2.776zm5.73-2.75c0 .046.07.093.163.162h.027a8.6 8.6 0 0 0 3.58.554c2.5 0 3.77-.506 3.77-.716s-1.294-.717-3.77-.717-3.77.487-3.77.72zm1.24 44.27v-2.4h4.8v2.4zm1.543-24.157v-2.74h-2.743v-2.4h2.743v-2.744h2.4v2.743h2.742v2.4h-2.742v2.74z"/>
  </g>
  <g id="pila_6v">
    <path d="M258.6 41.1v237M130 11.7c-3.5-.3-6.9-.7-10.4-.9-5.5-.2-11-.1-16.5-.2-.8-.1-1.5-.3-2.1-.8-.7-.6-.9-1.6-.5-2.5.5-1.1 1.6-1.7 2.7-1.6 8.2-.2 16.5-.2 24.6.9 2.8.4 5.6 1.1 8.3 1.9 1.8.6 2.8 2.5 2.3 4.3-.3 1-1.1 1.8-2.1 2.2-1.9.8-3.9 1.5-5.9 2-8.8 1.9-17.8 2.4-26.7 2.7-1.8.1-3-.8-3-2.3-.1-1.5 1-2.5 2.8-2.6 4-.2 8-.3 12-.6 4.9-.5 9.7-1.2 14.6-1.8 0-.2-.1-.5-.1-.7zm-8.8 7c.4-.1.7-.2 1.1-.2 3.9-.8 7.9-1.6 11.8-2.3.3-.1.6-.1.9-.1 1.7.4 3 1.7 3.4 3.4.1 1.6-.9 3.1-2.4 3.7-1.5.7-3.1 1.2-4.7 1.6-9.2 2.1-18.5 2.7-27.8 3-1.9.1-3-.8-3-2.3 0-1.6 1-2.5 2.8-2.6 5.9-.4 11.9-.8 17.8-1.3 2.9-.2 5.8-.9 8.7-1.4v-.4c-2.9-.3-5.7-.6-8.6-.9v-.2zm.1 7.6c.4-.1.7-.1 1.1-.2 3.8-.7 7.6-1.4 11.3-2.2 1.7-.3 3.3.5 4.3 1.9.8 1.3.5 3-.6 3.9-.8.7-1.7 1.2-2.7 1.6-2.3.8-4.7 1.4-7.1 1.8-8 1.3-16.1 2-24.3 2.2-1.3.2-2.5-.6-2.7-1.9v-.5c-.1-1.4 1-2.4 2.6-2.6 5-.3 9.9-.5 14.9-1 3.9-.4 8-1 11.9-1.6v-.5c-2.8-.3-5.7-.6-8.5-1-.2.2-.2.1-.2.1zM74.1 11.8c-3.5-.3-6.9-.7-10.4-.9-5.5-.2-11-.1-16.5-.2-.8-.1-1.5-.3-2.1-.8-.7-.6-.9-1.6-.5-2.5.5-1.1 1.6-1.7 2.7-1.6 8.2-.1 16.4-.2 24.6 1 2.8.4 5.6 1.1 8.3 1.9 1.8.6 2.8 2.5 2.3 4.3-.3 1-1.1 1.8-2.1 2.2-1.9.8-3.9 1.5-5.9 2-8.8 1.9-17.8 2.4-26.7 2.7-1.8.1-3-.8-3-2.3-.1-1.5 1-2.5 2.8-2.6 4-.2 8-.3 12-.6 1.1-.1 2.3-.2 3.5-.4 3.7-.4 7.4-1 11.2-1.4-.1-.3-.2-.5-.2-.8zm-8.8 6.9c.4-.1.7-.2 1.1-.2 3.9-.8 7.9-1.6 11.8-2.3.3-.1.6-.1.9-.1 1.7.4 3 1.7 3.4 3.4.1 1.6-.9 3.1-2.4 3.7-1.5.7-3.1 1.2-4.7 1.6-9.2 2.1-18.5 2.7-27.8 3-1.9.1-3-.8-3-2.3 0-1.6 1-2.5 2.8-2.6 5.9-.4 11.9-.8 17.8-1.3 2.9-.2 5.8-.9 8.7-1.4v-.4c-2.9-.3-5.7-.6-8.6-.9v-.2zm.1 7.6c.4-.1.7-.1 1.1-.2 3.8-.7 7.6-1.4 11.3-2.2 1.7-.3 3.3.5 4.3 1.9.8 1.3.5 3-.6 3.9-.8.7-1.7 1.2-2.6 1.6-2.3.8-4.7 1.4-7.1 1.8-8 1.3-16.1 2-24.3 2.2-1.3.2-2.5-.6-2.7-1.9v-.5c-.1-1.4 1-2.4 2.6-2.6 5-.3 9.9-.5 14.9-1 3.9-.4 8-1 11.9-1.6v-.5c-2.8-.3-5.7-.6-8.5-1-.3.2-.3.1-.3.1zm193.2 123.2c0 2-1.2 3.7-4.7 5.5l-103.2 31.3c-14.3 4.2-36.8 3.4-50.2-1.8l-95-38.6c-2.5-1-4.1-3.4-4.2-6.1v-.1m257.3-97.6c0 2-1.2 3.7-4.7 5.5L150.7 78.9c-14.3 4.2-36.8 3.4-50.2-1.8l-95-38.6c-2.5-1-4.1-3.4-4.2-6.1v-.1M85.1 8.8l28.8-6.9C127.6-.6 130.8.5 146.2 4l108.3 32.8c3.4 1.7 4.4 3 4.3 4.4M81.5 9.6l3.5-.8m-21.9 5.1l9.2-2m186.3 265.5c0 2-1.2 3.7-4.7 5.5l-103.2 31.3c-14.3 4.2-36.8 3.4-50.2-1.8l-95-38.6c-2.5-1-4.1-3.4-4.2-6.1v-.1L1.2 32.7c.4-2.4 2.1-4.3 4.5-4.9l38.9-9.3"/>
  </g>
  <g id="pila_boton">
    <path d="M-689.625 2463.972c0 13.41-34.39 24.224-76.564 24.224s-76.346-10.815-76.346-24.44 34.172-24.224 76.347-24.224 76.565 10.814 76.565 24.44zm21.412 10.382c-2.163-6.7-10.814-12.76-24.007-17.52-9.517-9.948-38.715-17.302-73.32-17.302s-63.8 7.354-73.32 17.3c-14.49 5.193-23.574 11.9-24.44 19.468a12.35 12.35 0 0 0-2.163 6.7v9.95a12.086 12.086 0 0 0 4.763 9.52c10.382 13.626 49.1 23.79 94.948 23.79 44.338 0 81.755-9.515 93.866-22.276a11.86 11.86 0 0 0 7.354-11.03v-9.95a10.71 10.71 0 0 0-3.68-8.65zm-25.087-17.736c2.38 2.38 3.46 4.758 3.46 7.354.217 13.41-34.172 24.224-76.347 24.224s-76.35-10.815-76.35-24.44a10.24 10.24 0 0 1 2.38-6.056c-14.06 5.623-22.494 12.544-22.494 20.114 0 17.3 43.688 31.145 97.76 31.145s97.76-14.06 97.76-31.146c.215-8.22-9.95-15.79-26.17-21.196zm-146.425 134.528c-25.954 0-46.933 6.7-46.933 14.923s20.98 14.922 46.933 14.922 46.933-6.7 46.933-14.923-20.98-14.924-46.933-14.924zm60.125 21.412c-1.3-4.11-6.7-7.786-14.707-10.814-5.84-6.056-23.79-10.6-44.987-10.6s-39.147 4.542-44.987 10.6c-8.652 3.244-14.276 7.354-14.924 11.9a6.655 6.655 0 0 0-1.3 4.11v6.055a6.9 6.9 0 0 0 3.028 5.84c6.488 8.434 30.063 14.49 58.4 14.49 27.252 0 50.177-5.84 57.53-13.626a7.353 7.353 0 0 0 4.543-6.7v-6.056a8.01 8.01 0 0 0-2.597-5.2zm-15.354-11.026a6.374 6.374 0 0 1 2.163 4.542c0 8.22-20.98 14.923-46.934 14.923s-46.933-6.7-46.933-14.923a5.428 5.428 0 0 1 1.514-3.677c-8.657 3.235-13.627 7.565-13.627 12.107 0 10.6 26.82 19.033 60.126 19.033s60.126-8.65 60.126-19.033c-.215-4.972-6.487-9.516-16.436-12.972z"/>
  </g>
  <g id="pila_cuadrada">
    <path d="M-7315.42 2401.467v9.427h-.27l.27.18-9.517 6.255-18.22-.182-8.43-6.254h-.272v-9.427l9.52-6.254 18.22.18 8.067 5.985h.635zm0 6.436v3.175h-.27l.27.18-9.517 6.255-18.22-.18-8.43-6.255h-.27v-3.175c-3.627 1.45-5.8 3.354-5.8 5.44 0 4.622 10.786 8.338 24.02 8.338s24.02-3.715 24.02-8.338c0-2.085-2.176-3.99-5.802-5.44zm-79.404-13.325c-11.33 0-20.485 3.173-20.485 7.07v9.246c0 3.9 9.156 7.07 20.4 7.07 11.332 0 20.4-3.173 20.4-7.07v-9.246c.08-3.897-9.074-7.07-20.314-7.07zm20.4 14.14v1.995c0 3.9-9.155 7.07-20.4 7.07-11.33 0-20.4-3.173-20.4-7.07v-1.994c-2.085 1.268-3.263 2.718-3.263 4.35 0 4.714 10.605 8.43 23.75 8.43s23.748-3.807 23.748-8.43c-.175-1.632-1.354-3.082-3.44-4.35zm49.764-.815h-18.31v7.252h18.31zm-90.65-5.44c.636 3.717 9.52 6.71 20.4 6.71 11.332 0 20.4-3.174 20.4-7.07a3.718 3.718 0 0 0-1.45-2.63m28.1-.544l-3.817 2.448 8.7 6.436 18.22.18 9.518-6.163-3.806-2.81m31.454 21.03v258.065m-155.908-3.082l1.36-257.07m-1.27 257.07c-.09 3.444 3.264 6.98 10.153 6.617l133.34 4.35c7.25.273 12.417-3.172 12.417-7.885m-154.912-200.688c-.09 3.445 3.263 6.98 10.062 6.617l132.432 4.35c7.16.273 12.328-3.172 12.328-7.885m-155.185 154.277c-.09 3.444 3.263 6.98 10.062 6.617l132.885 4.35c7.16.273 12.328-3.172 12.328-7.885m-63.09-237.22l-12.69-.272-11.15-.27m-39.338-1.18h-7.343c-7.343.45-13.507-.634-17.858 7.343l-3.172 10.425c-.635 4.8 3.807 6.8 12.237 7.433l127.903 2.992c4.895.09 14.413-1.27 14.23-8.61l.18-7.432c0-7.433-8.612-8.974-13.507-9.064l-14.412-.366m-36.167-1.27"/>
  </g>
  <g id="pila_doblea">
    <g>
    	<path class="st0" d="M20.8,3.3C22.5,3,24.2,2.8,26,2.5C24.2,2.8,22.5,3,20.8,3.3z M52.8,2.5C54.6,2.8,56.3,3,58,3.3
    		C56.3,3,54.6,2.8,52.8,2.5z M39.5,27.3c-21.5,0-39-5.7-39-12.8v278.3c0,7.1,17.5,12.8,39,12.8s39-5.7,39-12.8V14.5
    		C78.5,21.6,61.1,27.3,39.5,27.3z M39.5,27.3c21.5,0,39-5.7,39-12.8c0-4.9-8.3-9.1-20.4-11.2c-1.7-0.3-3.4-0.6-5.2-0.8
    		c-0.6-0.1-1.2-0.1-1.8-0.2l0,0c0.3,0.2,0.5,0.3,0.6,0.5l0,0L53,4.9c9.3,1.6,15.7,4.8,15.7,8.5c0,5.3-13,9.5-29.1,9.5
    		s-29.1-4.3-29.1-9.5c0-3.7,6.4-6.9,15.7-8.5l1.2-2.1l0,0c0.1-0.2,0.3-0.3,0.6-0.5l0,0c-0.6,0.1-1.2,0.1-1.8,0.2
    		C24.4,2.7,22.7,3,21,3.3C8.8,5.5,0.5,9.7,0.5,14.5C0.5,21.6,18,27.3,39.5,27.3z M39.5,1c3.2-0.1,6.5,0.3,9.6,1.1
    		c0.7,0.1,1.3,0.1,1.9,0.2c-1.7-1.1-6.2-1.8-11.3-1.8h-0.4c-5.2,0-9.6,0.8-11.3,1.8c0.6-0.1,1.3-0.1,1.9-0.2C33,1.3,36.3,1,39.5,1z
    		 M29.8,2.2L29.8,2.2c-0.7,0.1-1.3,0.1-1.9,0.2l0,0C28.5,2.3,29.2,2.2,29.8,2.2z M49,2.2c0.7,0.1,1.3,0.1,1.9,0.2l0,0
    		C50.3,2.3,49.6,2.2,49,2.2z M51.6,3.9c0,0.3-0.2,0.5-0.4,0.8c0.6,0.1,1.2,0.2,1.7,0.3l-1.2-2.1l0,0c-0.1-0.2-0.3-0.3-0.6-0.5
    		c-0.6-0.1-1.3-0.1-1.9-0.2C50.6,2.6,51.6,3.2,51.6,3.9z M27.2,3.9c0-0.7,0.9-1.3,2.5-1.7c-0.7,0.1-1.3,0.1-1.9,0.2
    		c-0.3,0.2-0.5,0.3-0.6,0.5l0,0l-1.2,2c0.6-0.1,1.1-0.2,1.7-0.3C27.4,4.4,27.2,4.2,27.2,3.9z M39.5,6.7c-5.6,0-10.3-0.9-11.7-2.1
    		c-0.6,0.1-1.2,0.2-1.7,0.3l-2,3.4l0,0l-0.3,0.5h0.1c0,0.2-0.1,0.3-0.1,0.5c0,2.9,7.1,5.2,15.8,5.2l0,0c8.7,0,15.8-2.3,15.8-5.2
    		c0-0.2,0-0.3-0.1-0.5h0.1L55,8.4l0,0L53,5c-0.6-0.1-1.1-0.2-1.7-0.3C49.8,5.9,45.1,6.7,39.5,6.7z M0.5,96.6
    		c0,7.1,17.5,12.8,39,12.8s39-5.7,39-12.8"/>
    	<g class="st1">
    		<path class="st2" d="M54.1,61v7.4H43.3v10.8h-7.3V68.5H25.1V61h10.9V50.2h7.3V61H54.1z"/>
    	</g>
    	<g class="st1">
    		<path class="st2" d="M30.6,258.3h17.2v7.4H30.6V258.3z"/>
    	</g>
    </g>
  </g>
  <g id="pila_tipoc">
    <path d="M46.9 4.2c-3.2.4-6.4.9-9.4 1.4 3-.5 6.1-1 9.4-1.4zM105 5.6c-3-.5-6.1-1-9.4-1.4 3.3.4 6.4.9 9.4 1.4zM71.2 49.2C32.2 49.2.4 38.8.4 26v283.4c0 12.8 31.7 23.2 70.8 23.2 39.1 0 70.8-10.3 70.8-23.2V26c.1 12.8-31.6 23.2-70.8 23.2zm0 0c39.1 0 70.8-10.3 70.8-23.2 0-8.8-15-16.5-37.1-20.4-3-.5-6.1-1-9.4-1.4-1.1-.1-2.1-.3-3.3-.4.4.2.8.5 1.1.9h.1l2.2 3.8c16.9 2.9 28.4 8.7 28.4 15.3 0 9.6-23.6 17.3-52.8 17.3s-52.8-7.7-52.8-17.3c0-6.6 11.5-12.5 28.4-15.3L49 4.7h.1c.3-.3.7-.6 1.1-.9-1.1.1-2.2.2-3.3.4-3.2.4-6.4.9-9.4 1.4C15.4 9.5.4 17.2.4 26c.1 12.8 31.8 23.2 70.8 23.2zm0-47.7c7.1 0 13.5.8 17.5 2l3.5.3C89.1 1.8 81 .5 71.6.5h-.8c-9.4 0-17.4 1.4-20.6 3.3l3.5-.3c4.1-1.2 10.4-2 17.5-2zm-17.5 2l-3.5.3 3.5-.3zm35 0l3.5.3-3.5-.3zm4.6 3.1c0 .5-.3 1.1-.8 1.4 1.1.2 2.1.3 3.1.5l-2.2-3.8h-.1c-.3-.3-.7-.6-1.1-.9l-3.5-.3c2.8.9 4.6 2 4.6 3.1zm-44.1 0c0-1.2 1.7-2.2 4.6-3.1l-3.5.3c-.4.2-.8.5-1.1.9h-.1l-2.2 3.8c1.1-.2 2-.3 3.1-.5-.5-.3-.8-.8-.8-1.4zm22 5.2c-10.1 0-18.7-1.7-21.3-3.8-1.1.2-2.1.3-3.1.5l-3.6 6.1-.6 1h.1c-.1.3-.1.6-.1.9 0 5.2 12.8 9.4 28.6 9.4s28.6-4.2 28.6-9.4c0-.3-.1-.6-.1-.9h.1l-.6-1-3.6-6.2c-1.1-.2-2-.3-3.1-.5-2.5 2.4-11 3.9-21.3 3.9zM.5 98.4c0 12.8 31.7 23.2 70.8 23.2s70.8-10.3 70.8-23.2"/><path class="st1 st2" d="M86.1 85.3v7.4H75.3v10.8H68V92.7H57.1v-7.4H68V74.4h7.3v10.9h10.8zM62.6 284.6h17.2v7.4H62.6v-7.4z"/>
  </g>
  <g id="pila_tipod">
    <path d="M38.1 5.7c3-.5 6.3-1 9.7-1.4-3.5.4-6.7.9-9.7 1.4zm59.6-1.4c3.3.4 6.5.9 9.7 1.4-3.1-.5-6.3-1-9.7-1.4zM73.4 50.5C33.2 50.5.7 39.9.7 26.7v290.9c0 13.2 32.5 23.8 72.7 23.8s72.7-10.6 72.7-23.8v-291c-.1 13.2-32.6 23.9-72.7 23.9zm0 0c40.2 0 72.7-10.6 72.7-23.8 0-9.1-15.4-16.9-38.1-20.9-3.1-.5-6.3-1-9.7-1.4-1.1-.2-2.3-.3-3.4-.3h-.1c.4.2.8.5 1.1.9h.1l2.3 3.9c17.3 3 29.2 8.9 29.2 15.8 0 9.8-24.3 17.8-54.2 17.8-30 0-54.2-7.9-54.2-17.8 0-6.9 11.9-12.8 29.2-15.8L50.6 5h.1c.3-.4.7-.7 1.1-.9h-.1c-1.1.1-2.3.3-3.4.3-3.3.4-6.5.9-9.7 1.4C15.9 9.8.5 17.8.5 26.7c.2 13.1 32.7 23.8 72.9 23.8zm0-49c7.3 0 13.9.8 18 2.1l3.6.3C91.8 1.9 83.5.5 73.8.5h-.9C63.2.5 55 1.9 51.7 3.9c1.2-.1 2.4-.3 3.6-.3 5.9-1.5 12-2.2 18.1-2.1zm-18.7 2l-3.6.3c1.3 0 2.4-.1 3.6-.3zm41.4 3.4c0 .6-.3 1.1-.8 1.4 1.1.2 2.2.3 3.2.5l-2.3-3.9H96c-.2-.4-.6-.7-1-.9-1.2-.1-2.4-.3-3.6-.3 3 .8 4.7 1.9 4.7 3.2zm-45.4 0c0-1.2 1.7-2.4 4.7-3.2-1.2 0-2.4.1-3.6.3-.4.2-.8.5-1.1.9h-.1l-2.3 3.9c1-.2 2.1-.3 3.2-.5-.4-.3-.8-.9-.8-1.4zm22.7 5.3c-10.5 0-19.2-1.7-21.8-3.9-1.1.2-2.2.3-3.2.5l-3.7 6.4v.1l-.6 1h.2c-.1.3-.2.6-.2 1 0 5.3 13.2 9.6 29.4 9.6s29.4-4.3 29.4-9.6c0-.3-.1-.6-.2-1h.2l-.6-1v-.1l-3.7-6.4c-1-.2-2.1-.3-3.2-.5-2.9 2.2-11.6 3.9-22 3.9zM.7 101c0 13.2 32.5 23.8 72.7 23.8S146 114.1 146 101"/><path class="st1 st2" d="M88.1 84.3v7.4H77.3v10.8H70V91.7H59.1v-7.4H70V73.4h7.3v10.9h10.8zM64.4 288.6h17.2v7.4H64.4v-7.4z"/>
  </g>
  <g id="pila_triplea">
    <path d="M20.8 3.3c1.7-.3 3.4-.5 5.2-.8-1.8.3-3.5.5-5.2.8zm32-.8c1.8.3 3.5.5 5.2.8-1.7-.3-3.4-.5-5.2-.8zM39.5 27.3C18 27.3.5 21.6.5 14.5v278.3c0 7.1 17.5 12.8 39 12.8s39-5.7 39-12.8V14.5c0 7.1-17.4 12.8-39 12.8zm0 0c21.5 0 39-5.7 39-12.8 0-4.9-8.3-9.1-20.4-11.2-1.7-.3-3.4-.6-5.2-.8-.6-.1-1.2-.1-1.8-.2.3.2.5.3.6.5L53 4.9c9.3 1.6 15.7 4.8 15.7 8.5 0 5.3-13 9.5-29.1 9.5s-29.1-4.3-29.1-9.5c0-3.7 6.4-6.9 15.7-8.5l1.2-2.1c.1-.2.3-.3.6-.5-.6.1-1.2.1-1.8.2-1.8.2-3.5.5-5.2.8C8.8 5.5.5 9.7.5 14.5c0 7.1 17.5 12.8 39 12.8zm0-26.3c3.2-.1 6.5.3 9.6 1.1.7.1 1.3.1 1.9.2C49.3 1.2 44.8.5 39.7.5h-.4c-5.2 0-9.6.8-11.3 1.8.6-.1 1.3-.1 1.9-.2C33 1.3 36.3 1 39.5 1zm-9.7 1.2c-.7.1-1.3.1-1.9.2.6-.1 1.3-.2 1.9-.2zm19.2 0c.7.1 1.3.1 1.9.2-.6-.1-1.3-.2-1.9-.2zm2.6 1.7c0 .3-.2.5-.4.8.6.1 1.2.2 1.7.3l-1.2-2.1c-.1-.2-.3-.3-.6-.5-.6-.1-1.3-.1-1.9-.2 1.4.4 2.4 1 2.4 1.7zm-24.4 0c0-.7.9-1.3 2.5-1.7-.7.1-1.3.1-1.9.2-.3.2-.5.3-.6.5l-1.2 2c.6-.1 1.1-.2 1.7-.3-.3-.2-.5-.4-.5-.7zm12.3 2.8c-5.6 0-10.3-.9-11.7-2.1-.6.1-1.2.2-1.7.3l-2 3.4-.3.5h.1c0 .2-.1.3-.1.5 0 2.9 7.1 5.2 15.8 5.2 8.7 0 15.8-2.3 15.8-5.2 0-.2 0-.3-.1-.5h.1l-.4-.4L53 5c-.6-.1-1.1-.2-1.7-.3-1.5 1.2-6.2 2-11.8 2zM.5 96.6c0 7.1 17.5 12.8 39 12.8s39-5.7 39-12.8"/><path class="st1 st2" d="M54.1 61v7.4H43.3v10.8H36V68.5H25.1V61H36V50.2h7.3V61h10.8zM30.6 258.3h17.2v7.4H30.6v-7.4z"/>
  </g>
  <g id="icono-conoce">
    <path d="M1.583,48.745A1.567,1.567,0,0,1,0,47.158V5.378A1.567,1.567,0,0,1,1.541,3.792h7.03v-2.2A1.567,1.567,0,0,1,10.154,0H29.111a1.567,1.567,0,0,1,1.583,1.587v2.2h6.3a1.567,1.567,0,0,1,1.541,1.586v41.78a1.567,1.567,0,0,1-1.583,1.587Zm33.783-3.173V6.964H30.694V9.748a1.567,1.567,0,0,1-1.583,1.587H10.154A1.567,1.567,0,0,1,8.571,9.748V6.964H3.166V45.571ZM27.528,8.163V3.173H11.737v4.99ZM8.224,38.3a1.586,1.586,0,0,1,0-3.171H19.652a1.586,1.586,0,0,1-.038,3.171Zm0-7.659a1.665,1.665,0,0,1-.2-.013,1.564,1.564,0,0,1-1.379-1.572h0a1.564,1.564,0,0,1,1.221-1.545,1.642,1.642,0,0,1,.362-.04H31.041a1.642,1.642,0,0,1,.362.04,1.564,1.564,0,0,1,1.221,1.545h0a1.565,1.565,0,0,1-1.379,1.572,1.665,1.665,0,0,1-.2.013Zm0-7.7a1.567,1.567,0,0,1-1.583-1.587,1.593,1.593,0,0,1,1.583-1.587H31.083a1.587,1.587,0,0,1-.041,3.173Z" transform="translate(-14021.651 -2048.275)"/>
  </g>
  <g id="puntos-cercanos">
    <path d="M12177,2303.7c0-2.982,5.5-4.031,9.58-4.4v-4.513a4.5,4.5,0,0,1-1.636-3.47v-6.386a4.513,4.513,0,0,1,4.509-4.507h3.213a4.511,4.511,0,0,1,4.508,4.507v6.386a4.5,4.5,0,0,1-1.634,3.47v4.513c4.082.368,9.58,1.415,9.58,4.4,0,4.372-11.708,4.593-14.056,4.593S12177,2308.07,12177,2303.7Zm3.167,0c1.191.705,4.944,1.708,10.9,1.708s9.7-1,10.89-1.708a17.892,17.892,0,0,0-6.414-1.506v1.5a1.441,1.441,0,1,1-2.883,0v-9.671a1.437,1.437,0,0,1,.766-1.271,1.632,1.632,0,0,0,.867-1.438v-6.386a1.625,1.625,0,0,0-1.624-1.624h-3.213a1.627,1.627,0,0,0-1.626,1.624v6.386a1.63,1.63,0,0,0,.87,1.438,1.441,1.441,0,0,1,.764,1.271l0,9.671a1.441,1.441,0,1,1-2.883,0v-1.5A17.988,17.988,0,0,0,12180.167,2303.7Zm6.272-29.091a4.608,4.608,0,1,1,4.606,4.61A4.613,4.613,0,0,1,12186.439,2274.609Zm2.881,0a1.727,1.727,0,1,0,1.726-1.726A1.73,1.73,0,0,0,12189.32,2274.609Z" transform="translate(-22163.867 -10165)"/>
  </g>
  <g id="puntos-publicos">
    <path d="M24.943,2.872a9.805,9.805,0,0,0-13.868,0,11.169,11.169,0,0,0-.922,13.782L18.009,28l7.845-11.33A11.174,11.174,0,0,0,24.943,2.872ZM18.1,13.3a3.579,3.579,0,1,1,3.579-3.579A3.584,3.584,0,0,1,18.1,13.3Z" transform="translate(-9862.495 -7887)"/>
  </g>
  <g id="puntos-privados">
    <path d="M24.943,2.872a9.805,9.805,0,0,0-13.868,0,11.169,11.169,0,0,0-.922,13.782L18.009,28l7.845-11.33A11.174,11.174,0,0,0,24.943,2.872ZM18.1,13.3a3.579,3.579,0,1,1,3.579-3.579A3.584,3.584,0,0,1,18.1,13.3Z" transform="translate(-9713.495 -7887)"/>
  </g>
  <g id="puntos-listado">
    <path d="M12178.666,2298a1.667,1.667,0,0,1,0-3.335h11.878a1.667,1.667,0,0,1,0,3.335Zm26.066-.27a1.659,1.659,0,0,1-1.309-.481l-7.071-7.072a1.667,1.667,0,0,1,2.357-2.357l4.487,4.488v-20.641a1.666,1.666,0,1,1,3.332,0v20.381l4.229-4.227a1.666,1.666,0,0,1,2.354,2.357l-7.071,7.072a1.66,1.66,0,0,1-1.178.487C12204.821,2297.737,12204.778,2297.734,12204.732,2297.731Zm-26.066-7.73a1.667,1.667,0,0,1,0-3.335h11.878a1.667,1.667,0,0,1,0,3.335Zm0-8.669a1.666,1.666,0,0,1,0-3.332h17.53a1.666,1.666,0,1,1,0,3.332Zm0-8a1.666,1.666,0,0,1,0-3.332h17.53a1.666,1.666,0,1,1,0,3.332Z" transform="translate(-21774.294 -10157)"/>
  </g>
  <g id="flecha-paginador">
    <path d="M4.754,4.474,9.008,0V9.008H0Z" transform="translate(-9340.369 -6699) rotate(-45)"/>
  </g>
  <g id="icono-tipoa">
    <path d="M12,36.1V4.4c0-0.1,0-0.2,0-0.2c0-1,1.7-1.9,4.2-2.3c0.3-0.1,0.7-0.1,1.1-0.2c0.1,0,0.2,0,0.4,0h0
      c0.8-0.3,1.6-0.4,2.4-0.4c0.8,0,1.6,0.1,2.4,0.4l0,0h0c0.1,0,0.2,0,0.4,0c0.4,0,0.7,0.1,1.1,0.2C26.3,2.3,28,3.2,28,4.2v0.1
      c0,0,0,0,0-0.1v32c0,1.4-3.6,2.6-8,2.6S12,37.5,12,36.1z M13.5,35.2c0,0.6,2.3,1.8,6.5,1.8s6.6-1.2,6.6-1.8V17.3
      c-1.4,1-4.2,1.4-6.5,1.4c-2.4,0-5.2-0.5-6.6-1.5L13.5,35.2z M13.6,15.6c0.9,1,3.5,1.6,6.5,1.6c3,0,5.6-0.7,6.5-1.6v-10
      c0,0.1,0,0.2,0,0.3c-1.1,0.9-3.6,1.5-6.5,1.5s-5.4-0.5-6.5-1.3L13.6,15.6z M14.1,3.9c0,1.1,2.7,1.9,5.9,1.9C23.3,5.9,26,5,26,3.9
      c0-0.7-1.3-1.4-3.2-1.7l0.4,0.7v0l0,0.1c0,0,0,0.1,0,0.1c0,0.6-1.5,1.1-3.2,1.1c-1.8,0-3.2-0.5-3.2-1.1V3l0.1-0.1v0l0.4-0.7
      C15.3,2.5,14,3.2,14.1,3.9z M17.6,2.2c0,0,0,0.1,0.1,0.1h0c0.7,0.3,1.5,0.4,2.2,0.3c1.6,0,2.4-0.3,2.4-0.4c0-0.1-0.8-0.4-2.4-0.4
      C18.5,1.8,17.6,2.1,17.6,2.2z M18.4,29.8v-1.5h3v1.5H18.4z M19.4,14.8V13h-1.7v-1.5h1.7V9.8h1.5v1.7h1.7V13h-1.7v1.7H19.4z"/>
  </g>
  <g id="icono-recogida">
    <path class="st0" d="M21.2,16.1L21.2,16.1c0.2,0,0.4-0.1,0.6-0.3c0.1-0.1,0.3-0.3,0.3-0.6v-4.2c0-0.2-0.1-0.4-0.3-0.6
  		c-0.1-0.1-0.3-0.3-0.6-0.3c-0.2,0-0.4,0.1-0.6,0.3c-0.1,0.1-0.3,0.3-0.3,0.5v4.2c0,0.2,0.1,0.5,0.3,0.6C20.8,16,21,16.1,21.2,16.1z
  		"/>
  	<path class="st0" d="M19.2,16c0.4,0,0.8-0.4,0.8-0.8v-2.4c0-0.2-0.1-0.4-0.3-0.6c-0.1-0.1-0.3-0.3-0.6-0.3c-0.2,0-0.4,0.1-0.6,0.3
  		c-0.1,0.1-0.3,0.3-0.3,0.6v2.4c0,0.2,0.1,0.4,0.3,0.6l0,0C18.7,16,18.9,16,19.2,16z"/>
  	<path class="st0" d="M28.2,18.2c0.1-0.1,0.1-0.2,0.1-0.3c0-0.4-0.2-0.7-0.4-1c-0.6-0.6-1.6-0.6-2.2,0c-0.3,0.3-0.4,0.7-0.4,1.1
  		c0,0.5,0.2,0.9,0.5,1.1c0.4,0.3,0.8,0.5,1.3,0.5l0,0c0.3,0,0.4,0,0.7-0.1c0.2-0.1,0.3-0.1,0.4-0.2c0.1-0.1,0.1-0.1,0.2-0.2
  		c0-0.1,0.1-0.1,0.1-0.2c0-0.1-0.1-0.2-0.1-0.3c-0.1-0.1-0.2-0.1-0.3-0.1c-0.1,0-0.1,0-0.1,0c-0.1,0-0.1,0-0.2,0.1
  		c-0.1,0-0.1,0.1-0.2,0.1c-0.1,0-0.1,0-0.3,0s-0.2,0-0.3-0.1c-0.1,0-0.1-0.1-0.1-0.1c-0.1-0.1-0.1-0.1-0.1-0.1h1.4
  		C28,18.3,28.1,18.3,28.2,18.2z M26.5,17.7L26.5,17.7c0.1-0.2,0.2-0.3,0.3-0.3s0.3,0.1,0.3,0.3H26.5z"/>
  	<path class="st0" d="M29.2,19.6c0.1,0,0.3-0.1,0.4-0.2c0.1-0.1,0.2-0.3,0.2-0.5v-3.2c0-0.1,0-0.1-0.1-0.2c-0.1,0.1-0.1,0.1-0.1,0.1
  		c-0.3,0.2-0.6,0.3-1,0.4v2.9c0,0.2,0.1,0.3,0.2,0.5C28.9,19.6,29.1,19.6,29.2,19.6L29.2,19.6z"/>
  	<path class="st0" d="M17.3,17c-0.6,0.6-0.5,1.6,0.1,2.2c0.6,0.6,1.7,0.6,2.3,0l0.1-0.1c0.6-0.6,0.5-1.6-0.1-2.2
  		C19,16.3,18,16.3,17.3,17C17.3,16.9,17.3,16.9,17.3,17z M18.1,17.7c0.1-0.1,0.2-0.1,0.3-0.1s0.3,0.1,0.3,0.1
  		c0.1,0.1,0.1,0.2,0.1,0.3c0,0.1-0.1,0.3-0.1,0.4l0,0c-0.1,0.1-0.2,0.1-0.3,0.1s-0.3-0.1-0.3-0.1C18.1,18.3,18,18.1,18,18
  		C18,17.9,18.1,17.8,18.1,17.7z"/>
  	<path class="st0" d="M29.9,21.5c0.1-0.1,0.1-0.1,0.1-0.2c0-0.3-0.1-0.5-0.3-0.6c-0.4-0.3-1-0.3-1.4,0c-0.2,0.2-0.3,0.5-0.3,0.7
  		s0.1,0.5,0.3,0.7l0,0c0.2,0.2,0.5,0.3,0.8,0.3h0.1c0.1,0,0.3,0,0.4-0.1c0.1,0,0.2-0.1,0.3-0.1c0.1-0.1,0.1-0.1,0.1-0.1
  		c0-0.1,0-0.1,0-0.1s0-0.1-0.1-0.2c-0.1-0.1-0.1-0.1-0.2-0.1h-0.1c-0.1,0-0.1,0-0.1,0.1c-0.1,0-0.1,0-0.1,0c-0.1,0-0.1,0-0.1,0
  		c-0.1,0-0.1,0-0.2,0s-0.1,0-0.1-0.1c-0.1,0-0.1-0.1-0.1-0.1h0.9C29.7,21.6,29.8,21.6,29.9,21.5z M28.8,21.2L28.8,21.2
  		c0.1-0.1,0.1-0.2,0.2-0.2c0.1,0,0.2,0.1,0.2,0.2H28.8z"/>
  	<ellipse class="st0" cx="11.6" cy="28.4" rx="0.6" ry="0.7"/>
  	<ellipse class="st0" cx="33" cy="28.4" rx="0.6" ry="0.6"/>
  	<path class="st0" d="M21.6,19.6c-0.1,0.1-0.1,0.2-0.1,0.3c0,0.2,0.2,0.4,0.4,0.4l0,0c0.2,0,0.4-0.2,0.4-0.4c0-0.1-0.1-0.2-0.1-0.3
  		C22,19.5,21.7,19.5,21.6,19.6z"/>
  	<path class="st0" d="M24.2,16L24.2,16c0.2,0,0.4,0,0.5-0.1c0.1-0.1,0.3-0.1,0.4-0.3c0.2,0.2,0.4,0.3,0.6,0.3c0.2,0,0.4-0.1,0.6-0.3
  		c0.1-0.1,0.3-0.3,0.3-0.6v-2.3c0-0.2-0.1-0.4-0.3-0.6c-0.1-0.1-0.3-0.2-0.5-0.2c-0.3,0.1-0.4,0.1-0.6,0.3c-0.1-0.1-0.3-0.2-0.4-0.3
  		c-0.1-0.1-0.3-0.1-0.4-0.1c-0.5,0-1,0.2-1.3,0.6c-0.4,0.4-0.6,0.9-0.6,1.5c0,0.5,0.2,1,0.5,1.4C23.2,15.8,23.6,16.1,24.2,16z
  		 M24.1,13.6c0.1-0.1,0.3-0.2,0.4-0.2l0,0c0.1,0,0.3,0.1,0.4,0.2c0.1,0.1,0.1,0.3,0.1,0.5c0,0.1-0.1,0.3-0.1,0.5c0,0,0,0-0.1,0.1
  		c-0.2,0.2-0.5,0.2-0.7-0.1c-0.1-0.1-0.2-0.3-0.1-0.5C23.9,13.9,24,13.8,24.1,13.6z"/>
  	<path class="st0" d="M29.1,13.6l-0.6-0.2c-0.2-0.1-0.3-0.1-0.3-0.2c0-0.1,0.1-0.1,0.2-0.1c0.1,0,0.1,0,0.1,0l0.3,0.1l0.2,0.1
  		c0.1,0,0.3,0.1,0.3,0.1c0.1,0,0.3-0.1,0.4-0.1c0.1-0.1,0.2-0.3,0.2-0.4c0-0.2-0.1-0.4-0.4-0.5c-0.3-0.1-0.7-0.2-1-0.2
  		c-0.4,0-0.9,0.1-1.3,0.3c-0.3,0.2-0.5,0.6-0.4,0.9c0,0.2,0.1,0.5,0.2,0.6c0.1,0.2,0.3,0.3,0.6,0.4l0.7,0.2c0.3,0.1,0.3,0.1,0.3,0.2
  		c0,0.1-0.1,0.1-0.2,0.1c-0.1,0-0.1,0-0.2,0c-0.1,0-0.3-0.1-0.3-0.1c-0.1-0.1-0.2-0.1-0.3-0.1c-0.1,0-0.1,0-0.3,0s-0.3,0.1-0.4,0.2
  		c-0.1,0.1-0.2,0.3-0.2,0.4c0,0.3,0.2,0.5,0.5,0.7l0,0c0.4,0.2,0.8,0.3,1.2,0.3h0.1c0.4,0,0.8-0.1,1.2-0.4c0.3-0.2,0.4-0.6,0.4-0.9
  		c0-0.3-0.1-0.5-0.3-0.7C29.6,13.8,29.4,13.6,29.1,13.6z"/>
  	<polygon class="st0" points="11.1,28.4 11.1,28.4 11.1,28.3 	"/>
  	<path class="st0" d="M39.5,13.7l-5.2-5.9c-0.4-0.4-0.9-0.7-1.5-0.7H6.2C5.2,7.2,4.4,8,4.4,9v17.1c-0.1,0-0.1,0-0.1,0H0.7
  		c-0.4,0-0.7,0.3-0.7,0.7l0,0c0,0.4,0.3,0.7,0.7,0.7h3.6c0.1,0,0.1,0,0.1,0c0.1,0.3,0.1,0.5,0.3,0.8H2.9c-0.4,0-0.7,0.3-0.7,0.7l0,0
  		c0,0.4,0.3,0.7,0.7,0.7h3.6c0.4,0,0.6-0.3,0.7-0.7h0.3c0.3,1.8,1.7,3.4,3.5,3.6c2.2,0.3,4.3-1.3,4.7-3.6h13.1l0,0
  		c0.3,1.8,1.7,3.4,3.5,3.6c2.2,0.3,4.3-1.3,4.7-3.6h1.2c1-0.1,1.8-0.9,1.9-1.8V15.1C40,14.6,39.8,14,39.5,13.7z M35.3,10.8l1.5,1.7
  		l1.7,2c0.2,0.1,0.3,0.3,0.3,0.5v1.9h-5.6v-6.1C33.2,10.8,35.3,10.8,35.3,10.8z M11.6,31.6c-1.7,0-2.9-1.4-2.9-3v-0.1
  		c0-1.6,1.3-3,2.9-3c1.7,0,2.9,1.4,2.9,3C14.5,30.2,13.2,31.6,11.6,31.6z M32.8,31.6c-1.7,0-2.9-1.4-2.9-3l0,0v-0.1
  		c0-1.6,1.3-3,2.9-3c1.7,0,2.9,1.4,2.9,3C35.8,30.2,34.5,31.6,32.8,31.6z M38.7,21.2h-0.3c-0.3,0-0.6,0.3-0.6,0.6s0.3,0.6,0.6,0.6
  		h0.3v4.9c0,0.3-0.3,0.6-0.6,0.6H37l0,0c-0.3-2.1-2-3.7-4.1-3.7h-0.1h-0.1c-2,0-3.8,1.6-4.1,3.7h-13c-0.3-2.1-2-3.7-4.1-3.7h-0.1
  		c-2,0-3.8,1.6-4.1,3.7H6.2c-0.3,0-0.6-0.3-0.6-0.6c0.1-4.3,0-11.6,0-18.3c0-0.3,0.3-0.6,0.6-0.6h26.6c0.2,0,0.4,0.1,0.6,0.3l0.8,1
  		h-1.3c-0.6,0-1,0.5-1,1.1v6.5c0,0.6,0.4,1,1,1.1h5.8L38.7,21.2L38.7,21.2z"/>
  	<path class="st0" d="M23.2,19.4c0.1-0.1,0.2-0.3,0.2-0.5v-1.5c0-0.3-0.1-0.6-0.3-0.7c-0.2-0.2-0.5-0.3-0.8-0.3
  		c-0.3,0-0.4,0.1-0.6,0.2l-0.1,0.1c-0.1-0.1-0.3-0.3-0.4-0.3c-0.2,0-0.3,0.1-0.4,0.2s-0.2,0.3-0.2,0.5v1.8c0,0.2,0.1,0.3,0.2,0.5
  		c0.1,0.1,0.3,0.2,0.4,0.2l0,0l0,0c0.3,0,0.6-0.3,0.6-0.7v-1.2c0-0.1,0.1-0.2,0.1-0.2c0.1-0.1,0.1-0.1,0.2-0.1s0.1,0,0.2,0.1
  		c0.1,0.1,0.1,0.1,0.1,0.2v1.2c0,0.2,0.1,0.3,0.2,0.5c0.1,0.1,0.3,0.2,0.4,0.2C22.9,19.6,23.1,19.5,23.2,19.4z"/>
  	<path class="st0" d="M18.4,20.4c-0.2,0-0.3,0.1-0.4,0.1l-0.1,0.1c-0.1-0.1-0.2-0.1-0.3-0.1s-0.2-0.1-0.3-0.1s-0.1,0-0.2,0
  		s-0.1,0.1-0.2,0.1l-0.1,0.1c-0.1-0.1-0.2-0.1-0.3-0.1l0,0c-0.2,0-0.4,0.2-0.4,0.4V22c0,0.1,0.1,0.2,0.1,0.3s0.2,0.1,0.3,0.1l0,0
  		c0.2,0,0.4-0.2,0.4-0.4v-0.7c0-0.1,0-0.1,0.1-0.1c0.1,0,0.1-0.1,0.1-0.1s0.1,0,0.1,0.1c0,0.1,0.1,0.1,0.1,0.1V22
  		c0,0.1,0.1,0.2,0.1,0.3s0.2,0.1,0.3,0.1c0.1,0,0.2-0.1,0.3-0.1s0.1-0.2,0.1-0.3v-0.7c0-0.1,0-0.1,0.1-0.1c0,0,0.1-0.1,0.1-0.1
  		s0.1,0,0.1,0.1c0.1,0,0.1,0.1,0.1,0.1V22c0,0.1,0.1,0.2,0.1,0.3l0,0c0.1,0.1,0.4,0.1,0.5,0c0.1-0.1,0.1-0.2,0.1-0.3V21
  		c0-0.2-0.1-0.3-0.2-0.5C18.7,20.4,18.6,20.4,18.4,20.4z"/>
  	<path class="st0" d="M15.6,20.4c-0.1,0-0.3,0.1-0.3,0.1c-0.1-0.1-0.1-0.1-0.2-0.1c-0.1,0-0.1,0-0.3,0c-0.3,0-0.4,0.1-0.6,0.3
  		c-0.2,0.2-0.3,0.5-0.3,0.7c0,0.3,0.1,0.5,0.3,0.7c0.2,0.2,0.4,0.3,0.6,0.3l0,0c0.1,0,0.1,0,0.2,0c0.1,0,0.1-0.1,0.2-0.1
  		c0.1,0.1,0.2,0.1,0.3,0.1s0.2-0.1,0.3-0.1s0.1-0.2,0.1-0.3v-1.2c0-0.1-0.1-0.2-0.1-0.3C15.8,20.4,15.7,20.4,15.6,20.4z M15.1,21.6
  		L15.1,21.6c-0.1,0.1-0.3,0.1-0.4,0c-0.1-0.1-0.1-0.1-0.1-0.2c0-0.1,0-0.2,0.1-0.3l0,0l0,0c0.1-0.1,0.3-0.1,0.3,0
  		C15.2,21.3,15.2,21.5,15.1,21.6z"/>
  	<path class="st0" d="M14.5,19.3c0.3,0.2,0.7,0.3,1.1,0.3l0,0c0.8,0,1.1-0.2,1.1-0.7c0-0.1-0.1-0.3-0.1-0.4
  		c-0.1-0.1-0.3-0.1-0.4-0.1h-0.3l-0.2,0.1h-0.1h-0.1c-0.1,0-0.3-0.1-0.3-0.1c-0.1-0.1-0.1-0.2-0.1-0.3c0-0.1,0.1-0.2,0.1-0.3
  		c0.1-0.1,0.2-0.1,0.3-0.1s0.3,0,0.3,0.1c0.1,0,0.1,0.1,0.2,0.1s0.1,0,0.1,0c0.1,0,0.3-0.1,0.4-0.1c0.1-0.1,0.1-0.1,0.1-0.1
  		c0.1-0.3,0-0.6-0.3-0.7c-0.3-0.1-0.6-0.2-0.8-0.2c-0.4,0-0.8,0.1-1.2,0.5c-0.3,0.3-0.4,0.7-0.4,1.1c0,0.2,0.1,0.5,0.1,0.7
  		C14.1,18.9,14.3,19.1,14.5,19.3z"/>
  	<path class="st0" d="M19.2,11.9L19.2,11.9c0.2,0,0.4-0.1,0.6-0.3c0.1-0.1,0.3-0.4,0.3-0.6s-0.1-0.5-0.3-0.6
  		c-0.1-0.1-0.4-0.3-0.6-0.3c-0.4,0-0.8,0.4-0.8,0.9c0,0.2,0.1,0.5,0.3,0.6C18.7,11.7,18.9,11.9,19.2,11.9z"/>
  	<path class="st0" d="M21.9,20.4c-0.1,0-0.2,0.1-0.3,0.1c-0.1,0.1-0.1,0.2-0.1,0.3V22c0,0.1,0.1,0.2,0.1,0.3s0.2,0.1,0.3,0.1l0,0
  		c0.2,0,0.4-0.2,0.4-0.4v-1.2c0-0.1-0.1-0.2-0.1-0.3C22,20.4,22,20.4,21.9,20.4z"/>
  	<path class="st0" d="M20.4,20.4c-0.1,0-0.1,0-0.2,0c-0.1,0-0.1,0.1-0.2,0.1V20c0-0.1-0.1-0.2-0.1-0.3s-0.2-0.1-0.3-0.1
  		c-0.1,0-0.2,0.1-0.3,0.1s-0.1,0.2-0.1,0.3v2c0,0.1,0.1,0.2,0.1,0.3s0.2,0.1,0.3,0.1c0.1,0,0.2-0.1,0.3-0.2c0.1,0.1,0.1,0.1,0.2,0.1
  		l0,0c0.1,0,0.1,0,0.2,0h0.1c0.3,0,0.4-0.1,0.6-0.3c0.2-0.2,0.3-0.5,0.3-0.7c0-0.3-0.1-0.5-0.3-0.7C20.9,20.5,20.6,20.4,20.4,20.4z
  		 M20.4,21.6L20.4,21.6c-0.1,0.1-0.1,0.1-0.2,0.1c-0.1,0-0.1,0-0.2-0.1C20,21.6,20,21.5,20,21.4c0-0.1,0-0.1,0.1-0.2
  		c0.1-0.1,0.1-0.1,0.2-0.1c0.1,0,0.1,0,0.2,0.1c0.1,0.1,0.1,0.1,0.1,0.2S20.5,21.6,20.4,21.6z"/>
  	<path class="st0" d="M25.8,20.4c-0.1,0-0.3,0.1-0.4,0.1l-0.1,0.1c-0.1-0.1-0.2-0.1-0.3-0.2c-0.1,0-0.2,0.1-0.3,0.1
  		c-0.1,0.1-0.1,0.2-0.1,0.3V22c0,0.1,0.1,0.2,0.1,0.3c0.1,0.1,0.2,0.1,0.3,0.1l0,0c0.2,0,0.4-0.2,0.4-0.4v-0.7c0-0.1,0-0.1,0.1-0.1
  		c0.1-0.1,0.1-0.1,0.1-0.1c0.1,0,0.1,0,0.1,0.1c0.1,0.1,0.1,0.1,0.1,0.1V22c0,0.1,0.1,0.2,0.1,0.3l0,0c0.1,0.1,0.2,0.1,0.3,0.1l0,0
  		c0.1,0,0.2-0.1,0.3-0.1s0.1-0.2,0.1-0.3V21c0-0.2-0.1-0.3-0.2-0.5C26.1,20.4,25.9,20.4,25.8,20.4z"/>
  	<path class="st0" d="M14.1,15.8c0.1,0.1,0.3,0.3,0.6,0.3l0,0l0,0c0.4,0,0.8-0.4,0.8-0.9v-0.7h0.6c0.5,0,1-0.1,1.5-0.5
  		c0.4-0.3,0.6-0.9,0.6-1.4c0-0.5-0.2-1-0.6-1.3c-0.4-0.3-0.9-0.5-1.4-0.5h-1.5c-0.2,0-0.4,0.1-0.6,0.3c-0.1,0.2-0.3,0.4-0.2,0.7v3.5
  		C13.9,15.4,13.9,15.6,14.1,15.8L14.1,15.8z M15.5,12.3h0.6c0.1,0,0.2,0.1,0.3,0.1c0.1,0.1,0.1,0.4,0,0.5c-0.1,0.1-0.2,0.1-0.3,0.1
  		h-0.6V12.3z"/>
  	<path class="st0" d="M27.9,20.5c-0.1-0.1-0.1-0.1-0.3-0.1h-0.1v-0.1c0-0.1-0.1-0.2-0.1-0.3c-0.1-0.1-0.2-0.1-0.3-0.1
  		c-0.2,0-0.4,0.2-0.4,0.4v0.1h-0.1c-0.1,0-0.2,0-0.3,0.1s-0.1,0.1-0.1,0.2c0,0.1,0.1,0.2,0.1,0.3s0.1,0.1,0.3,0.1l0,0V22
  		c0,0.1,0.1,0.2,0.1,0.3l0,0c0.1,0.1,0.2,0.1,0.3,0.1c0.2,0,0.4-0.2,0.4-0.4v-0.9h0.1c0.1,0,0.2-0.1,0.3-0.1C28,21,28,20.9,28,20.8
  		S27.9,20.6,27.9,20.5z"/>
  	<ellipse class="st0" cx="10" cy="11.2" rx="1" ry="0.5"/>
  	<path class="st0" d="M10,10.1c-1.3,0-2.3,0.5-2.3,1.3V17c0,0.7,1,1.3,2.3,1.3c1.2,0,2.1-0.5,2.3-1.1c-0.1,0.6-1.1,1.1-2.3,1.1
  		c-1.3,0-2.3-0.5-2.3-1.3v4.2c0,0.7,1,1.3,2.3,1.3s2.3-0.5,2.3-1.3V17c0,0,0,0,0-0.1v-5.6C12.3,10.7,11.3,10.1,10,10.1z M11.8,16.2
  		c-0.4,0.6-1,0.9-1.7,0.9c-0.7,0.1-1.3-0.3-1.7-0.9c-0.1-0.1-0.1-0.2-0.1-0.3l0,0c0-0.1,0.1-0.2,0.2-0.3l0,0
  		c0.2-0.1,0.4-0.1,0.6,0.1c0.3,0.3,0.6,0.5,1,0.5c0.4,0.1,0.8-0.1,1-0.5l0,0c0.1-0.2,0.4-0.3,0.6-0.1C11.9,15.8,11.9,16,11.8,16.2z
  		 M10.9,13.9c0.1,0,0.2,0.1,0.3,0.1c0.1,0.1,0.1,0.2,0.1,0.3s-0.1,0.2-0.1,0.3c-0.1,0.1-0.2,0.1-0.3,0.1h-0.4v0.5
  		c0,0.1-0.1,0.2-0.1,0.3l0,0c-0.1,0.1-0.2,0.1-0.3,0.1s-0.2-0.1-0.3-0.1c-0.1-0.1-0.1-0.2-0.1-0.3v-0.5H9.1c-0.1,0-0.2-0.1-0.3-0.1
  		c-0.2-0.2-0.2-0.5,0-0.6C8.9,14,9,13.9,9.1,13.9h0.4v-0.4c0-0.1,0.1-0.2,0.1-0.3c0.1-0.1,0.2-0.1,0.3-0.1s0.2,0.1,0.3,0.1
  		c0.1,0.1,0.1,0.2,0.1,0.3V14L10.9,13.9L10.9,13.9z M10,12.5c-1.1,0-2-0.5-2-1.1c0-0.6,0.9-1.1,2-1.1s2,0.5,2,1.1
  		C12,12.1,11.1,12.5,10,12.5z"/>
  	<path class="st0" d="M24.3,21.5c0.1-0.1,0.1-0.1,0.1-0.2c0-0.3-0.1-0.5-0.3-0.6c-0.4-0.3-1-0.3-1.4,0c-0.2,0.2-0.3,0.5-0.3,0.7
  		s0.1,0.5,0.3,0.7c0.2,0.2,0.5,0.3,0.8,0.3h0.1c0.1,0,0.3,0,0.4-0.1c0.1,0,0.2-0.1,0.3-0.1c0.1-0.1,0.1-0.1,0.1-0.1
  		c0-0.1,0-0.1,0-0.1s0-0.1-0.1-0.2c-0.1-0.1-0.1-0.1-0.2-0.1H24c-0.1,0-0.1,0-0.1,0c-0.1,0-0.1,0-0.1,0c-0.1,0-0.1,0-0.1,0
  		c-0.1,0-0.1,0-0.2,0c-0.1,0-0.1,0-0.1-0.1c-0.1,0-0.1-0.1-0.1-0.1h0.9C24.2,21.6,24.3,21.6,24.3,21.5z M23.2,21.2
  		c0.1-0.1,0.1-0.2,0.2-0.2s0.2,0.1,0.2,0.2H23.2z"/>
  </g>
</svg>
