<svg xmlns="http://www.w3.org/2000/svg" viewBox="-13679.278 -4208.317 25.641 59.952"><defs><style>.a{fill:#ffae41;}</style></defs><path class="a" d="M-13679.208-4152.55v-50.795a1.21 1.21 0 0 1-.07-.4c0-1.57 2.707-2.983 6.684-3.654.552-.09 1.13-.183 1.713-.252.2-.022.387-.047.6-.07h.02a9.312 9.312 0 0 1 3.793-.6 9.666 9.666 0 0 1 3.77.6l-.023-.024h.022l.6.072c.6.07 1.18.16 1.707.254 4 .692 6.706 2.08 6.706 3.675v.095c.024 0 .046-.048.046-.116v51.21c0 2.31-5.71 4.187-12.784 4.187s-12.786-1.87-12.786-4.18zm2.405-1.48c0 1 3.7 2.96 10.5 2.96s10.5-1.965 10.5-2.96v-28.6c-2.245 1.57-6.687 2.288-10.45 2.288-3.838 0-8.325-.738-10.544-2.335zm.067-31.4c1.365 1.527 5.594 2.635 10.476 2.635 4.784 0 8.948-1.065 10.38-2.542v-16.047a2.918 2.918 0 0 1-.045.463c-1.71 1.386-5.737 2.357-10.4 2.357s-8.672-.74-10.407-2.125v15.258zm.766-18.682c0 1.734 4.254 3.122 9.525 3.122 5.246 0 9.522-1.387 9.522-3.122 0-1.2-2.08-2.24-5.107-2.774l.67 1.062v.025l.067.16c0 .047.027.094.027.163 0 .95-2.338 1.713-5.2 1.713s-5.2-.764-5.2-1.713v-.163l.116-.16v-.024l.624-1.062c-3.036.535-5.09 1.575-5.043 2.776zm5.73-2.75c0 .046.07.093.163.162h.027a8.6 8.6 0 0 0 3.58.554c2.5 0 3.77-.506 3.77-.716s-1.294-.717-3.77-.717-3.77.487-3.77.72zm1.24 44.27v-2.4h4.8v2.4zm1.543-24.157v-2.74h-2.743v-2.4h2.743v-2.744h2.4v2.743h2.742v2.4h-2.742v2.74z"/></svg>