<svg xmlns="http://www.w3.org/2000/svg" viewBox="-6632.503 -8112 72.457 72.5">
  <defs>
    <style>
      .cls-1 {
        fill: #e6af78;
      }

      .cls-2 {
        fill: #d29b6e;
      }

      .cls-3 {
        fill: #785550;
      }

      .cls-4 {
        fill: #f0c087;
      }

      .cls-5 {
        fill: #eff2fa;
      }

      .cls-6 {
        fill: #e4eaf6;
      }

      .cls-7 {
        fill: #694b4b;
      }

      .cls-8 {
        fill: #707487;
      }

      .cls-9 {
        fill: #5b5d6e;
      }
    </style>
  </defs>
  <g id="collaboration" transform="translate(-6632.503 -8112)">
    <g id="Group_5296" data-name="Group 5296" transform="translate(9.009 58.622)">
      <path id="Path_7287" data-name="Path 7287" class="cls-1" d="M76.208,418.334c-.384-.11-1.586-.545-1.587-1.51l-.009-2.831-9.43.021,0,2.831c0,.851-.93,1.293-1.413,1.462l6.142,3.76Z" transform="translate(-63.771 -413.992)"/>
      <path id="Path_7288" data-name="Path 7288" class="cls-1" d="M74.62,419.617l-.008-2.37a7.467,7.467,0,0,1-9.883,3.315,2.941,2.941,0,0,1-.96.538l6.142,3.76,6.3-3.732C75.823,421.018,74.622,420.582,74.62,419.617Z" transform="translate(-63.77 -416.786)"/>
    </g>
    <path id="Path_7289" data-name="Path 7289" class="cls-2" d="M80.432,414.453v-.461l-9.43.021,0,2.831a1.225,1.225,0,0,1-.454.924,7.467,7.467,0,0,0,9.883-3.315Z" transform="translate(-60.581 -355.37)"/>
    <path id="Path_7290" data-name="Path 7290" class="cls-3" d="M64.492,282.076c-3.568.516-8.251-2.838-11.738.022-2.112,0-3.454,1.688-3.45,3.933a33.928,33.928,0,0,0,1.172,6.314l0,1.134a22.445,22.445,0,0,1,1.206-5.525,36.087,36.087,0,0,1,12.823,2.427v0c.129.051.241.1.336.136A14.9,14.9,0,0,0,64.492,282.076Z" transform="translate(-42.345 -241.149)"/>
    <path id="Path_7291" data-name="Path 7291" class="cls-4" d="M57.6,336.062c.008,4.383,3.1,8.471,7.018,8.464s7.026-3.885,7.018-8.268l-.006-3.294A36.082,36.082,0,0,0,58.8,330.537,22.429,22.429,0,0,0,57.6,336.062Z" transform="translate(-49.462 -283.732)"/>
    <path id="Path_7292" data-name="Path 7292" class="cls-1" d="M60.124,337.077c-.119-5.692.827-5.405.827-5.405a21.053,21.053,0,0,1,7.048.106,35.637,35.637,0,0,0-9.2-1.242,22.452,22.452,0,0,0-1.206,5.525c.008,4.068,2.67,7.879,6.186,8.4A10.192,10.192,0,0,1,60.124,337.077Z" transform="translate(-49.46 -283.732)"/>
    <path id="Path_7293" data-name="Path 7293" class="cls-5" d="M36.013,450.268a4.832,4.832,0,0,0-3.383-4.653l-4.381-1.129h0l-6.3,3.732-6.142-3.76c-.065.023-.123.041-.169.054l-4.376,1.145A4.832,4.832,0,0,0,7.9,450.324l0,1.264a1.444,1.444,0,0,0,1.532,1.337l25.054-.05a1.444,1.444,0,0,0,1.527-1.342Z" transform="translate(-6.803 -381.522)"/>
    <g id="Group_5297" data-name="Group 5297" transform="translate(1.098 65.525)">
      <path id="Path_7294" data-name="Path 7294" class="cls-6" d="M13.021,468.549V467.14a2.476,2.476,0,0,0-.9-1.892l-3-2.507A5.094,5.094,0,0,0,7.9,466.018l0,1.264a1.321,1.321,0,0,0,.781,1.165,1.776,1.776,0,0,0,.536.1h3.8Z" transform="translate(-7.903 -462.741)"/>
      <path id="Path_7295" data-name="Path 7295" class="cls-6" d="M178.9,469.119l0-1.264a5.1,5.1,0,0,0-.941-2.909l-2.7,2.195a2.476,2.476,0,0,0-.9,1.892v1.409h3.264A1.407,1.407,0,0,0,178.9,469.119Z" transform="translate(-150.784 -464.634)"/>
    </g>
    <path id="Path_7296" data-name="Path 7296" class="cls-7" d="M77.664,282.076a14.805,14.805,0,0,1-5.089-.691c-2.32-.534-4.676-.905-6.649.713h-.05c-.244.252.218.969.218.969a3.054,3.054,0,0,0-1.317,2.2,4.672,4.672,0,0,0,.144,2.691,36.1,36.1,0,0,1,12.758,2.427c.129.051.241.1.336.137A14.9,14.9,0,0,0,77.664,282.076Z" transform="translate(-55.516 -241.148)"/>
    <g id="Group_5298" data-name="Group 5298" transform="translate(30.017 19.941)">
      <path id="Path_7297" data-name="Path 7297" class="cls-1" d="M224.569,145.161c-.384-.11-1.586-.545-1.587-1.51l-.009-2.831-9.43.021,0,2.831c0,.851-.93,1.293-1.413,1.462l6.142,3.76Z" transform="translate(-212.132 -140.819)"/>
      <path id="Path_7298" data-name="Path 7298" class="cls-1" d="M222.982,146.444l-.008-2.37a7.467,7.467,0,0,1-9.883,3.315,2.945,2.945,0,0,1-.96.538l6.142,3.76,6.3-3.732C224.185,147.845,222.984,147.41,222.982,146.444Z" transform="translate(-212.132 -143.613)"/>
    </g>
    <path id="Path_7299" data-name="Path 7299" class="cls-2" d="M228.793,141.28v-.461l-9.429.021,0,2.831a1.225,1.225,0,0,1-.454.924,7.467,7.467,0,0,0,9.883-3.315Z" transform="translate(-187.933 -120.878)"/>
    <path id="Path_7300" data-name="Path 7300" class="cls-3" d="M212.853,8.9c-3.568.516-8.251-2.838-11.738.022-2.112,0-3.454,1.688-3.45,3.933a33.926,33.926,0,0,0,1.172,6.314l0,1.134a22.445,22.445,0,0,1,1.206-5.525,36.087,36.087,0,0,1,12.823,2.427v0c.129.051.241.1.336.137A14.9,14.9,0,0,0,212.853,8.9Z" transform="translate(-169.698 -6.657)"/>
    <path id="Path_7301" data-name="Path 7301" class="cls-4" d="M205.957,62.889c.008,4.383,3.1,8.471,7.018,8.464s7.026-3.885,7.018-8.268l-.006-3.294a36.08,36.08,0,0,0-12.823-2.427A22.427,22.427,0,0,0,205.957,62.889Z" transform="translate(-176.815 -49.24)"/>
    <path id="Path_7302" data-name="Path 7302" class="cls-1" d="M208.486,63.9c-.119-5.692.827-5.405.827-5.405a21.057,21.057,0,0,1,7.048.106,35.637,35.637,0,0,0-9.2-1.242,22.452,22.452,0,0,0-1.206,5.525c.008,4.068,2.67,7.879,6.186,8.4A10.192,10.192,0,0,1,208.486,63.9Z" transform="translate(-176.814 -49.24)"/>
    <path id="Path_7303" data-name="Path 7303" class="cls-8" d="M184.374,177.1a4.832,4.832,0,0,0-3.383-4.653l-4.381-1.129h0l-6.3,3.732-6.142-3.76c-.065.023-.123.041-.169.054l-4.376,1.145a4.832,4.832,0,0,0-3.366,4.666l0,1.264a1.444,1.444,0,0,0,1.532,1.336l25.054-.05a1.444,1.444,0,0,0,1.527-1.342Z" transform="translate(-134.156 -147.031)"/>
    <g id="Group_5299" data-name="Group 5299" transform="translate(22.106 26.844)">
      <path id="Path_7304" data-name="Path 7304" class="cls-9" d="M161.382,195.377v-1.409a2.476,2.476,0,0,0-.9-1.892l-3-2.506a5.094,5.094,0,0,0-1.213,3.277l0,1.264a1.321,1.321,0,0,0,.781,1.165,1.778,1.778,0,0,0,.536.1h3.8Z" transform="translate(-156.264 -189.569)"/>
      <path id="Path_7305" data-name="Path 7305" class="cls-9" d="M327.26,195.946l0-1.264a5.1,5.1,0,0,0-.941-2.909l-2.7,2.195a2.476,2.476,0,0,0-.9,1.892v1.409h3.265A1.407,1.407,0,0,0,327.26,195.946Z" transform="translate(-299.145 -191.461)"/>
    </g>
    <path id="Path_7306" data-name="Path 7306" class="cls-7" d="M226.025,8.9a14.806,14.806,0,0,1-5.089-.691c-2.32-.534-4.676-.905-6.649.713h-.05c-.244.252.218.969.218.969a3.054,3.054,0,0,0-1.317,2.2,4.672,4.672,0,0,0,.144,2.691,36.1,36.1,0,0,1,12.758,2.427c.129.051.241.1.336.137A14.9,14.9,0,0,0,226.025,8.9Z" transform="translate(-182.869 -6.657)"/>
    <g id="Group_5300" data-name="Group 5300" transform="translate(51.154 58.543)">
      <path id="Path_7307" data-name="Path 7307" class="cls-1" d="M373.844,417.774c-.384-.11-1.586-.545-1.587-1.51l-.009-2.831-9.43.021,0,2.831c0,.851-.93,1.293-1.413,1.462l6.142,3.76Z" transform="translate(-361.407 -413.432)"/>
      <path id="Path_7308" data-name="Path 7308" class="cls-1" d="M372.257,419.057l-.007-2.37A7.467,7.467,0,0,1,362.367,420a2.943,2.943,0,0,1-.96.538l6.142,3.76,6.3-3.732C373.46,420.458,372.259,420.023,372.257,419.057Z" transform="translate(-361.407 -416.226)"/>
    </g>
    <path id="Path_7309" data-name="Path 7309" class="cls-2" d="M378.068,413.893v-.461l-9.43.021,0,2.831a1.225,1.225,0,0,1-.454.924,7.467,7.467,0,0,0,9.883-3.315Z" transform="translate(-316.071 -354.889)"/>
    <path id="Path_7310" data-name="Path 7310" class="cls-3" d="M362.128,281.517c-3.568.516-8.251-2.838-11.738.022-2.112,0-3.454,1.688-3.45,3.933a33.932,33.932,0,0,0,1.172,6.314l0,1.134a22.447,22.447,0,0,1,1.206-5.525,36.087,36.087,0,0,1,12.823,2.427v0c.129.051.241.1.336.137A14.9,14.9,0,0,0,362.128,281.517Z" transform="translate(-297.835 -240.669)"/>
    <path id="Path_7311" data-name="Path 7311" class="cls-4" d="M355.233,335.5c.008,4.383,3.1,8.471,7.018,8.464s7.026-3.885,7.018-8.268l-.006-3.294a36.082,36.082,0,0,0-12.823-2.427A22.425,22.425,0,0,0,355.233,335.5Z" transform="translate(-304.953 -283.252)"/>
    <path id="Path_7312" data-name="Path 7312" class="cls-1" d="M357.762,336.517c-.119-5.692.827-5.405.827-5.405a21.058,21.058,0,0,1,7.048.106,35.636,35.636,0,0,0-9.2-1.242,22.449,22.449,0,0,0-1.206,5.525c.008,4.068,2.67,7.879,6.186,8.4A10.191,10.191,0,0,1,357.762,336.517Z" transform="translate(-304.952 -283.251)"/>
    <path id="Path_7313" data-name="Path 7313" class="cls-5" d="M333.649,449.708a4.832,4.832,0,0,0-3.383-4.653l-4.381-1.129h0l-6.3,3.732-6.142-3.76c-.065.023-.123.041-.169.054L308.9,445.1a4.832,4.832,0,0,0-3.366,4.666l0,1.264a1.444,1.444,0,0,0,1.532,1.336l25.054-.05a1.444,1.444,0,0,0,1.527-1.342Z" transform="translate(-262.293 -381.041)"/>
    <g id="Group_5301" data-name="Group 5301" transform="translate(43.243 65.446)">
      <path id="Path_7314" data-name="Path 7314" class="cls-6" d="M310.657,467.99v-1.409a2.477,2.477,0,0,0-.9-1.892l-3-2.506a5.094,5.094,0,0,0-1.213,3.277l0,1.264a1.321,1.321,0,0,0,.781,1.165,1.776,1.776,0,0,0,.536.1h3.8Z" transform="translate(-305.539 -462.182)"/>
      <path id="Path_7315" data-name="Path 7315" class="cls-6" d="M476.537,468.559l0-1.264a5.1,5.1,0,0,0-.941-2.909l-2.7,2.195a2.476,2.476,0,0,0-.9,1.892v1.409h3.265A1.407,1.407,0,0,0,476.537,468.559Z" transform="translate(-448.421 -464.074)"/>
    </g>
    <path id="Path_7316" data-name="Path 7316" class="cls-7" d="M375.3,281.517a14.808,14.808,0,0,1-5.089-.691c-2.32-.534-4.676-.905-6.649.713h-.05c-.244.252.218.969.218.969a3.054,3.054,0,0,0-1.317,2.2,4.672,4.672,0,0,0,.144,2.691,36.1,36.1,0,0,1,12.758,2.427c.129.051.241.1.336.137A14.9,14.9,0,0,0,375.3,281.517Z" transform="translate(-311.006 -240.669)"/>
    <path id="Path_7317" data-name="Path 7317" d="M182.167,284.83a1.1,1.1,0,0,0,1.522.3l8.746-5.854L201.2,285.1a1.1,1.1,0,0,0,1.214-1.829l-8.888-5.9-.019-10.339a1.1,1.1,0,0,0-1.1-1.1h0a1.1,1.1,0,0,0-1.1,1.1l.019,10.339-8.866,5.935A1.1,1.1,0,0,0,182.167,284.83Z" transform="translate(-156.234 -228.277)"/>
    <path id="Path_7318" data-name="Path 7318" d="M149.34,33.155a2.732,2.732,0,0,0,1.8.661h.005l12.5-.025h.056l12.5-.025A2.73,2.73,0,0,0,178,33.1a2.366,2.366,0,0,0,.819-1.774l0-1.264a5.972,5.972,0,0,0-4.187-5.709l-.02-.005-4.365-1.125a1.44,1.44,0,0,1-.78-.455l-.007-2.415.028-.032a10.087,10.087,0,0,0,2.29-6.48l0-1.778A16.3,16.3,0,0,0,171.663,1.8l-.006-.011c-.01-.022-.021-.042-.032-.063l-.019-.036c-.011-.018-.023-.036-.034-.054l-.026-.039c-.01-.014-.022-.028-.033-.042s-.023-.029-.035-.043l-.032-.033c-.014-.015-.028-.029-.043-.043l-.034-.029c-.016-.013-.031-.027-.047-.039l-.041-.029-.044-.03c-.018-.011-.036-.021-.054-.03l-.036-.02c-.022-.011-.044-.02-.067-.029l-.029-.012c-.024-.009-.048-.017-.073-.024l-.027-.008c-.023-.006-.047-.011-.071-.016l-.034-.007-.062-.008-.047-.005-.05,0h-.061l-.04,0-.071.007H170.5a11.549,11.549,0,0,1-3.99-.511c-2.568-.61-5.466-1.3-7.986.54a4.3,4.3,0,0,0-2.958,1.493A5.384,5.384,0,0,0,154.375,6.2h0a33.029,33.029,0,0,0,1.172,6.461l0,.987a10.664,10.664,0,0,0,2.285,6.564v0l0,2.58a1.461,1.461,0,0,1-.778.455L152.7,24.389l-.02.006a5.972,5.972,0,0,0-4.165,5.724l0,1.264A2.367,2.367,0,0,0,149.34,33.155Zm17.931-10.94,0,.556a2.217,2.217,0,0,0,.575,1.484l-4.183,2.48L159.49,24.24a2.206,2.206,0,0,0,.542-1.452v-.622a6.912,6.912,0,0,0,3.622,1.04h.013A7.144,7.144,0,0,0,167.271,22.215Zm9.354,7.849,0,1.264a.194.194,0,0,1-.073.121.548.548,0,0,1-.358.121l-11.429.023-.006-2.957,5.365-3.18,3.928,1.013A3.742,3.742,0,0,1,176.625,30.064ZM157.239,4.1a2.118,2.118,0,0,1,1.685-.741h.027c.027,0,.053,0,.08,0l.044-.006.063-.01.049-.012.055-.014.051-.018.05-.018.052-.024.045-.022c.019-.01.037-.022.056-.033l.037-.022c.023-.015.045-.032.067-.049l.02-.014c1.748-1.434,4-.9,6.388-.332a17.087,17.087,0,0,0,3.851.614h.041a14.469,14.469,0,0,1,.3,5.679,36.543,36.543,0,0,0-12.273-2.051h-.081c-.025,0-.05,0-.075,0l-.036,0-.061.009-.049.008-.041.01c-.022.006-.043.011-.065.018l-.021.008c-.027.009-.053.019-.079.03l-.012.006c-.028.012-.056.026-.082.04l-.024.014c-.022.013-.044.026-.065.04s-.034.025-.051.038l-.032.024c-.021.018-.042.037-.062.056l-.016.014c-.019.019-.036.039-.053.059l-.018.02c-.014.017-.026.034-.039.052l-.026.036c-.009.013-.017.028-.025.042s-.021.035-.031.054l-.016.033c-.011.022-.022.045-.031.068l0,.008c-.007.018-.038.1-.084.22a11.868,11.868,0,0,1-.178-1.742h0A3.206,3.206,0,0,1,157.239,4.1Zm.505,9.54v-.4h0a14.637,14.637,0,0,1,.875-4.019,34.437,34.437,0,0,1,10.961,1.964V11.9l0,1.942c.007,3.88-2.7,7.163-5.922,7.169h-.008a5.322,5.322,0,0,1-4.11-2.176A8.432,8.432,0,0,1,157.744,13.643Zm-4.48,12.867,3.995-1.046,5.307,3.17.006,2.963-11.43.023h0a.549.549,0,0,1-.357-.12.194.194,0,0,1-.074-.121l0-1.264A3.744,3.744,0,0,1,153.264,26.51Z" transform="translate(-127.504 0.003)"/>
    <path id="Path_7319" data-name="Path 7319" d="M26.272,297.528l-.02-.005L21.887,296.4a1.436,1.436,0,0,1-.779-.455l-.008-2.415.028-.032a10.087,10.087,0,0,0,2.29-6.48l0-1.778a16.3,16.3,0,0,0-.112-10.262l-.006-.011c-.01-.022-.021-.043-.032-.063l-.019-.036c-.011-.018-.022-.036-.034-.053s-.017-.027-.027-.04-.021-.027-.032-.041-.024-.03-.037-.044l-.029-.03c-.015-.016-.03-.031-.046-.046l-.029-.025c-.017-.015-.034-.029-.052-.043l-.035-.025-.051-.034-.047-.026-.043-.024-.06-.027-.035-.015c-.022-.008-.045-.015-.067-.022l-.033-.01-.067-.015-.038-.008-.059-.008-.049-.005-.049,0h-.062l-.04,0-.071.007h-.012a11.552,11.552,0,0,1-3.99-.511c-2.568-.61-5.466-1.3-7.986.54a4.3,4.3,0,0,0-2.957,1.493,5.383,5.383,0,0,0-1.194,3.521h0a33.028,33.028,0,0,0,1.172,6.461v.587h0v.4a10.664,10.664,0,0,0,2.285,6.565v0l0,2.58a1.462,1.462,0,0,1-.778.455l-4.361,1.141-.02.006A5.972,5.972,0,0,0,.151,303.3l0,1.265a2.54,2.54,0,0,0,2.626,2.432h.005l12.5-.025h.054l12.5-.025a2.54,2.54,0,0,0,2.622-2.442l0-1.264A5.972,5.972,0,0,0,26.272,297.528ZM15.3,299.911l-4.175-2.494a2.207,2.207,0,0,0,.542-1.452v-.622a6.913,6.913,0,0,0,3.622,1.04H15.3a7.143,7.143,0,0,0,3.605-.992l0,.557a2.217,2.217,0,0,0,.575,1.484ZM8.209,279.372h0a3.2,3.2,0,0,1,.669-2.092,2.118,2.118,0,0,1,1.685-.741h.025c.027,0,.055,0,.082,0l.042-.006.064-.01.048-.012.056-.014.05-.018.051-.019.052-.024.045-.022c.019-.01.037-.022.056-.033l.037-.022c.023-.015.045-.032.067-.049l.02-.014c1.748-1.434,4-.9,6.388-.332a17.089,17.089,0,0,0,3.851.614h.041a14.466,14.466,0,0,1,.3,5.679A36.542,36.542,0,0,0,9.562,280.2H9.481c-.025,0-.05,0-.074,0l-.037,0-.06.009-.05.008-.039.01-.066.018-.019.007c-.027.009-.055.019-.081.031l-.009,0c-.029.013-.058.027-.086.042l-.02.012c-.023.013-.046.027-.068.042s-.032.023-.047.035l-.036.027c-.021.017-.04.035-.059.054l-.018.017c-.018.018-.035.037-.052.057l-.02.022c-.013.016-.025.034-.038.051l-.027.037c-.009.013-.017.027-.025.041s-.022.036-.032.054l-.016.033c-.011.023-.022.045-.031.068l0,.008c-.007.018-.038.1-.084.22A11.92,11.92,0,0,1,8.209,279.372Zm1.174,7.448v-.4a14.646,14.646,0,0,1,.875-4.017,34.434,34.434,0,0,1,10.961,1.964v.712l0,1.942c.007,3.88-2.7,7.163-5.922,7.169h-.008a5.322,5.322,0,0,1-4.11-2.177A8.432,8.432,0,0,1,9.383,286.82ZM2.781,304.8h0c-.267,0-.431-.156-.431-.241l0-1.264a3.742,3.742,0,0,1,2.557-3.6L8.9,298.641l5.307,3.17.006,2.963Zm25.054-.05-11.429.023-.006-2.957,5.365-3.18,3.928,1.012a3.743,3.743,0,0,1,2.57,3.6l0,1.264C28.266,304.59,28.1,304.747,27.835,304.747Z" transform="translate(-0.151 -234.492)"/>
    <path id="Path_7320" data-name="Path 7320" d="M328.1,302.674a5.972,5.972,0,0,0-4.187-5.709l-.02-.005-4.365-1.125a1.437,1.437,0,0,1-.779-.455l-.008-2.415.028-.032a10.087,10.087,0,0,0,2.29-6.48l0-1.778a16.3,16.3,0,0,0-.112-10.262l-.005-.011c-.01-.022-.021-.043-.032-.064l-.019-.035c-.011-.019-.023-.037-.035-.055s-.016-.025-.025-.037-.023-.029-.035-.044-.022-.028-.034-.041-.022-.023-.033-.034-.027-.028-.042-.042l-.035-.03-.045-.037-.043-.03-.043-.029c-.018-.011-.037-.021-.056-.031l-.035-.019c-.022-.011-.045-.021-.068-.03l-.027-.012c-.024-.009-.049-.017-.074-.025l-.026-.008c-.023-.006-.047-.011-.071-.016l-.034-.007-.062-.008-.047-.005-.05,0H319.9l-.041,0c-.023,0-.047,0-.07.007h-.012a11.559,11.559,0,0,1-3.99-.511c-2.568-.61-5.466-1.3-7.986.54a4.3,4.3,0,0,0-2.958,1.493,5.384,5.384,0,0,0-1.194,3.521h0a33.022,33.022,0,0,0,1.172,6.461v.587h0v.4a10.664,10.664,0,0,0,2.285,6.565v0l0,2.58a1.462,1.462,0,0,1-.778.455L301.975,297l-.02.005a5.972,5.972,0,0,0-4.165,5.724l0,1.265a2.54,2.54,0,0,0,2.626,2.432h.006l12.5-.025h.055l12.5-.025a2.54,2.54,0,0,0,2.622-2.442Zm-15.156-3.325-4.175-2.494a2.207,2.207,0,0,0,.542-1.452v-.622a6.911,6.911,0,0,0,3.622,1.04h.013a7.142,7.142,0,0,0,3.605-.992l0,.557a2.217,2.217,0,0,0,.575,1.484Zm-7.094-20.539h0a3.2,3.2,0,0,1,.669-2.092,2.117,2.117,0,0,1,1.685-.741h.025c.027,0,.055,0,.082,0l.042-.006.064-.01.048-.012.056-.014.05-.018.051-.019.051-.024.045-.022c.019-.01.037-.022.056-.033l.037-.022c.023-.015.045-.032.066-.049l.02-.014c1.748-1.434,4-.9,6.388-.332a17.093,17.093,0,0,0,3.851.614h.041a14.471,14.471,0,0,1,.3,5.679,36.544,36.544,0,0,0-12.273-2.051h-.08c-.026,0-.052,0-.078,0l-.034,0-.064.01-.045.008-.045.012c-.02.005-.04.01-.06.016l-.027.01c-.025.009-.049.017-.072.027l-.021.01c-.025.011-.05.023-.074.036l-.033.021c-.018.011-.037.022-.055.034s-.038.028-.057.043l-.026.02c-.022.018-.043.038-.064.059l-.013.012c-.019.019-.037.04-.054.06l-.017.019c-.014.017-.026.035-.039.052l-.026.035c-.009.013-.017.027-.025.041s-.022.035-.031.054-.01.022-.016.033-.022.045-.031.068l0,.008c-.007.018-.038.1-.084.22A11.8,11.8,0,0,1,305.848,278.81Zm1.174,7.448v-.4a14.645,14.645,0,0,1,.874-4.017,34.443,34.443,0,0,1,10.961,1.964v.712l0,1.942c.007,3.88-2.7,7.163-5.922,7.169h-.009a5.322,5.322,0,0,1-4.11-2.176A8.431,8.431,0,0,1,307.022,286.258Zm-6.6,17.977h0c-.267,0-.431-.156-.431-.241l0-1.264a3.742,3.742,0,0,1,2.557-3.6l3.995-1.046,5.307,3.17.006,2.963Zm25.054-.05-11.429.023-.006-2.957,5.365-3.18,3.928,1.013a3.743,3.743,0,0,1,2.57,3.6l0,1.264C325.905,304.028,325.742,304.185,325.473,304.185Z" transform="translate(-255.644 -234.009)"/>
  </g>
</svg>
