<svg xmlns="http://www.w3.org/2000/svg" xmlns:xlink="http://www.w3.org/1999/xlink" viewBox="3325.189 1397.884 34.566 34.179"><defs><style>.a{fill:none;}.b{clip-path:url(#a);}.c{clip-path:url(#b);}.d{fill:#3a5897;}</style><clipPath id="a"><path class="a" d="M1086.283-277A17.188,17.188,0,0,0,1069-259.911a17.188,17.188,0,0,0,17.283,17.089,17.188,17.188,0,0,0,17.283-17.089A17.188,17.188,0,0,0,1086.283-277Zm3.335,12.532h-1.564c-.623,0-.753.253-.753.891v1.4h2.317l-.242,2.291H1087.3v8.017h-3.475v-8.017h-2.316v-2.291h2.316v-2.643c0-2.026,1.078-3.083,3.509-3.083h2.283Z" transform="translate(-1069 277)"/></clipPath><clipPath id="b"><path class="a" d="M0-20.787H1349.068V-1677H0Z" transform="translate(0 1677)"/></clipPath></defs><g class="b" transform="translate(3325.189 1397.884)"><g class="c" transform="translate(-1055.749 -1382.646)"><path class="d" d="M1064-237.945h44.442V-282H1064Z" transform="translate(-13.189 1659.708)"/></g></g></svg>