<svg xmlns="http://www.w3.org/2000/svg" xmlns:xlink="http://www.w3.org/1999/xlink" viewBox="3373.582 1397.884 34.566 34.179"><defs><style>.a{fill:none;}.b{clip-path:url(#a);}.c{clip-path:url(#b);}.d{opacity:0;}.e{fill:url(#c);}.f{fill:url(#d);}</style><clipPath id="a"><path class="a" d="M1135.283-277A17.188,17.188,0,0,0,1118-259.911a17.188,17.188,0,0,0,17.283,17.089,17.188,17.188,0,0,0,17.283-17.089A17.188,17.188,0,0,0,1135.283-277Zm4.145,10.421c-.92-.042-1.2-.049-3.527-.049s-2.6.009-3.525.049c-2.367.107-3.468,1.215-3.577,3.537-.042.91-.051,1.182-.051,3.485s.01,2.576.051,3.487c.109,2.316,1.2,3.43,3.577,3.537.919.041,1.195.051,3.525.051s2.606-.009,3.527-.051c2.367-.106,3.468-1.218,3.577-3.537.042-.91.05-1.183.05-3.487s-.009-2.576-.05-3.485C1142.9-265.363,1141.792-266.472,1139.428-266.579Zm-3.527,11.454a4.456,4.456,0,0,1-4.481-4.431,4.456,4.456,0,0,1,4.481-4.43,4.456,4.456,0,0,1,4.482,4.43A4.457,4.457,0,0,1,1135.9-255.126Zm4.659-8a1.041,1.041,0,0,1-1.047-1.035,1.041,1.041,0,0,1,1.047-1.035,1.041,1.041,0,0,1,1.047,1.035,1.042,1.042,0,0,1-1.047,1.035Zm-1.75,3.569a2.892,2.892,0,0,1-2.909,2.875,2.892,2.892,0,0,1-2.907-2.875,2.892,2.892,0,0,1,2.907-2.875A2.892,2.892,0,0,1,1138.81-259.557Zm5.765,3.557c-.143,3.137-1.91,4.875-5.074,5.019-.931.042-1.229.052-3.6.052s-2.665-.01-3.6-.052c-3.171-.144-4.93-1.885-5.075-5.019-.042-.919-.052-1.214-.052-3.557s.01-2.636.052-3.557c.145-3.135,1.905-4.875,5.075-5.017.931-.043,1.228-.053,3.6-.053s2.668.01,3.6.053c3.172.144,4.932,1.888,5.074,5.017.043.921.052,1.214.052,3.557S1144.617-256.919,1144.574-256Z" transform="translate(-1118 277)"/></clipPath><clipPath id="b"><path class="a" d="M0-20.787H1349.068V-1677H0Z" transform="translate(0 1677)"/></clipPath><linearGradient id="c" x1="0.818" y1="0.835" x2="0.818" y2="1.445" gradientUnits="objectBoundingBox"><stop offset="0"/><stop offset="0" stop-color="#fec053"/><stop offset="0.1" stop-color="#fb914d"/><stop offset="0.2" stop-color="#f76347"/><stop offset="0.3" stop-color="#f43541"/><stop offset="0.4" stop-color="#e9214e"/><stop offset="0.5" stop-color="#d8246c"/><stop offset="0.6" stop-color="#c82689"/><stop offset="0.7" stop-color="#b829a7"/><stop offset="0.8" stop-color="#9631b7"/><stop offset="0.9" stop-color="#753ac6"/><stop offset="1" stop-color="#5342d6"/><stop offset="1"/></linearGradient><linearGradient id="d" x1="0.818" y1="0.845" x2="0.844" y2="0.845" gradientUnits="objectBoundingBox"><stop offset="0" stop-color="#fec053"/><stop offset="0.1" stop-color="#fb914d"/><stop offset="0.2" stop-color="#f76347"/><stop offset="0.3" stop-color="#f43541"/><stop offset="0.4" stop-color="#e9214e"/><stop offset="0.5" stop-color="#d8246c"/><stop offset="0.6" stop-color="#c82689"/><stop offset="0.7" stop-color="#b829a7"/><stop offset="0.8" stop-color="#9631b7"/><stop offset="0.9" stop-color="#753ac6"/><stop offset="1" stop-color="#5342d6"/></linearGradient></defs><g class="b" transform="translate(3373.582 1397.884)"><g class="c" transform="translate(-1104.142 -1382.646)"><g class="d"><path class="e" d="M-1118-1400H231.068V256.213H-1118Z" transform="translate(1118 1400)"/></g><path class="f" d="M-1118-1400H231.068V256.213H-1118Z" transform="translate(1118 1400)"/></g></g></svg>