<svg xmlns="http://www.w3.org/2000/svg" viewBox="-13831 -7238 35.277 35.277">
  <defs>
    <style>
      .cls-1 {
        fill: #c4302b;
      }

      .cls-2 {
        fill: #fff;
      }
    </style>
  </defs>
  <g id="youtube" transform="translate(-13831 -7238)">
    <path id="Path_7432" data-name="Path 7432" class="cls-1" d="M17.639,0A17.639,17.639,0,1,1,0,17.639,17.639,17.639,0,0,1,17.639,0Z"/>
    <path id="Path_7433" data-name="Path 7433" class="cls-2" d="M73.246,62.38a2.077,2.077,0,0,0,1.314-.43,1.258,1.258,0,0,0,.476-1.042V58.234a1.175,1.175,0,0,0-.485-.969,1.989,1.989,0,0,0-1.25-.375,2.241,2.241,0,0,0-1.332.355,1.12,1.12,0,0,0-.5.958v2.683a1.281,1.281,0,0,0,.483,1.051A2.008,2.008,0,0,0,73.246,62.38Zm-.583-4.047a.286.286,0,0,1,.158-.248.8.8,0,0,1,.41-.094.9.9,0,0,1,.442.094.283.283,0,0,1,.168.248v2.542a.336.336,0,0,1-.165.3.814.814,0,0,1-.444.107.708.708,0,0,1-.421-.106.345.345,0,0,1-.147-.3Zm4.274,4.044a1.376,1.376,0,0,0,.6-.225,2.257,2.257,0,0,0,.6-.5v.594h1.042V56.883H78.141v4.071a1.477,1.477,0,0,1-.321.288.592.592,0,0,1-.291.114.243.243,0,0,1-.212-.086A.446.446,0,0,1,77.249,61V56.884H76.21v4.481a1.182,1.182,0,0,0,.183.718A.684.684,0,0,0,76.937,62.377Zm3.029,2.217H67.377a3.555,3.555,0,0,0-3.624,3.481v2.943A3.555,3.555,0,0,0,67.377,74.5h12.59a3.556,3.556,0,0,0,3.624-3.483V68.076A3.556,3.556,0,0,0,79.966,64.594ZM69.25,67.582H68.136v4.61H67.059v-4.61H65.946V66.8h3.3S69.25,67.582,69.25,67.582Zm3.323,4.674H71.412v-.478a2.479,2.479,0,0,1-.671.4,1.761,1.761,0,0,1-.674.14.841.841,0,0,1-.606-.2.772.772,0,0,1-.2-.582V67.9h1.161v3.339a.3.3,0,0,0,.071.223.343.343,0,0,0,.239.068.8.8,0,0,0,.324-.092,1.488,1.488,0,0,0,.361-.234V67.9h1.161S72.572,72.256,72.572,72.256Zm4.394-.829a.813.813,0,0,1-.27.656,1.165,1.165,0,0,1-.778.228,1.892,1.892,0,0,1-.6-.087,1.511,1.511,0,0,1-.491-.273v.309H73.668V66.8h1.159v1.761a1.887,1.887,0,0,1,.492-.28,1.509,1.509,0,0,1,.529-.1,1.205,1.205,0,0,1,.83.256.959.959,0,0,1,.289.754ZM81.383,70.2H79.244v.787a.715.715,0,0,0,.109.458.485.485,0,0,0,.379.127.556.556,0,0,0,.39-.108.707.707,0,0,0,.112-.477v-.19h1.15v.214a1.137,1.137,0,0,1-.422.967,2.037,2.037,0,0,1-1.256.324,1.851,1.851,0,0,1-1.184-.344,1.144,1.144,0,0,1-.432-.946V69.133a1.049,1.049,0,0,1,.476-.886,2.045,2.045,0,0,1,1.224-.341,1.912,1.912,0,0,1,1.181.316,1.078,1.078,0,0,1,.411.91S81.383,70.2,81.383,70.2ZM68.626,62.393h1.315v-3.2l1.531-4.52H70.135l-.814,3.089h-.084l-.853-3.089H67.058l1.568,4.664S68.626,62.393,68.626,62.393Zm6.681,6.427-.244.04-.237.122v2.511a1.01,1.01,0,0,0,.272.142l.277.043a.458.458,0,0,0,.31-.086.348.348,0,0,0,.1-.276V69.234a.382.382,0,0,0-.12-.31A.544.544,0,0,0,75.306,68.82Z" transform="translate(-56.033 -48.048)"/>
    <path id="Path_7434" data-name="Path 7434" class="cls-2" d="M192.605,170.021a.531.531,0,0,0-.384.115.505.505,0,0,0-.115.375v.421h.989v-.421a.421.421,0,0,0-.491-.489Z" transform="translate(-168.844 -149.432)"/>
  </g>
</svg>
