<svg xmlns="http://www.w3.org/2000/svg" viewBox="2604.919 593 115 115">
  <defs>
    <style>
      .cls-1 {
        fill: #ffae41;
      }

      .cls-2 {
        fill: #fff;
        opacity: 0.178;
      }

      .cls-3 {
        fill: #f7f7f7;
        opacity: 0.766;
      }

      .cls-4 {
        fill: #4a494a;
      }
    </style>
  </defs>
  <g id="Group_3129" data-name="Group 3129" transform="translate(1990)">
    <g id="btn-acces-off" transform="translate(-1156.081 128)">
      <circle id="Ellipse_3" data-name="Ellipse 3" class="cls-2" cx="57.5" cy="57.5" r="57.5" transform="translate(1771 465)"/>
      <circle id="Ellipse_1" data-name="Ellipse 1" class="cls-3" cx="50" cy="50" r="50" transform="translate(1778 473)"/>
      <circle id="Ellipse_2" data-name="Ellipse 2" class="cls-4" cx="45" cy="45" r="45" transform="translate(1783 478)"/>
    </g>
    <path id="Union_12" data-name="Union 12" class="cls-1" d="M1.972,34.164A1.975,1.975,0,0,1,0,32.191V4.25A1.975,1.975,0,0,1,1.972,2.277H5.694V0h6.833V2.277h3.721A1.976,1.976,0,0,1,18.221,4.25V18.109l-1.052,1.819,1.052,1.82V32.191a1.975,1.975,0,0,1-1.972,1.973Zm0-1.139H16.248a.834.834,0,0,0,.834-.834V22.053l-.9-1.555H15.127l-1.461,2.435v.981a.57.57,0,0,1-1.139,0v-.569h-.569a.569.569,0,0,1-.569-.569h0a.568.568,0,0,1,.54-.568h.845l1.313-2.19L12.86,18.79H11.388a.57.57,0,1,1,0-1.139h1.139V16.513h0a.57.57,0,0,1,1.139,0v1.472L15.04,19.36h1.144l.9-1.555V4.25a.833.833,0,0,0-.834-.834H1.972a.834.834,0,0,0-.834.834v6.568a.57.57,0,0,1,0,1.139v2.277a.57.57,0,0,1,0,1.139v2.277a.57.57,0,0,1,.029,1.139H1.139v2.277a.57.57,0,0,1,.029,1.139H1.139v2.277a.57.57,0,0,1,.029,1.139H1.139V27.9a.57.57,0,0,1,.569.569h0a.57.57,0,0,1-.569.569v2.277a.57.57,0,0,1,.569.569h0a.563.563,0,0,1-.524.56.847.847,0,0,0,.234.364A.821.821,0,0,0,1.972,33.025ZM11.388,2.277V1.139H6.833V2.277ZM25.054,33.595h0a.567.567,0,0,1-.4-.164l0,0,0,0a.567.567,0,0,1-.164-.4h0a.569.569,0,0,1,.569-.569h0a.57.57,0,0,1,0,1.139Zm-1.139-2.847a.569.569,0,0,1,.569-.569h.029a.569.569,0,1,1-.6.569Zm-1.153.569a.569.569,0,1,1,.015,0ZM25.293,29.5a.569.569,0,1,1,.33.106A.568.568,0,0,1,25.293,29.5Zm-2.9-.616a.569.569,0,1,1,.956-.418h0a.569.569,0,0,1-.956.417Zm1.526-1.556a.569.569,0,0,1,.569-.569h.029a.569.569,0,1,1-.6.569Zm-1.708,0h0a.569.569,0,1,1,.569-.6q0,.015,0,.03a.569.569,0,0,1-.569.569Zm1.11-1.709a.569.569,0,1,1,.059,0h-.059Zm-2.249,0a.57.57,0,0,1,0-1.139H21.1a.57.57,0,0,1,0,1.138Zm1.709-2.847h0a.569.569,0,0,1,1.139,0h0a.569.569,0,1,1-1.139,0Zm-1.709.569a.566.566,0,0,1-.283-.075h0l-.006,0-.006,0h0a.569.569,0,0,1-.273-.486h0a.569.569,0,0,1,.569-.568H21.1a.569.569,0,0,1-.029,1.138ZM19.36,21.067a.569.569,0,1,1,.569.57A.569.569,0,0,1,19.36,21.067Z" transform="translate(661.285 632.045)"/>
  </g>
</svg>
