<svg xmlns="http://www.w3.org/2000/svg" viewBox="2830.28 631.069 34.165 34.164"><defs><style>.a{fill:#ffae41;}</style></defs><path class="a" d="M14.318,34.164a14.273,14.273,0,0,1-10.2-4.242A14.049,14.049,0,0,1,0,20.218q0-.133,0-.266,0-.044,0-.089,0-.617.06-1.225A14.212,14.212,0,0,1,12.474,5.858a14.413,14.413,0,0,1,1.659-.1h.005a10.767,10.767,0,0,1,1.954-2.645q.118-.118.239-.231l0,0A10.523,10.523,0,0,1,23.609,0q.165,0,.329.007a10.536,10.536,0,0,1,7.113,3.1l.138.141a10.568,10.568,0,0,1-.1,14.807,10.761,10.761,0,0,1-2.676,1.97,14.228,14.228,0,0,1-3.2,8.924,1.623,1.623,0,0,0-.367,1.027,1.64,1.64,0,0,0,.458,1.141c.154.161.307.317.456.466h0c.345.345.666.652.93.9l.219.2.025.024a.854.854,0,0,1-.6,1.46Zm0-1.079H25.755c-.358-.339-.792-.762-1.237-1.226a2.718,2.718,0,0,1-.147-3.6,13.154,13.154,0,0,0,2.947-7.751,10.715,10.715,0,0,1-3.847.707H14.549a.766.766,0,0,1-.644-.488q-.011-.028-.02-.057a.8.8,0,0,1,.234-.807c.288-.264.717-.67,1.161-1.132a1.071,1.071,0,0,0,.294-.838,1.056,1.056,0,0,0-.234-.573,10.613,10.613,0,0,1-2.26-5.045q-.023-.147-.043-.294a.538.538,0,0,1,.535-.608h0a.538.538,0,0,1,.534.466,9.533,9.533,0,0,0,2.068,4.8,2.145,2.145,0,0,1-.116,2.84c-.23.239-.455.464-.661.662h8.074A9.588,9.588,0,0,0,30.32,17.29,9.423,9.423,0,0,0,33.085,10.6q0-.03,0-.059a9.452,9.452,0,0,0-1.519-5.08A9.549,9.549,0,0,0,23.6,1.079h-.047a9.617,9.617,0,0,0-9.447,8.279.537.537,0,0,1-.534.465h0a.538.538,0,0,1-.535-.607,10.469,10.469,0,0,1,.6-2.369A13.173,13.173,0,0,0,1.079,19.871q0,.041,0,.082,0,.409.025.815a12.979,12.979,0,0,0,3.785,8.394h0A13.2,13.2,0,0,0,14.318,33.085Zm-2.99-10.969h0a1.433,1.433,0,0,1-1.015-.42l0,0h0a1.433,1.433,0,0,1-.42-1.016h0a1.438,1.438,0,0,1,1.438-1.438h0a1.438,1.438,0,0,1,1.438,1.438h0a1.438,1.438,0,0,1-1.438,1.438ZM5.574,20.678h0a1.439,1.439,0,0,1,2.164-1.242l.006,0,0,0a1.437,1.437,0,0,1,.7,1.236h0a1.439,1.439,0,0,1-2.877,0Zm18.681-3.6-.063,0-.028,0a.72.72,0,1,1,.829-.711h0a.719.719,0,0,1-.719.719Zm-.521-3.356h0v-2.4a.539.539,0,0,1,.539-.539,3.057,3.057,0,1,0-3.056-3.057.539.539,0,1,1-1.079,0,4.136,4.136,0,1,1,4.675,4.1v1.893a.539.539,0,1,1-1.079,0Z" transform="translate(2830.28 631.069)"/></svg>