<svg xmlns="http://www.w3.org/2000/svg" viewBox="-14312.021 -8746.78 55.932 33.923">
  <defs>
    <style>
      .cls-1, .cls-2, .cls-3 {
        fill: #fff;
      }

      .cls-1 {
        stroke: #fff;
        stroke-width: 0.5px;
      }

      .cls-2 {
        opacity: 0.095;
      }

      .cls-3 {
        opacity: 0.046;
      }
    </style>
  </defs>
  <g id="Group_5440" data-name="Group 5440" transform="translate(-15176 -8766)">
    <g id="Symbol_37_37" data-name="Symbol 37 – 37" transform="translate(247.188 8.943)">
      <path id="map-ico" class="cls-1" d="M.572,26.95a.633.633,0,0,1-.209-.04.559.559,0,0,1-.324-.726l3.389-8.417a.57.57,0,0,1,.533-.357H9.176A.562.562,0,0,1,9.745,18a.584.584,0,0,1-.593.521H8.4a2.765,2.765,0,0,0-.2,2.335c.5.954,2.024,1.247,3.2,1.329.941.058,1.868.106,2.767.147a31.063,31.063,0,0,1,6.455.7c1.778.509,2.755,1.452,2.911,2.8h3.724l-3.5-7.317H18.942a.563.563,0,0,1-.569-.591.584.584,0,0,1,.593-.521H24.1a.574.574,0,0,1,.52.322l4.024,8.417a.562.562,0,0,1-.52.8Zm.809-1.111H22.374c-.15-.825-.79-1.364-2.066-1.727a30.467,30.467,0,0,0-6.185-.661c-.911-.041-1.845-.082-2.791-.147-2.149-.146-3.544-.8-4.149-1.937a3.5,3.5,0,0,1-.018-2.845H4.326Zm12.269-4.655c-.3-.31-7.347-7.568-7.347-13.328a7.761,7.761,0,1,1,15.521,0c0,5.73-7.048,13.019-7.348,13.323a.576.576,0,0,1-.413.176A.594.594,0,0,1,13.649,21.183ZM7.452,7.855c0,4.555,5.1,10.454,6.61,12.106,1.509-1.651,6.611-7.582,6.611-12.106a6.612,6.612,0,1,0-13.221,0Zm2.875.293a3.737,3.737,0,0,1,7.473,0,3.737,3.737,0,0,1-7.473,0Zm1.149,0a2.587,2.587,0,1,0,2.587-2.529A2.555,2.555,0,0,0,11.476,8.148Z" transform="translate(630 17)"/>
    </g>
    <path id="Path_6862" data-name="Path 6862" class="cls-2" d="M17.8,8.06l-3.3-2.26A27.5,27.5,0,0,0,9.8,21.335a27.5,27.5,0,0,0,4.708,15.535l3.3-2.26a23.79,23.79,0,0,1,0-26.551Z" transform="translate(854.18 13.42)"/>
    <path id="Path_6863" data-name="Path 6863" class="cls-3" d="M24.985,12.76l-3.3-2.26a19.9,19.9,0,0,0,0,22.22l3.3-2.26a15.709,15.709,0,0,1,0-17.7Z" transform="translate(853.683 13.145)"/>
    <path id="Path_6865" data-name="Path 6865" class="cls-3" d="M57,10.5l-3.3,2.26a15.709,15.709,0,0,1,0,17.7L57,32.72a19.6,19.6,0,0,0,3.39-11.11A21.428,21.428,0,0,0,57,10.5Z" transform="translate(851.614 13.145)"/>
    <path id="Path_6866" data-name="Path 6866" class="cls-2" d="M64,5.8,60.7,8.06a23.79,23.79,0,0,1,0,26.551l3.3,2.26A27.5,27.5,0,0,0,68.7,21.335,27.009,27.009,0,0,0,64,5.8Z" transform="translate(851.205 13.42)"/>
  </g>
</svg>
