<svg xmlns="http://www.w3.org/2000/svg" viewBox="-14179.001 -8745.435 33.51 37.046">
  <defs>
    <style>
      .cls-1 {
        fill: #fff;
      }
    </style>
  </defs>
  <g id="Group_5441" data-name="Group 5441" transform="translate(-14899 -8766)">
    <g id="Group_5182" data-name="Group 5182" transform="translate(719.971 20.565)">
      <path id="Path_6895" data-name="Path 6895" class="cls-1" d="M44.98,0a4.084,4.084,0,0,0-.008,8.168h.015A4.084,4.084,0,0,0,44.98,0Zm-.008,6.2a2.121,2.121,0,0,1,.008-4.242h.008A2.121,2.121,0,1,1,44.972,6.2Z" transform="translate(-37.719)"/>
      <path id="Path_6896" data-name="Path 6896" class="cls-1" d="M99.573,258.645a.981.981,0,0,1-.98.98H95.848c-.031,0-.054-.008-.085-.008-.008,0-.008,0-.023-.008a.088.088,0,0,1-.062-.023c-.008,0-.023-.008-.031-.008a.135.135,0,0,1-.054-.023c-.023-.015-.023-.008-.031-.008a.085.085,0,0,1-.046-.023c-.008-.008-.023-.008-.031-.023s-.031-.008-.046-.023-.023-.008-.031-.023a.162.162,0,0,0-.046-.031c-.008-.008-.023-.023-.031-.023l-.031-.031-.031-.031a.161.161,0,0,1-.031-.046c-.008-.008-.023-.023-.023-.031s-.023-.031-.031-.046-.008-.023-.023-.023c-.008-.023-.023-.031-.031-.054a.409.409,0,0,0-.046-.077c-.008-.023-.008-.023-.008-.031a.123.123,0,0,0-.023-.062c-.008-.023-.008-.008-.008-.023a.123.123,0,0,0-.023-.062c-.008-.023,0-.008-.008-.023a.15.15,0,0,1-.008-.062v-.069L93,243.6a.98.98,0,0,1,1.944-.247l1.867,14.315h1.782A.981.981,0,0,1,99.573,258.645Z" transform="translate(-85.795 -223.79)"/>
      <path id="Path_6897" data-name="Path 6897" class="cls-1" d="M19.315,305.815l-3.077,9.078h1.288a.979.979,0,1,1,0,1.959H14.756c-.023,0-.054-.008-.077-.008s-.023,0-.023-.008c-.015,0-.039-.008-.054-.008s-.023-.008-.031-.008h-.015c-.008,0-.023-.008-.031-.008a.134.134,0,0,1-.054-.023.087.087,0,0,1-.046-.023c-.008-.008-.031-.008-.046-.023a.164.164,0,0,1-.046-.031c-.008-.008-.023-.008-.031-.023a.167.167,0,0,0-.054-.031c-.023-.008-.023-.008-.023-.023l-.046-.046-.023-.023a.254.254,0,0,0-.046-.046c-.023-.008-.008-.023-.023-.031a.236.236,0,0,1-.031-.046c-.008-.008-.023-.023-.023-.031a.047.047,0,0,1-.023-.046c-.008-.008-.008-.031-.023-.046s-.008-.023-.023-.046a.088.088,0,0,0-.023-.046c-.008-.008-.008-.023-.008-.046a.068.068,0,0,1-.008-.054c0-.008-.008-.031-.008-.046s-.008-.031-.008-.046a.437.437,0,0,1-.008-.054v-.247a.1.1,0,0,1,.008-.046c0-.023.008-.031.008-.054s0-.023.008-.031c.008-.023.008-.046.023-.062v-.008l3.509-10.366a.98.98,0,0,1,1.242-.609h0A1.024,1.024,0,0,1,19.315,305.815Z" transform="translate(-12.802 -281.018)"/>
      <path id="Path_6898" data-name="Path 6898" class="cls-1" d="M292.02,230.009v2.422a.486.486,0,0,1-.463.494.293.293,0,0,1-.293.293h-.208a.293.293,0,0,1-.293-.293h0a.509.509,0,0,1-.463-.494v-2.422a.511.511,0,0,1,.494-.509h.725a.511.511,0,0,1,.509.494l-.008.015Z" transform="translate(-267.883 -211.799)"/>
      <path id="Path_6899" data-name="Path 6899" class="cls-1" d="M205.358,197.564l1.512-1.9a.479.479,0,0,1,.663-.1.3.3,0,0,1,.417-.046h0l.162.131a.3.3,0,0,1,.046.416h0a.507.507,0,0,1,.054.671l-1.512,1.9a.5.5,0,0,1-.7.085.008.008,0,0,1-.008-.008l-.555-.447a.492.492,0,0,1-.077-.7Z" transform="translate(-189.39 -180.38)"/>
      <path id="Path_6900" data-name="Path 6900" class="cls-1" d="M292.42,307.609v2.422a.486.486,0,0,1-.463.494.293.293,0,0,1-.293.293h-.208a.293.293,0,0,1-.293-.293h0a.509.509,0,0,1-.463-.494v-2.422a.511.511,0,0,1,.494-.509h.725a.517.517,0,0,1,.5.509Z" transform="translate(-268.252 -283.413)"/>
      <path id="Path_6901" data-name="Path 6901" class="cls-1" d="M18.391,126.605l-1.465,1.319a.405.405,0,0,1-.578-.031l-.247-.285-4.134-1.465h0l-.5-1.219a8.909,8.909,0,0,0-2.1-3.533l-.008-.008a1.766,1.766,0,0,0-.895-.525,13.034,13.034,0,0,0-2.391.008,1.8,1.8,0,0,0-.686.316l-.008.008a10.085,10.085,0,0,0-3.232,3.872l-.031.054L3.636,129.2a.969.969,0,0,1-.648,1.219.984.984,0,0,1-1.172-.517L.1,125.379a.992.992,0,0,1,.062-.848l.27-.471c1.2-2.059,2.661-4.3,4.929-5.006l.023-.008a3.283,3.283,0,0,1,.417-.116,13.092,13.092,0,0,1,2.908,0,3.244,3.244,0,0,1,.648.231c2.059.8,3.108,2.993,3.926,5.037l.162.393,3.394,1.211a1.086,1.086,0,0,1,.247.131l.393-.347a.4.4,0,0,1,.54.008.243.243,0,0,1,.339.023l.116.131a.258.258,0,0,1-.008.339.386.386,0,0,1-.069.517Z" transform="translate(0 -109.683)"/>
      <path id="Path_6902" data-name="Path 6902" class="cls-1" d="M265.131,171.134a.313.313,0,0,1,.146-.062c.347-.085.7-.154,1.057-.208.147-.023.224-.062.193-.208-.023-.208.093-.27.27-.316a4.09,4.09,0,0,1,.81-.062,3.585,3.585,0,0,1,.81.062c.185.023.285.108.27.316-.015.147.062.185.193.208.355.054.7.131,1.057.208a1.183,1.183,0,0,1,.147.062.169.169,0,0,1,.031.231c-.008.008-.015.023-.031.031a.294.294,0,0,1-.131.062,9.742,9.742,0,0,1-1.242.224c-.362.023-.733.054-1.08.054h0c-.362,0-.733-.023-1.08-.054a7.63,7.63,0,0,1-1.242-.224.684.684,0,0,1-.131-.062.152.152,0,0,1-.093-.193.112.112,0,0,1,.046-.069Z" transform="translate(-244.604 -157.143)"/>
      <path id="Path_6903" data-name="Path 6903" class="cls-1" d="M247.189,208.157h0a2.967,2.967,0,0,0-.825-.416,1.087,1.087,0,0,0,.362-.756l.023-17.539c0-.108.015-.208.015-.3a.683.683,0,0,0-.285-.6.731.731,0,0,0-.663-.108.3.3,0,0,1-.077.023,1.451,1.451,0,0,1-.231.093l-.077.015-.393.077a7.73,7.73,0,0,1-1.681.17h-.416a7.73,7.73,0,0,1-1.681-.17l-.393-.077-.077-.015a.609.609,0,0,1-.231-.093.3.3,0,0,0-.077-.023.706.706,0,0,0-.663.108.721.721,0,0,0-.285.6c0,.108.015.193.015.3l.023,17.539a1.228,1.228,0,0,0,.363.756,4.139,4.139,0,0,0-.825.416,1.124,1.124,0,0,0-.509.887,1.151,1.151,0,0,0,.455.941,1.645,1.645,0,0,0,.532.324l.131.054c.309.116.632.216.949.3a11.268,11.268,0,0,0,2.437.247h.054a11.267,11.267,0,0,0,2.437-.247,6.777,6.777,0,0,0,.949-.3l.131-.054a1.7,1.7,0,0,0,.532-.324,1.2,1.2,0,0,0,.455-.941A1,1,0,0,0,247.189,208.157Zm-1.589-17.47c-.031.8,0,15.734-.015,15.981h0a.447.447,0,0,1-.131.285,2.023,2.023,0,0,1-.262.185l.116-.872a.487.487,0,0,0-.363-.524.29.29,0,0,0-.247-.316l-.193-.023a.279.279,0,0,0-.316.231.464.464,0,0,0-.486.4l-.116.848-.393-.6a.417.417,0,0,0-.532-.147.227.227,0,0,0-.324-.062h0l-.147.093a.245.245,0,0,0-.077.324.412.412,0,0,0-.131.447l-.116-.077a.4.4,0,0,0-.555.1.008.008,0,0,1-.008.008l-.116.17a2.449,2.449,0,0,1-.285-.208.447.447,0,0,1-.131-.285c-.015-.247.015-15.179,0-15.966,0-.316-.023-.625-.039-.926a6.034,6.034,0,0,0,2.453.4,6.659,6.659,0,0,0,2.453-.4C245.624,190.063,245.6,190.379,245.6,190.687Z" transform="translate(-220.168 -173.865)"/>
      <path id="Path_6904" data-name="Path 6904" class="cls-1" d="M264.3,372h-5.8v-5.5a4.979,4.979,0,0,0,2.931.794,5.155,5.155,0,0,0,2.869-.794Z" transform="translate(-238.536 -338.232)"/>
    </g>
    <path id="Union_25" data-name="Union 25" class="cls-1" d="M14537,4858v-23h-3a1,1,0,0,1,0-2h8.507l-3.671,25Z" transform="translate(-13789 -4810)"/>
  </g>
</svg>
