<svg xmlns="http://www.w3.org/2000/svg" viewBox="-14421.001 -8738.715 23.843 28.324">
  <defs>
    <style>
      .cls-1 {
        fill: #fefff9;
      }
    </style>
  </defs>
  <path id="book-with-bookmark" class="cls-1" d="M41.581,0H22.653A4.018,4.018,0,0,0,18.64,4.014v20.3a4.018,4.018,0,0,0,4.013,4.014H41.581a.9.9,0,0,0,.9-.9V.9A.9.9,0,0,0,41.581,0ZM27.238,1.8V6.383l-.29-.29a.9.9,0,0,0-1.276,0l-.289.289V1.8Zm-4.584,0h.927V8.56a.9.9,0,0,0,1.54.637l1.19-1.191L27.5,9.2a.9.9,0,0,0,.638.264h0a.9.9,0,0,0,.9-.9V1.8H40.679V20.3H22.653a3.99,3.99,0,0,0-2.209.666V4.014A2.213,2.213,0,0,1,22.653,1.8Zm0,24.718a2.21,2.21,0,0,1,0-4.42H40.679v1.309H22.653a.9.9,0,1,0,0,1.8H40.679v1.308Z" transform="translate(-14439.641 -8738.714)"/>
</svg>
