<svg xmlns="http://www.w3.org/2000/svg" xmlns:xlink="http://www.w3.org/1999/xlink" viewBox="-14730.463 -8754 200.72 114.055">
  <defs>
    <style>
      .cls-1, .cls-2 {
        fill: none;
      }

      .cls-1 {
        clip-rule: evenodd;
      }

      .cls-3 {
        clip-path: url(#clip-path);
      }

      .cls-4 {
        clip-path: url(#clip-path-2);
      }

      .cls-5 {
        fill: #fff;
      }

      .cls-6 {
        clip-path: url(#clip-path-3);
      }

      .cls-7 {
        fill: #6db157;
      }

      .cls-8 {
        clip-path: url(#clip-path-5);
      }

      .cls-9 {
        clip-path: url(#clip-path-7);
      }

      .cls-10 {
        clip-path: url(#clip-path-9);
      }

      .cls-11 {
        clip-path: url(#clip-path-11);
      }

      .cls-12 {
        clip-path: url(#clip-path-13);
      }

      .cls-13 {
        clip-path: url(#clip-path-15);
      }

      .cls-14 {
        clip-path: url(#clip-path-17);
      }

      .cls-15 {
        clip-path: url(#clip-path-19);
      }

      .cls-16 {
        clip-path: url(#clip-path-21);
      }

      .cls-17 {
        clip-path: url(#clip-path-23);
      }

      .cls-18 {
        clip-path: url(#clip-path-25);
      }

      .cls-19 {
        clip-path: url(#clip-path-27);
      }

      .cls-20 {
        fill: #287451;
      }

      .cls-21 {
        clip-path: url(#clip-path-29);
      }

      .cls-22 {
        clip-path: url(#clip-path-31);
      }

      .cls-23 {
        clip-path: url(#clip-path-33);
      }

      .cls-24 {
        clip-path: url(#clip-path-35);
      }

      .cls-25 {
        clip-path: url(#clip-path-37);
      }

      .cls-26 {
        clip-path: url(#clip-path-39);
      }

      .cls-27 {
        clip-path: url(#clip-path-41);
      }

      .cls-28 {
        clip-path: url(#clip-path-43);
      }
    </style>
    <clipPath id="clip-path">
      <path id="Path_2189" data-name="Path 2189" class="cls-1" d="M400.6-1580.522c.848-1.534.766-3.68.79-5.552.084-6.628-.034-13.259.078-19.886a16.574,16.574,0,0,1,1-5.149,18.119,18.119,0,0,0-.239-13.809,5.363,5.363,0,0,1-.239-3.482c2.3-7.077.092-13.377-6.536-16.859-8.124-4.268-16.568-4.242-24.988-.818a4.045,4.045,0,0,1-4.257-.182,13.925,13.925,0,0,0-11.52-1.617,4.329,4.329,0,0,1-2.115.318c-5.027-1.465-9.975-1.031-15.082.607-2.606-12.338-9.647-16.748-21.37-13.789a4.415,4.415,0,0,1-2.641-.323c-7.86-3.438-13.76-2.345-19.809,3.648-.555.547-1.728,1.13-2.3.9-5.9-2.372-12.065-1.3-18.122-1.647-6.61-.377-12.6.651-16.281,5.8-1.875-1.556-3.6-3.1-5.441-4.495-10.492-7.979-30.481-8.224-41.178-.495a16.49,16.49,0,0,0-7.357,14.2q.137,37.248.013,74.493a16.059,16.059,0,0,0,6.706,13.57c5.77,4.376,12.491,5.958,19.542,6.122,9.981.233,19.193-1.96,26.26-9.759,5.046,8.016,8.549,9.832,18.124,9.589,2.6-.064,5.2-.132,7.793-.1,4.468.054,8.936.236,13.4.267,4.547.032,9.1.018,13.644-.114,4.166-.119,8.327-.437,12.49-.645.8-.042,1.6.024,2.4.023,2.879,0,5.76-.008,8.639-.032,1.013-.009,2.027-.147,3.034-.106,6.553.265,13.1.7,19.655.8,4.234.07,8.528-.8,12.7-.346,3.579.389,6.717-.267,10.14-.906,3.18-.593,6.725,1.152,10.127,1.246a20.246,20.246,0,0,0,7.031-1.513c3.331-1.177,5.994-3.526,6.826-6.95,1.187-4.9,1.875-10.113-.547-14.768-1.534-2.945-2.033-5.239-.37-8.252" transform="translate(-203 1663)"/>
    </clipPath>
    <clipPath id="clip-path-2">
      <path id="Path_2188" data-name="Path 2188" class="cls-2" d="M0,892.886H2093.305V-1677H0Z" transform="translate(0 1677)"/>
    </clipPath>
    <clipPath id="clip-path-3">
      <path id="Path_2194" data-name="Path 2194" class="cls-1" d="M259.972-1609.6a4.359,4.359,0,0,1,3.082,1.146,3.789,3.789,0,0,1,1.236,2.9q0,5.377-9.083,5.373-5.864,0-8.65-2.427a15.329,15.329,0,0,1-3.943-4.812,11.421,11.421,0,0,1-1.153-4.959,11.133,11.133,0,0,1,3.836-8.588,13.582,13.582,0,0,1,9.473-3.469,14.251,14.251,0,0,1,6.921,1.405,4.307,4.307,0,0,1,2.507,3.875,4.32,4.32,0,0,1-1.144,3.123,4.039,4.039,0,0,1-3.034,1.186,5.2,5.2,0,0,1-.841-.045,14.539,14.539,0,0,1-1.741-.433,9.657,9.657,0,0,0-2.713-.4,3.579,3.579,0,0,0-2.51.927,3.082,3.082,0,0,0-1.022,2.377,3.286,3.286,0,0,0,1.061,2.545,4,4,0,0,0,2.821.973c.128,0,.274,0,.467-.02a5,5,0,0,0,.769-.161l1.674-.3Z" transform="translate(-241.462 1624.435)"/>
    </clipPath>
    <clipPath id="clip-path-5">
      <path id="Path_2197" data-name="Path 2197" class="cls-1" d="M266.9-1612.182a4.328,4.328,0,0,0,.968,2.906,3.075,3.075,0,0,0,2.472,1.145,3.18,3.18,0,0,0,2.5-1.1,4.31,4.31,0,0,0,.975-2.95A4.086,4.086,0,0,0,272.8-1615a3.205,3.205,0,0,0-2.463-1.143,3.132,3.132,0,0,0-2.446,1.12,4.134,4.134,0,0,0-.994,2.843m3.44-12.456a13.036,13.036,0,0,1,9.251,3.563,11.589,11.589,0,0,1,3.79,8.761,11.669,11.669,0,0,1-3.754,8.8,12.95,12.95,0,0,1-9.287,3.563,13.056,13.056,0,0,1-9.3-3.563,11.559,11.559,0,0,1-3.8-8.761,11.618,11.618,0,0,1,3.8-8.8,13.069,13.069,0,0,1,9.3-3.563" transform="translate(-257.244 1624.637)"/>
    </clipPath>
    <clipPath id="clip-path-7">
      <path id="Path_2200" data-name="Path 2200" class="cls-1" d="M285.705-1623.16a10.9,10.9,0,0,1,5.378-1.477,9.423,9.423,0,0,1,6.543,2.4,7.677,7.677,0,0,1,2.665,5.938v11.325a4.912,4.912,0,0,1-1.407,3.527,4.608,4.608,0,0,1-3.443,1.461,4.944,4.944,0,0,1-3.589-1.437,4.706,4.706,0,0,1-1.475-3.507v-9.183a2.457,2.457,0,0,0-.661-1.758,2.261,2.261,0,0,0-1.719-.716,2.433,2.433,0,0,0-1.755.716,2.331,2.331,0,0,0-.761,1.77v9.159a4.788,4.788,0,0,1-1.424,3.516,4.755,4.755,0,0,1-3.508,1.44,4.66,4.66,0,0,1-3.431-1.412,4.823,4.823,0,0,1-1.412-3.549v-14.779a4.8,4.8,0,0,1,1.412-3.451,4.574,4.574,0,0,1,3.431-1.461c.969,0,2.264.8,3.88,2.374Z" transform="translate(-275.705 1624.637)"/>
    </clipPath>
    <clipPath id="clip-path-9">
      <path id="Path_2203" data-name="Path 2203" class="cls-1" d="M311.87-1614.783h5.282q-.358-2.591-2.51-2.59-2.12,0-2.773,2.59m2.334,6.433a10.314,10.314,0,0,0,2.689.3,16.272,16.272,0,0,0,1.906-.086,12.4,12.4,0,0,0,1.807-.377c.761-.2,1.357-.342,1.81-.417a5.674,5.674,0,0,1,1.085-.129,3.5,3.5,0,0,1,2.522,1.028,3.142,3.142,0,0,1,1.081,2.339,3.587,3.587,0,0,1-.349,1.552,5.267,5.267,0,0,1-1.321,1.647,9.484,9.484,0,0,1-3.67,1.623,21.888,21.888,0,0,1-5.8.748q-6.47,0-10.485-3.382a11.06,11.06,0,0,1-4.009-8.887,11.354,11.354,0,0,1,3.77-8.672,13.189,13.189,0,0,1,9.313-3.492,13.165,13.165,0,0,1,8.88,3.339,10.034,10.034,0,0,1,3.852,7.748,3.325,3.325,0,0,1-.923,2.642,4.7,4.7,0,0,1-3.082.8h-11.5a8.451,8.451,0,0,0,1.253,1.116,4.35,4.35,0,0,0,1.172.555" transform="translate(-301.467 1624.551)"/>
    </clipPath>
    <clipPath id="clip-path-11">
      <path id="Path_2206" data-name="Path 2206" class="cls-1" d="M248.006-1596.431a2.428,2.428,0,0,0,.609,1.672,1.954,1.954,0,0,0,1.472.659,1.969,1.969,0,0,0,1.509-.688,2.562,2.562,0,0,0,.609-1.729,2.563,2.563,0,0,0-.592-1.739,1.9,1.9,0,0,0-1.527-.7,1.913,1.913,0,0,0-1.5.7,2.771,2.771,0,0,0-.578,1.826m7.138-7.964a3,3,0,0,1,2.166.869,2.869,2.869,0,0,1,.89,2.193v9.317a3.016,3.016,0,0,1-.89,2.19,2.944,2.944,0,0,1-2.194.91,4.851,4.851,0,0,1-2.527-1.3,5.33,5.33,0,0,1-1.6,1.053,6.093,6.093,0,0,1-1.984.244,6.736,6.736,0,0,1-5.082-2.185,7.511,7.511,0,0,1-2.081-5.356,8.034,8.034,0,0,1,2.12-5.617,6.763,6.763,0,0,1,5.157-2.322,5.818,5.818,0,0,1,1.852.23,5.825,5.825,0,0,1,1.617,1.054,4.868,4.868,0,0,1,2.555-1.284" transform="translate(-241.843 1604.395)"/>
    </clipPath>
    <clipPath id="clip-path-13">
      <path id="Path_2209" data-name="Path 2209" class="cls-1" d="M267.927-1603.333a8.939,8.939,0,0,1,3.888-1.062,5.73,5.73,0,0,1,4.017,1.507,4.857,4.857,0,0,1,1.64,3.724v7.2a3.043,3.043,0,0,1-.9,2.218,2.992,2.992,0,0,1-2.176.895,3.012,3.012,0,0,1-2.21-.9,3.012,3.012,0,0,1-.9-2.21v-5.706a1.31,1.31,0,0,0-.4-.959,1.345,1.345,0,0,0-.981-.4,1.291,1.291,0,0,0-.954.388,1.327,1.327,0,0,0-.386.969v5.734a2.922,2.922,0,0,1-.932,2.182,3.072,3.072,0,0,1-2.2.9,2.894,2.894,0,0,1-2.13-.895,3.069,3.069,0,0,1-.871-2.209v-5.745a1.384,1.384,0,0,0-.392-.98,1.213,1.213,0,0,0-.913-.4,1.417,1.417,0,0,0-1,.382,1.288,1.288,0,0,0-.42.978v5.788a2.994,2.994,0,0,1-.886,2.2,2.974,2.974,0,0,1-2.183.888,2.927,2.927,0,0,1-2.159-.908,3.017,3.017,0,0,1-.9-2.22v-9.3a2.992,2.992,0,0,1,.9-2.2,3,3,0,0,1,2.206-.914,4.438,4.438,0,0,1,2.312,1.176l.6-.386a9.394,9.394,0,0,1,1.636-.552,7.738,7.738,0,0,1,1.693-.238,6.251,6.251,0,0,1,2.1.347,8.617,8.617,0,0,1,2.1,1.13Z" transform="translate(-253.572 1604.395)"/>
    </clipPath>
    <clipPath id="clip-path-15">
      <path id="Path_2212" data-name="Path 2212" class="cls-1" d="M276.164-1594.271a2.366,2.366,0,0,0,.616,1.688,1.947,1.947,0,0,0,1.5.662,1.917,1.917,0,0,0,1.506-.674,2.45,2.45,0,0,0,.6-1.7,2.629,2.629,0,0,0-.588-1.738,1.873,1.873,0,0,0-1.494-.688,1.928,1.928,0,0,0-1.525.688,2.546,2.546,0,0,0-.616,1.759m-2.923,7.537a2.884,2.884,0,0,1-2.13-.889,2.937,2.937,0,0,1-.893-2.193v-15.775a2.98,2.98,0,0,1,.876-2.154,2.87,2.87,0,0,1,2.147-.9,3.084,3.084,0,0,1,2.23.89,2.945,2.945,0,0,1,.914,2.2v4.017a8.27,8.27,0,0,1,1.525-.474,7.959,7.959,0,0,1,1.362-.121,6.915,6.915,0,0,1,5.167,2.164,7.528,7.528,0,0,1,2.081,5.42,7.986,7.986,0,0,1-2.1,5.584,6.588,6.588,0,0,1-5.06,2.311,5.877,5.877,0,0,1-1.972-.244,6.592,6.592,0,0,1-1.7-1.167,4.431,4.431,0,0,1-2.446,1.33" transform="translate(-270.218 1608.643)"/>
    </clipPath>
    <clipPath id="clip-path-17">
      <path id="Path_2215" data-name="Path 2215" class="cls-1" d="M284.936-1586.461a2.964,2.964,0,0,1-2.209-.9,2.978,2.978,0,0,1-.9-2.2v-9.239a2.908,2.908,0,0,1,.932-2.179,3.067,3.067,0,0,1,2.207-.9,2.922,2.922,0,0,1,2.176.924,3.058,3.058,0,0,1,.9,2.2v9.171a3,3,0,0,1-.918,2.213,3,3,0,0,1-2.189.9m.027-22.546a3.115,3.115,0,0,1,2.316.958,3.239,3.239,0,0,1,.929,2.344,3.089,3.089,0,0,1-.957,2.288,3.124,3.124,0,0,1-2.288.955,3.159,3.159,0,0,1-2.309-.97,3.19,3.19,0,0,1-.963-2.323,3.111,3.111,0,0,1,.961-2.294,3.146,3.146,0,0,1,2.311-.958" transform="translate(-281.691 1609.007)"/>
    </clipPath>
    <clipPath id="clip-path-19">
      <path id="Path_2218" data-name="Path 2218" class="cls-1" d="M293.294-1598.175h3.334c-.147-1.1-.674-1.641-1.588-1.641-.879,0-1.465.542-1.746,1.641m1.474,4.042a6.2,6.2,0,0,0,1.693.2c.52,0,.923-.022,1.209-.049a10.086,10.086,0,0,0,1.135-.246c.475-.123.852-.211,1.139-.261a4.109,4.109,0,0,1,.679-.081,2.291,2.291,0,0,1,1.6.644,2.046,2.046,0,0,1,.68,1.482,2.215,2.215,0,0,1-.229.978,3.475,3.475,0,0,1-.823,1.036,5.991,5.991,0,0,1-2.322,1.021,13.658,13.658,0,0,1-3.651.468,9.9,9.9,0,0,1-6.607-2.125,6.966,6.966,0,0,1-2.529-5.6,7.147,7.147,0,0,1,2.373-5.466,8.281,8.281,0,0,1,5.87-2.2,8.266,8.266,0,0,1,5.6,2.109,6.318,6.318,0,0,1,2.435,4.878,2.131,2.131,0,0,1-.587,1.67,3.008,3.008,0,0,1-1.944.492h-7.251a6.078,6.078,0,0,0,.79.71,2.962,2.962,0,0,0,.74.344" transform="translate(-286.744 1604.335)"/>
    </clipPath>
    <clipPath id="clip-path-21">
      <path id="Path_2221" data-name="Path 2221" class="cls-1" d="M304.493-1603.455a6.912,6.912,0,0,1,3.388-.939,5.886,5.886,0,0,1,4.122,1.523,4.811,4.811,0,0,1,1.683,3.737V-1592a3.074,3.074,0,0,1-.889,2.224,2.888,2.888,0,0,1-2.167.919,3.129,3.129,0,0,1-2.26-.9,2.969,2.969,0,0,1-.934-2.21v-5.789a1.57,1.57,0,0,0-.411-1.105,1.42,1.42,0,0,0-1.09-.451,1.555,1.555,0,0,0-1.11.451,1.474,1.474,0,0,0-.473,1.113v5.777a3.037,3.037,0,0,1-.9,2.214,3.021,3.021,0,0,1-2.208.9,2.94,2.94,0,0,1-2.171-.892,3.052,3.052,0,0,1-.88-2.225v-9.32a3.054,3.054,0,0,1,.88-2.176,2.913,2.913,0,0,1,2.171-.924,4.228,4.228,0,0,1,2.441,1.5Z" transform="translate(-298.198 1604.394)"/>
    </clipPath>
    <clipPath id="clip-path-23">
      <path id="Path_2224" data-name="Path 2224" class="cls-1" d="M311.122-1597.577a2.692,2.692,0,0,1-1.934-.777,2.536,2.536,0,0,1-.813-1.894,2.314,2.314,0,0,1,.774-1.742,2.748,2.748,0,0,1,1.923-.72h.277v-1.279a3,3,0,0,1,.915-2.213,3.032,3.032,0,0,1,2.223-.924,2.906,2.906,0,0,1,2.177.934,3.1,3.1,0,0,1,.91,2.234v1.249h.359a2.574,2.574,0,0,1,1.829.742,2.4,2.4,0,0,1,.778,1.788,2.522,2.522,0,0,1-.753,1.827,2.457,2.457,0,0,1-1.854.777h-.388v6.954a3.089,3.089,0,0,1-.9,2.252,2.928,2.928,0,0,1-2.19.912,2.956,2.956,0,0,1-2.21-.924,3.11,3.11,0,0,1-.9-2.227v-6.967Z" transform="translate(-308.375 1607.127)"/>
    </clipPath>
    <clipPath id="clip-path-25">
      <path id="Path_2227" data-name="Path 2227" class="cls-1" d="M322.7-1598.175h3.339c-.152-1.1-.679-1.641-1.591-1.641-.881,0-1.464.542-1.748,1.641m1.479,4.042a6.13,6.13,0,0,0,1.692.2c.512,0,.915-.022,1.2-.049a10.153,10.153,0,0,0,1.143-.246c.477-.123.858-.211,1.137-.261a4.1,4.1,0,0,1,.687-.081,2.245,2.245,0,0,1,1.591.644,2,2,0,0,1,.691,1.482,2.305,2.305,0,0,1-.228.978,3.547,3.547,0,0,1-.836,1.036,6.035,6.035,0,0,1-2.319,1.021,13.609,13.609,0,0,1-3.651.468,9.947,9.947,0,0,1-6.612-2.125,6.964,6.964,0,0,1-2.526-5.6,7.151,7.151,0,0,1,2.378-5.466,8.283,8.283,0,0,1,5.874-2.2,8.265,8.265,0,0,1,5.594,2.109,6.3,6.3,0,0,1,2.426,4.878,2.129,2.129,0,0,1-.578,1.67,3.04,3.04,0,0,1-1.951.492h-7.24a5.835,5.835,0,0,0,.786.71,2.87,2.87,0,0,0,.741.344" transform="translate(-316.149 1604.335)"/>
    </clipPath>
    <clipPath id="clip-path-27">
      <path id="Path_2230" data-name="Path 2230" class="cls-1" d="M254.568-1636.119H259.9a3.228,3.228,0,0,0,2.282-.859,2.924,2.924,0,0,0,.915-2.228,2.953,2.953,0,0,0-.915-2.169,3.105,3.105,0,0,0-2.282-.916h-5.334Zm0,17.147a6.479,6.479,0,0,1-1.922,4.741,6.429,6.429,0,0,1-4.76,1.948,6.124,6.124,0,0,1-4.6-1.948,6.719,6.719,0,0,1-1.867-4.855v-27.668a7.444,7.444,0,0,1,1.8-5.224,6.172,6.172,0,0,1,4.775-1.977h12.368a16.009,16.009,0,0,1,11.266,4.118,13.55,13.55,0,0,1,4.463,10.4,13.646,13.646,0,0,1-4.516,10.718q-4.519,4.03-11.874,4.032h-5.129Z" transform="translate(-241.415 1653.955)"/>
    </clipPath>
    <clipPath id="clip-path-29">
      <path id="Path_2233" data-name="Path 2233" class="cls-1" d="M271.819-1610.617a6.223,6.223,0,0,1-4.551-1.854,6.171,6.171,0,0,1-1.857-4.537v-19.051a5.978,5.978,0,0,1,1.918-4.482,6.312,6.312,0,0,1,4.541-1.859,6.05,6.05,0,0,1,4.5,1.92,6.293,6.293,0,0,1,1.85,4.533v18.881a6.233,6.233,0,0,1-1.879,4.567,6.216,6.216,0,0,1-4.522,1.883m.051-46.468a6.382,6.382,0,0,1,4.788,1.971,6.7,6.7,0,0,1,1.91,4.835,6.394,6.394,0,0,1-1.979,4.709,6.447,6.447,0,0,1-4.72,1.974,6.5,6.5,0,0,1-4.747-2,6.553,6.553,0,0,1-2-4.805,6.406,6.406,0,0,1,1.979-4.711,6.452,6.452,0,0,1,4.769-1.971" transform="translate(-265.122 1657.085)"/>
    </clipPath>
    <clipPath id="clip-path-31">
      <path id="Path_2236" data-name="Path 2236" class="cls-1" d="M282.323-1610.9a6.154,6.154,0,0,1-4.522-1.889,6.22,6.22,0,0,1-1.891-4.572v-32.743a5.926,5.926,0,0,1,1.891-4.406,6.342,6.342,0,0,1,4.575-1.832,6.022,6.022,0,0,1,4.429,1.856,6.12,6.12,0,0,1,1.866,4.491v32.633a6.282,6.282,0,0,1-1.866,4.544,5.993,5.993,0,0,1-4.482,1.917" transform="translate(-275.91 1656.342)"/>
    </clipPath>
    <clipPath id="clip-path-33">
      <path id="Path_2239" data-name="Path 2239" class="cls-1" d="M299.2-1631.1a4.785,4.785,0,0,0,1.269,3.4,4.068,4.068,0,0,0,3.08,1.353,4.054,4.054,0,0,0,3.128-1.419,5.027,5.027,0,0,0,1.269-3.5,5.289,5.289,0,0,0-1.215-3.569,3.993,3.993,0,0,0-3.182-1.4,3.95,3.95,0,0,0-3.136,1.4,5.52,5.52,0,0,0-1.213,3.737m14.89-16.237a6.331,6.331,0,0,1,4.516,1.757,5.851,5.851,0,0,1,1.858,4.469v19.011a6.094,6.094,0,0,1-1.858,4.465,6.172,6.172,0,0,1-4.575,1.873q-1.85,0-5.269-2.662a11.405,11.405,0,0,1-3.335,2.15,13.029,13.029,0,0,1-4.146.512,14.254,14.254,0,0,1-10.6-4.472,15.068,15.068,0,0,1-4.35-10.917,16.149,16.149,0,0,1,4.438-11.463,14.188,14.188,0,0,1,10.752-4.724,12.512,12.512,0,0,1,3.854.453,12.6,12.6,0,0,1,3.388,2.158c2.276-1.739,4.061-2.611,5.328-2.611" transform="translate(-286.326 1647.341)"/>
    </clipPath>
    <clipPath id="clip-path-35">
      <path id="Path_2242" data-name="Path 2242" class="cls-1" d="M323.968-1638.769c-.917,0-1.37.262-1.37.8q0,.859,2.288,1.486l4.691,1.478a12.952,12.952,0,0,1,5.666,3.665,8.061,8.061,0,0,1,2.059,5.378,9.152,9.152,0,0,1-3.837,7.493,15.584,15.584,0,0,1-9.782,2.965,22.405,22.405,0,0,1-10.19-2.064c-2.708-1.366-4.052-3.1-4.052-5.2a4.291,4.291,0,0,1,1.459-3.286,5.026,5.026,0,0,1,3.507-1.347,8.6,8.6,0,0,1,1.927.182c.477.114,1.326.4,2.546.85a25.023,25.023,0,0,0,2.771.918,7.858,7.858,0,0,0,1.693.233c1.062,0,1.6-.294,1.6-.861,0-.645-.937-1.182-2.808-1.6l-5.541-1.652a9.569,9.569,0,0,1-4.525-3.091,7.628,7.628,0,0,1-1.607-4.854,8.807,8.807,0,0,1,3.891-7.462q3.894-2.839,10.243-2.83a18.877,18.877,0,0,1,8.5,1.712c2.267,1.149,3.412,2.58,3.412,4.292a4.114,4.114,0,0,1-1.325,3.086,4.693,4.693,0,0,1-3.374,1.255,14.926,14.926,0,0,1-2.8-.454l-1.661-.464c-1-.225-1.731-.377-2.2-.481a6.4,6.4,0,0,0-1.176-.138" transform="translate(-309.442 1647.577)"/>
    </clipPath>
    <clipPath id="clip-path-37">
      <path id="Path_2245" data-name="Path 2245" class="cls-1" d="M329.18-1629.043a4.844,4.844,0,0,1,.283,1.617v25.132a4.853,4.853,0,0,1-1.434,3.5,4.647,4.647,0,0,1-3.462,1.479,4.76,4.76,0,0,1-3.474-1.453,4.8,4.8,0,0,1-1.458-3.528v-22.8a14.947,14.947,0,0,0,8.4-2.922,11.782,11.782,0,0,0,1.143-1.028" transform="translate(-319.637 1629.043)"/>
    </clipPath>
    <clipPath id="clip-path-39">
      <path id="Path_2248" data-name="Path 2248" class="cls-1" d="M209.046-1589.256V-1622.2c0,5.361,8.349,9.7,18.652,9.7s18.653-4.336,18.653-9.7l0,32.947c0,5.351-8.354,9.69-18.656,9.69s-18.652-4.339-18.652-9.69" transform="translate(-209.046 1622.203)"/>
    </clipPath>
    <clipPath id="clip-path-41">
      <path id="Path_2251" data-name="Path 2251" class="cls-1" d="M227.7-1638.045c-8.832,0-15.988-3.726-15.988-8.313s7.156-8.318,15.988-8.318,15.991,3.727,15.991,8.318-7.148,8.313-15.991,8.313Zm6.688,10.7a3.345,3.345,0,0,1,2.435.981,3.131,3.131,0,0,1,1.013,2.352,3.18,3.18,0,0,1-.975,2.329,3.276,3.276,0,0,1-2.4.97h-3.377v3.417a3.3,3.3,0,0,1-.985,2.434,3.329,3.329,0,0,1-2.45.982,3.143,3.143,0,0,1-2.321-.983,3.334,3.334,0,0,1-.965-2.411v-3.439h-3.439a3.177,3.177,0,0,1-2.378-.979,3.2,3.2,0,0,1-.983-2.369,3.348,3.348,0,0,1,.948-2.412,3.156,3.156,0,0,1,2.4-.984h3.457v-3.344a3.247,3.247,0,0,1,.975-2.392,3.305,3.305,0,0,1,2.443-.974,3.134,3.134,0,0,1,2.324,1.007,3.363,3.363,0,0,1,.98,2.4v3.415Zm7.509,18.029c-2.377,4.288-7.951,7.057-14.2,7.057s-11.816-2.769-14.192-7.056a3.307,3.307,0,0,1,1.289-4.5,3.309,3.309,0,0,1,4.5,1.288c.973,1.761,4.028,3.647,8.4,3.647s7.423-1.886,8.406-3.648a3.315,3.315,0,0,1,4.5-1.292,3.307,3.307,0,0,1,1.287,4.5Zm4.459-38.181c0-5.351-8.356-9.7-18.655-9.7s-18.653,4.344-18.653,9.7l.005,43.884c0,5.359,8.348,9.7,18.652,9.7s18.653-4.336,18.653-9.7Z" transform="translate(-209.048 1657.192)"/>
    </clipPath>
    <clipPath id="clip-path-43">
      <path id="Path_2254" data-name="Path 2254" class="cls-1" d="M231.783-1650.217c0,2.254-3.511,4.077-7.839,4.077s-7.842-1.823-7.842-4.077,3.51-4.076,7.842-4.076,7.839,1.834,7.839,4.076" transform="translate(-216.102 1654.293)"/>
    </clipPath>
  </defs>
  <g id="Group_5130" data-name="Group 5130" transform="translate(-15220.463 -8754)">
    <g id="Group_1591" data-name="Group 1591" class="cls-3" transform="translate(490 0)">
      <g id="Group_1590" data-name="Group 1590" class="cls-4" transform="translate(-311.084 -21.455)">
        <path id="Path_2187" data-name="Path 2187" class="cls-5" d="M198-1538.622H414.045V-1668H198Z" transform="translate(105.422 1681.792)"/>
      </g>
    </g>
    <g id="Group_1595" data-name="Group 1595" class="cls-6" transform="translate(548.939 59.097)">
      <g id="Group_1594" data-name="Group 1594" class="cls-4" transform="translate(-370.024 -80.552)">
        <path id="Path_2192" data-name="Path 2192" class="cls-7" d="M236.462-1589.855h38.153v-39.58H236.462Z" transform="translate(125.9 1702.325)"/>
      </g>
    </g>
    <g id="Group_1597" data-name="Group 1597" class="cls-8" transform="translate(573.125 58.788)">
      <g id="Group_1596" data-name="Group 1596" class="cls-4" transform="translate(-394.21 -80.243)">
        <path id="Path_2195" data-name="Path 2195" class="cls-7" d="M252.244-1589.622H293.7v-40.014H252.244Z" transform="translate(134.303 1702.217)"/>
      </g>
    </g>
    <g id="Group_1599" data-name="Group 1599" class="cls-9" transform="translate(601.415 58.788)">
      <g id="Group_1598" data-name="Group 1598" class="cls-4" transform="translate(-422.499 -80.243)">
        <path id="Path_2198" data-name="Path 2198" class="cls-7" d="M270.7-1589.662h39.911v-39.975H270.7Z" transform="translate(144.132 1702.217)"/>
      </g>
    </g>
    <g id="Group_1601" data-name="Group 1601" class="cls-10" transform="translate(640.893 58.92)">
      <g id="Group_1600" data-name="Group 1600" class="cls-4" transform="translate(-461.978 -80.374)">
        <path id="Path_2201" data-name="Path 2201" class="cls-7" d="M296.467-1589.794h41.14v-39.757h-41.14Z" transform="translate(157.849 1702.263)"/>
      </g>
    </g>
    <g id="Group_1603" data-name="Group 1603" class="cls-11" transform="translate(549.524 89.807)">
      <g id="Group_1602" data-name="Group 1602" class="cls-4" transform="translate(-370.608 -111.262)">
        <path id="Path_2204" data-name="Path 2204" class="cls-7" d="M236.843-1578.592h31.682v-30.8H236.843Z" transform="translate(126.103 1712.995)"/>
      </g>
    </g>
    <g id="Group_1605" data-name="Group 1605" class="cls-12" transform="translate(567.498 89.807)">
      <g id="Group_1604" data-name="Group 1604" class="cls-4" transform="translate(-388.583 -111.262)">
        <path id="Path_2207" data-name="Path 2207" class="cls-7" d="M248.572-1578.532H287.8V-1609.4H248.572Z" transform="translate(132.348 1712.995)"/>
      </g>
    </g>
    <g id="Group_1607" data-name="Group 1607" class="cls-13" transform="translate(593.007 83.298)">
      <g id="Group_1606" data-name="Group 1606" class="cls-4" transform="translate(-414.091 -104.752)">
        <path id="Path_2210" data-name="Path 2210" class="cls-7" d="M265.218-1576.33h31.626v-37.313H265.218Z" transform="translate(141.211 1710.733)"/>
      </g>
    </g>
    <g id="Group_1609" data-name="Group 1609" class="cls-14" transform="translate(610.588 82.74)">
      <g id="Group_1608" data-name="Group 1608" class="cls-4" transform="translate(-431.672 -104.195)">
        <path id="Path_2213" data-name="Path 2213" class="cls-7" d="M276.69-1576.136h21.842v-37.871H276.69Z" transform="translate(147.319 1710.539)"/>
      </g>
    </g>
    <g id="Group_1611" data-name="Group 1611" class="cls-15" transform="translate(618.331 89.899)">
      <g id="Group_1610" data-name="Group 1610" class="cls-4" transform="translate(-439.416 -111.354)">
        <path id="Path_2216" data-name="Path 2216" class="cls-7" d="M281.744-1578.622h31.6v-30.713h-31.6Z" transform="translate(150.01 1713.027)"/>
      </g>
    </g>
    <g id="Group_1613" data-name="Group 1613" class="cls-16" transform="translate(635.884 89.809)">
      <g id="Group_1612" data-name="Group 1612" class="cls-4" transform="translate(-456.969 -111.264)">
        <path id="Path_2219" data-name="Path 2219" class="cls-7" d="M293.2-1578.532H324.01V-1609.4H293.2Z" transform="translate(156.109 1712.995)"/>
      </g>
    </g>
    <g id="Group_1615" data-name="Group 1615" class="cls-17" transform="translate(651.48 85.621)">
      <g id="Group_1614" data-name="Group 1614" class="cls-4" transform="translate(-472.564 -107.076)">
        <path id="Path_2222" data-name="Path 2222" class="cls-7" d="M303.375-1577.136h27.489v-34.991H303.375Z" transform="translate(161.527 1711.541)"/>
      </g>
    </g>
    <g id="Group_1617" data-name="Group 1617" class="cls-18" transform="translate(663.392 89.899)">
      <g id="Group_1616" data-name="Group 1616" class="cls-4" transform="translate(-484.477 -111.354)">
        <path id="Path_2225" data-name="Path 2225" class="cls-7" d="M311.149-1578.622h31.6v-30.713h-31.6Z" transform="translate(165.666 1713.027)"/>
      </g>
    </g>
    <g id="Group_1619" data-name="Group 1619" class="cls-19" transform="translate(548.869 13.86)">
      <g id="Group_1618" data-name="Group 1618" class="cls-4" transform="translate(-369.953 -35.315)">
        <path id="Path_2228" data-name="Path 2228" class="cls-20" d="M236.415-1601.959h50v-57h-50Z" transform="translate(125.876 1686.608)"/>
      </g>
    </g>
    <g id="Group_1621" data-name="Group 1621" class="cls-21" transform="translate(585.198 9.064)">
      <g id="Group_1620" data-name="Group 1620" class="cls-4" transform="translate(-406.282 -30.518)">
        <path id="Path_2231" data-name="Path 2231" class="cls-20" d="M260.122-1600.293h28.77v-61.794h-28.77Z" transform="translate(138.498 1684.941)"/>
      </g>
    </g>
    <g id="Group_1623" data-name="Group 1623" class="cls-22" transform="translate(601.729 10.202)">
      <g id="Group_1622" data-name="Group 1622" class="cls-4" transform="translate(-422.813 -31.657)">
        <path id="Path_2234" data-name="Path 2234" class="cls-20" d="M270.91-1600.576H299v-60.766H270.91Z" transform="translate(144.241 1685.337)"/>
      </g>
    </g>
    <g id="Group_1625" data-name="Group 1625" class="cls-23" transform="translate(617.692 23.996)">
      <g id="Group_1624" data-name="Group 1624" class="cls-4" transform="translate(-438.776 -45.45)">
        <path id="Path_2237" data-name="Path 2237" class="cls-20" d="M281.326-1605.441h49.46v-46.9h-49.46Z" transform="translate(149.788 1690.13)"/>
      </g>
    </g>
    <g id="Group_1627" data-name="Group 1627" class="cls-24" transform="translate(653.115 23.634)">
      <g id="Group_1626" data-name="Group 1626" class="cls-4" transform="translate(-474.199 -45.089)">
        <path id="Path_2240" data-name="Path 2240" class="cls-20" d="M304.442-1605.182h43.185v-47.4H304.442Z" transform="translate(162.095 1690.004)"/>
      </g>
    </g>
    <g id="Group_1629" data-name="Group 1629" class="cls-25" transform="translate(668.738 52.036)">
      <g id="Group_1628" data-name="Group 1628" class="cls-4" transform="translate(-489.822 -73.491)">
        <path id="Path_2243" data-name="Path 2243" class="cls-7" d="M314.636-1586.99h25.152v-47.052H314.636Z" transform="translate(167.523 1699.872)"/>
      </g>
    </g>
    <g id="Group_1631" data-name="Group 1631" class="cls-26" transform="translate(499.264 62.518)">
      <g id="Group_1630" data-name="Group 1630" class="cls-4" transform="translate(-320.348 -83.973)">
        <path id="Path_2246" data-name="Path 2246" class="cls-20" d="M204.046-1569.242h52.632V-1627.2H204.046Z" transform="translate(108.641 1703.514)"/>
      </g>
    </g>
    <g id="Group_1633" data-name="Group 1633" class="cls-27" transform="translate(499.268 8.9)">
      <g id="Group_1632" data-name="Group 1632" class="cls-4" transform="translate(-320.352 -30.354)">
        <path id="Path_2249" data-name="Path 2249" class="cls-7" d="M204.048-1583.593h52.634v-78.6H204.048Z" transform="translate(108.642 1684.885)"/>
      </g>
    </g>
    <g id="Group_1635" data-name="Group 1635" class="cls-28" transform="translate(510.077 13.342)">
      <g id="Group_1634" data-name="Group 1634" class="cls-4" transform="translate(-331.162 -34.797)">
        <path id="Path_2252" data-name="Path 2252" class="cls-20" d="M211.1-1635.815h31.005v-23.479H211.1Z" transform="translate(112.398 1686.428)"/>
      </g>
    </g>
  </g>
</svg>
