<svg xmlns="http://www.w3.org/2000/svg" viewBox="-5092.969 -7709.914 62.272 51.893">
  <defs>
    <style>
      .cls-1 {
        fill: #f90;
      }

      .cls-2 {
        fill: #42210b;
      }

      .cls-3 {
        fill: #fff8ef;
      }

      .cls-4 {
        fill: #2fb4c2;
      }

      .cls-5 {
        fill: #1d9aae;
      }

      .cls-6 {
        fill: #d9cdc1;
      }

      .cls-7 {
        fill: #ff7d00;
      }
    </style>
  </defs>
  <g id="good-review" transform="translate(-5092.969 -7749.914)">
    <path id="Path_7270" data-name="Path 7270" class="cls-1" d="M272.909,134.227h-7.265V136.3h7.265Zm-13.492-4.151h13.492V128h3.114v24.494l-4.463-4.463a.942.942,0,0,0-.726-.311h-6.539a5.014,5.014,0,0,0-1.453-2.076,4.733,4.733,0,0,0,1.764-3.633,4.651,4.651,0,0,0-4.67-4.67H248v-7.265h11.417Z" transform="translate(-215.826 -76.583)"/>
    <g id="Group_5294" data-name="Group 5294" transform="translate(33.212 45.189)">
      <rect id="Rectangle_1084" data-name="Rectangle 1084" class="cls-2" width="7.265" height="2.076" transform="translate(16.606 12.454)"/>
      <rect id="Rectangle_1085" data-name="Rectangle 1085" class="cls-2" width="13.492" height="2.076" transform="translate(10.379 6.227)"/>
      <rect id="Rectangle_1086" data-name="Rectangle 1086" class="cls-2" width="4.151" height="2.076" transform="translate(19.719 0)"/>
      <rect id="Rectangle_1087" data-name="Rectangle 1087" class="cls-2" width="16.606" height="2.076" transform="translate(0 0)"/>
      <rect id="Rectangle_1088" data-name="Rectangle 1088" class="cls-2" width="8.303" height="2.076" transform="translate(0 6.227)"/>
    </g>
    <path id="Path_7271" data-name="Path 7271" class="cls-3" d="M141.579,116.693a2.595,2.595,0,0,1,0,5.189h-8.822v2.076h8.822a2.595,2.595,0,0,1,0,5.189h-8.822v2.076h8.822a2.595,2.595,0,0,1,0,5.189h-8.822v2.076h8.822a2.595,2.595,0,0,1,0,5.189H118.642l-2.8-2.8a.942.942,0,0,0-.727-.311H112V120.845h4.151a1.058,1.058,0,0,0,.83-.519l4.151-6.227c.1-.208.208-.311.208-.519v-8.51a3.245,3.245,0,0,1,1.349-2.595,3.189,3.189,0,0,1,2.906-.415,3.122,3.122,0,0,1,2.076,2.906v10.69a1.116,1.116,0,0,0,1.038,1.038Z" transform="translate(-97.47 -53.86)"/>
    <path id="Path_7272" data-name="Path 7272" class="cls-1" d="M183.022,59.114H178.87v2.076h4.151Zm-7.265,0H159.151v2.076h16.606Zm-6.227,6.227v2.076h-2.076V65.341h-8.3v2.076h-1.038V65.133a5.2,5.2,0,0,0-3.321-4.878,4.931,4.931,0,0,0-4.774.623,5,5,0,0,0-2.18,4.255v8.2L144.724,78V57.453A1.357,1.357,0,0,1,146.177,56h38.5a1.563,1.563,0,0,1,1.453,1.453v7.888H169.529Z" transform="translate(-125.939 -13.924)"/>
    <rect id="Rectangle_1089" data-name="Rectangle 1089" class="cls-4" width="10.379" height="24.909" transform="translate(2.076 63.871)"/>
    <path id="Path_7273" data-name="Path 7273" class="cls-2" d="M12.454,88.78V63.871H2.076V88.78ZM44.109,60.757a4.651,4.651,0,0,1,4.67,4.67,4.733,4.733,0,0,1-1.764,3.633,5.014,5.014,0,0,1,1.453,2.076h6.539a.942.942,0,0,1,.727.311L60.2,75.91V43.529a1.581,1.581,0,0,0-1.557-1.453h-38.4a1.509,1.509,0,0,0-1.557,1.453v20.55l3.114-4.67v-8.2a5.26,5.26,0,0,1,2.18-4.255,5.585,5.585,0,0,1,4.774-.623,5.2,5.2,0,0,1,3.321,4.878v9.548Zm4.67,26.466a4.651,4.651,0,0,1-4.67,4.67H20.757a.942.942,0,0,1-.727-.311l-2.8-2.8h-2.7v1.038a1.04,1.04,0,0,1-1.038,1.038H1.038A1.116,1.116,0,0,1,0,89.818V62.833A1.116,1.116,0,0,1,1.038,61.8H13.492a1.04,1.04,0,0,1,1.038,1.038v2.076h2.076V43.529A3.589,3.589,0,0,1,20.238,40h38.5a3.566,3.566,0,0,1,3.529,3.529V78.4a.908.908,0,0,1-.623.934.624.624,0,0,1-.415.1.942.942,0,0,1-.727-.311l-5.916-5.916H48.78a4.547,4.547,0,0,1-1.764,3.114,4.622,4.622,0,0,1,0,7.265A4.733,4.733,0,0,1,48.78,87.223Zm-4.67-19.2a2.595,2.595,0,0,0,0-5.189H31.136A1.116,1.116,0,0,1,30.1,61.8V51.209A3.122,3.122,0,0,0,28.022,48.3a2.985,2.985,0,0,0-2.906.415,3.245,3.245,0,0,0-1.349,2.595v8.407a.793.793,0,0,1-.208.519l-4.151,6.227a.78.78,0,0,1-.727.519H14.53V86.7h3.114a.942.942,0,0,1,.727.311l2.8,2.8H44.109a2.595,2.595,0,0,0,0-5.189H35.287V82.553h8.822a2.595,2.595,0,0,0,0-5.189H35.287V75.287h8.822a2.595,2.595,0,0,0,0-5.189H35.287V68.022h8.822Z"/>
    <path id="Path_7274" data-name="Path 7274" class="cls-5" d="M16,224l4.878,1.245a4.974,4.974,0,0,1,3.736,4.359l1.764,19.3V224Z" transform="translate(-13.924 -160.129)"/>
    <g id="Group_5295" data-name="Group 5295" transform="translate(23.767 48.133)">
      <path id="Path_7275" data-name="Path 7275" class="cls-6" d="M189.531,105.973v-.208a3.122,3.122,0,0,0-2.076-2.906,3.205,3.205,0,0,0-4.255,3.01v.1C183.3,105.973,186.417,102.859,189.531,105.973Z" transform="translate(-183.2 -102.689)"/>
      <path id="Path_7276" data-name="Path 7276" class="cls-6" d="M336.519,216H336s2.076,2.076,0,5.189h.519a2.595,2.595,0,0,0,0-5.189Z" transform="translate(-316.177 -201.3)"/>
      <path id="Path_7277" data-name="Path 7277" class="cls-6" d="M336.519,272H336s2.076,2.076,0,5.189h.519a2.595,2.595,0,0,0,0-5.189Z" transform="translate(-316.177 -250.035)"/>
      <path id="Path_7278" data-name="Path 7278" class="cls-6" d="M336.519,328H336s2.076,2.076,0,5.189h.519a2.595,2.595,0,0,0,0-5.189Z" transform="translate(-316.177 -298.77)"/>
      <path id="Path_7279" data-name="Path 7279" class="cls-6" d="M336.519,384H336s2.076,2.076,0,5.189h.519a2.595,2.595,0,0,0,0-5.189Z" transform="translate(-316.177 -347.505)"/>
    </g>
    <path id="Path_7280" data-name="Path 7280" class="cls-7" d="M194.565,65.341V57.557A1.471,1.471,0,0,0,193.009,56H154.4l34.146,1.868a3.448,3.448,0,0,1,3.217,3.114l2.8,28.749h0Z" transform="translate(-134.369 -13.924)"/>
  </g>
</svg>
