<svg xmlns="http://www.w3.org/2000/svg" viewBox="-5096.969 -7818.492 69.104 69.104">
  <defs>
    <style>
      .cls-1 {
        fill: #ff14e4;
      }
    </style>
  </defs>
  <g id="Group_5304" data-name="Group 5304" transform="translate(-6447.606 -9474)">
    <g id="mail-sent" transform="translate(1350.637 1655.508)">
      <path id="Path_7281" data-name="Path 7281" d="M67.261,22.339l-20.5-20.5a6.307,6.307,0,0,0-8.91,0L1.842,37.853a6.307,6.307,0,0,0,0,8.91l20.5,20.5a6.307,6.307,0,0,0,8.91,0L67.261,31.25A6.307,6.307,0,0,0,67.261,22.339ZM26.118,64.774a2.061,2.061,0,0,1-.808-.483l-20.5-20.5c-.006-.006-.007-.013-.013-.019H26.118v21ZM6.062,39.574,39.575,6.061v32.6a.938.938,0,0,1-.917.917ZM30.317,62.253V43.775h8.342a5.115,5.115,0,0,0,5.116-5.116V30.317H62.253ZM43.775,26.117V4.8c.006.006.013.007.019.013l20.5,20.5a2.05,2.05,0,0,1,.482.809Z" transform="translate(0 0.001)"/>
      <path id="Path_7282" data-name="Path 7282" d="M2.047,37.9H23.556a2.046,2.046,0,1,0,0-4.093H2.047a2.046,2.046,0,1,0,0,4.093Z" transform="translate(-0.001 -28.998)"/>
      <path id="Path_7283" data-name="Path 7283" d="M2.047,94.4H15.535a2.046,2.046,0,0,0,0-4.093H2.047a2.046,2.046,0,1,0,0,4.093Z" transform="translate(-0.001 -77.454)"/>
      <path id="Path_7284" data-name="Path 7284" d="M2.047,149.18h8.708a2.046,2.046,0,1,0,0-4.093H2.047a2.046,2.046,0,1,0,0,4.093Z" transform="translate(-0.001 -124.442)"/>
      <path id="Path_7285" data-name="Path 7285" d="M10.755,438.278H2.047a2.046,2.046,0,1,0,0,4.093h8.708a2.046,2.046,0,1,0,0-4.093Z" transform="translate(-0.001 -375.913)"/>
    </g>
    <path id="Path_7286" data-name="Path 7286" class="cls-1" d="M44.6,10.289v33.4H11.587Z" transform="translate(1345.287 1651.761)"/>
  </g>
</svg>
