<svg xmlns="http://www.w3.org/2000/svg" viewBox="2978.54 1233.446 83.453 17.114"><defs><style>.a{fill:#fff;}</style></defs><path class="a" d="M44.538,8.316a3.939,3.939,0,0,0-1.751.473v5.4a11.575,11.575,0,0,0,1.261.047c1.713,0,1.951-.784,1.951-1.883V9.773c0-.805-.268-1.457-1.461-1.457ZM33.15,8.022c-1.189,0-1.461.652-1.461,1.461v.456h2.923V9.484C34.611,8.674,34.339,8.022,33.15,8.022ZM11.094,13.642a.852.852,0,0,0,.967.971,3.572,3.572,0,0,0,1.662-.473V12.858H12.159c-.741,0-1.065.141-1.065.784ZM55.615,8.316c-1.193,0-1.606.652-1.606,1.461v2.957c0,.814.413,1.466,1.606,1.466s1.606-.652,1.606-1.466V9.778C57.217,8.968,56.8,8.316,55.615,8.316ZM5.253,16.956h-3.5V8.478H0V5.556H1.751V3.8c0-2.382.988-3.8,3.8-3.8H7.882V2.923H6.42c-1.095,0-1.163.409-1.163,1.172l0,1.461H7.9L7.588,8.478H5.249l0,8.478Zm11.972.021H14.306l-.128-.737a6.7,6.7,0,0,1-3.306.856,3.105,3.105,0,0,1-3.281-3.408c0-2.335,1.329-3.165,3.707-3.165h2.42v-.5c0-1.193-.136-1.542-1.968-1.542h-3l.294-2.923h3.272c4.018,0,4.9,1.27,4.9,4.486l0,6.936Zm9.927-8.286a16.72,16.72,0,0,0-3.212-.379c-1.572,0-2.045.345-2.045,1.679v2.522c0,1.334.473,1.683,2.045,1.683a16.48,16.48,0,0,0,3.212-.383v2.85a15.424,15.424,0,0,1-3.5.452c-3.762,0-5.257-1.977-5.257-4.836V10.233c0-2.859,1.5-4.84,5.257-4.84a15.4,15.4,0,0,1,3.5.452V8.691Zm10.962,3.587H31.689v.234c0,1.334.473,1.683,2.045,1.683a20.259,20.259,0,0,0,4.086-.383v2.85a18.361,18.361,0,0,1-4.375.452c-3.762,0-5.257-1.977-5.257-4.836V9.939c0-2.5,1.108-4.546,4.963-4.546s4.963,2.019,4.963,4.546ZM49.5,12.33c0,2.761-.788,4.776-5.568,4.776a26.749,26.749,0,0,1-4.644-.443V.878l3.5-.584V5.815a7.965,7.965,0,0,1,2.629-.426c3.5,0,4.086,1.572,4.086,4.094l0,2.846Zm11.222.064c0,2.382-.984,4.691-5.1,4.691s-5.117-2.309-5.117-4.691v-2.3c0-2.382,1-4.695,5.117-4.695s5.1,2.309,5.1,4.695v2.3Zm11.218,0c0,2.382-.984,4.691-5.1,4.691s-5.117-2.309-5.117-4.691v-2.3c0-2.382,1-4.695,5.117-4.695s5.1,2.309,5.1,4.695v2.3Zm11.512,4.563h-3.8L76.449,11.6v5.36h-3.5V.878l3.5-.584V10.642l3.208-5.087h3.8l-3.506,5.551Zm-16.62-8.64c-1.189,0-1.6.652-1.6,1.461v2.957c0,.814.413,1.466,1.6,1.466s1.61-.652,1.61-1.466V9.778c0-.809-.422-1.461-1.61-1.461Z" transform="translate(2978.54 1233.446)"/></svg>