<svg xmlns="http://www.w3.org/2000/svg" viewBox="-13883.086 -4200.885 54.732 44.77"><defs><style>.a{fill:#ffae41;stroke:#ffae41;stroke-width:0.5px;}.b,.c{fill:#fff;}.b{opacity:0.095;}.c{opacity:0.046;}</style></defs><g transform="translate(-14898.066 -4827)"><path class="a" d="M.939,44.269A1.039,1.039,0,0,1,.6,44.2.918.918,0,0,1,.064,43.01L5.631,29.184a.937.937,0,0,1,.875-.587h8.567a.924.924,0,0,1,.934.971.959.959,0,0,1-.974.856H13.8c-.383.8-1.042,2.5-.334,3.835.826,1.567,3.325,2.049,5.262,2.184,1.545.1,3.069.174,4.545.241,4.033.182,7.84.365,10.6,1.153,2.921.837,4.525,2.385,4.781,4.607h6.118L39.025,30.424H31.116a.925.925,0,0,1-.934-.971.959.959,0,0,1,.974-.856H39.6a.943.943,0,0,1,.855.529l6.61,13.826a.923.923,0,0,1-.855,1.317Zm1.329-1.826H36.753c-.247-1.356-1.3-2.241-3.394-2.837-2.547-.732-6.245-.9-10.16-1.087-1.5-.067-3.031-.135-4.585-.241-3.53-.24-5.822-1.308-6.815-3.182a5.755,5.755,0,0,1-.03-4.673H7.107ZM22.422,34.8c-.492-.509-12.068-12.432-12.068-21.894a12.748,12.748,0,1,1,25.5,0c0,9.413-11.577,21.385-12.07,21.885a.946.946,0,0,1-.679.288A.975.975,0,0,1,22.422,34.8ZM12.241,12.9c0,7.482,8.381,17.173,10.859,19.886C25.579,30.077,33.959,20.335,33.959,12.9a10.861,10.861,0,1,0-21.718,0Zm4.722.48a6.139,6.139,0,0,1,12.275,0,6.139,6.139,0,0,1-12.275,0Zm1.888,0A4.25,4.25,0,1,0,23.1,9.23,4.2,4.2,0,0,0,18.851,13.384Z" transform="translate(1019.276 626.365)"/>

<path class="b" d="M16.613,7.724,13.807,5.8A23.41,23.41,0,0,0,9.8,19.024a23.41,23.41,0,0,0,4.007,13.224l2.805-1.924a20.251,20.251,0,0,1,0-22.6Z" transform="translate(1005.18 620.42)"/><path class="c" d="M23.99,12.424,21.185,10.5a16.942,16.942,0,0,0,0,18.915l2.805-1.924a13.372,13.372,0,0,1,0-15.068Z" transform="translate(1003.493 619.487)"/>

<path class="c" d="M56.505,10.5,53.7,12.424a13.372,13.372,0,0,1,0,15.068l2.805,1.924a16.688,16.688,0,0,0,2.885-9.457A18.24,18.24,0,0,0,56.505,10.5Z" transform="translate(1003.586 619.487)"/><path class="b" d="M63.505,5.8,60.7,7.724a20.251,20.251,0,0,1,0,22.6l2.805,1.924a23.41,23.41,0,0,0,4.007-13.224A22.991,22.991,0,0,0,63.505,5.8Z" transform="translate(1002.196 620.42)"/></g></svg>
