<svg xmlns="http://www.w3.org/2000/svg" viewBox="-12291.074 -6229 69.079 69.086"><defs><style>.a{fill:#fefff9;}</style></defs><path class="a" d="M-3536.372,69.086V66.139h2.933V57.313h-2.2a5.262,5.262,0,0,1-5.287-5.287V47.035h-42.608A1.384,1.384,0,0,1-3585,45.569V1.466A1.384,1.384,0,0,1-3583.534,0h50.25a1.332,1.332,0,0,1,1.029.437l15.876,15.875a1.334,1.334,0,0,1,.438,1.03V45.569a1.2,1.2,0,0,1-1.326,1.452h-5.879v5.146a5.243,5.243,0,0,1-5.287,5.146h-2.058v8.826h2.932v2.947Zm-1.48-32.921V52.181a2.323,2.323,0,0,0,2.354,2.354h7.206a2.323,2.323,0,0,0,2.354-2.354h-.014V36.165a2.323,2.323,0,0,0-2.354-2.355h-2.2V44.1h-2.932V33.809h-2.059A2.324,2.324,0,0,0-3537.852,36.165Zm9.418-5.287a5.263,5.263,0,0,1,5.287,5.287v7.924h4.4V18.808h-14.395a1.384,1.384,0,0,1-1.467-1.466V2.947h-47.317V44.1h41V36.165a5.271,5.271,0,0,1,5.287-5.287Zm-3.243-15h10.729l-10.729-10.73Zm-42.9,21.472a1.473,1.473,0,0,1-1.473-1.473,1.473,1.473,0,0,1,1.473-1.473h22.036a1.474,1.474,0,0,1,1.474,1.473,1.474,1.474,0,0,1-1.474,1.473Zm0-9.7a1.473,1.473,0,0,1-1.473-1.473,1.473,1.473,0,0,1,1.473-1.473h27.916a1.473,1.473,0,0,1,1.473,1.473,1.473,1.473,0,0,1-1.473,1.473Zm28.036-10.152.3-1.325a4.1,4.1,0,0,0,2.354.733c1.311,0,2.2-.733,2.2-1.762s-.578-1.466-1.9-2.058c-1.622-.592-2.792-1.48-2.792-2.947,0-1.622,1.325-2.792,3.383-2.792a8.685,8.685,0,0,1,2.355.436l-.437,1.03a4.491,4.491,0,0,0-1.9-.437c-1.466,0-1.9.888-1.9,1.622,0,1.03.592,1.466,2.058,2.058,1.763.733,2.637,1.466,2.623,3.088s-1.184,2.947-3.68,2.947A6.41,6.41,0,0,1-3546.537,17.5Zm-7.473,0,.3-1.325a4.1,4.1,0,0,0,2.355.733c1.325,0,2.2-.733,2.171-1.762,0-1.03-.578-1.466-1.9-2.058-1.621-.592-2.792-1.48-2.792-2.947,0-1.622,1.326-2.792,3.384-2.792a8.677,8.677,0,0,1,2.354.436l-.437,1.03a4.493,4.493,0,0,0-1.9-.437c-1.466,0-1.9.888-1.9,1.622,0,1.03.592,1.466,2.058,2.058,1.762.733,2.651,1.466,2.651,3.088s-1.184,2.947-3.679,2.947A6.41,6.41,0,0,1-3554.01,17.5Zm-7.19.437V7.642h5.583V8.826h-4.258v3.228h3.963v1.03h-3.822v3.68h4.413v1.17Zm-2.806-.141a14.654,14.654,0,0,1-.733-2.5c-.3-1.466-.888-1.917-2.058-2.058h-1.171v4.385h-1.325v-10a13.986,13.986,0,0,1,2.5-.14,3.877,3.877,0,0,1,2.932.888,2.391,2.391,0,0,1,.888,1.917,2.872,2.872,0,0,1-1.9,2.651A2.5,2.5,0,0,1-3563.414,15a17.073,17.073,0,0,0,.734,2.792Zm-3.962-9.122v3.694h1.326c1.466,0,2.354-.747,2.354-1.918,0-1.325-1.03-1.917-2.354-1.917A3,3,0,0,0-3567.968,8.672Zm-9.545,9.108V7.642a12.393,12.393,0,0,1,2.5-.141,4.124,4.124,0,0,1,2.933.888,2.447,2.447,0,0,1,.888,2.058,3.643,3.643,0,0,1-.733,2.2,4.583,4.583,0,0,1-3.228,1.17,2.289,2.289,0,0,1-1.03-.14v4.1Zm1.326-9.109v3.976a2.555,2.555,0,0,0,1.17.141c1.622,0,2.65-.733,2.65-2.2,0-1.326-1.029-2.058-2.495-2.058A3.417,3.417,0,0,0-3576.188,8.671Z" transform="translate(-8706.074 -6229)"/></svg>