<svg id="Layer_1" xmlns="http://www.w3.org/2000/svg" viewBox="0 0 142.5 333.1"><style>.st0{fill:none;stroke:#FF00FF;stroke-miterlimit:10;} .st1{enable-background:new ;} .st2{fill:#B709C6;}</style><path class="st0" d="M46.9 4.2c-3.2.4-6.4.9-9.4 1.4 3-.5 6.1-1 9.4-1.4zM105 5.6c-3-.5-6.1-1-9.4-1.4 3.3.4 6.4.9 9.4 1.4zM71.2 49.2C32.2 49.2.4 38.8.4 26v283.4c0 12.8 31.7 23.2 70.8 23.2 39.1 0 70.8-10.3 70.8-23.2V26c.1 12.8-31.6 23.2-70.8 23.2zm0 0c39.1 0 70.8-10.3 70.8-23.2 0-8.8-15-16.5-37.1-20.4-3-.5-6.1-1-9.4-1.4-1.1-.1-2.1-.3-3.3-.4.4.2.8.5 1.1.9h.1l2.2 3.8c16.9 2.9 28.4 8.7 28.4 15.3 0 9.6-23.6 17.3-52.8 17.3s-52.8-7.7-52.8-17.3c0-6.6 11.5-12.5 28.4-15.3L49 4.7h.1c.3-.3.7-.6 1.1-.9-1.1.1-2.2.2-3.3.4-3.2.4-6.4.9-9.4 1.4C15.4 9.5.4 17.2.4 26c.1 12.8 31.8 23.2 70.8 23.2zm0-47.7c7.1 0 13.5.8 17.5 2l3.5.3C89.1 1.8 81 .5 71.6.5h-.8c-9.4 0-17.4 1.4-20.6 3.3l3.5-.3c4.1-1.2 10.4-2 17.5-2zm-17.5 2l-3.5.3 3.5-.3zm35 0l3.5.3-3.5-.3zm4.6 3.1c0 .5-.3 1.1-.8 1.4 1.1.2 2.1.3 3.1.5l-2.2-3.8h-.1c-.3-.3-.7-.6-1.1-.9l-3.5-.3c2.8.9 4.6 2 4.6 3.1zm-44.1 0c0-1.2 1.7-2.2 4.6-3.1l-3.5.3c-.4.2-.8.5-1.1.9h-.1l-2.2 3.8c1.1-.2 2-.3 3.1-.5-.5-.3-.8-.8-.8-1.4zm22 5.2c-10.1 0-18.7-1.7-21.3-3.8-1.1.2-2.1.3-3.1.5l-3.6 6.1-.6 1h.1c-.1.3-.1.6-.1.9 0 5.2 12.8 9.4 28.6 9.4s28.6-4.2 28.6-9.4c0-.3-.1-.6-.1-.9h.1l-.6-1-3.6-6.2c-1.1-.2-2-.3-3.1-.5-2.5 2.4-11 3.9-21.3 3.9zM.5 98.4c0 12.8 31.7 23.2 70.8 23.2s70.8-10.3 70.8-23.2"/><path class="st1 st2" d="M86.1 85.3v7.4H75.3v10.8H68V92.7H57.1v-7.4H68V74.4h7.3v10.9h10.8zM62.6 284.6h17.2v7.4H62.6v-7.4z"/></svg>