<svg xmlns="http://www.w3.org/2000/svg" viewBox="-901 2439.032 236.987 205.603"><defs><style>.a{fill:none;stroke:#23d5f5;stroke-linecap:round;stroke-linejoin:round;stroke-miterlimit:10;}</style></defs><path class="a" d="M-689.625 2463.972c0 13.41-34.39 24.224-76.564 24.224s-76.346-10.815-76.346-24.44 34.172-24.224 76.347-24.224 76.565 10.814 76.565 24.44zm21.412 10.382c-2.163-6.7-10.814-12.76-24.007-17.52-9.517-9.948-38.715-17.302-73.32-17.302s-63.8 7.354-73.32 17.3c-14.49 5.193-23.574 11.9-24.44 19.468a12.35 12.35 0 0 0-2.163 6.7v9.95a12.086 12.086 0 0 0 4.763 9.52c10.382 13.626 49.1 23.79 94.948 23.79 44.338 0 81.755-9.515 93.866-22.276a11.86 11.86 0 0 0 7.354-11.03v-9.95a10.71 10.71 0 0 0-3.68-8.65zm-25.087-17.736c2.38 2.38 3.46 4.758 3.46 7.354.217 13.41-34.172 24.224-76.347 24.224s-76.35-10.815-76.35-24.44a10.24 10.24 0 0 1 2.38-6.056c-14.06 5.623-22.494 12.544-22.494 20.114 0 17.3 43.688 31.145 97.76 31.145s97.76-14.06 97.76-31.146c.215-8.22-9.95-15.79-26.17-21.196zm-146.425 134.528c-25.954 0-46.933 6.7-46.933 14.923s20.98 14.922 46.933 14.922 46.933-6.7 46.933-14.923-20.98-14.924-46.933-14.924zm60.125 21.412c-1.3-4.11-6.7-7.786-14.707-10.814-5.84-6.056-23.79-10.6-44.987-10.6s-39.147 4.542-44.987 10.6c-8.652 3.244-14.276 7.354-14.924 11.9a6.655 6.655 0 0 0-1.3 4.11v6.055a6.9 6.9 0 0 0 3.028 5.84c6.488 8.434 30.063 14.49 58.4 14.49 27.252 0 50.177-5.84 57.53-13.626a7.353 7.353 0 0 0 4.543-6.7v-6.056a8.01 8.01 0 0 0-2.597-5.2zm-15.354-11.026a6.374 6.374 0 0 1 2.163 4.542c0 8.22-20.98 14.923-46.934 14.923s-46.933-6.7-46.933-14.923a5.428 5.428 0 0 1 1.514-3.677c-8.657 3.235-13.627 7.565-13.627 12.107 0 10.6 26.82 19.033 60.126 19.033s60.126-8.65 60.126-19.033c-.215-4.972-6.487-9.516-16.436-12.972z"/></svg>