<svg id="Layer_1" xmlns="http://www.w3.org/2000/svg" viewBox="0 0 146.5 341.9"><style>.st0{fill:none;stroke:#A7AA0E;stroke-miterlimit:10;} .st1{enable-background:new ;} .st2{fill:#A7AA0E;}</style><path class="st0" d="M38.1 5.7c3-.5 6.3-1 9.7-1.4-3.5.4-6.7.9-9.7 1.4zm59.6-1.4c3.3.4 6.5.9 9.7 1.4-3.1-.5-6.3-1-9.7-1.4zM73.4 50.5C33.2 50.5.7 39.9.7 26.7v290.9c0 13.2 32.5 23.8 72.7 23.8s72.7-10.6 72.7-23.8v-291c-.1 13.2-32.6 23.9-72.7 23.9zm0 0c40.2 0 72.7-10.6 72.7-23.8 0-9.1-15.4-16.9-38.1-20.9-3.1-.5-6.3-1-9.7-1.4-1.1-.2-2.3-.3-3.4-.3h-.1c.4.2.8.5 1.1.9h.1l2.3 3.9c17.3 3 29.2 8.9 29.2 15.8 0 9.8-24.3 17.8-54.2 17.8-30 0-54.2-7.9-54.2-17.8 0-6.9 11.9-12.8 29.2-15.8L50.6 5h.1c.3-.4.7-.7 1.1-.9h-.1c-1.1.1-2.3.3-3.4.3-3.3.4-6.5.9-9.7 1.4C15.9 9.8.5 17.8.5 26.7c.2 13.1 32.7 23.8 72.9 23.8zm0-49c7.3 0 13.9.8 18 2.1l3.6.3C91.8 1.9 83.5.5 73.8.5h-.9C63.2.5 55 1.9 51.7 3.9c1.2-.1 2.4-.3 3.6-.3 5.9-1.5 12-2.2 18.1-2.1zm-18.7 2l-3.6.3c1.3 0 2.4-.1 3.6-.3zm41.4 3.4c0 .6-.3 1.1-.8 1.4 1.1.2 2.2.3 3.2.5l-2.3-3.9H96c-.2-.4-.6-.7-1-.9-1.2-.1-2.4-.3-3.6-.3 3 .8 4.7 1.9 4.7 3.2zm-45.4 0c0-1.2 1.7-2.4 4.7-3.2-1.2 0-2.4.1-3.6.3-.4.2-.8.5-1.1.9h-.1l-2.3 3.9c1-.2 2.1-.3 3.2-.5-.4-.3-.8-.9-.8-1.4zm22.7 5.3c-10.5 0-19.2-1.7-21.8-3.9-1.1.2-2.2.3-3.2.5l-3.7 6.4v.1l-.6 1h.2c-.1.3-.2.6-.2 1 0 5.3 13.2 9.6 29.4 9.6s29.4-4.3 29.4-9.6c0-.3-.1-.6-.2-1h.2l-.6-1v-.1l-3.7-6.4c-1-.2-2.1-.3-3.2-.5-2.9 2.2-11.6 3.9-22 3.9zM.7 101c0 13.2 32.5 23.8 72.7 23.8S146 114.1 146 101"/><path class="st1 st2" d="M88.1 84.3v7.4H77.3v10.8H70V91.7H59.1v-7.4H70V73.4h7.3v10.9h10.8zM64.4 288.6h17.2v7.4H64.4v-7.4z"/></svg>