<svg xmlns="http://www.w3.org/2000/svg" viewBox="-14516.48 -8147.685 37.348 33.416">
  <defs>
    <style>
      .cls-1 {
        fill: #0cb4b4;
        stroke: #0cb4b4;
        stroke-width: 0.5px;
      }

      .cls-2, .cls-3 {
        fill: #fff;
      }

      .cls-2 {
        opacity: 0.095;
      }

      .cls-3 {
        opacity: 0.046;
      }
    </style>
  </defs>
  <g id="Group_5183" data-name="Group 5183" transform="translate(-15531.46 -8773.763)">
    <path id="map-ico" class="cls-1" d="M.641,32.915a.658.658,0,0,1-.234-.049.7.7,0,0,1-.363-.887l3.8-10.28a.642.642,0,0,1,.6-.436h5.846a.663.663,0,0,1,.638.722.677.677,0,0,1-.665.636H9.413a3.644,3.644,0,0,0-.228,2.851c.564,1.165,2.269,1.524,3.59,1.624,1.054.071,2.094.13,3.1.179a32.082,32.082,0,0,1,7.235.857c1.993.622,3.088,1.773,3.263,3.425h4.175L26.63,22.621h-5.4A.664.664,0,0,1,20.6,21.9a.677.677,0,0,1,.665-.636h5.759a.641.641,0,0,1,.583.394l4.51,10.28a.74.74,0,0,1,.061.293.666.666,0,0,1-.644.686Zm.907-1.358H25.08c-.168-1.008-.886-1.666-2.316-2.109a31.463,31.463,0,0,0-6.933-.808c-1.021-.049-2.068-.1-3.128-.179-2.409-.178-3.973-.973-4.651-2.366a4.631,4.631,0,0,1-.02-3.475H4.849ZM15.3,25.873c-.336-.378-8.235-9.243-8.235-16.278C7.065,4.3,10.964,0,15.763,0s8.7,4.3,8.7,9.594c0,7-7.9,15.9-8.236,16.272a.621.621,0,0,1-.463.214A.639.639,0,0,1,15.3,25.873ZM8.353,9.594c0,5.563,5.719,12.769,7.41,14.786,1.692-2.017,7.41-9.26,7.41-14.786,0-4.533-3.322-8.221-7.41-8.221S8.353,5.061,8.353,9.594Zm3.222.357A4.329,4.329,0,0,1,15.763,5.49a4.33,4.33,0,0,1,4.189,4.462,4.337,4.337,0,0,1-4.189,4.462A4.328,4.328,0,0,1,11.575,9.951Zm1.288,0a3,3,0,0,0,2.9,3.089,3,3,0,0,0,2.9-3.089,3,3,0,0,0-2.9-3.089A3,3,0,0,0,12.864,9.951Z" transform="translate(1017.911 626.328)"/>
    <path id="Path_6907" data-name="Path 6907" class="cls-2" d="M14.449,7.23,12.535,5.8A18.528,18.528,0,0,0,9.8,15.633a18.528,18.528,0,0,0,2.735,9.833l1.914-1.43a16.186,16.186,0,0,1,0-16.8Z" transform="translate(1005.18 620.42)"/>
    <path id="Path_6908" data-name="Path 6908" class="cls-3" d="M22.183,11.93,20.269,10.5A13.205,13.205,0,0,0,18.3,17.532a13.205,13.205,0,0,0,1.969,7.032l1.914-1.43a10.685,10.685,0,0,1,0-11.2Z" transform="translate(1001.329 618.521)"/>
    <path id="Path_6909" data-name="Path 6909" class="cls-3" d="M55.614,10.5,53.7,11.93a10.685,10.685,0,0,1,0,11.2l1.914,1.43a13.205,13.205,0,0,0,1.969-7.032A14.441,14.441,0,0,0,55.614,10.5Z" transform="translate(990.148 618.521)"/>
    <path id="Path_6910" data-name="Path 6910" class="cls-2" d="M62.614,5.8,60.7,7.23a16.186,16.186,0,0,1,0,16.8l1.914,1.43a18.528,18.528,0,0,0,2.735-9.833A18.2,18.2,0,0,0,62.614,5.8Z" transform="translate(986.977 620.42)"/>
  </g>
</svg>
