<svg xmlns="http://www.w3.org/2000/svg" viewBox="-14336.633 -8151.814 48.117 42.373">
  <defs>
    <style>
      .cls-1 {
        fill: #0cb4b4;
      }
    </style>
  </defs>
  <path id="Union_23" data-name="Union 23" class="cls-1" d="M14533.052,4873.209v-38.445a.905.905,0,0,1-.054-.3c0-1.188,2.049-2.258,5.059-2.766.418-.068.856-.139,1.3-.191.154-.017.293-.036.454-.052h.017a7.052,7.052,0,0,1,2.87-.455,7.318,7.318,0,0,1,2.853.455l-.018-.019h.018l.455.055c.452.052.893.122,1.292.192,3.028.523,5.076,1.573,5.076,2.781v.072c.019,0,.035-.036.035-.088v38.76c0,1.749-4.322,3.168-9.676,3.168S14533.052,4874.958,14533.052,4873.209Zm1.82-1.121c0,.754,2.8,2.242,7.943,2.242s7.946-1.488,7.946-2.242v-21.646c-1.7,1.19-5.061,1.732-7.91,1.732-2.9,0-6.3-.559-7.979-1.768Zm.051-23.763c1.033,1.157,4.234,2,7.929,2,3.621,0,6.772-.806,7.856-1.924V4836.25a2.138,2.138,0,0,1-.034.35c-1.295,1.05-4.342,1.785-7.874,1.785s-6.563-.56-7.877-1.608v11.548Zm.58-14.139c0,1.313,3.22,2.363,7.209,2.363,3.971,0,7.207-1.05,7.207-2.363,0-.909-1.573-1.7-3.865-2.1l.506.8v.019l.052.121c0,.035.021.071.021.123,0,.718-1.77,1.3-3.938,1.3s-3.937-.578-3.937-1.3v-.123l.088-.121v-.019l.473-.8C14537.022,4832.489,14535.467,4833.276,14535.5,4834.186Zm4.336-2.083c0,.036.055.071.124.123h.021a6.5,6.5,0,0,0,2.71.419c1.89,0,2.853-.384,2.853-.542s-.979-.542-2.853-.542S14539.839,4831.927,14539.839,4832.1Zm.938,33.507v-1.818h3.631v1.818Zm1.169-18.284v-2.076h-2.076v-1.814h2.076v-2.076h1.814v2.076h2.075v1.814h-2.075v2.076Z" transform="matrix(0.588, 0.809, -0.809, 0.588, -18933.844, -22748.849)"/>
</svg>
