<svg xmlns="http://www.w3.org/2000/svg" viewBox="-13952.176 -8150.22 34.28 34.276">
  <defs>
    <style>
      .cls-1 {
        fill: #0cb4b4;
      }
    </style>
  </defs>
  <path id="Path_6905" data-name="Path 6905" class="cls-1" d="M16.858,0A17.2,17.2,0,0,0-.015,16.684,17.017,17.017,0,0,0,3.834,27.942a1.074,1.074,0,0,1,0,1.371l-2.61,3.137a1.12,1.12,0,0,0,.87,1.819H17.122A17.138,17.138,0,1,0,16.858,0Zm.264,32.033H4.52l1.055-1.266A3.336,3.336,0,0,0,5.6,26.545,14.9,14.9,0,0,1,16.885,2.236h.237a14.9,14.9,0,0,1,0,29.792Zm.554-8.147a1.664,1.664,0,0,1,0,2.215,1.419,1.419,0,0,1-1.028.448,1.434,1.434,0,0,1-1.055-.448,1.664,1.664,0,0,1,0-2.215,1.411,1.411,0,0,1,1.055-.422A1.393,1.393,0,0,1,17.676,23.882Zm4.746-11.759a4.31,4.31,0,0,1-.343,1.819,4.193,4.193,0,0,1-.844,1.318c-.343.369-.791.765-1.318,1.239A13.791,13.791,0,0,0,18.7,17.633a4.434,4.434,0,0,0-.738,1.134,3.728,3.728,0,0,0-.316,1.556H15.7a5.061,5.061,0,0,1,.316-1.872,4.274,4.274,0,0,1,.791-1.318,13.771,13.771,0,0,1,1.239-1.213,8.9,8.9,0,0,0,1.5-1.608,3.127,3.127,0,0,0,.475-1.793,2.313,2.313,0,0,0-.817-1.925,3.391,3.391,0,0,0-2.241-.659,3.263,3.263,0,0,0-2.267.738,2.967,2.967,0,0,0-.9,2.136l-2-.026a4.97,4.97,0,0,1,1.529-3.691,5.422,5.422,0,0,1,3.849-1.318,5.87,5.87,0,0,1,3.8,1.134A3.724,3.724,0,0,1,22.421,12.123Z" transform="translate(-13952.155 -8150.214)"/>
</svg>
