<svg xmlns="http://www.w3.org/2000/svg" viewBox="-14152.555 -8147.252 55.196 34.268">
  <defs>
    <style>
      .cls-1 {
        fill: #0cb4b4;
      }
    </style>
  </defs>
  <g id="Group_5186" data-name="Group 5186" transform="translate(-15364.555 -8779)">
    <path id="Union_24" data-name="Union 24" class="cls-1" d="M33.509,29.372H15.445a5.712,5.712,0,0,1-11.307,0H2.447A2.455,2.455,0,0,1,0,26.924V2.447A2.455,2.455,0,0,1,2.447,0H39.162A2.923,2.923,0,0,1,41.2.9L48.3,8.73a2.582,2.582,0,0,1,.735,1.876V26.924a2.645,2.645,0,0,1-2.529,2.448h-1.69a5.712,5.712,0,0,1-11.307,0Zm1.575-.816a4.079,4.079,0,1,0,4.079-4.08A4.039,4.039,0,0,0,35.083,28.556Zm-29.372,0a4.079,4.079,0,1,0,4.08-4.08A4.039,4.039,0,0,0,5.711,28.556Zm39.1-.816h1.608a.817.817,0,0,0,.816-.816V20.4h-.311a.816.816,0,0,1,0-1.632h.311V14.687H39.287A1.43,1.43,0,0,1,37.9,13.3V4.651a1.43,1.43,0,0,1,1.388-1.387h1.847L39.979,1.958a1.727,1.727,0,0,0-.817-.326H2.447a.877.877,0,0,0-.816.816c.035,8.982.1,18.765,0,24.477a.818.818,0,0,0,.816.816H4.08a5.709,5.709,0,0,1,5.629-4.9h.082a5.671,5.671,0,0,1,5.654,4.9H33.37A5.709,5.709,0,0,1,39,22.845l.085,0,.078,0A5.67,5.67,0,0,1,44.816,27.741ZM39.531,13.054H47.24V10.525a.884.884,0,0,0-.326-.734L44.6,7.18,42.508,4.9H39.531Zm-1,15.318a.816.816,0,1,1,.816.816A.819.819,0,0,1,38.531,28.372ZM9.159,28.28a.908.908,0,1,1,.909.908A.911.911,0,0,1,9.159,28.28Zm10.125-8.092v0a.512.512,0,0,1-.152-.375v-.969a.224.224,0,0,0-.068-.163.228.228,0,0,0-.167-.068.217.217,0,0,0-.161.066.221.221,0,0,0-.066.165v.972a.5.5,0,0,1-.158.371.518.518,0,0,1-.373.152.493.493,0,0,1-.362-.151.526.526,0,0,1-.148-.375v-.973a.236.236,0,0,0-.067-.167.206.206,0,0,0-.155-.068.236.236,0,0,0-.169.065.215.215,0,0,0-.071.166v.982a.517.517,0,0,1-.521.524.5.5,0,0,1-.366-.155.513.513,0,0,1-.153-.376V18.231a.524.524,0,0,1,.527-.528.759.759,0,0,1,.393.2l.1-.065a1.57,1.57,0,0,1,.277-.094,1.285,1.285,0,0,1,.287-.041,1.065,1.065,0,0,1,.357.059,1.466,1.466,0,0,1,.357.192l.138-.07a1.51,1.51,0,0,1,.659-.18.974.974,0,0,1,.683.256.828.828,0,0,1,.278.632v1.222a.516.516,0,0,1-.153.376.531.531,0,0,1-.745,0Zm10.174,0a.508.508,0,0,1-.158-.375v-.983a.268.268,0,0,0-.069-.187.24.24,0,0,0-.185-.077.264.264,0,0,0-.188.077.25.25,0,0,0-.08.189v.981a.52.52,0,0,1-.526.529.5.5,0,0,1-.369-.151.518.518,0,0,1-.149-.377V18.228a.523.523,0,0,1,.149-.369.494.494,0,0,1,.369-.157.72.72,0,0,1,.414.255l.135-.1a1.179,1.179,0,0,1,.575-.159,1,1,0,0,1,.7.258.814.814,0,0,1,.285.635V19.8a.521.521,0,0,1-.15.377.488.488,0,0,1-.368.157h-.01A.532.532,0,0,1,29.458,20.185Zm3.371-.217a1.185,1.185,0,0,1-.429-.951,1.216,1.216,0,0,1,.4-.927,1.478,1.478,0,0,1,1.947-.016,1.074,1.074,0,0,1,.412.828.363.363,0,0,1-.1.284.52.52,0,0,1-.331.083H33.5a1,1,0,0,0,.133.121.517.517,0,0,0,.126.059,1.063,1.063,0,0,0,.287.034,1.908,1.908,0,0,0,.2-.009,1.777,1.777,0,0,0,.194-.041c.081-.021.146-.036.193-.044a.731.731,0,0,1,.116-.014.384.384,0,0,1,.27.11.336.336,0,0,1,.117.251.376.376,0,0,1-.039.166.593.593,0,0,1-.141.176,1.018,1.018,0,0,1-.393.174,2.32,2.32,0,0,1-.619.079l-.079,0A1.687,1.687,0,0,1,32.829,19.968Zm.683-1.206h.566c-.025-.186-.115-.278-.269-.278S33.561,18.576,33.512,18.763Zm-8.33,1.206h0a1.183,1.183,0,0,1-.429-.951,1.213,1.213,0,0,1,.4-.927,1.477,1.477,0,0,1,1.946-.016,1.072,1.072,0,0,1,.413.828.363.363,0,0,1-.1.284.516.516,0,0,1-.33.083h-1.23a1,1,0,0,0,.133.121.517.517,0,0,0,.126.059,1.063,1.063,0,0,0,.287.034,1.934,1.934,0,0,0,.205-.009,1.746,1.746,0,0,0,.193-.041c.08-.021.144-.036.194-.044a.708.708,0,0,1,.115-.014.387.387,0,0,1,.271.11.344.344,0,0,1,.115.251.376.376,0,0,1-.039.166.587.587,0,0,1-.14.176,1.015,1.015,0,0,1-.394.174,2.32,2.32,0,0,1-.619.079l-.078,0A1.676,1.676,0,0,1,25.183,19.968Zm1.247-1.206c-.025-.186-.114-.278-.27-.278s-.248.092-.3.278Zm-.565,0h0ZM14.289,20.329a1.149,1.149,0,0,1-.863-.372,1.276,1.276,0,0,1-.353-.909,1.366,1.366,0,0,1,.36-.954,1.146,1.146,0,0,1,.875-.394,1,1,0,0,1,.314.039.99.99,0,0,1,.275.179.826.826,0,0,1,.433-.218.508.508,0,0,1,.368.148.489.489,0,0,1,.15.372V19.8a.512.512,0,0,1-.15.372.5.5,0,0,1-.373.155.825.825,0,0,1-.429-.22.915.915,0,0,1-.272.179,1.068,1.068,0,0,1-.3.042Zm-.07-1.586a.469.469,0,0,0-.1.31.414.414,0,0,0,.1.284.338.338,0,0,0,.506,0,.475.475,0,0,0,0-.589.337.337,0,0,0-.514,0Zm7.451,1.543h0a1.114,1.114,0,0,1-.289-.2.752.752,0,0,1-.415.226.488.488,0,0,1-.361-.151.5.5,0,0,1-.152-.372V17.115a.509.509,0,0,1,.149-.366.486.486,0,0,1,.365-.153.524.524,0,0,1,.379.151.5.5,0,0,1,.155.373V17.8a1.364,1.364,0,0,1,.258-.08,1.332,1.332,0,0,1,.231-.021,1.176,1.176,0,0,1,.877.367,1.277,1.277,0,0,1,.353.92,1.353,1.353,0,0,1-.357.947,1.117,1.117,0,0,1-.858.393h-.047A1.009,1.009,0,0,1,21.67,20.287Zm.408-.966a.414.414,0,0,0,.1-.289.443.443,0,0,0-.1-.294.317.317,0,0,0-.253-.117.325.325,0,0,0-.258.117h0a.43.43,0,0,0-.105.3.4.4,0,0,0,.105.286.33.33,0,0,0,.254.113A.324.324,0,0,0,22.078,19.321Zm8.958.851a.53.53,0,0,1-.152-.378V18.611h-.039a.458.458,0,0,1-.329-.131.431.431,0,0,1-.138-.321.392.392,0,0,1,.131-.3.464.464,0,0,1,.326-.122h.047v-.217a.534.534,0,0,1,.533-.533.493.493,0,0,1,.369.158.528.528,0,0,1,.155.38v.212H32a.433.433,0,0,1,.31.126.4.4,0,0,1,.132.3.427.427,0,0,1-.128.31.418.418,0,0,1-.314.132h-.066v1.18a.525.525,0,0,1-.9.38Zm-7.422,0h0a.5.5,0,0,1-.152-.373V18.234a.494.494,0,0,1,.158-.37.524.524,0,0,1,.375-.152.494.494,0,0,1,.369.157.52.52,0,0,1,.152.375V19.8a.529.529,0,0,1-.527.529h-.013A.5.5,0,0,1,23.614,20.176ZM4.543,18.662V13.069c0,.91,1.417,1.647,3.166,1.647,1.622,0,2.959-.633,3.144-1.451-.192.814-1.525,1.443-3.142,1.443-1.749,0-3.166-.736-3.166-1.646l0-7.447c0-.909,1.418-1.647,3.167-1.647s3.166.737,3.166,1.647v7.448c0,.017,0,.034,0,.05v5.547c0,.909-1.418,1.644-3.167,1.644S4.543,19.57,4.543,18.662Zm.709-6.993a.56.56,0,0,0,.05.427,2.72,2.72,0,0,0,2.409,1.2,2.723,2.723,0,0,0,2.409-1.2.562.562,0,1,0-.982-.546,1.639,1.639,0,0,1-1.427.619,1.635,1.635,0,0,1-1.425-.619.56.56,0,0,0-.764-.219h0A.561.561,0,0,0,5.252,11.668Zm2.865-.514a.564.564,0,0,0,.167-.413v-.58h.574A.556.556,0,0,0,9.264,10a.542.542,0,0,0,.166-.4.528.528,0,0,0-.172-.4.564.564,0,0,0-.413-.167H8.284v-.58a.57.57,0,0,0-.166-.407.531.531,0,0,0-.4-.171.562.562,0,0,0-.414.165.555.555,0,0,0-.166.406v.567H6.557a.538.538,0,0,0-.407.167.575.575,0,0,0,.41.978h.583v.583a.567.567,0,0,0,.164.409.531.531,0,0,0,.394.167A.571.571,0,0,0,8.117,11.154ZM7.709,7.219c1.5,0,2.714-.633,2.714-1.411S9.209,4.4,7.71,4.4,5,5.029,5,5.809H5C5,6.586,6.21,7.219,7.709,7.219ZM23.993,17.613a.561.561,0,0,1-.556-.559.527.527,0,0,1,.163-.389.551.551,0,0,1,.944.4.555.555,0,0,1-.545.55Zm10.15-.937a.8.8,0,0,1-.588-.246h0a.814.814,0,0,1-.248-.6v-3.87a2.538,2.538,0,0,0,1.425-.5,1.872,1.872,0,0,0,.194-.175.816.816,0,0,1,.048.275v4.266a.824.824,0,0,1-.243.593.791.791,0,0,1-.578.251Zm-16.42-.653a2.046,2.046,0,0,1,0-2.981,2.351,2.351,0,0,1,3.149,0,2.056,2.056,0,0,1,.006,2.981,2.361,2.361,0,0,1-3.155,0Zm2-.972a.728.728,0,0,0,.166-.5.693.693,0,0,0-.172-.479.542.542,0,0,0-.418-.194.533.533,0,0,0-.415.19.705.705,0,0,0-.168.483.738.738,0,0,0,.164.493.523.523,0,0,0,.42.194A.539.539,0,0,0,19.726,15.051Zm2.4,1.33a.82.82,0,0,1-.24-.6V13.27a.815.815,0,0,1,.24-.585.775.775,0,0,1,.583-.249,1.142,1.142,0,0,1,.658.4l.217-.153a1.846,1.846,0,0,1,.912-.25,1.6,1.6,0,0,1,1.111.407,1.3,1.3,0,0,1,.452,1.008v1.923a.835.835,0,0,1-.239.6.785.785,0,0,1-.584.248.842.842,0,0,1-.61-.244.8.8,0,0,1-.251-.6V14.223a.413.413,0,0,0-.112-.3.382.382,0,0,0-.292-.122.411.411,0,0,0-.3.122.392.392,0,0,0-.129.3V15.78a.83.83,0,0,1-.836.841h-.016A.79.79,0,0,1,22.122,16.381Zm-6.813.224a2.2,2.2,0,0,1-1.469-.411,2.6,2.6,0,0,1-.67-.817,1.934,1.934,0,0,1-.2-.842,1.888,1.888,0,0,1,.651-1.457,2.3,2.3,0,0,1,1.608-.589,2.414,2.414,0,0,1,1.174.238.757.757,0,0,1,.231,1.188.683.683,0,0,1-.515.2.935.935,0,0,1-.142-.007,2.528,2.528,0,0,1-.3-.074,1.666,1.666,0,0,0-.461-.068.609.609,0,0,0-.426.158.521.521,0,0,0-.173.4.557.557,0,0,0,.18.432.679.679,0,0,0,.478.166.668.668,0,0,0,.079,0,.91.91,0,0,0,.131-.028l.285-.05.337-.038a.742.742,0,0,1,.524.2.644.644,0,0,1,.21.492q0,.912-1.537.912Zm15.734,0a2.663,2.663,0,0,1-1.78-.573,1.878,1.878,0,0,1-.681-1.508,1.929,1.929,0,0,1,.64-1.472,2.345,2.345,0,0,1,3.087-.026,1.7,1.7,0,0,1,.654,1.315.561.561,0,0,1-.157.448.8.8,0,0,1-.523.135H30.332a1.376,1.376,0,0,0,.212.19.732.732,0,0,0,.2.094,1.767,1.767,0,0,0,.457.051,2.976,2.976,0,0,0,.323-.014,2.24,2.24,0,0,0,.307-.064c.129-.034.23-.059.307-.071a.9.9,0,0,1,.184-.022.593.593,0,0,1,.429.174.536.536,0,0,1,.184.4.618.618,0,0,1-.059.264.887.887,0,0,1-.224.279,1.6,1.6,0,0,1-.623.276,3.7,3.7,0,0,1-.964.127Zm-.7-2.488h.9c-.041-.294-.183-.439-.426-.439S30.421,13.824,30.347,14.117Zm1-2.554q-.689-.347-.688-.882a.731.731,0,0,1,.248-.558.858.858,0,0,1,.6-.228,1.434,1.434,0,0,1,.328.031,4.519,4.519,0,0,1,.432.144,4.1,4.1,0,0,0,.47.156,1.338,1.338,0,0,0,.287.04c.18,0,.272-.05.272-.146s-.159-.2-.477-.272l-.941-.281a1.623,1.623,0,0,1-.767-.525,1.287,1.287,0,0,1-.273-.824,1.5,1.5,0,0,1,.66-1.267,2.877,2.877,0,0,1,1.739-.48,3.208,3.208,0,0,1,1.442.29c.385.2.58.438.58.728a.7.7,0,0,1-.225.524.793.793,0,0,1-.573.213,2.506,2.506,0,0,1-.475-.077L33.7,8.07l-.374-.082a1.143,1.143,0,0,0-.2-.023c-.156,0-.233.045-.233.136s.13.181.389.252l.8.251a2.2,2.2,0,0,1,.962.622,1.364,1.364,0,0,1,.349.912,1.553,1.553,0,0,1-.651,1.272,2.65,2.65,0,0,1-1.66.5l-.127,0A3.809,3.809,0,0,1,31.343,11.563Zm-8.32.339a1.043,1.043,0,0,1-.768-.321,1.056,1.056,0,0,1-.321-.776V5.249a1.006,1.006,0,0,1,.321-.748,1.079,1.079,0,0,1,.777-.312,1.026,1.026,0,0,1,.752.315,1.043,1.043,0,0,1,.317.763v5.538a1.072,1.072,0,0,1-.317.772,1.016,1.016,0,0,1-.745.325Zm4.157-.012a2.42,2.42,0,0,1-1.8-.759,2.554,2.554,0,0,1-.738-1.853A2.737,2.737,0,0,1,25.4,7.334a2.406,2.406,0,0,1,1.826-.8,2.108,2.108,0,0,1,.654.077,2.141,2.141,0,0,1,.575.366,1.74,1.74,0,0,1,.9-.443,1.074,1.074,0,0,1,.766.3.99.99,0,0,1,.315.759v3.225a1.031,1.031,0,0,1-.315.758,1.045,1.045,0,0,1-.777.318,1.725,1.725,0,0,1-.894-.452h0a1.952,1.952,0,0,1-.566.366,2.208,2.208,0,0,1-.618.088Zm-.147-3.237a.937.937,0,0,0-.205.635.807.807,0,0,0,.215.576A.706.706,0,0,0,28.1,9.854a.852.852,0,0,0,.215-.594.892.892,0,0,0-.206-.605.675.675,0,0,0-.539-.238h-.021A.673.673,0,0,0,27.034,8.654ZM19.493,11.57h0a1.045,1.045,0,0,1-.315-.77V7.566a1.013,1.013,0,0,1,.325-.761,1.072,1.072,0,0,1,.771-.316,1.033,1.033,0,0,1,.764.326,1.071,1.071,0,0,1,.313.77v3.2a1.092,1.092,0,0,1-1.858.781Zm-6.213-.017a1.139,1.139,0,0,1-.318-.824v-4.7a1.263,1.263,0,0,1,.305-.887,1.045,1.045,0,0,1,.81-.335h2.1a2.716,2.716,0,0,1,1.912.7,2.3,2.3,0,0,1,.757,1.765,2.314,2.314,0,0,1-.766,1.819,2.917,2.917,0,0,1-2.015.684H15.2v.971a1.122,1.122,0,0,1-1.135,1.135h-.019A1.039,1.039,0,0,1,13.28,11.553ZM15.2,7.839h.9a.548.548,0,0,0,.387-.146.525.525,0,0,0,0-.746.523.523,0,0,0-.387-.155h-.9Zm5.076-1.552a1.126,1.126,0,0,1-.8-.34h0a1.117,1.117,0,0,1-.339-.816,1.148,1.148,0,0,1,1.958-.8,1.137,1.137,0,0,1,.324.82,1.088,1.088,0,0,1-.336.8,1.126,1.126,0,0,1-.8.335ZM6.379,5.415c0-.38.6-.692,1.331-.692s1.331.312,1.331.692-.6.693-1.331.693S6.379,5.8,6.379,5.415Z" transform="translate(1218.161 631.748)"/>
    <rect id="Rectangle_1010" data-name="Rectangle 1010" class="cls-1" width="7.003" height="2.001" rx="1" transform="translate(1212 657.011)"/>
    <rect id="Rectangle_1011" data-name="Rectangle 1011" class="cls-1" width="7.003" height="2.001" rx="1" transform="translate(1215.001 660.013)"/>
  </g>
</svg>
