<?xml version="1.0" encoding="utf-8"?>
<!-- Generator: Adobe Illustrator 21.1.0, SVG Export Plug-In . SVG Version: 6.00 Build 0)  -->
<svg version="1.1" id="Layer_1" xmlns="http://www.w3.org/2000/svg" xmlns:xlink="http://www.w3.org/1999/xlink" x="0px" y="0px"
	 viewBox="0 0 38 38" style="enable-background:new 0 0 38 38;" xml:space="preserve">
<style type="text/css">
	.st0{fill:#00AFEF;}
</style>
<g>
	<g>
		<g>
			<g>
				<g>
					<g>
						<path class="st0" d="M27,1c-0.1,0-0.1,0-0.2,0c-1-0.2-2-0.4-3-0.4c-7.3,0-13.2,5.9-13.2,13.2c0,7.3,5.9,13.2,13.2,13.2
							C31,27,37,21.1,37,13.8C37,7.6,32.7,2.4,27,1z M21.1,25l0.5-0.5c0.2-0.2,0.3-0.4,0.3-0.6c0-0.2-0.1-0.5-0.3-0.6l-3-2.7
							c-0.1-0.1-0.3-0.2-0.5-0.2l-4-0.5c0,0-0.1,0-0.1,0c-0.6-1-1.1-2.1-1.4-3.3l1.1-0.1c0.4,0,0.7-0.3,0.8-0.6l1.3-4
							c0.1-0.2,0.1-0.4,0-0.5l-1.3-4c0-0.1-0.1-0.1-0.1-0.2c1.2-1.6,2.7-2.9,4.5-3.8c0,0,0,0,0,0.1C19,3.7,19.3,3.9,19.5,4l4,1.3
							c0.1,0,0.2,0,0.3,0c0.1,0,0.2,0,0.3,0L28,4c0.3-0.1,0.5-0.3,0.6-0.6c0,0,0,0,0,0c1.9,0.9,3.5,2.2,4.6,3.9c0,0,0,0.1,0,0.1
							l-1.3,4c-0.1,0.2-0.1,0.4,0,0.5l1.3,4c0.1,0.3,0.4,0.5,0.7,0.6l1.1,0.2c-0.3,1.1-0.7,2.2-1.3,3.2c0,0-0.1,0-0.1,0l-4,0.5
							c-0.2,0-0.3,0.1-0.5,0.2l-3,2.7c-0.2,0.2-0.3,0.4-0.3,0.6c0,0.2,0.1,0.5,0.3,0.6l0.5,0.5c-0.8,0.2-1.7,0.3-2.6,0.3
							C22.9,25.3,22,25.2,21.1,25z"/>
						<path class="st0" d="M27.4,17.1l1.7-5.3c0.1-0.4,0-0.7-0.3-1l-4.5-3.3c-0.3-0.2-0.7-0.2-1,0l-4.5,3.3c-0.3,0.2-0.4,0.6-0.3,1
							l1.7,5.3c0.1,0.4,0.4,0.6,0.8,0.6h5.6C26.9,17.7,27.3,17.5,27.4,17.1z"/>
					</g>
				</g>
			</g>
		</g>
		<g>
			<path class="st0" d="M9.6,24.2l-6.9,6.9c-0.4,0.4-1,0.4-1.4,0l0,0c-0.4-0.4-0.4-1,0-1.4l6.9-6.9c0.4-0.4,1-0.4,1.4,0l0,0
				C10,23.2,10,23.8,9.6,24.2z"/>
			<path class="st0" d="M15.6,30.2l-6.9,6.9c-0.4,0.4-1,0.4-1.4,0h0c-0.4-0.4-0.4-1,0-1.4l6.9-6.9c0.4-0.4,1-0.4,1.4,0l0,0
				C16,29.2,16,29.8,15.6,30.2z"/>
			<path class="st0" d="M12.6,27.2l-9.9,9.9c-0.4,0.4-1,0.4-1.4,0h0c-0.4-0.4-0.4-1,0-1.4l9.9-9.9c0.4-0.4,1-0.4,1.4,0h0
				C13,26.2,13,26.8,12.6,27.2z"/>
		</g>
	</g>
</g>
</svg>
