<svg xmlns="http://www.w3.org/2000/svg" viewBox="0 0 57 58"><g fill="#FFF"><path d="M6.9 9.8v-1c0-.6.5-1.1 1.1-1.1h41.1c.6 0 1.1.5 1.1 1.1v1c0 .6-.5 1.1-1.1 1.1H7.9c-.6 0-1-.5-1-1.1zM6.9 17.7v-1c0-.6.5-1.1 1.1-1.1h41.1c.6 0 1.1.5 1.1 1.1v1c0 .6-.5 1.1-1.1 1.1H7.9c-.6 0-1-.5-1-1.1z"/><g><path d="M6.9 41.3v-1c0-.6.5-1.1 1.1-1.1h41.1c.6 0 1.1.5 1.1 1.1v1c0 .6-.5 1.1-1.1 1.1H7.9c-.6 0-1-.5-1-1.1zM6.9 49.2v-1c0-.6.5-1.1 1.1-1.1h41.1c.6 0 1.1.5 1.1 1.1v1c0 .6-.5 1.1-1.1 1.1H7.9c-.6 0-1-.5-1-1.1z"/></g></g><path fill="#FFF" d="M28.5 15.6c-7.4 0-13.4 6-13.4 13.4s6 13.4 13.4 13.4 13.4-6 13.4-13.4-6-13.4-13.4-13.4zm0 23.7c-5.7 0-10.3-4.6-10.3-10.3 0-5.7 4.6-10.3 10.3-10.3 5.7 0 10.3 4.6 10.3 10.3 0 5.7-4.6 10.3-10.3 10.3z"/><path fill="#FFF" d="M8.5 23.5c-.9 0-1.6.7-1.6 1.6s.7 1.6 1.6 1.6h10.1c.3-1.1.7-2.2 1.3-3.2H8.5zM48.5 26.6c.9 0 1.6-.7 1.6-1.6s-.7-1.6-1.6-1.6H37.1c.6 1 1.1 2 1.3 3.2h10.1zM48.5 31.4h-10c-.3 1.1-.7 2.2-1.3 3.2h11.4c.9 0 1.6-.7 1.6-1.6s-.8-1.6-1.7-1.6zM8.5 31.4c-.9 0-1.6.7-1.6 1.6s.7 1.6 1.6 1.6h11.4c-.6-1-1.1-2-1.3-3.2H8.5zM27.4 36.8c-.8 0-1.4-.4-1.8-1.1L23 29.8c-.4-1 0-2.1 1-2.5 1-.4 2.1 0 2.5 1l.8 1.8 3.1-7.7c.4-1 1.5-1.4 2.5-1 1 .4 1.4 1.5 1 2.5l-4.8 11.8c-.2.6-.9 1.1-1.7 1.1z"/></svg>