<svg id="Layer_1" xmlns="http://www.w3.org/2000/svg" viewBox="0 0 38 38"><style>.st0{fill:#00AFEF;}</style><path class="st0" d="M27 1h-.2c-1-.2-2-.4-3-.4-7.3 0-13.2 5.9-13.2 13.2 0 7.3 5.9 13.2 13.2 13.2C31 27 37 21.1 37 13.8 37 7.6 32.7 2.4 27 1zm-5.9 24l.5-.5c.2-.2.3-.4.3-.6 0-.2-.1-.5-.3-.6l-3-2.7c-.1-.1-.3-.2-.5-.2l-4-.5H14c-.6-1-1.1-2.1-1.4-3.3l1.1-.1c.4 0 .7-.3.8-.6l1.3-4c.1-.2.1-.4 0-.5l-1.3-4c0-.1-.1-.1-.1-.2 1.2-1.6 2.7-2.9 4.5-3.8v.1c.1.2.4.4.6.5l4 1.3h.6L28 4c.3-.1.5-.3.6-.6 1.9.9 3.5 2.2 4.6 3.9v.1l-1.3 4c-.1.2-.1.4 0 .5l1.3 4c.1.3.4.5.7.6l1.1.2c-.3 1.1-.7 2.2-1.3 3.2h-.1l-4 .5c-.2 0-.3.1-.5.2l-3 2.7c-.2.2-.3.4-.3.6 0 .2.1.5.3.6l.5.5c-.8.2-1.7.3-2.6.3-1.1 0-2-.1-2.9-.3z"/><path class="st0" d="M27.4 17.1l1.7-5.3c.1-.4 0-.7-.3-1l-4.5-3.3c-.3-.2-.7-.2-1 0l-4.5 3.3c-.3.2-.4.6-.3 1l1.7 5.3c.1.4.4.6.8.6h5.6c.3 0 .7-.2.8-.6z"/><g><path class="st0" d="M9.6 24.2l-6.9 6.9c-.4.4-1 .4-1.4 0-.4-.4-.4-1 0-1.4l6.9-6.9c.4-.4 1-.4 1.4 0 .4.4.4 1 0 1.4zM15.6 30.2l-6.9 6.9c-.4.4-1 .4-1.4 0-.4-.4-.4-1 0-1.4l6.9-6.9c.4-.4 1-.4 1.4 0 .4.4.4 1 0 1.4zM12.6 27.2l-9.9 9.9c-.4.4-1 .4-1.4 0-.4-.4-.4-1 0-1.4l9.9-9.9c.4-.4 1-.4 1.4 0 .4.4.4 1 0 1.4z"/></g></svg>