<svg xmlns="http://www.w3.org/2000/svg" viewBox="0 0 57 58"><path fill="#FFF" d="M54.9 41.1c-.4-.8-1.4-1.1-2.2-.7L43.8 45c-3.7-3.6-8.5-5.7-13.7-6V20.7L50.4 14c.7-.2 1.1-.8 1.1-1.5s-.5-1.3-1.1-1.5L30.1 4.3v-.9c0-.9-.7-1.6-1.6-1.6-.9 0-1.6.7-1.6 1.6v35.5c-5.1.4-9.9 2.5-13.7 6l-8.9-4.6c-.8-.4-1.8-.1-2.2.7-.4.8-.1 1.8.7 2.2l25 12.8c.2.1.5.2.7.2s.5-.1.7-.2l25-12.8c.8-.4 1.1-1.3.7-2.1zM44.7 12.5l-14.5 4.8V7.7l14.5 4.8zM28.5 52.8l-12.2-6.2c3-2.5 6.7-4 10.6-4.4v6.4c0 .9.7 1.6 1.6 1.6.9 0 1.6-.7 1.6-1.6v-6.4c3.9.3 7.6 1.8 10.6 4.4l-12.2 6.2z"/></svg>