<svg xmlns="http://www.w3.org/2000/svg" viewBox="0 0 57 58"><g fill="#FFF"><path d="M41.1.8c-.1 0-.2-.1-.3-.1-1.5-.4-3.1-.6-4.7-.6-11.4 0-20.6 9.3-20.6 20.6 0 11.4 9.3 20.6 20.6 20.6 11.4 0 20.6-9.3 20.6-20.6C56.7 11.1 50 3 41.1.8zm-9.2 37.4l.8-.7c.3-.3.4-.6.4-1s-.2-.7-.4-1L28 31.3c-.2-.2-.5-.3-.7-.3l-6.3-.8h-.2c-1-1.6-1.7-3.3-2.1-5.1l1.8-.1c.6 0 1-.4 1.2-.9l2-6.2c.1-.3.1-.6 0-.8l-2-6.2c0-.1-.1-.2-.2-.3 1.8-2.5 4.2-4.6 7.1-5.9v.1c.1.2.4.5.8.7l6.2 2c.1 0 .3.1.4.1.1 0 .3 0 .4-.1l6.2-2c.4-.1.7-.5.9-.9v-.1c2.9 1.3 5.4 3.4 7.2 6.1 0 .1-.1.1-.1.2l-2 6.2c-.1.3-.1.5 0 .8l2 6.2c.2.5.6.8 1.1.9l1.6.3c-.4 1.8-1.2 3.4-2.1 5H51l-6.3.8c-.3 0-.5.2-.7.3l-4.7 4.3c-.3.3-.4.6-.4 1s.1.7.4 1l.8.7c-1.3.3-2.7.5-4.1.5-1.4-.1-2.7-.3-4.1-.6z"/><path d="M41.7 26l2.7-8.4c.2-.6 0-1.2-.5-1.5l-7.1-5.2c-.5-.3-1.1-.3-1.6 0l-7.1 5.2c-.5.3-.7 1-.5 1.5l2.7 8.4c.2.6.7.9 1.3.9h8.8c.6 0 1.1-.4 1.3-.9z"/></g><g fill="#FFF"><path d="M14.2 36.7L2.8 48.2c-.4.4-1.1.4-1.5 0l-.7-.7c-.4-.4-.4-1.1 0-1.5l11.5-11.5c.4-.4 1.1-.4 1.5 0l.7.7c.3.4.3 1.1-.1 1.5zM23.6 46.1L12.1 57.6c-.4.4-1.1.4-1.5 0l-.6-.7c-.4-.4-.4-1.1 0-1.5l11.5-11.5c.4-.4 1.1-.4 1.5 0l.7.7c.3.4.3 1.1-.1 1.5zM18.9 41.4L2.8 57.6c-.4.4-1.1.4-1.5 0l-.7-.7c-.4-.4-.4-1.1 0-1.5l16.2-16.2c.4-.4 1.1-.4 1.5 0l.7.7c.3.4.3 1.1-.1 1.5z"/></g></svg>