<svg xmlns="http://www.w3.org/2000/svg" viewBox="0 0 124 31"><g fill="#09F"><path d="M105.8 1c-6.4 0-11.6 5.2-11.6 11.6s5.2 11.6 11.6 11.6c6.4 0 11.6-5.2 11.6-11.6S112.2 1 105.8 1zm9.1 5.1c-.6.4-1.2.8-1.9 1.1-.4-.8-.8-1.5-1.4-2.2.5-.3.9-.6 1.3-1 .8.7 1.4 1.4 2 2.1zM110 2.3c.9.4 1.8.9 2.6 1.5-.4.3-.8.6-1.3.9-.6-.7-1.2-1.2-1.9-1.8l.6-.6zm.9 2.6c-.6.3-1.3.6-1.9.8-.3-.6-.6-1.3-1-1.9.4-.2.7-.4 1.1-.6.6.5 1.2 1.1 1.8 1.7zm-1.4-2.8c-.2.2-.3.4-.5.5-.6-.4-1.3-.8-1.9-1.1.8.2 1.6.3 2.4.6zm-.9.9c-.3.2-.6.4-.9.5-.3-.5-.7-1-1.1-1.6.7.3 1.4.6 2 1.1zm-2.5-1c.4.5.8 1.1 1.2 1.6-.4.1-.8.2-1.2.2V2zm0 2.3c.5 0 1-.1 1.5-.3.4.6.7 1.2.9 1.8-.8.2-1.6.3-2.4.3V4.3zm-.5-2.3v1.8c-.4 0-.8-.1-1.2-.2.4-.5.8-1.1 1.2-1.6zM104 3.4c-.3-.1-.6-.3-.9-.5.6-.4 1.3-.8 2-1.1-.4.6-.8 1.1-1.1 1.6zm.6-1.8c-.7.3-1.3.7-2 1.1-.2-.2-.4-.3-.5-.5.9-.4 1.7-.5 2.5-.6zm8 19.8c-1.5-.8-1.6-2-1.5-2.4.1-.4.4-.2.6-.2 1 0 2.1-.3 3.4-1.6 1.5-1.5 1.9-4.9-.3-7-2.4-2.4-5-1.9-6.7.2-.3.4-1.2.8-1.9.7-1.1 0-.4.8-.4 1 0 .2-.2.3-.3.3-.4-.1-.2.4-.2.6 0 .2-.2.2-.2.2-.5 0-.3.4-.3.5 0 .1 0 .3-.2.4-.1.1-.3.4-.3.7 0 .5.5.8 1.2 1.4.7.6.8 1.1.9 1.5 0 .4 0 1 .2 1.4.2.5.2 1.4-.9 1.4-1.3.1-3.5 1.1-3.7 1.1-.7.3-1.7.3-2.4.2-.4-.3-.8-.6-1.1-.9-.1-.5.1-1.1.4-1.4.4.4 1.1.4 1.4.4.4 0 2.1-.3 2.3-.3.2-.1.4-.1.5 0 .7.2 1.6.3 1.9-1 .4-1.3-.5-.9-.6-.9-.1.1-.3 0-.2-.1.2-.3-.1-.3-.2-.3-.4 0-.8.3-1 .5-.2.1-.3.1-.4.1-.5-.2-1.9.1-2.3-.7 0-.2-.4-3.3-.6-3.8 0-.1-.1-.3.1-.5.4-.5 1.3 0 1.9 0 .6 0 .7-.3.9-.5.2-.2.3-.1.4-.2.1-.1 0-.2 0-.3 0-.1.1 0 .2-.1s0-.3 0-.4c.2-.2.6 0 .3-.7-.1-.3.1-.7.2-1 .3-.4 1.5-2.1-.6-3.8-2-1.7-4-1.5-5.3-.1-1.3 1.4-.7 3.5-.5 4 .1.5-.3 1-.7 1.3-.4.2-1.2.7-1.8 1.3.1-4.5 2.8-8.4 6.9-10l.6.6c-.5.3-1.5 1.2-1.5 1.2s.1 0 .3.1c.1 0 .3.1.3.1s.9-.8 1.3-1.1c.3.2.7.5 1.1.6-.2.3-.7 1.3-.7 1.3s.1.1.2.1c.1.1.2.1.2.1s.6-1 .8-1.4c.5.2.9.2 1.4.3v1.9c-.3 0-1 0-1.3-.1h-.2l.1.1c.1.1.1.2.2.3h1.1V10h.5v-.8c.7 0 1.3-.1 2-.1l.6-.6h-.3c-.7.1-1.4.1-2 .2h-.3V6.5c.9 0 1.7-.1 2.6-.4.2.6.7 2 .7 2l.5-.1s-.4-1.4-.7-1.9c.7-.2 1.4-.5 2.1-.9.5.7 1 1.4 1.4 2.1-.3.2-1 .4-1 .4.5.1.9.2.9.2s.2-.1.3-.1c0 .1.1.3.1.3l.6.3-.1-.2s-.2-.5-.3-.6c.7-.3 1.3-.7 1.9-1.1 1.2 1.8 1.8 3.9 1.8 6.1 0 3.6-1.7 6.8-4.3 8.8zM93.2 4.1l-.2.2c-.7.6-2.2 2.2-2 3.9v.1l.1.3.2-.2c.9-.9 1.7-2.3 2-4l.1-.5-.2.2zM90.1 7.1l-.1.2c-.1.3-.3.9-.4 1.7-.1 1.1-.1 2.8.9 4l.1.1.1.1.1-.7c.2-1.3-.1-4-.5-5.3l-.2-.4v.3zM88.9 11.8v.2c-.1 1.2 0 4.1 2.3 5.6l.3.2v-.3c0-1.1-1.3-4.4-2.3-5.5l-.2-.4-.1.2zM89.3 17v.2c.3 1.7 1.9 4.3 4.3 5.1l.3.1-.1-.3c-.5-1.2-2.8-4.1-4.3-5.1l-.3-.2.1.2zM94.2 6.6l-.2.1c-1.8 1.1-2.7 2.4-2.6 4.1v.4l.3-.2c1-.8 2.2-2.9 2.6-4l.1-.4h-.2zM93.2 10.2l-.2.1c-.5.4-2 2-1.8 4 0 .3.1.6.2 1l.1.3.2-.3c.7-1 1.7-3.7 1.6-4.9V10l-.1.2zM93.2 13.6l-.1.2c-.7 1.1-1.1 2.2-1.1 3.3 0 .8.3 1.5.7 2.2l.2.2.1-.2c.3-.6.6-2.6.5-4.2 0-.6-.1-1-.2-1.3l-.1-.3v.1zM94.1 17.3v.2c-.2.7-.3 1.4-.3 2.1 0 1.5.7 2.7 2 3.6l.2.1V23v-.2c0-1.2-1-4.4-1.7-5.3l-.2-.3v.1zM91.6 22.1l.1.2c1 1.6 2.6 3.7 5.7 3.2h.3l-.1-.2c-.6-.9-4.3-3-5.6-3.2l-.5-.1.1.1zm.2 0zM96.1 26.3l-.5.1.5.2c2 .8 4.4 1 5.8.6.5-.2.9-.5 1.3-.9 2.5.3 4.9 2.3 6.2 4.1l.1.1h.1c.2-.1.4-.2.5-.3l.1-.1-.1-.1c-1.4-1.9-3.7-3-3.8-3.1-2-1.1-5.5-1.9-10.2-.6zM96.2 21v.2c.3 1.8 1 4.3 4.2 4h.2V25c-.2-.8-3.1-3.3-4.1-4l-.3-.2v.2z"/><g><path d="M118.3 3.9l.1.5c.3 1.7 1 3.2 2 4l.2.2.1-.3v-.1c.2-1.7-1.3-3.3-2-3.9l-.2-.2-.2-.2zM121.6 6.9l-.2.4c-.5 1.2-.7 3.9-.5 5.3l.1.7.1-.1.1-.1c1-1.2 1-2.8.9-4-.1-.8-.3-1.4-.4-1.7l-.1-.2v-.3zM122.8 11.6l-.3.3c-1 1.2-2.2 4.4-2.3 5.5v.3l.3-.2c2.3-1.5 2.4-4.4 2.3-5.6V11.6zM122.4 16.8l-.3.2c-1.5 1-3.8 3.8-4.3 5.1l-.1.3.3-.1c2.4-.8 4-3.5 4.3-5.1V17l.1-.2zM117.4 6.4l.1.4c.3 1.2 1.5 3.3 2.5 4.1l.3.2v-.4c.1-1.6-.7-3-2.5-4.1l-.2-.1-.2-.1zM118.4 10.1v.4c0 1.2.9 3.9 1.6 4.9l.2.3.1-.3c.1-.3.2-.7.2-1 .1-2-1.4-3.6-1.8-4l-.1-.1-.2-.2zM118.4 13.5l-.1.3c-.1.3-.1.8-.2 1.3 0 1.6.2 3.6.5 4.2l.1.2.2-.2c.5-.7.7-1.4.7-2.2 0-1.1-.4-2.2-1.1-3.3l-.1-.2v-.1zM117.6 17.1l-.2.3c-.7 1-1.6 4.1-1.7 5.3v.5l.2-.1c1.3-.8 2-2 2-3.6 0-.7-.1-1.4-.3-2.1V17.1zM120.3 22l-.4.1c-1.3.2-5.1 2.3-5.6 3.2l-.1.2h.3c3.1.5 4.7-1.6 5.7-3.2l.1-.2V22zm-.4.1zM105.4 26.7c-.1 0-2.3 1.2-3.8 3.1l-.1.1.1.1c.1.1.3.3.5.3h.1l.1-.1c1.4-1.7 3.7-3.8 6.2-4.1.4.4.7.7 1.3.9 1.4.5 3.9.2 5.8-.6l.5-.2-.5-.1c-4.7-1.1-8.2-.3-10.2.6zM115.5 20.9l-.3.2c-1 .7-3.9 3.1-4.1 4v.2h.2c3.1.3 3.9-2.2 4.2-4v-.4z"/></g><path d="M36.6 2.2h3.9v3.6h-3.9V2.2zm.3 24.9V9.8h3.3v17.3h-3.3zM12.1 9.8h3.3v17.3h-3.2v-2.6h-.1c-1.3 2.2-3.5 3.1-5.9 3.1-3.6 0-5.7-2.8-5.7-6.3V9.8h3.3V20c0 3 .7 5.2 3.8 5.2 1.3 0 3.2-.7 3.9-2.5.6-1.6.7-3.7.7-4.1V9.8zM22 12.3c1.2-2.2 3.6-3.1 5.3-3.1 1.2 0 6.6.3 6.6 5.9v12h-3.3V16.2c0-2.9-1.2-4.4-4-4.4 0 0-1.8-.1-3.2 1.3-.5.5-1.4 1.2-1.4 4.6v9.4h-3.3V9.8H22v2.5zM53.9 15.3c-.2-2.2-1.2-3.7-3.5-3.7-3.1 0-4.3 2.7-4.3 6.8 0 4 1.2 6.8 4.3 6.8 2.2 0 3.5-1.4 3.7-3.9h3.3c-.3 3.9-3.2 6.2-7 6.2-5.5 0-7.7-3.9-7.7-9s2.5-9.3 8-9.3c3.6 0 6.4 2.3 6.5 6h-3.3zM62.2 19c-.2 3 1 6.1 4.3 6.1 2.5 0 3.8-1 4.2-3.5h3.4c-.5 3.9-3.5 5.9-7.7 5.9-5.5 0-7.7-3.9-7.7-9s2.5-9.3 8-9.3c5.1.1 7.6 3.4 7.6 8.1V19H62.2zm8.8-2.2c.1-2.9-1.2-5.1-4.4-5.1-2.7 0-4.3 2.3-4.3 5.1H71zM78.1 27V12h-3V9.8h3V6.1c.1-3.8 3-4.8 5.4-4.8.8 0 1.5.2 2.3.3v2.7c-.6 0-1.1-.1-1.7-.1-1.8 0-2.9.5-2.8 2.4v3.2h4v2.3h-4v15h-3.2z"/></g></svg>