<svg xmlns="http://www.w3.org/2000/svg" viewBox="0 0 120 59"><g opacity=".8"><g fill="#4B7520"><path d="M45.6-.1V35.1c0 2.6-.2 5.2-.8 7.8-.5 2.5-1.4 4.9-2.9 7-1.8 2.5-4.2 4.4-7 5.6-1.9.8-3.8 1.3-5.8 1.6-2.4.4-4.8.5-7.2.4-2.3-.1-4.5-.3-6.7-.8-2.7-.6-5.3-1.7-7.5-3.3-2.9-2.1-4.8-4.9-5.8-8.3-.5-1.6-.8-3.2-1-4.8-.2-1.9-.3-3.7-.3-5.6V.2v-.3h12v35.4c.2-.9.5-1.8 1-2.6.1.1.1.2.1.2.4.8.9 1.5 1.3 2.3.1.1.1.2 0 .3-.9 1.2-1.6 2.5-1.9 3.9-.1.4-.2.8-.1 1.3.2.9.5 1.8 1 2.6.5 1 1.3 1.9 2.2 2.6 0 0 .1.1.2.1-.3-.6-.5-1.3-.7-1.9h.1l3.6-.9c.1 0 .1 0 .2.1.2.2.4.4.5.6 1 1.1 1.9 2.2 3.2 3-.1.3-.2.6-.4.9 2.5 0 4.8-.3 7-1.7-.6-.2-1.2-.4-1.8-.7v-.1c.5-1.4.9-2.8 1.1-4.3 0-.2.1-.3.3-.3.8-.3 1.6-.7 2.3-1.1.5-.2 1-.5 1.5-.8.1-.1.2-.2.2-.3.1-1.2.1-2.3.2-3.5 0-.1-.1-.2-.1-.3-.6-.7-1.3-1.2-2.1-1.7-.5-.3-1.1-.6-1.7-.8-.2-.1-.2-.1-.2-.3 0-.8 0-1.5-.2-2.3-.1-.4-.2-.7-.3-1.1h.4c.6 0 1.2.3 1.7.6 1 .6 1.7 1.5 2.4 2.5 0 .1.1.1.1.2v-.2V.3.1c4-.2 7.9-.2 11.9-.2z"/><path d="M25.7 33.2c-.1 1.3-.2 2.7-.3 4 0 .1-.1.1-.1.2-1.6.5-3.3 1-4.9 1.5-.1 0-.2 0-.2-.1-.4-.5-.8-1.1-1.2-1.6-.5-.7-.9-1.5-1.3-2.2-.1-.1-.1-.2 0-.3.5-.7 1-1.4 1.5-2 .5-.6 1-1.2 1.6-1.8.1-.1.2-.1.3-.1l3.6 1.2c.3.1.5.2.8.3.1 0 .2.1.2.2v.7zM23.9 26.5c-.6.3-1.3.6-1.9.9-.4.2-.8.6-1.2.8-.1 0-.2.1-.2 0-1-.1-2-.1-2.9.1-.1 0-.3.1-.4.1 1.9-1.3 4.2-1.9 6.6-1.9z"/></g><path fill="#FAA61A" d="M17.1 28.6V-.2h-2.2v30.7c.6-.6 1.4-1.3 2.2-1.9zM21.8-.2h-2.2v27.4c.7-.3 1.4-.5 2.2-.6V-.2zM26.5-.2h-2.2v26.7c.7 0 1.5.1 2.2.3v-27zM31.1-.2H29v27.8c.8.4 1.5.8 2.2 1.3V-.2z"/><g fill="#4B7520"><path d="M61.1 41.9v-6h1.4v9.8h-1.2s-.1-.1-.1-.2l-1.5-3.6c-.3-.8-.7-1.6-1-2.4 0-.1-.1-.1-.1-.2v6.4h-1.4v-9.8h1.4s.1.1.1.2c.5 1.3 1.1 2.6 1.6 4 .2.6.5 1.1.7 1.7 0 0 .1 0 .1.1zM95.4 57.4v-9.8h2.8c.9.1 1.7.5 2.1 1.4.2.6.2 1.2.1 1.8-.2.6-.6 1-1.2 1.3-.1 0-.1.1-.3.1.1 0 .2.1.3.1 1.2.4 1.6 1.3 1.6 2.4 0 .6-.2 1.2-.7 1.7-.4.5-1 .8-1.6.8-1 .2-2 .2-3.1.2zm1.5-4.4v3.1c.4 0 .9 0 1.3-.1s.7-.3.8-.6c.4-.8.1-2-1-2.2-.3-.2-.6-.2-1.1-.2zm0-1.4h.8c.3 0 .7-.2.9-.4.6-.6.5-1.6-.2-2-.4-.2-.9-.2-1.5-.2v2.6zM84.7 45.7h-1.5c-.1 0-.1-.1-.2-.2-.3-1.1-.7-2.1-1-3.2-.1-.2-.1-.4-.2-.6l-.1-.1h-.8v4h-1.5v-9.8H81.8c.3 0 .7 0 1 .1 1 .3 1.5 1 1.7 2 .1.7.1 1.3-.2 2-.2.5-.5.9-.9 1.1-.1.1-.2.2-.1.3.5 1.4.9 2.7 1.3 4.1 0 .2.1.2.1.3zm-3.8-5.5H82c.5 0 .9-.4 1-.9.1-.3.1-.7 0-1 0-.4-.2-.8-.6-1-.5-.2-1-.1-1.5-.1v3zM56.7 57.4v-9.8h2.5c.3 0 .7 0 1 .1 1 .3 1.5.9 1.7 1.9.1.3.1.6.1.9v3.8c0 .4 0 .8-.1 1.2-.3 1-1 1.7-2.1 1.8-1.1.1-2.1.1-3.1.1zm1.5-1.4h1c.6-.1 1-.4 1.1-1 0-.2.1-.4.1-.6v-3.6-.6c-.1-.5-.3-.9-.8-1.1-.5-.1-.9-.1-1.4-.1v7zM95.2 45.7v-9.8h2.9c1.2.1 2 .8 2.2 2 0 .2.1.5.1.8v4.2c0 .4-.1.8-.2 1.1-.3 1-1 1.5-2 1.6-1 .1-2 .1-3 .1zm1.5-1.4h1c.6 0 1-.4 1.2-1 0-.2.1-.4.1-.6v-3.5-.8c-.1-.5-.3-.9-.8-1.1-.4-.2-.9-.1-1.4-.1-.1 2.4-.1 4.7-.1 7.1zM108.5 45.7v-9.8H110.9c.4 0 .8.1 1.1.2.9.3 1.4 1 1.6 1.9.1.3.1.6.1.8V43c0 .4-.1.7-.2 1.1-.3 1-1 1.6-2 1.6h-3zm1.5-1.4h1c.6 0 1-.4 1.2-1 0-.2.1-.4.1-.6v-3.5-.8c-.1-.5-.3-.9-.8-1.1-.4-.2-.9-.1-1.4-.1-.1 2.4-.1 4.7-.1 7.1zM107.4 52.6V55c0 .4-.1.8-.3 1.2-.3.8-1 1.3-1.8 1.4-.5.1-.9.1-1.4-.1-1-.2-1.6-1-1.8-2 0-.4-.1-.8-.1-1.1v-4.1c0-.4.1-.8.2-1.2.3-.9 1-1.4 2-1.5.4-.1.8 0 1.3.1.9.2 1.6 1 1.8 1.9.1.5.1.9.1 1.4v1.6zm-3.8-.1V55c0 .6.3 1 .8 1.2.8.2 1.4-.3 1.5-1.1v-1.9V50c0-.4-.2-.8-.6-1-.7-.3-1.4.1-1.6.8v.4c-.1.7-.1 1.5-.1 2.3zM68.6 52.5v2.4c0 .5-.1 1-.4 1.4-.4.7-1 1.1-1.8 1.2-.4.1-.9 0-1.3-.1-1-.2-1.6-1-1.8-2 0-.4-.1-.8-.1-1.1v-4.1c0-.4.1-.8.2-1.2.3-.9 1-1.4 2-1.5.4-.1.9 0 1.3.1 1 .3 1.6.9 1.7 1.9.1.5.1.9.1 1.4.1.5.1 1.1.1 1.6zm-3.8 0V55c0 .6.3 1 .8 1.2.8.2 1.4-.3 1.5-1.1v-2.3V50c0-.6-.4-1-1-1.1-.7-.1-1.1.2-1.3.9 0 .1-.1.3-.1.4.1.7.1 1.5.1 2.3zM77.7 47.6h1.5v6.8c0 .3 0 .7.1 1 .1.5.5.7.9.7.5 0 .9-.2 1-.7.1-.3.1-.6.1-.9v-6.7-.3h1.5v6.8c0 .5 0 .9-.2 1.4-.2 1-1 1.6-2 1.7-.5 0-.9 0-1.4-.1-.9-.3-1.5-1-1.6-2 0-.5-.1-1-.1-1.5v-6.1c.2.1.2 0 .2-.1zM54.1 35.9h1.5v6.8c0 .5 0 .9-.2 1.4-.2 1-1 1.6-2 1.7-.5 0-.9 0-1.4-.1-.9-.3-1.5-1.1-1.6-2 0-.5-.1-1-.1-1.6v-6-.2h1.5v6.8c0 .3 0 .7.1 1 .1.5.5.7.9.7.5 0 .9-.2 1-.7.1-.3.1-.6.1-.9v-6.7c.2-.1.2-.1.2-.2zM107.4 45.7H106l-.1-.1c-.1-.6-.2-1.2-.4-1.8v-.2h-2.1c-.1.7-.3 1.4-.4 2.1h-1.5c.6-3.3 1.3-6.5 1.9-9.8h2.1c.6 3.2 1.2 6.5 1.9 9.8zm-3-7.9s-.1 0 0 0c-.3 1.4-.6 2.9-.8 4.3h1.6c-.3-1.4-.6-2.9-.8-4.3zM91 38.1c-.5.2-1 .3-1.5.4-.1-.2-.1-.4-.2-.6-.2-.4-.4-.7-.8-.8-.4-.1-.7 0-1 .2-.3.3-.4.7-.2 1.1.1.3.2.5.4.7.4.4.9.8 1.4 1.1.4.3.8.7 1.2 1 .7.9.9 1.8.7 2.8-.2 1-1.1 1.6-2.1 1.8-.6.1-1.2 0-1.7-.2-.7-.3-1.2-.8-1.5-1.6-.1-.3-.2-.6-.2-.8 0-.1 0-.2.1-.2.4-.1.8-.2 1.3-.4.1.4.2.7.4 1 .3.5.7.8 1.3.7.7-.1 1.2-.8.9-1.5-.1-.2-.2-.5-.4-.7-.4-.4-.8-.7-1.2-1.1-.3-.3-.7-.5-1-.8-.6-.5-1-1.2-1.1-2-.2-1.3.8-2.5 2.1-2.6.4 0 .8 0 1.2.1.7.2 1.2.6 1.5 1.3.1.4.3.8.4 1.1zM66.8 35.9h1.4l.1.1c.2 1.1.4 2.2.7 3.3.3 1.3.5 2.5.8 3.8 0 0 0 .1.1.1.1-.4.1-.8.2-1.2.3-1.8.6-3.7 1-5.5 0-.2.1-.4.1-.6l.1-.1h1.4c-.1.4-.2.8-.2 1.2-.4 2.1-.8 4.3-1.2 6.4-.1.7-.3 1.4-.4 2l-.1.1H69c-.8-3.1-1.5-6.3-2.2-9.6zM116.6 41.2v3h2.9v1.4h-4.4v-9.8h4.4v1.4h-2.9v2.6h2.1v1.4h-2.1zM73.9 35.9h4.4v1.4h-2.9v2.6h2.1v1.4h-2.1v3h2.9v1.4h-4.4v-9.8zM94.3 56v1.4h-4.4v-9.8h4.4V49h-2.9v2.6h2.1V53h-2.1v3h2.9zM76.7 47.6V49h-2.9v2.6H76V53h-2.2v4.4h-1.5v-9.8h4.4zM85.6 49h-1.9v-1.4H89V49h-1.9v8.4h-1.5V49zM108.8 57.4v-9.8h1.5V56h3v1.4h-4.5zM92.1 35.9h1.5v9.8h-1.5v-9.8zM64.2 35.9h1.5v9.8h-1.5v-9.8z"/></g></g></svg>