<svg xmlns="http://www.w3.org/2000/svg" viewBox="0 0 46.33 46.17"><title>reproducir</title><path d="M40.2 46.06H5.86A5.87 5.87 0 0 1 0 40.2V5.86A5.87 5.87 0 0 1 5.86 0H40.2a5.87 5.87 0 0 1 5.86 5.86V40.2a5.87 5.87 0 0 1-5.86 5.86zM5.86 1.72a4.15 4.15 0 0 0-4.14 4.14V40.2a4.15 4.15 0 0 0 4.14 4.14H40.2a4.15 4.15 0 0 0 4.14-4.14V5.86a4.15 4.15 0 0 0-4.14-4.14z" fill="#d4155b"/><rect x="2.62" y="2.62" width="40.81" height="40.81" rx="5" ry="5" opacity=".6"/><path fill="#d4155b" d="M17.86 36.8v-6.49l7.28-7.28-7.28-7.28V9.26l13.77 13.77L17.86 36.8"/></svg>