<svg  version="1.1" xmlns="http://www.w3.org/2000/svg" xmlns:xlink="http://www.w3.org/1999/xlink" >
    <defs>
	<g id="balon">
		<path d="M25.9,1.6c-0.1,0-0.2-0.1-0.3-0.1C24.1,1.2,22.6,1,21,1C10,1,1,10,1,21c0,11,9,20,20,20c11,0,20-9,20-20
		C41,11.7,34.6,3.8,25.9,1.6z M35.6,30.1l-6.1,0.8c-0.3,0-0.5,0.1-0.7,0.3l-4.6,4.1c-0.3,0.2-0.4,0.6-0.4,0.9c0,0.4,0.1,0.7,0.4,1
		l0.7,0.7c-1.3,0.3-2.6,0.5-3.9,0.5c-1.4,0-2.7-0.2-4-0.5l0.7-0.7c0.3-0.3,0.4-0.6,0.4-1c0-0.4-0.2-0.7-0.4-0.9l-4.6-4.1
		c-0.2-0.2-0.4-0.3-0.7-0.3l-6.1-0.8c-0.1,0-0.1,0-0.2,0c-0.9-1.5-1.6-3.2-2.1-4.9L5.9,25c0.5,0,1-0.4,1.2-0.9l1.9-6
		c0.1-0.3,0.1-0.5,0-0.8l-1.9-6c0-0.1-0.1-0.2-0.2-0.3c1.7-2.4,4.1-4.4,6.9-5.7c0,0,0,0.1,0,0.1c0.1,0.4,0.4,0.7,0.9,0.8l6,1.9
		c0.1,0,0.3,0.1,0.4,0.1c0.1,0,0.3,0,0.4-0.1l6-1.9c0.4-0.1,0.7-0.4,0.9-0.9c0,0,0,0,0-0.1c2.8,1.3,5.2,3.3,7,5.9
		c0,0.1-0.1,0.1-0.1,0.2l-1.9,6c-0.1,0.3-0.1,0.5,0,0.8l1.9,6c0.1,0.5,0.5,0.8,1,0.9l1.6,0.3c-0.4,1.7-1.1,3.3-2,4.8
		C35.7,30.1,35.7,30.1,35.6,30.1z M21.8,11.4c-0.5-0.3-1.1-0.3-1.5,0l-6.9,5c-0.5,0.3-0.7,0.9-0.5,1.5l2.6,8.1c0.2,0.5,0.7,0.9,1.2,0.9h8.5
		c0.6,0,1.1-0.4,1.2-0.9l2.6-8.1c0.2-0.5,0-1.1-0.5-1.5L21.8,11.4z"/>
	</g>
	<g id="lineas">
		<path d="M14.1,2.6L2.6,14.1c-0.4,0.4-1.1,0.4-1.5,0l-0.7-0.7c-0.4-0.4-0.4-1.1,0-1.5L12,0.5c0.4-0.4,1.1-0.4,1.5,0
		l0.7,0.7C14.5,1.6,14.5,2.2,14.1,2.6z M23.5,12L12,23.5c-0.4,0.4-1.1,0.4-1.5,0l-0.7-0.7c-0.4-0.4-0.4-1.1,0-1.5L21.4,9.9c0.4-0.4,1.1-0.4,1.5,0
		l0.7,0.7C23.9,11,23.9,11.6,23.5,12z M18.8,7.3L2.6,23.5c-0.4,0.4-1.1,0.4-1.5,0l-0.7-0.7c-0.4-0.4-0.4-1.1,0-1.5L16.7,5.2c0.4-0.4,1.1-0.4,1.5,0
		l0.7,0.7C19.2,6.3,19.2,6.9,18.8,7.3z"/>
		<path d="M23.5,12L12,23.5c-0.4,0.4-1.1,0.4-1.5,0l-0.7-0.7c-0.4-0.4-0.4-1.1,0-1.5L21.4,9.9c0.4-0.4,1.1-0.4,1.5,0
			l0.7,0.7C23.9,11,23.9,11.6,23.5,12z"/>
		<path d="M18.8,7.3L2.6,23.5c-0.4,0.4-1.1,0.4-1.5,0l-0.7-0.7c-0.4-0.4-0.4-1.1,0-1.5L16.7,5.2c0.4-0.4,1.1-0.4,1.5,0
			l0.7,0.7C19.2,6.3,19.2,6.9,18.8,7.3z"/>
	</g>
	<g id="flecha-abajo">
		<path d="M0 0h1.9L4 2.1 6.1 0H8L4 4z"/>
	</g>
	<g id="flecha-derecha">
		<path d="M0 8V6.1L2.1 4 0 1.9V0l4 4z"/>
	</g>
	<g id="flecha-izquierda">
		<path d="M4 0v1.9L1.9 4 4 6.1V8L0 4z"/>
	</g>
	<g id="tiempo_10">
		<svg><defs><path d="M1.2.4h78.1v59.8H1.2z"/></defs><clipPath id="SVGID_2_"><use overflow="visible"/></clipPath><g><path class="st0" style="fill: #83d7f4;" d="M11.4 41.7c-1.4 0-2.5 1.1-2.5 2.5s1.1 2.5 2.5 2.5h13.5c.3 0 .5 0 .8-.1-.6-1.6-1.2-3.2-1.5-4.9H11.4zm0 0M25.6 23.5c-.2-.1-.5-.1-.7-.1H3.7c-1.4 0-2.5 1.1-2.5 2.5s1.1 2.5 2.5 2.5h20.4c.4-1.7.9-3.4 1.5-4.9zm0 0M23.3 35c0-.8 0-1.6.1-2.5H7.2c-1.4 0-2.5 1.1-2.5 2.5s1.1 2.5 2.5 2.5h16.3c-.1-.8-.2-1.7-.2-2.5zm0 0"/><path style="fill: #0f62aa;" d="M44.2 49.4v-6h1c.2 0 .3.1.4.3l.1.4.3-.3s.2-.2.4-.2.3-.1.4-.2.3-.1.5-.1c.4 0 .7.1.9.3s.4.5.6.8c.1-.2.2-.4.4-.5s.3-.2.5-.3.3-.2.5-.2.4-.1.6-.1c.3 0 .6.1.9.2s.5.2.7.4.3.4.4.7c.1.3.1.6.1 1v3.8h-1.6v-3.8c0-.7-.3-1.1-.9-1.1-.1 0-.3 0-.4.1s-.2.1-.3.2-.2.2-.2.3-.1.3-.1.5v3.8h-1.6v-3.8c0-.4-.1-.7-.2-.8-.2-.2-.4-.2-.7-.2-.2 0-.4 0-.5.1s-.4.2-.5.3v4.4h-1.7zM55.4 41.7c0 .1 0 .3-.1.4s-.1.2-.2.3-.2.2-.3.2-.3.1-.4.1c-.1 0-.3 0-.4-.1s-.2-.1-.3-.2-.2-.2-.2-.3-.1-.2-.1-.4 0-.3.1-.4.1-.2.2-.3.2-.2.3-.2.2-.1.4-.1c.1 0 .3 0 .4.1s.2.1.3.2.2.2.2.3.1.2.1.4zm-.2 1.7v6h-1.6v-6h1.6zM57.5 44.1c.1-.1.2-.2.4-.3s.3-.2.4-.3.3-.1.5-.2.4-.1.6-.1c.3 0 .6.1.9.2s.5.3.6.5.3.4.4.7c.1.3.1.6.1.9v3.8h-1.6v-3.8c0-.3-.1-.6-.2-.8-.2-.2-.4-.3-.7-.3-.2 0-.4 0-.6.1-.2.1-.4.2-.6.4v4.3H56v-6h1c.2 0 .3.1.4.3l.1.6z"/><g><path style="fill: #0f62aa;" d="M43.1 36.8h3.2v-8.3-1.3l-1.9 1.5c-.2.1-.3.2-.5.2h-.5s-.3-.1-.4-.1c-.1-.1-.2-.1-.2-.2l-1.1-1.5 5.1-4.3h2.9v13.9h2.7v2.5H43v-2.4zM65.9 30.9c0 1.5-.2 2.7-.5 3.8-.3 1.1-.8 2-1.3 2.7-.6.7-1.2 1.2-2 1.6-.8.3-1.6.5-2.5.5-.9 0-1.7-.2-2.5-.5s-1.4-.9-2-1.6c-.6-.7-1-1.6-1.3-2.7-.3-1.1-.5-2.3-.5-3.8s.2-2.7.5-3.8c.3-1.1.7-2 1.3-2.7.6-.7 1.2-1.2 2-1.6.8-.3 1.6-.5 2.5-.5.9 0 1.7.2 2.5.5s1.4.9 2 1.6c.6.7 1 1.6 1.3 2.7.3 1.1.5 2.4.5 3.8zm-3.7 0c0-1.2-.1-2.1-.2-2.9-.1-.7-.3-1.3-.6-1.7-.2-.4-.5-.7-.8-.9-.3-.2-.6-.2-.9-.2-.3 0-.6.1-.9.2-.3.2-.6.4-.8.9-.2.4-.4 1-.6 1.7s-.2 1.7-.2 2.9.1 2.1.2 2.9c.1.7.3 1.3.6 1.7.2.4.5.7.8.9.3.2.6.2.9.2.3 0 .6-.1.9-.2.3-.2.6-.4.8-.9.2-.4.4-1 .6-1.7.1-.7.2-1.7.2-2.9z"/></g><path style="fill: #83d7f4;" d="M74.8 18.3c.6.6 1.5.6 2 0l2-2c.6-.6.6-1.5 0-2l-4.5-4.5c-.6-.6-1.5-.6-2 0l-2 2c-.6.6-.6 1.5 0 2l.2.2-1.4 1.4c-3.6-2.8-7.9-4.7-12.6-5.2V7.5H58c.8 0 1.4-.6 1.4-1.4V2c0-.8-.6-1.4-1.4-1.4h-9c-.8 0-1.4.6-1.4 1.4v4.2c0 .8.6 1.4 1.4 1.4h1.6v2.6c-4.7.6-9 2.4-12.6 5.2L36.6 14l.2-.2c.6-.6.6-1.5 0-2l-2-2c-.6-.6-1.5-.6-2 0l-4.5 4.5c-.6.6-.6 1.5 0 2l2 2c.6.6 1.5.6 2 0l.2-.2 1.4 1.4c-3.4 4.3-5.4 9.6-5.4 15.5 0 13.8 11.2 25 25 25s25-11.2 25-25c0-5.8-2-11.2-5.4-15.5l1.4-1.4.3.2zM53.5 54.2c-10.6 0-19.2-8.6-19.2-19.2s8.6-19.2 19.2-19.2S72.8 24.4 72.8 35s-8.6 19.2-19.3 19.2zm0 0"/></g></svg>
	</g>
	<g id="auto_logo">
		<path d="M9.5 13.6c-.3 0-.7-.2-.8-.5l-1.2-2.7c-.2-.4 0-1 .4-1.2.4-.2 1 0 1.2.4l.4.8L11 6.9c.2-.5.7-.7 1.2-.5.5.2.7.7.5 1.2l-2.2 5.5c-.3.3-.6.5-1 .5zM19.4.2H.6C.2.2 0 .4 0 .7v.4c0 .3.2.6.6.6h18.9c.3 0 .6-.2.6-.6V.7c-.1-.3-.3-.5-.7-.5zM19.4 18.4H.6c-.3 0-.6.2-.6.6v.4c0 .3.2.6.6.6h18.9c.3 0 .6-.2.6-.6V19c-.1-.4-.3-.6-.7-.6z"/>
		<path d="M19.4 3.8H.6c-.4 0-.6.2-.6.6v.4c0 .2.2.5.6.5H6c-.7.6-1.3 1.3-1.6 2.1H.7c-.4 0-.7.4-.7.8s.3.7.7.7h3.2c-.1.4-.1.7-.1 1.1s0 .7.1 1.1H.7c-.4 0-.7.3-.7.7s.3.7.7.7h3.6c.4.8 1 1.6 1.7 2.2H.6c-.4 0-.6.3-.6.6v.4c0 .3.2.6.6.6h18.9c.3 0 .6-.2.6-.6v-.4c0-.3-.2-.6-.6-.6H14c.7-.6 1.3-1.3 1.7-2.2h3.6c.4 0 .7-.3.7-.7s-.3-.7-.7-.7h-3.2c.1-.4.1-.7.1-1.1s0-.7-.1-1.1h3.2c.4 0 .7-.3.7-.7 0-.4-.3-.7-.7-.7h-3.6c-.4-.8-1-1.6-1.7-2.2h5.5c.3 0 .5-.3.5-.6v-.3c0-.4-.2-.6-.6-.6zm-5.2 4.1l.3.6c.2.5.3 1 .3 1.5s-.1 1-.3 1.5l-.3.6c-.7 1.5-2.2 2.5-4 2.6h-.5c-1.7-.1-3.2-1.1-4-2.6l-.3-.6c-.2-.5-.3-1-.3-1.5s.1-1 .3-1.5l.3-.6c.7-1.5 2.2-2.5 4-2.6h.5c1.8.1 3.3 1.1 4 2.6z"/>
	</g>
	<g id="icono_materiais">
		<path class="st16" d="M15.7,20.8H3.3c-1.7,0-3-1.4-3-3V3.2c0-1.7,1.4-3,3-3h12.3c1.7,0,3,1.4,3,3v14.5
					C18.7,19.4,17.3,20.8,15.7,20.8z M3.3,2.2c-0.6,0-1.1,0.5-1.1,1.1v14.5c0,0.6,0.5,1.1,1.1,1.1h12.3c0.6,0,1.1-0.5,1.1-1.1V3.2
					c0-0.6-0.5-1.1-1.1-1.1H3.3z"/>
		<path class="st16" d="M14,6.6H5c-0.5,0-1-0.4-1-1s0.4-1,1-1h9c0.5,0,1,0.4,1,1S14.5,6.6,14,6.6z"/>
		<path class="st16" d="M12.6,11.4H6.4c-0.5,0-1-0.4-1-1s0.4-1,1-1h6.2c0.5,0,1,0.4,1,1S13.2,11.4,12.6,11.4z"/>
		<path class="st16" d="M14,16.4H5c-0.5,0-1-0.4-1-1c0-0.5,0.4-1,1-1h9c0.5,0,1,0.4,1,1C15,15.9,14.5,16.4,14,16.4z"/>
	</g>
	<g id="icono_editar_cadastro">
		<path class="st0" d="M14.5,17.4H5.5c-0.2,0-0.5-0.1-0.6-0.3L0.5,9.3c-0.1-0.2-0.1-0.5,0-0.7L5,0.9c0.1-0.2,0.3-0.3,0.6-0.3h8.9
	c0.2,0,0.5,0.1,0.6,0.3l4.5,7.7c0.1,0.2,0.1,0.5,0,0.7l-4.5,7.7C14.9,17.3,14.7,17.4,14.5,17.4z M5.9,16.1h8.2L18.2,9l-4.1-7.1H5.9
	L1.8,9L5.9,16.1z"/>
<polygon class="st0" points="12.2,5.2 7.8,5.2 5.6,9 7.8,12.8 12.2,12.8 14.4,9 "/>
	</g>
	<g id="icono_recomendacoes">
		<path d="M17,22.2H2.32A2.53,2.53,0,0,1,0,19.52V7.09A2.53,2.53,0,0,1,2.32,4.41H6.1a1,1,0,1,1,0,2H2.32c-.05,0-.28.21-.28.64V19.52c0,.43.23.64.28.64H17c.05,0,.28-.21.28-.64V13.3a1,1,0,0,1,2,0v6.21A2.53,2.53,0,0,1,17,22.2Z"/>
		<path d="M21,0,18.71,10.74,17.14,7.47c-4,5.83-6.36,8.83-6.39,8.86a1,1,0,0,1-.8.39H9.9a1,1,0,0,1-.81-.48L6.75,12.48A1,1,0,1,1,8.48,11.4L10,13.9c1-1.36,2.88-3.88,5.41-7.57l-3.61-.26Z"/>
	</g>
	<g id="icono-imprimir">
		<path d="M10.4,12.34V10.42h1.14a1.25,1.25,0,0,0,1.25-1.25V4.43a1.25,1.25,0,0,0-1.25-1.25H10.39V.86A.87.87,0,0,0,9.53,0H3.25a.87.87,0,0,0-.86.86V3.18H1.25A1.25,1.25,0,0,0,0,4.43V9.18a1.25,1.25,0,0,0,1.25,1.25H2.38v1.92a.87.87,0,0,0,.86.86H9.53a.87.87,0,0,0,.86-.86ZM3.25.85H9.54V3.18H3.24Zm-2,8.72a.4.4,0,0,1-.39-.39V4.43A.4.4,0,0,1,1.25,4H11.53a.4.4,0,0,1,.39.39V9.18a.4.4,0,0,1-.39.39H10.4V6.8A.43.43,0,0,0,10,6.37H2.82a.43.43,0,0,0-.43.43V9.57Zm2,2.77V7.23h6.3v5.11H3.24Zm0,0"/>
		<path d="M2.32,4.9a.44.44,0,0,0-.6,0,.43.43,0,0,0,.61.61.43.43,0,0,0,.13-.3.45.45,0,0,0-.13-.3Zm0,0"/>
		<path d="M8.23,10.4H4.55a.43.43,0,0,0,0,.86H8.23a.43.43,0,1,0,0-.86Zm0,0"/>
		<path d="M8.23,8.45H4.55a.43.43,0,0,0,0,.86H8.23a.43.43,0,1,0,0-.86Zm0,0"/>
	</g>
	<g id="icono-buscar">
		<path d="M10.51,9.2a5.73,5.73,0,0,0,1.11-3.39,5.81,5.81,0,1,0-5.81,5.81,5.75,5.75,0,0,0,3.39-1.1L13,14.34h2.63Zm-9-3.39a4.35,4.35,0,1,1,4.35,4.35A4.35,4.35,0,0,1,1.46,5.81Z"/>
	</g>
  <g id="fragmento-1">
    <path d="M124.59,101.67,87.3,166.41A174.26,174.26,0,0,1,0,15.32H21.85l0,0,15-15a1,1,0,0,1,1.41,0l15,15,0,0H74.7A99.58,99.58,0,0,0,124.59,101.67Z"/>
  </g>
  <g id="fragmento-2">
    <path d="M110.58,39.49l.08,0,3-11a1,1,0,0,0-.7-1.23l-11-3L88.12,0A174.28,174.28,0,0,0,0,151.56H74.7a99.59,99.59,0,0,1,50.36-86.61Z"/>
  </g>
  <g id="fragmento-3">
    <path d="M168.72,61.79A1,1,0,0,1,168,63L147.5,68.53l-.09-.35L136,88a99.74,99.74,0,0,0-99-.28L0,22.78a174.59,174.59,0,0,1,173.3.48L162.86,41.37l.34-.09Z"/>
  </g>
  <g id="fragmento-4">
    <path d="M124.58,151.07H103.83l-15,15a1,1,0,0,1-1.42,0l-15-15H49.88A99.56,99.56,0,0,0,0,64.74L37.32,0A174.27,174.27,0,0,1,124.58,151.07Z"/>
  </g>
  <g id="fragmento-5">
    <path d="M124.08,0a174.27,174.27,0,0,1-86.4,150.57L27,132.25l-.07.25L6.41,127a1,1,0,0,1-.7-1.23l5.52-20.44L0,86.05A99.58,99.58,0,0,0,49.38,0Z"/>
  </g>
  <g id="fragmento-6">
    <path d="M175,64.52A173.53,173.53,0,0,1,87,88.29,173.49,173.49,0,0,1,0,65L11.08,45.81l-.24.06L5.32,25.36A1,1,0,0,1,6,24.14l20.51-5.52.06.23L37.29.3A99.2,99.2,0,0,0,87,13.59,99.17,99.17,0,0,0,137.29,0Z"/>
  </g>
  <g id="boton-reproducir">
    <path d="M40.2 46.06H5.86A5.87 5.87 0 0 1 0 40.2V5.86A5.87 5.87 0 0 1 5.86 0H40.2a5.87 5.87 0 0 1 5.86 5.86V40.2a5.87 5.87 0 0 1-5.86 5.86zM5.86 1.72a4.15 4.15 0 0 0-4.14 4.14V40.2a4.15 4.15 0 0 0 4.14 4.14H40.2a4.15 4.15 0 0 0 4.14-4.14V5.86a4.15 4.15 0 0 0-4.14-4.14z" fill="#d4155b"/><rect x="2.62" y="2.62" width="40.81" height="40.81" rx="5" ry="5" opacity=".6"/><path fill="#d4155b" d="M17.86 36.8v-6.49l7.28-7.28-7.28-7.28V9.26l13.77 13.77L17.86 36.8"/>
  </g>
  <g id="icono-balon">
    <path d="M27 1h-.2c-1-.2-2-.4-3-.4-7.3 0-13.2 5.9-13.2 13.2 0 7.3 5.9 13.2 13.2 13.2C31 27 37 21.1 37 13.8 37 7.6 32.7 2.4 27 1zm-5.9 24l.5-.5c.2-.2.3-.4.3-.6 0-.2-.1-.5-.3-.6l-3-2.7c-.1-.1-.3-.2-.5-.2l-4-.5H14c-.6-1-1.1-2.1-1.4-3.3l1.1-.1c.4 0 .7-.3.8-.6l1.3-4c.1-.2.1-.4 0-.5l-1.3-4c0-.1-.1-.1-.1-.2 1.2-1.6 2.7-2.9 4.5-3.8v.1c.1.2.4.4.6.5l4 1.3h.6L28 4c.3-.1.5-.3.6-.6 1.9.9 3.5 2.2 4.6 3.9v.1l-1.3 4c-.1.2-.1.4 0 .5l1.3 4c.1.3.4.5.7.6l1.1.2c-.3 1.1-.7 2.2-1.3 3.2h-.1l-4 .5c-.2 0-.3.1-.5.2l-3 2.7c-.2.2-.3.4-.3.6 0 .2.1.5.3.6l.5.5c-.8.2-1.7.3-2.6.3-1.1 0-2-.1-2.9-.3z"/><path d="M27.4 17.1l1.7-5.3c.1-.4 0-.7-.3-1l-4.5-3.3c-.3-.2-.7-.2-1 0l-4.5 3.3c-.3.2-.4.6-.3 1l1.7 5.3c.1.4.4.6.8.6h5.6c.3 0 .7-.2.8-.6z"/><path d="M9.6 24.2l-6.9 6.9c-.4.4-1 .4-1.4 0-.4-.4-.4-1 0-1.4l6.9-6.9c.4-.4 1-.4 1.4 0 .4.4.4 1 0 1.4zM15.6 30.2l-6.9 6.9c-.4.4-1 .4-1.4 0-.4-.4-.4-1 0-1.4l6.9-6.9c.4-.4 1-.4 1.4 0 .4.4.4 1 0 1.4zM12.6 27.2l-9.9 9.9c-.4.4-1 .4-1.4 0-.4-.4-.4-1 0-1.4l9.9-9.9c.4-.4 1-.4 1.4 0 .4.4.4 1 0 1.4z"/>
  </g>
  <g id="icono-plano">
    <path d="M14.7 18.6h-4c-.8 0-1.4-.6-1.4-1.4 0-.8.6-1.4 1.4-1.4h3.1l3-6.2c.2-.6.7-.9 1.2-.9s1 .2 1.3.6l2.4 3.2 6.1-11.3c.4-.7 1.2-1 1.9-.6s1 1.2.6 1.9l-7.1 13.2c-.2.4-.7.7-1.2.7s-1-.2-1.2-.6l-2.3-3.1-2.5 5.1c-.3.4-.8.8-1.3.8zM31.7 25.5H10.8c-.8 0-1.4-.6-1.4-1.4 0-.8.6-1.4 1.4-1.4h20.9c.8 0 1.4.6 1.4 1.4.1.8-.6 1.4-1.4 1.4zM3.8 11.3H2.3c-.8 0-1.4-.6-1.4-1.4s.6-1.4 1.4-1.4h1.5c.8 0 1.4.6 1.4 1.4s-.6 1.4-1.4 1.4zM12.2 11.3h-1.5c-.8 0-1.4-.6-1.4-1.4s.6-1.4 1.4-1.4h1.5c.8 0 1.4.6 1.4 1.4s-.6 1.4-1.4 1.4zM31.7 11.3h-1.5c-.8 0-1.4-.6-1.4-1.4s.6-1.4 1.4-1.4h1.5c.8 0 1.4.6 1.4 1.4s-.6 1.4-1.4 1.4zM31.7 18.6h-5.1c-.8 0-1.4-.6-1.4-1.4 0-.8.6-1.4 1.4-1.4h5.1c.8 0 1.4.6 1.4 1.4.1.7-.6 1.4-1.4 1.4zM3.8 18.3H2.3c-.8 0-1.4-.6-1.4-1.4 0-.8.6-1.4 1.4-1.4h1.5c.8 0 1.4.6 1.4 1.4.1.8-.6 1.4-1.4 1.4zM3.8 25.5H2.3c-.8 0-1.4-.6-1.4-1.4 0-.8.6-1.4 1.4-1.4h1.5c.8 0 1.4.6 1.4 1.4.1.8-.6 1.4-1.4 1.4z"/>
  </g>
	</defs>
</svg>
