<svg xmlns="http://www.w3.org/2000/svg" viewBox="-9986.867 -7895 28.12 38.291"><defs><style>.a{fill:#2dace2;}</style></defs><path class="a" d="M12177,2303.7c0-2.982,5.5-4.031,9.58-4.4v-4.513a4.5,4.5,0,0,1-1.636-3.47v-6.386a4.513,4.513,0,0,1,4.509-4.507h3.213a4.511,4.511,0,0,1,4.508,4.507v6.386a4.5,4.5,0,0,1-1.634,3.47v4.513c4.082.368,9.58,1.415,9.58,4.4,0,4.372-11.708,4.593-14.056,4.593S12177,2308.07,12177,2303.7Zm3.167,0c1.191.705,4.944,1.708,10.9,1.708s9.7-1,10.89-1.708a17.892,17.892,0,0,0-6.414-1.506v1.5a1.441,1.441,0,1,1-2.883,0v-9.671a1.437,1.437,0,0,1,.766-1.271,1.632,1.632,0,0,0,.867-1.438v-6.386a1.625,1.625,0,0,0-1.624-1.624h-3.213a1.627,1.627,0,0,0-1.626,1.624v6.386a1.63,1.63,0,0,0,.87,1.438,1.441,1.441,0,0,1,.764,1.271l0,9.671a1.441,1.441,0,1,1-2.883,0v-1.5A17.988,17.988,0,0,0,12180.167,2303.7Zm6.272-29.091a4.608,4.608,0,1,1,4.606,4.61A4.613,4.613,0,0,1,12186.439,2274.609Zm2.881,0a1.727,1.727,0,1,0,1.726-1.726A1.73,1.73,0,0,0,12189.32,2274.609Z" transform="translate(-22163.867 -10165)"/></svg>