<svg xmlns="http://www.w3.org/2000/svg" viewBox="3318.767 36.639 23.4 16.035"><defs><style>.a{fill:#fff;stroke:#fff;stroke-width:0.4px;}</style></defs><g transform="translate(2266.967 8.839)"><path class="a" d="M2.146,15.635A2.148,2.148,0,0,1,0,13.49V2.145A2.148,2.148,0,0,1,2.146,0H20.854A2.148,2.148,0,0,1,23,2.145V13.49a2.148,2.148,0,0,1-2.146,2.145ZM1.431,2.145V13.49a.717.717,0,0,0,.715.716H20.854a.716.716,0,0,0,.715-.716V2.145a.716.716,0,0,0-.715-.716H2.146A.717.717,0,0,0,1.431,2.145Zm9.6,8.94L3.105,4.111A.715.715,0,1,1,4.05,3.038L11.5,9.6l7.449-6.557A.715.715,0,1,1,19.9,4.111l-7.921,6.975a.716.716,0,0,1-.947,0Z" transform="translate(1052 28)"/></g></svg>