<svg xmlns="http://www.w3.org/2000/svg" viewBox="-6673 -8565.434 33.509 37.047">
  <defs>
    <style>
      .cls-1 {
        fill: #fff;
      }
    </style>
  </defs>
  <path id="Union_36" data-name="Union 36" class="cls-1" d="M9935.96,2307.045h-.055a11.252,11.252,0,0,1-2.437-.247c-.317-.085-.642-.185-.951-.3l-.13-.055a1.645,1.645,0,0,1-.531-.324,1.108,1.108,0,0,1,.052-1.827,4.15,4.15,0,0,1,.826-.417,1.22,1.22,0,0,1-.361-.756l-.022-17.539c0-.107-.018-.192-.018-.3a.721.721,0,0,1,.287-.6.7.7,0,0,1,.664-.107.191.191,0,0,1,.077.022.6.6,0,0,0,.229.092l.077.015.393.077a7.807,7.807,0,0,0,1.683.17h.417a7.8,7.8,0,0,0,1.682-.17l.393-.077.077-.015a1.548,1.548,0,0,0,.232-.092.307.307,0,0,0,.077-.022.724.724,0,0,1,.661.107.676.676,0,0,1,.287.6c0,.093-.018.192-.018.3l-.022,17.539a1.077,1.077,0,0,1-.361.756,2.962,2.962,0,0,1,.826.417.993.993,0,0,1,.469.889,1.193,1.193,0,0,1-.454.939,1.7,1.7,0,0,1-.531.324l-.133.055a6.658,6.658,0,0,1-.948.3,11.224,11.224,0,0,1-2.342.25C9936.022,2307.047,9935.992,2307.047,9935.96,2307.045Zm-2.384-20.229c.01.519,0,7.249,0,11.8a5.235,5.235,0,0,0,2.3.442,6,6,0,0,0,2.526-.587c0-4.551-.01-11.128.01-11.653,0-.31.025-.626.038-.934a6.671,6.671,0,0,1-2.451.4,6.083,6.083,0,0,1-2.454-.4C9933.554,2286.189,9933.576,2286.5,9933.576,2286.815Zm-10.552,19.019c-.03,0-.055-.008-.085-.008-.008,0-.008,0-.022-.007a.1.1,0,0,1-.062-.022c-.007,0-.022-.008-.029-.008a.137.137,0,0,1-.056-.025c-.024-.015-.024-.008-.029-.008a.1.1,0,0,1-.048-.022c-.008-.008-.022-.008-.03-.022s-.029-.01-.047-.025-.022-.008-.03-.022a.187.187,0,0,0-.045-.03c-.01-.008-.024-.022-.032-.022l-.03-.032-.032-.03a.147.147,0,0,1-.03-.047c-.007-.008-.024-.022-.024-.03s-.022-.03-.03-.047-.008-.022-.022-.022c-.008-.022-.022-.03-.03-.055s-.032-.052-.047-.077-.008-.022-.008-.03a.123.123,0,0,0-.022-.06c-.008-.025-.008-.01-.008-.025a.117.117,0,0,0-.024-.062c-.008-.022,0-.007-.008-.022a.165.165,0,0,1-.007-.062v-.067l-2-15.132a.98.98,0,0,1,1.944-.25l1.865,14.316h1.782a.98.98,0,0,1,0,1.959Zm-8.1,0c-.022,0-.055-.008-.077-.008s-.025,0-.025-.007-.037-.008-.053-.008-.024-.008-.029-.008h-.018c-.008,0-.022-.007-.03-.007a.147.147,0,0,1-.055-.022.108.108,0,0,1-.045-.025c-.008-.007-.03-.007-.048-.022a.168.168,0,0,1-.045-.03c-.01-.01-.024-.01-.032-.025a.167.167,0,0,0-.053-.03c-.024-.008-.024-.008-.024-.022l-.045-.048-.022-.022a.482.482,0,0,0-.048-.047c-.022-.008-.007-.022-.022-.03a.19.19,0,0,1-.029-.047c-.008-.008-.025-.022-.025-.03a.047.047,0,0,1-.022-.047c-.008,0-.008-.03-.022-.045s-.008-.022-.022-.047a.1.1,0,0,0-.025-.045c-.007-.008-.007-.022-.007-.047a.068.068,0,0,1-.008-.055.4.4,0,0,1-.008-.045c0-.008-.007-.03-.007-.045a.55.55,0,0,1-.008-.055v-.247a.092.092,0,0,1,.008-.045c0-.025.007-.032.007-.055s0-.025.008-.03c.008-.025.008-.048.022-.062v-.008l3.51-10.367a.981.981,0,0,1,1.243-.609,1.023,1.023,0,0,1,.616,1.258l-3.077,9.076h1.288a.98.98,0,0,1,0,1.959Zm26.075-8.4v-23h-3a1,1,0,1,1,0-2h8.507l-3.672,25Zm-4.827-.03a.294.294,0,0,1-.292-.294.5.5,0,0,1-.462-.492V2294.2a.508.508,0,0,1,.491-.509h.725a.517.517,0,0,1,.5.509h0v2.421a.485.485,0,0,1-.464.492.3.3,0,0,1-.292.294Zm-.03-5.986a.291.291,0,0,1-.292-.292.509.509,0,0,1-.464-.494v-2.421a.512.512,0,0,1,.494-.509h.724a.512.512,0,0,1,.51.494l-.008.015v2.421a.486.486,0,0,1-.462.494.293.293,0,0,1-.295.292Zm-21.357-1.2-1.72-4.526a.994.994,0,0,1,.062-.849l.27-.472c1.2-2.059,2.661-4.3,4.928-5l.022-.008a3.476,3.476,0,0,1,.417-.117,13.162,13.162,0,0,1,2.908,0,3.281,3.281,0,0,1,.649.232c2.06.8,3.107,2.993,3.924,5.038l.162.392,3.383,1.208.661-.829a.476.476,0,0,1,.662-.1.294.294,0,0,1,.416-.047l.163.132a.294.294,0,0,1,.047.414.508.508,0,0,1,.053.671l-.317.4a.374.374,0,0,1-.114.165l-.061.055-1.021,1.278a.5.5,0,0,1-.694.09.4.4,0,0,1-.27-.135l-.232-.27-.024-.02-4.124-1.463-.5-1.218a8.9,8.9,0,0,0-2.1-3.532l-.008-.008a1.772,1.772,0,0,0-.9-.524,12.947,12.947,0,0,0-2.389.008,1.752,1.752,0,0,0-.687.317l-.011.008a10.08,10.08,0,0,0-3.229,3.872l-.03.055,1.518,4.086a.968.968,0,0,1-.646,1.218.939.939,0,0,1-.284.042A.981.981,0,0,1,9914.787,2290.223Zm20.132-5.684a7.622,7.622,0,0,1-1.243-.222.941.941,0,0,1-.13-.062.153.153,0,0,1-.095-.192.112.112,0,0,1,.048-.07.289.289,0,0,1,.146-.062c.348-.085.7-.155,1.057-.207.147-.025.225-.062.192-.21-.022-.207.092-.27.271-.317a4.216,4.216,0,0,1,.809-.06,3.725,3.725,0,0,1,.812.06c.185.025.285.11.27.317-.018.147.061.185.192.21.354.052.7.13,1.056.207a1.031,1.031,0,0,1,.147.063.168.168,0,0,1,.03.229.1.1,0,0,1-.03.032.341.341,0,0,1-.132.063,9.51,9.51,0,0,1-1.241.222c-.361.022-.733.055-1.081.055S9935.264,2284.571,9934.919,2284.539Zm-14.7-6.371a4.088,4.088,0,1,1,.018,0Zm-2.111-4.089a2.12,2.12,0,1,0,2.129-2.119h-.008A2.119,2.119,0,0,0,9918.112,2274.08Z" transform="translate(-16586 -10835.435)"/>
</svg>
