<svg xmlns="http://www.w3.org/2000/svg" viewBox="-3619.035 -7365.085 36.646 34.186">
  <defs>
    <style>
      .cls-1 {
        fill: #fff;
        stroke: #fff;
        stroke-width: 0.5px;
      }
    </style>
  </defs>
  <g id="icon-pilas-con-la-educacion" transform="translate(-4543.785 -7381.104)">
    <path id="education-ico" class="cls-1" d="M28.936,33.226l-.6-2.4a.6.6,0,0,1,1.168-.294l.6,2.407a.6.6,0,0,1-1.169.291Zm-2.428-.144v-1.8a.6.6,0,0,1,1.205,0v1.8a.6.6,0,0,1-1.205,0Zm-1.953.583a.6.6,0,0,1-.439-.73l.6-2.407a.6.6,0,0,1,1.168.294l-.6,2.4a.6.6,0,0,1-.583.457A.608.608,0,0,1,24.555,33.665Zm.749-5.4a1.8,1.8,0,0,1,1.2-1.692V11.756L19.632,9.195a2.919,2.919,0,0,1-1.558.428c-1.352,0-2.411-.793-2.411-1.8s1.059-1.8,2.411-1.8,2.409.792,2.409,1.8a1.439,1.439,0,0,1-.057.389l6.626,2.469,6.916-2.858L18.074,1.251,2.178,7.818l15.9,6.567,6.086-2.513a.6.6,0,1,1,.461,1.11L18.3,15.592a.6.6,0,0,1-.23.047.587.587,0,0,1-.23-.047L.372,8.375a.6.6,0,0,1,0-1.111L17.844.046a.591.591,0,0,1,.459,0L35.775,7.263a.6.6,0,0,1,0,1.111l-8.062,3.332v1.086l7.23-2.97v-.2a.6.6,0,0,1,1.2,0v.6a.6.6,0,0,1-.372.556l-8.062,3.312v7.461a6.147,6.147,0,0,0,1.2-1.817v-4.1a.6.6,0,0,1,1.205,0v4.209a.622.622,0,0,1-.032.2,7.337,7.337,0,0,1-2.377,3.115v3.415A1.8,1.8,0,1,1,25.3,28.268Zm1.2,0a.6.6,0,1,0,.6-.6A.6.6,0,0,0,26.508,28.268ZM16.869,7.818c0,.245.469.6,1.205.6s1.2-.357,1.2-.6-.469-.6-1.2-.6S16.869,7.573,16.869,7.818ZM6.067,20.073a.618.618,0,0,1-.043-.225V15.639a.6.6,0,0,1,1.205,0v4.085c.346.753,2.761,5.277,10.241,5.514v-5.39a.6.6,0,0,1,1.205,0v5.4a14.07,14.07,0,0,0,5.758-1.312.6.6,0,1,1,.533,1.077,15.481,15.481,0,0,1-6.893,1.453C8.737,26.463,6.172,20.333,6.067,20.073ZM17.844,18,.372,10.78A.6.6,0,0,1,0,10.225v-.6a.6.6,0,0,1,1.2,0v.2l16.87,6.967,6.395-2.642a.6.6,0,1,1,.462,1.111L18.3,18a.615.615,0,0,1-.459,0Z" transform="translate(925 16.273)"/>
  </g>
</svg>
