<svg xmlns="http://www.w3.org/2000/svg" viewBox="-13221.617 -4799.332 39.79 20.171"><defs><style>.a{fill:#fefff9;}</style></defs><g transform="translate(-13221.617 -4884.592)"><path class="a" d="M81.868,105.414l.044-.011.038-.01.042-.015.037-.014.039-.018.038-.018.036-.021.037-.022.037-.027.031-.023c.019-.015.036-.032.054-.048l.01-.009.009-.01c.017-.017.033-.035.048-.053s.017-.022.025-.033.017-.023.025-.035.016-.026.024-.039.014-.022.02-.033.013-.027.019-.04.012-.024.017-.036.01-.027.015-.04.01-.026.014-.039.007-.027.011-.041.007-.027.01-.041.005-.033.007-.049,0-.023,0-.035q0-.043,0-.086V86.123a.863.863,0,0,0-.863-.863h-27.2l-.049,0-.039,0-.044.007-.041.008-.041.011-.04.012-.04.015-.037.016-.04.019-.034.018-.039.024-.032.021-.036.027-.032.027-.031.028-.033.034-.016.017-.009.011c-.011.013-.021.026-.031.039l-.022.029-.026.039-.02.033c-.007.013-.014.026-.02.039s-.012.024-.018.036-.011.026-.016.04-.01.026-.014.039-.008.027-.011.04-.008.028-.011.041,0,.026-.007.039-.005.03-.007.045,0,.025,0,.038,0,.032,0,.048,0,.009,0,.014v5.322a.863.863,0,0,0,1.726,0V88.039l7.672,6.793a.872.872,0,0,0-.114.1l-7.558,7.558V96.814a.863.863,0,1,0-1.726,0v1.054H49.2a.863.863,0,1,0,0,1.726h4.458v4.974a.863.863,0,0,0,.863.863H81.7c.028,0,.057,0,.085,0l.039-.006Zm-1.031-2.93-7.558-7.558-.015-.013,5.682-4.82a.863.863,0,1,0-1.117-1.316L68.12,97.014,56.794,86.986H80.836ZM64.158,96.147a.86.86,0,0,0,.15-.2L67.536,98.8a.863.863,0,0,0,1.13.012l3.289-2.791a.866.866,0,0,0,.1.124l7.558,7.558H56.6Z" transform="translate(-42.772)"/><path class="a" d="M.863,157.4H15.437a.863.863,0,1,0,0-1.726H.863a.863.863,0,1,0,0,1.726Z" transform="translate(0 -62.314)"/><path class="a" d="M13.988,116.071h6.544a.863.863,0,0,0,0-1.726H13.988a.863.863,0,0,0,0,1.726Z" transform="translate(-11.615 -25.739)"/><path class="a" d="M7.191,226.51H.863a.863.863,0,1,0,0,1.726H7.191a.863.863,0,1,0,0-1.726Z" transform="translate(0 -124.998)"/></g></svg>