<svg xmlns="http://www.w3.org/2000/svg" viewBox="2877.935 25.693 29.205 27.45"><defs><style>.a{fill:#fff;stroke:#fff;stroke-width:0.5px;}</style></defs><g transform="translate(2248.188 8.943)"><path class="a" d="M.572,26.95a.633.633,0,0,1-.209-.04.559.559,0,0,1-.324-.726l3.389-8.417a.57.57,0,0,1,.533-.357H9.176A.562.562,0,0,1,9.745,18a.584.584,0,0,1-.593.521H8.4a2.765,2.765,0,0,0-.2,2.335c.5.954,2.024,1.247,3.2,1.329.941.058,1.868.106,2.767.147a31.063,31.063,0,0,1,6.455.7c1.778.509,2.755,1.452,2.911,2.8h3.724l-3.5-7.317H18.942a.563.563,0,0,1-.569-.591.584.584,0,0,1,.593-.521H24.1a.574.574,0,0,1,.52.322l4.024,8.417a.562.562,0,0,1-.52.8Zm.809-1.111H22.374c-.15-.825-.79-1.364-2.066-1.727a30.467,30.467,0,0,0-6.185-.661c-.911-.041-1.845-.082-2.791-.147-2.149-.146-3.544-.8-4.149-1.937a3.5,3.5,0,0,1-.018-2.845H4.326Zm12.269-4.655c-.3-.31-7.347-7.568-7.347-13.328a7.761,7.761,0,1,1,15.521,0c0,5.73-7.048,13.019-7.348,13.323a.576.576,0,0,1-.413.176A.594.594,0,0,1,13.649,21.183ZM7.452,7.855c0,4.555,5.1,10.454,6.61,12.106,1.509-1.651,6.611-7.582,6.611-12.106a6.612,6.612,0,1,0-13.221,0Zm2.875.293a3.737,3.737,0,0,1,7.473,0,3.737,3.737,0,0,1-7.473,0Zm1.149,0a2.587,2.587,0,1,0,2.587-2.529A2.555,2.555,0,0,0,11.476,8.148Z" transform="translate(630 17)"/></g></svg>