<svg xmlns="http://www.w3.org/2000/svg" viewBox="-13679.278 -4208.317 25.641 59.952"><defs><style>.a{fill:#ffae41;}</style></defs><path class="a" d="M14533.069,4886.768v-50.795a1.211,1.211,0,0,1-.07-.4c0-1.571,2.707-2.983,6.684-3.654.552-.09,1.131-.184,1.713-.253.2-.022.388-.047.6-.069h.022a9.312,9.312,0,0,1,3.792-.6,9.666,9.666,0,0,1,3.769.6l-.022-.025h.022l.6.072c.6.069,1.18.161,1.707.254,4,.692,6.707,2.079,6.707,3.675v.095c.024,0,.046-.048.046-.116v51.211c0,2.31-5.711,4.186-12.784,4.186S14533.069,4889.078,14533.069,4886.768Zm2.405-1.481c0,1,3.7,2.962,10.5,2.962s10.5-1.966,10.5-2.962v-28.6c-2.245,1.572-6.687,2.289-10.451,2.289-3.837,0-8.324-.738-10.543-2.335Zm.067-31.4c1.365,1.528,5.594,2.636,10.476,2.636,4.784,0,8.948-1.065,10.38-2.542v-16.047a2.918,2.918,0,0,1-.045.463c-1.711,1.387-5.737,2.358-10.4,2.358s-8.672-.739-10.407-2.125v15.258Zm.766-18.681c0,1.734,4.254,3.122,9.525,3.122,5.246,0,9.522-1.387,9.522-3.122,0-1.2-2.079-2.241-5.107-2.774l.669,1.062v.025l.068.159c0,.047.027.094.027.163,0,.949-2.338,1.713-5.2,1.713s-5.2-.764-5.2-1.713v-.163l.116-.159v-.025l.624-1.062C14538.315,4832.967,14536.26,4834.007,14536.308,4835.208Zm5.729-2.751c0,.047.072.094.164.163h.027a8.6,8.6,0,0,0,3.581.554c2.5,0,3.769-.506,3.769-.716s-1.294-.717-3.769-.717S14542.037,4832.225,14542.037,4832.457Zm1.24,44.271v-2.4h4.8v2.4Zm1.544-24.157v-2.742h-2.743v-2.4h2.743v-2.743h2.4v2.743h2.742v2.4h-2.742v2.742Z" transform="translate(-28212.277 -9039.318)"/></svg>