<svg xmlns="http://www.w3.org/2000/svg" xmlns:xlink="http://www.w3.org/1999/xlink" viewBox="3275.809 1397.884 34.566 34.179"><defs><style>.a{fill:none;}.b{clip-path:url(#a);}.c{clip-path:url(#b);}.d{fill:#1da0f1;}</style><clipPath id="a"><path class="a" d="M1036.283-277A17.188,17.188,0,0,0,1019-259.911a17.188,17.188,0,0,0,17.283,17.089,17.188,17.188,0,0,0,17.283-17.089A17.188,17.188,0,0,0,1036.283-277Zm5.911,14.64a8.539,8.539,0,0,1-8.638,8.94,8.672,8.672,0,0,1-4.659-1.351,6.164,6.164,0,0,0,4.5-1.244,3.042,3.042,0,0,1-2.84-2.088,3.082,3.082,0,0,0,1.374-.051,3.017,3.017,0,0,1-2.438-2.985,3.057,3.057,0,0,0,1.377.376,2.991,2.991,0,0,1-.941-4.013,8.662,8.662,0,0,0,6.265,3.14,3.017,3.017,0,0,1,2.962-3.69,3.054,3.054,0,0,1,2.218.949,6.1,6.1,0,0,0,1.93-.729,3.024,3.024,0,0,1-1.336,1.663,6.125,6.125,0,0,0,1.745-.474,6.061,6.061,0,0,1-1.517,1.558Z" transform="translate(-1019 277)"/></clipPath><clipPath id="b"><path class="a" d="M0-20.787H1349.068V-1677H0Z" transform="translate(0 1677)"/></clipPath></defs><g class="b" transform="translate(3275.809 1397.884)"><g class="c" transform="translate(-1006.369 -1382.646)"><path class="d" d="M1014-237.945h44.442V-282H1014Z" transform="translate(-12.569 1659.708)"/></g></g></svg>