<svg xmlns="http://www.w3.org/2000/svg" viewBox="-3419 -5651 118.02 128.452">
  <defs>
    <style>
      .cls-1 {
        fill: #687f82;
      }

      .cls-2 {
        fill: #365558;
      }

      .cls-3 {
        fill: #cdd4d5;
      }

      .cls-4 {
        fill: #9baaab;
      }

      .cls-5 {
        fill: #ff8c29;
      }

      .cls-6 {
        fill: #fd6a33;
      }

      .cls-7 {
        fill: #f0353d;
      }

      .cls-8 {
        fill: #ffd1a9;
      }

      .cls-9 {
        fill: #4acfd9;
      }

      .cls-10 {
        fill: #0295aa;
      }

      .cls-11 {
        fill: #fff;
      }
    </style>
  </defs>
  <g id="compass" transform="translate(-3419 -5651)">
    <path id="Path_7490" data-name="Path 7490" class="cls-1" d="M126.477,250.322a2.113,2.113,0,0,1-.273-4.207c2.724-.359,5.46-.842,8.135-1.435a2.113,2.113,0,1,1,.915,4.125c-2.794.62-5.653,1.125-8.5,1.5A2.183,2.183,0,0,1,126.477,250.322Zm16.475-3.657a2.113,2.113,0,0,1-.636-4.127c2.614-.827,5.224-1.78,7.759-2.834a2.112,2.112,0,0,1,1.622,3.9c-2.648,1.1-5.376,2.1-8.107,2.961A2.106,2.106,0,0,1,142.952,246.665Zm15.583-6.479a2.113,2.113,0,0,1-.98-3.985c2.43-1.271,4.835-2.665,7.147-4.143a2.112,2.112,0,0,1,2.277,3.559c-2.415,1.545-4.927,3-7.465,4.328A2.105,2.105,0,0,1,158.535,240.186Zm14.216-9.092a2.113,2.113,0,0,1-1.29-3.787c2.174-1.673,4.3-3.463,6.323-5.319a2.113,2.113,0,1,1,2.858,3.112c-2.112,1.939-4.334,3.808-6.6,5.555A2.1,2.1,0,0,1,172.752,231.094Zm12.43-11.413a2.113,2.113,0,0,1-1.557-3.539c1.853-2.023,3.64-4.153,5.311-6.33a2.113,2.113,0,0,1,3.352,2.573c-1.745,2.274-3.612,4.5-5.547,6.611A2.107,2.107,0,0,1,185.182,219.681Zm10.276-13.388a2.113,2.113,0,0,1-1.779-3.248c1.477-2.316,2.869-4.723,4.135-7.154a2.113,2.113,0,0,1,3.747,1.953c-1.323,2.539-2.777,5.053-4.319,7.472A2.111,2.111,0,0,1,195.457,206.293Zm7.8-14.967a2.114,2.114,0,0,1-1.951-2.922c1.05-2.535,2-5.147,2.824-7.763a2.113,2.113,0,0,1,4.03,1.268c-.861,2.734-1.853,5.463-2.951,8.112A2.112,2.112,0,0,1,203.258,191.327Zm5.07-16.1a2.115,2.115,0,0,1-2.065-2.568c.59-2.674,1.07-5.412,1.425-8.137a2.113,2.113,0,0,1,4.19.546c-.371,2.846-.872,5.706-1.488,8.5A2.115,2.115,0,0,1,208.327,175.229Z" transform="translate(-98.382 -121.87)"/>
    <path id="Path_7491" data-name="Path 7491" class="cls-2" d="M81.285,457.85a2.112,2.112,0,0,1-2.112-2.112v-13.52a2.112,2.112,0,0,1,4.225,0v13.52A2.112,2.112,0,0,1,81.285,457.85Z" transform="translate(-64.526 -329.69)"/>
    <path id="Path_7492" data-name="Path 7492" class="cls-3" d="M72.336,157.18H63.322a2.112,2.112,0,0,0-2.112,2.112v70.981a2.112,2.112,0,0,0,2.112,2.112h9.013a2.112,2.112,0,0,0,2.112-2.112V159.292A2.112,2.112,0,0,0,72.336,157.18Z" transform="translate(-51.07 -117.746)"/>
    <path id="Path_7493" data-name="Path 7493" class="cls-1" d="M72.336,0H63.322A2.112,2.112,0,0,0,61.21,2.112v20.28A2.112,2.112,0,0,0,63.322,24.5h9.013a2.112,2.112,0,0,0,2.112-2.112V2.112A2.112,2.112,0,0,0,72.336,0Z" transform="translate(-51.07)"/>
    <path id="Path_7494" data-name="Path 7494" class="cls-4" d="M63.322,157.18a2.112,2.112,0,0,0-2.112,2.112v70.981a2.112,2.112,0,0,0,2.112,2.112h4.507V157.18Z" transform="translate(-51.07 -117.746)"/>
    <path id="Path_7495" data-name="Path 7495" class="cls-2" d="M63.322,0A2.112,2.112,0,0,0,61.21,2.112v20.28A2.112,2.112,0,0,0,63.322,24.5h4.507V0Z" transform="translate(-51.07)"/>
    <path id="Path_7496" data-name="Path 7496" class="cls-5" d="M205.154,90.2l-13.52-9.013a2.113,2.113,0,0,0-1.172-.355H112.721a2.112,2.112,0,0,0-2.112,2.112v18.027a2.112,2.112,0,0,0,2.112,2.112h77.741a2.113,2.113,0,0,0,1.172-.355l13.52-9.013a2.112,2.112,0,0,0,0-3.515Z" transform="translate(-88.075 -60.555)"/>
    <path id="Path_7497" data-name="Path 7497" class="cls-6" d="M110.609,134.195a2.112,2.112,0,0,0,2.112,2.112h77.741a2.113,2.113,0,0,0,1.172-.355l13.52-9.013a2.112,2.112,0,0,0,.941-1.758H110.609v9.014Z" transform="translate(-88.075 -93.775)"/>
    <path id="Path_7498" data-name="Path 7498" class="cls-7" d="M190.462,120.988H112.721a2.112,2.112,0,1,1,0-4.225h77.741a2.112,2.112,0,0,1,0,4.225Z" transform="translate(-88.075 -87.469)"/>
    <path id="Path_7499" data-name="Path 7499" class="cls-8" d="M443.59,90.217,430.07,81.2a2.105,2.105,0,0,0-1.172-.35V103.1a2.112,2.112,0,0,0,1.172-.355l13.52-9.013a2.112,2.112,0,0,0,0-3.515Z" transform="translate(-326.511 -60.568)"/>
    <path id="Path_7500" data-name="Path 7500" class="cls-2" d="M473.868,109.116l-4.552-3.035v9.584l4.552-3.035a2.112,2.112,0,0,0,0-3.515Z" transform="translate(-356.789 -79.467)"/>
    <path id="Path_7501" data-name="Path 7501" class="cls-9" d="M37.551,58.381A16.759,16.759,0,1,0,54.31,75.14,16.778,16.778,0,0,0,37.551,58.381Z" transform="translate(-20.792 -43.734)"/>
    <path id="Path_7502" data-name="Path 7502" class="cls-10" d="M37.551,58.381a16.759,16.759,0,1,0,0,33.518Z" transform="translate(-20.792 -43.734)"/>
    <path id="Path_7503" data-name="Path 7503" class="cls-11" d="M81.285,110.928a2.112,2.112,0,1,1,0-4.225,4.084,4.084,0,1,0,0-8.168,2.112,2.112,0,1,1,0-4.225,8.309,8.309,0,1,1,0,16.618Z" transform="translate(-64.526 -70.649)"/>
  </g>
</svg>
