<svg xmlns="http://www.w3.org/2000/svg" viewBox="-3254 -6777.642 177 256.642">
  <defs>
    <style>
      .cls-1 {
        fill: #293133;
      }

      .cls-2 {
        fill: #fccda2;
      }

      .cls-3, .cls-5 {
        fill: #333;
      }

      .cls-3 {
        opacity: 0.15;
      }

      .cls-4 {
        fill: #f4c49d;
      }

      .cls-5 {
        opacity: 0.1;
      }

      .cls-6 {
        fill: #1c2223;
      }

      .cls-7 {
        fill: #224973;
      }

      .cls-8 {
        fill: #fff9f2;
      }

      .cls-9 {
        fill: #f9a;
      }

      .cls-10 {
        fill: #ff8095;
      }

      .cls-11 {
        fill: #26150c;
      }

      .cls-12 {
        fill: #ffae41;
      }

      .cls-13 {
        font-size: 20px;
        font-family: SegoeUI-Bold, Segoe UI;
        font-weight: 700;
      }
    </style>
  </defs>
  <g id="Group_5390" data-name="Group 5390" transform="translate(-3811 -7484)">
    <g id="Group_5389" data-name="Group 5389" transform="translate(1)">
      <g id="student_1_" data-name="student (1)" transform="translate(571 706.359)">
        <rect id="Rectangle_1209" data-name="Rectangle 1209" class="cls-1" width="53.201" height="46.439" transform="translate(9.555 37.982)"/>
        <rect id="Rectangle_1210" data-name="Rectangle 1210" class="cls-2" width="14.701" height="16.665" transform="translate(28.805 61.584)"/>
        <path id="Path_7447" data-name="Path 7447" class="cls-3" d="M222.412,289.336a31.31,31.31,0,0,0,14.7,0V278.38h-14.7v10.956Z" transform="translate(-193.607 -217.452)"/>
        <g id="Group_5379" data-name="Group 5379" transform="translate(1.776 33.13)">
          <path id="Path_7448" data-name="Path 7448" class="cls-4" d="M107.444,151.37a8.53,8.53,0,0,0-8.53,8.53h0a8.53,8.53,0,0,0,8.53,8.53h3.915V151.37Z" transform="translate(-98.914 -151.37)"/>
          <path id="Path_7449" data-name="Path 7449" class="cls-4" d="M360.141,151.37a8.53,8.53,0,0,1,8.53,8.53h0a8.53,8.53,0,0,1-8.53,8.53h-3.915V151.37Z" transform="translate(-299.909 -151.37)"/>
        </g>
        <path id="Path_7450" data-name="Path 7450" class="cls-2" d="M134.465,73.556v13.8a26.6,26.6,0,0,0,26.6,26.6h0a26.6,26.6,0,0,0,26.6-26.6v-13.8c0-7.345-13.3-15.683-26.6-15.683S134.465,66.21,134.465,73.556Z" transform="translate(-124.908 -45.207)"/>
        <path id="Path_7451" data-name="Path 7451" class="cls-5" d="M139.362,87.356v-13.8c0-6.894,11.715-14.662,24.151-15.59q-1.221-.091-2.449-.093c-13.3,0-26.6,8.337-26.6,15.683v13.8a26.6,26.6,0,0,0,26.6,26.6h0c.826,0,1.643-.04,2.449-.113A26.6,26.6,0,0,1,139.362,87.356Z" transform="translate(-124.907 -45.207)"/>
        <path id="Path_7452" data-name="Path 7452" class="cls-1" d="M161.065,7.993h0a26.6,26.6,0,0,0-26.6,26.6v4.781c21.683-3.871,26.6-17.985,26.6-17.985s4.916,14.114,26.6,17.985V34.593A26.6,26.6,0,0,0,161.065,7.993Z" transform="translate(-124.908 -6.244)"/>
        <path id="Path_7453" data-name="Path 7453" class="cls-6" d="M139.363,34.591A26.6,26.6,0,0,1,163.514,8.1c-.807-.074-1.623-.113-2.449-.113h0a26.6,26.6,0,0,0-26.6,26.6v4.781c1.739-.31,3.369-.687,4.9-1.117V34.591Z" transform="translate(-124.908 -6.242)"/>
        <path id="Path_7454" data-name="Path 7454" class="cls-7" d="M147.621,346.863H118.97a20.055,20.055,0,0,0-20.055,20.055v14.338h68.761V366.918A20.055,20.055,0,0,0,147.621,346.863Z" transform="translate(-97.139 -270.947)"/>
        <g id="Group_5380" data-name="Group 5380" transform="translate(1.776 75.916)">
          <path id="Path_7455" data-name="Path 7455" class="cls-8" d="M111.359,353.713a20.058,20.058,0,0,0-12.444,18.556v14.338h12.444Z" transform="translate(-98.915 -352.214)"/>
          <path id="Path_7456" data-name="Path 7456" class="cls-8" d="M356.228,353.713a20.058,20.058,0,0,1,12.444,18.556v14.338H356.228Z" transform="translate(-299.911 -352.214)"/>
          <path id="Path_7457" data-name="Path 7457" class="cls-8" d="M193.883,371.526,211.289,347.1a20.194,20.194,0,0,0-3.081-.236h-28.65a20.237,20.237,0,0,0-3.079.235Z" transform="translate(-159.502 -346.863)"/>
        </g>
        <path id="Path_7458" data-name="Path 7458" class="cls-9" d="M241.834,346.863l2.731,3.731-2.731,4.772h-3.44l-2.731-4.772,2.731-3.731Z" transform="translate(-203.957 -270.947)"/>
        <path id="Path_7459" data-name="Path 7459" class="cls-10" d="M245.363,396.062l-2.421-10.347H239.5l-2.421,10.347,4.141,5.812Z" transform="translate(-205.066 -301.295)"/>
        <g id="Group_5381" data-name="Group 5381" transform="translate(0)">
          <ellipse id="Ellipse_159" data-name="Ellipse 159" class="cls-11" cx="3.444" cy="3.444" rx="3.444" ry="3.444" transform="translate(20.216 34.538)"/>
          <ellipse id="Ellipse_160" data-name="Ellipse 160" class="cls-11" cx="3.444" cy="3.444" rx="3.444" ry="3.444" transform="translate(45.157 34.538)"/>
          <path id="Path_7460" data-name="Path 7460" class="cls-11" d="M163.024,95.04a23.7,23.7,0,0,0-1-5.729,21.785,21.785,0,0,0-6.745-10.044V51.63a10.275,10.275,0,0,0,0-19.936V28.349a28.349,28.349,0,1,0-56.7,0v3.344a10.275,10.275,0,0,0,0,19.936V79.267c0,.253-1.422,1.3-1.65,1.533a21.679,21.679,0,0,0-4.146,6.06C90.918,90.932,90.8,95.122,90.8,99.507v10.8a1.749,1.749,0,0,0,1.749,1.749H161.31a1.749,1.749,0,0,0,1.749-1.749v-6.955C163.06,100.6,163.2,97.8,163.024,95.04Zm-7.745-52.887h0V35.361a6.774,6.774,0,0,1,0,12.6Zm-53.2-13.8a24.85,24.85,0,1,1,49.7,0V31q-.335-.074-.664-.152a38.738,38.738,0,0,1-15.992-7.734,18.7,18.7,0,0,1-1.634-1.5,21.727,21.727,0,0,1-4.909-7.036,1.746,1.746,0,0,0-3.272-.073c-.009.022-.021.043-.03.066a18.12,18.12,0,0,1-2.352,4.068l-.009.012-.119.159a29.091,29.091,0,0,1-7.777,7.049l-.127.08-.233.143A41.507,41.507,0,0,1,102.079,31V28.349Zm0,9.632V34.575c.116-.024.229-.05.344-.074,9.126-1.943,18.349-6.609,23.777-14.428.269-.388.511-.759.729-1.109a28.83,28.83,0,0,0,3.92,4.948,38.264,38.264,0,0,0,15.16,9.146,51.035,51.035,0,0,0,5.43,1.444c.114.024.226.05.341.074v6.7a26.383,26.383,0,0,1-3.034,12.758,25.1,25.1,0,0,1-7.322,8.285,24.782,24.782,0,0,1-29,0,25.1,25.1,0,0,1-6.552-6.98,24.818,24.818,0,0,1-3.618-10.206A60.013,60.013,0,0,1,102.079,37.981ZM127.635,82.67h-1.411l-1.663-2.906,1.536-2.1h1.665l1.536,2.1ZM129.187,94.4l-2.257,3.168L124.673,94.4l1.924-8.227h.665Zm-.537-20.229h-7.322V69.944c0,.309,4.57.538,5,.547a28.541,28.541,0,0,0,6.2-.547v4.223Zm-7.689,6.35,2.389,4.174L121.968,90.6l-9.216-12.934h9.01l-.695.949A1.749,1.749,0,0,0,120.961,80.517Zm11.832-1.9-.695-.949h9.011L131.892,90.6l-1.383-5.91,2.389-4.174A1.75,1.75,0,0,0,132.793,78.615ZM94.3,41.659a6.834,6.834,0,0,1,4.282-6.3v12.6A6.788,6.788,0,0,1,94.3,41.659Zm8.945,66.9H94.3V95.972c0-.283.009-.563.021-.842q0-.093.009-.186c.016-.281.036-.561.064-.838l0-.014c.03-.288.067-.575.11-.859l.011-.076a18.323,18.323,0,0,1,7.119-11.83l.057-.042q.33-.245.67-.476l.027-.018c.279-.189.566-.368.856-.541v28.312Zm-1.165-31.688V55.783c.023.042.048.083.071.125A28.742,28.742,0,0,0,117.829,69v5.166a59.851,59.851,0,0,0-8.319.218,21.484,21.484,0,0,0-3.9.925C105.192,75.452,102.079,76.451,102.079,76.872Zm45.038,31.688H106.743V78.634a18.23,18.23,0,0,1,2.007-.556l16.757,23.517a1.749,1.749,0,0,0,1.425.734h0c.051,0,.1,0,.152-.009.019,0,.039,0,.058,0,.041,0,.081-.014.121-.022s.056-.009.084-.015.039-.012.058-.018c.047-.013.094-.026.14-.043l.01,0a1.747,1.747,0,0,0,.8-.619l16.756-23.516a18.082,18.082,0,0,1,2.005.556v29.927h0Zm-3.345-34.224a38.611,38.611,0,0,0-4.015-.169h-3.727V69c.095-.032.189-.067.283-.1l.23-.081a28.71,28.71,0,0,0,14.719-12.139l.116-.2q.173-.294.339-.593c.021-.037.042-.073.063-.11V76.872c0-.267-2.128-1.034-2.41-1.147a21.431,21.431,0,0,0-2.812-.91A20.163,20.163,0,0,0,143.773,74.336Zm15.789,34.224h-8.946V80.248c.29.173.575.351.854.54l.031.021q.338.229.665.473l.061.046a18.323,18.323,0,0,1,7.117,11.829c0,.025.007.051.011.077.043.284.08.571.11.859l0,.014c.028.277.048.557.064.838,0,.062.006.124.009.186.013.279.021.56.021.842v12.589Z" transform="translate(-90.8)"/>
          <path id="Path_7461" data-name="Path 7461" class="cls-11" d="M207.682,227.6a1.749,1.749,0,0,0,.4,2.441c2.238,1.6,5.936,2.562,9.891,2.562s7.65-.957,9.888-2.561a1.749,1.749,0,1,0-2.038-2.844c-1.641,1.176-4.65,1.906-7.851,1.906s-6.212-.731-7.852-1.907A1.749,1.749,0,0,0,207.682,227.6Z" transform="translate(-181.845 -177.214)"/>
        </g>
      </g>
      <g id="student" transform="translate(645.633 706.359)">
        <g id="Group_5382" data-name="Group 5382" transform="translate(1.772 33.13)">
          <path id="Path_7462" data-name="Path 7462" class="cls-4" d="M107.446,151.37a8.53,8.53,0,0,0-8.53,8.53h0a8.53,8.53,0,0,0,8.53,8.53h3.915V151.37Z" transform="translate(-98.916 -151.37)"/>
          <path id="Path_7463" data-name="Path 7463" class="cls-4" d="M360.143,151.37a8.53,8.53,0,0,1,8.53,8.53h0a8.53,8.53,0,0,1-8.53,8.53h-3.915V151.37Z" transform="translate(-299.911 -151.37)"/>
          <rect id="Rectangle_1211" data-name="Rectangle 1211" class="cls-4" width="14.701" height="16.665" transform="translate(27.029 28.454)"/>
        </g>
        <path id="Path_7464" data-name="Path 7464" class="cls-3" d="M222.414,289.335a31.309,31.309,0,0,0,14.7,0V278.379h-14.7v10.956Z" transform="translate(-193.612 -217.451)"/>
        <path id="Path_7465" data-name="Path 7465" class="cls-2" d="M136.616,81.279a26.513,26.513,0,0,0-2.15,10.495v13.8a26.6,26.6,0,0,0,26.6,26.6h0a26.6,26.6,0,0,0,26.6-26.6v-13.8A26.513,26.513,0,0,0,185.479,81.2Z" transform="translate(-124.913 -63.424)"/>
        <path id="Path_7466" data-name="Path 7466" class="cls-7" d="M147.623,346.863h-28.65a20.055,20.055,0,0,0-20.055,20.055v14.338h68.761V366.918A20.055,20.055,0,0,0,147.623,346.863Z" transform="translate(-97.145 -270.947)"/>
        <g id="Group_5383" data-name="Group 5383" transform="translate(1.772 75.916)">
          <path id="Path_7467" data-name="Path 7467" class="cls-8" d="M111.361,353.713a20.058,20.058,0,0,0-12.444,18.556v14.338h12.444Z" transform="translate(-98.917 -352.214)"/>
          <path id="Path_7468" data-name="Path 7468" class="cls-8" d="M356.23,353.713a20.058,20.058,0,0,1,12.444,18.556v14.338H356.23Z" transform="translate(-299.913 -352.214)"/>
          <path id="Path_7469" data-name="Path 7469" class="cls-8" d="M193.885,371.526,211.291,347.1a20.194,20.194,0,0,0-3.081-.236h-28.65a20.236,20.236,0,0,0-3.079.235Z" transform="translate(-159.504 -346.863)"/>
        </g>
        <path id="Path_7470" data-name="Path 7470" class="cls-9" d="M241.836,346.863l2.731,3.731-2.731,4.772H238.4l-2.731-4.772,2.731-3.731Z" transform="translate(-203.963 -270.947)"/>
        <path id="Path_7471" data-name="Path 7471" class="cls-10" d="M245.365,396.062l-2.421-10.347H239.5l-2.42,10.347,4.141,5.812Z" transform="translate(-205.072 -301.295)"/>
        <path id="Path_7472" data-name="Path 7472" class="cls-1" d="M163.352,7.993h0a26.609,26.609,0,0,0-25.959,20.78,5.321,5.321,0,0,0,10-2.532,5.32,5.32,0,0,0,10.64,0,5.32,5.32,0,0,0,10.64,0,5.32,5.32,0,1,0,10.64,0,5.321,5.321,0,0,0,10,2.532A26.608,26.608,0,0,0,163.352,7.993Z" transform="translate(-127.2 -6.244)"/>
        <path id="Path_7473" data-name="Path 7473" class="cls-5" d="M136.616,81.577a26.512,26.512,0,0,0-2.15,10.495v13.8a26.6,26.6,0,0,0,26.6,26.6h0c.826,0,1.642-.04,2.449-.113a26.6,26.6,0,0,1-24.151-26.487v-13.8a26.513,26.513,0,0,1,2.15-10.495Z" transform="translate(-124.913 -63.723)"/>
        <path id="Path_7474" data-name="Path 7474" class="cls-6" d="M142.29,28.773A26.616,26.616,0,0,1,165.8,8.106c-.807-.074-1.623-.113-2.449-.113h0a26.609,26.609,0,0,0-25.959,20.78,4.954,4.954,0,0,0,4.452,2.77Z" transform="translate(-127.199 -6.244)"/>
        <g id="Group_5384" data-name="Group 5384" transform="translate(0)">
          <ellipse id="Ellipse_161" data-name="Ellipse 161" class="cls-11" cx="3.444" cy="3.444" rx="3.444" ry="3.444" transform="translate(20.257 34.538)"/>
          <ellipse id="Ellipse_162" data-name="Ellipse 162" class="cls-11" cx="3.444" cy="3.444" rx="3.444" ry="3.444" transform="translate(45.2 34.538)"/>
          <path id="Path_7475" data-name="Path 7475" class="cls-11" d="M162.994,95.046a22.885,22.885,0,0,0-2.237-8.972,21.977,21.977,0,0,0-10.874-10.113c-4.47-1.925-9.03-1.794-13.79-1.794V69a28.492,28.492,0,0,0,17.518-17.094,10.274,10.274,0,0,0,1.73-20.213V28.349a28.474,28.474,0,0,0-.668-6.135l-.014-.065a28.355,28.355,0,0,0-55.335,0l-.011.052a28.474,28.474,0,0,0-.67,6.145v3.345a10.274,10.274,0,0,0,1.73,20.213A28.492,28.492,0,0,0,117.89,69v5.166c-3.455,0-6.933-.213-10.317.622A21.857,21.857,0,0,0,90.825,96.62c.1,4.233.035,8.477.035,12.714v.976a1.749,1.749,0,0,0,1.749,1.749h68.761a1.749,1.749,0,0,0,1.749-1.749V102C163.121,99.668,163.154,97.339,162.994,95.046Zm-8.25-47.1c.848-4.079.6-8.284.6-12.426a.911.911,0,0,0,0-.16,6.777,6.777,0,0,1-.645,12.821C154.713,48.1,154.728,48.025,154.744,47.947ZM94.36,41.659a6.832,6.832,0,0,1,4.282-6.3c0,4.192-.265,8.453.6,12.586.016.078.031.157.048.235A6.793,6.793,0,0,1,94.36,41.659Zm8.945,66.9H94.36V95.972c0-.283.009-.563.021-.842,0-.062.006-.124.009-.186.016-.281.036-.561.064-.838l0-.014c.03-.288.067-.575.11-.859l.011-.077a18.346,18.346,0,0,1,8.729-12.908Zm37.865-30.895L131.954,90.6l-1.383-5.91,2.389-4.174a1.749,1.749,0,0,0-.107-1.9l-.695-.949h9.012Zm-13.474,5h-1.411l-1.663-2.906,1.536-2.1h1.665l1.536,2.1ZM129.249,94.4l-2.257,3.168-1.661-2.332-.6-.837,1.924-8.227h.665Zm-.537-20.229H121.39V69.945c.18.036.36.069.54.1a28.62,28.62,0,0,0,10.664-.1v4.222ZM111.35,9.039a24.857,24.857,0,0,1,39.725,13.167l-.022.028A3.6,3.6,0,0,1,144.7,20a1.749,1.749,0,0,0-3.5,0,3.571,3.571,0,0,1-7.142,0,1.749,1.749,0,0,0-3.5,0,3.57,3.57,0,1,1-7.141,0,1.749,1.749,0,1,0-3.5,0,3.571,3.571,0,0,1-7.142,0,1.749,1.749,0,1,0-3.5,0,3.564,3.564,0,0,1-1.047,2.524,3.639,3.639,0,0,1-5.306-.288l-.022-.028A24.968,24.968,0,0,1,111.35,9.039Zm-8.2,40.018q-.159-.536-.293-1.079c-1.178-4.77-.711-9.936-.711-14.813V28.349q0-1.1.1-2.195a7.14,7.14,0,0,0,4.878.772,7.053,7.053,0,0,0,2.193-.845c.164-.1,1.839-1.3,1.723-1.434a7.061,7.061,0,0,0,10.64,0,7.059,7.059,0,0,0,10.64,0,7.06,7.06,0,0,0,10.64,0c-.109.124,1.493,1.294,1.65,1.389a7.048,7.048,0,0,0,2.093.852,7.148,7.148,0,0,0,5.051-.735c.064.729.1,1.462.1,2.195v4.815c0,8.637.392,17.136-5.324,24.242a25.841,25.841,0,0,1-17.772,9.408,24.165,24.165,0,0,1-12.709-2.363A25.282,25.282,0,0,1,103.145,49.057Zm16.5,28.609h2.183l-.695.949a1.749,1.749,0,0,0-.107,1.9l2.389,4.174L122.03,90.6l-9.216-12.934h6.827Zm27.538,30.895H106.8V78.634a18.2,18.2,0,0,1,2.007-.556l14.415,20.23,2.342,3.286a1.751,1.751,0,0,0,1.425.734h0c.051,0,.1,0,.152-.009.019,0,.039,0,.058,0,.041,0,.081-.014.121-.022s.056-.009.084-.015.034-.011.051-.016a1.747,1.747,0,0,0,.958-.668l16.756-23.516a18.1,18.1,0,0,1,2.005.556v29.926h0Zm12.444,0h-8.945V80.248a18.345,18.345,0,0,1,8.728,12.908c0,.025.007.051.011.077.043.284.08.571.109.859l0,.014c.028.277.048.557.064.838,0,.062.006.124.009.186.013.279.021.56.021.842v12.589Z" transform="translate(-90.82)"/>
          <path id="Path_7476" data-name="Path 7476" class="cls-11" d="M228.074,230.041a1.749,1.749,0,1,0-2.038-2.844c-1.641,1.176-4.65,1.906-7.851,1.906s-6.212-.731-7.852-1.907a1.749,1.749,0,0,0-2.039,2.844c2.238,1.6,5.935,2.562,9.891,2.562S225.836,231.644,228.074,230.041Z" transform="translate(-182.013 -177.215)"/>
        </g>
      </g>
    </g>
    <g id="lace" transform="translate(510.079 810)">
      <path id="Path_7486" data-name="Path 7486" class="cls-12" d="M225.188,8.258H55.179V156.323l85-37.755,85,37.755Z" transform="translate(-4.763 -5.79)"/>
      <path id="Path_7489" data-name="Path 7489" d="M220.426,0H50.416c-1.931,0-3.5,1.1-3.5,2.468V150.532a2.492,2.492,0,0,0,1.806,2.16,4.78,4.78,0,0,0,3.551-.071l83.143-36.928,83.143,36.928a4.628,4.628,0,0,0,1.862.379,4.677,4.677,0,0,0,1.69-.308,2.492,2.492,0,0,0,1.806-2.16V2.468C223.921,1.1,222.356,0,220.426,0Zm-3.5,146.064-79.648-35.376a4.764,4.764,0,0,0-3.722,0L53.912,146.064V4.935H216.929V146.064Z"/>
    </g>
    <text id="PASOS_DE_UN_ESTUDIANTE_PILOSO" data-name="PASOS DE UN ESTUDIANTE PILOSO" class="cls-13" transform="translate(573 837)"><tspan x="7.778" y="22">PASOS DE UN </tspan><tspan x="11.826" y="44">ESTUDIANTE </tspan><tspan x="37.554" y="66">PILOSO</tspan></text>
  </g>
</svg>
