<svg xmlns="http://www.w3.org/2000/svg" viewBox="-2926 -6707.83 142.958 122.478">
  <defs>
    <style>
      .cls-1 {
        fill: #00b3e3;
      }

      .cls-2 {
        opacity: 0.1;
      }

      .cls-3 {
        fill: #d1d3d3;
      }

      .cls-4 {
        fill: #a4a9ad;
      }

      .cls-5 {
        fill: #333e48;
      }

      .cls-6 {
        fill: #fff;
      }

      .cls-7 {
        opacity: 0.2;
      }

      .cls-8 {
        fill: #ffb819;
      }

      .cls-9 {
        fill: #0071ce;
      }

      .cls-10 {
        fill: #00ad68;
      }

      .cls-11 {
        fill: #218649;
      }

      .cls-12 {
        fill: #1e252b;
      }
    </style>
  </defs>
  <g id="school_2_" data-name="school (2)" transform="translate(-2926 -6744.506)">
    <path id="Path_7477" data-name="Path 7477" class="cls-1" d="M141.82,170.4a5.681,5.681,0,0,0-4.39-2.5H30.314a5.681,5.681,0,0,0-4.391,2.5l-8.374,14.062c-.818,1.373-.179,2.5,1.418,2.5H148.776c1.6,0,2.236-1.123,1.419-2.5Z" transform="translate(-12.393 -94.587)"/>
    <path id="Path_7478" data-name="Path 7478" class="cls-2" d="M31.141,194.478H83.564v-4.433H33.781Zm122.928-4.433H103.69v4.433h53.019Z" transform="translate(-22.446 -110.546)"/>
    <path id="Path_7479" data-name="Path 7479" class="cls-3" d="M100.275,171.064,85.181,146.839,70.088,171.064H19.425V229.68H150.937V171.064Z" transform="translate(-14.001 -79.404)"/>
    <path id="Path_7480" data-name="Path 7480" class="cls-2" d="M105,177.888a4.018,4.018,0,0,1-3.052-1.689l-.915-1.46h-.754L86.209,152.164a2.44,2.44,0,0,0-2.056,0L70.088,174.739h-.752l-.915,1.46a4.018,4.018,0,0,1-3.052,1.689H19.425v7.789H67.843a3.845,3.845,0,0,0,3-1.724l11.823-18.1c1.386-2.364,3.654-2.364,5.04,0l11.823,18.1a3.845,3.845,0,0,0,3,1.724h48.416v-7.789Z" transform="translate(-14.001 -83.078)"/>
    <g id="Group_5386" data-name="Group 5386" transform="translate(5.424 97.174)">
      <rect id="Rectangle_1212" data-name="Rectangle 1212" class="cls-4" width="12.773" height="6.147" transform="translate(118.739 6.821)"/>
      <rect id="Rectangle_1213" data-name="Rectangle 1213" class="cls-4" width="12.773" height="6.146" transform="translate(80.425 19.547)"/>
      <rect id="Rectangle_1214" data-name="Rectangle 1214" class="cls-4" width="12.773" height="6.146" transform="translate(103.558 41.367)"/>
      <rect id="Rectangle_1215" data-name="Rectangle 1215" class="cls-4" width="12.773" height="6.147" transform="translate(37.259 42.998)"/>
      <rect id="Rectangle_1216" data-name="Rectangle 1216" class="cls-4" width="12.773" height="6.147" transform="translate(0 12.723)"/>
      <rect id="Rectangle_1217" data-name="Rectangle 1217" class="cls-4" width="12.773" height="6.146" transform="translate(30.872)"/>
    </g>
    <rect id="Rectangle_1218" data-name="Rectangle 1218" class="cls-5" width="21.941" height="30.181" transform="translate(60.211 120.096)"/>
    <rect id="Rectangle_1219" data-name="Rectangle 1219" class="cls-2" width="21.941" height="3.815" transform="translate(60.211 120.096)"/>
    <g id="Group_5387" data-name="Group 5387" transform="translate(37.271 115.007)">
      <rect id="Rectangle_1220" data-name="Rectangle 1220" class="cls-6" width="4.433" height="8.352" transform="translate(27.125 12.073)"/>
      <rect id="Rectangle_1221" data-name="Rectangle 1221" class="cls-6" width="4.433" height="8.352" transform="translate(36.26 12.073)"/>
      <rect id="Rectangle_1222" data-name="Rectangle 1222" class="cls-6" width="12.895" height="17.741"/>
    </g>
    <rect id="Rectangle_1223" data-name="Rectangle 1223" class="cls-7" width="12.895" height="3.912" transform="translate(37.271 115.007)"/>
    <rect id="Rectangle_1224" data-name="Rectangle 1224" class="cls-6" width="12.895" height="17.741" transform="translate(12.247 115.007)"/>
    <rect id="Rectangle_1225" data-name="Rectangle 1225" class="cls-7" width="12.895" height="3.912" transform="translate(12.247 115.007)"/>
    <rect id="Rectangle_1226" data-name="Rectangle 1226" class="cls-6" width="12.895" height="17.741" transform="translate(92.194 115.007)"/>
    <rect id="Rectangle_1227" data-name="Rectangle 1227" class="cls-7" width="12.895" height="3.912" transform="translate(92.194 115.007)"/>
    <rect id="Rectangle_1228" data-name="Rectangle 1228" class="cls-6" width="12.895" height="17.741" transform="translate(117.218 115.007)"/>
    <rect id="Rectangle_1229" data-name="Rectangle 1229" class="cls-7" width="12.895" height="3.912" transform="translate(117.218 115.007)"/>
    <rect id="Rectangle_1230" data-name="Rectangle 1230" class="cls-8" width="25.603" height="14.674" transform="translate(71.181 40.929)"/>
    <rect id="Rectangle_1231" data-name="Rectangle 1231" class="cls-2" width="6.703" height="14.674" transform="translate(71.181 40.929)"/>
    <path id="Path_7481" data-name="Path 7481" class="cls-9" d="M79.55,134.248c-1.456-2.322-3.838-2.322-5.293,0L60.142,156.771a4.019,4.019,0,0,1-3.052,1.689H9.932a2,2,0,0,0-1.993,1.993v3.8a2,2,0,0,0,1.993,1.993H59.565a3.845,3.845,0,0,0,3-1.723l11.823-18.1c1.386-2.365,3.654-2.365,5.04,0l11.823,18.1a3.845,3.845,0,0,0,3,1.723h49.631a2,2,0,0,0,1.994-1.993v-3.8a2,2,0,0,0-1.994-1.993H96.717a4.017,4.017,0,0,1-3.052-1.689Z" transform="translate(-5.722 -69.073)"/>
    <circle id="Ellipse_165" data-name="Ellipse 165" class="cls-6" cx="10.063" cy="10.063" r="10.063" transform="translate(61.118 93.931)"/>
    <path id="Path_7482" data-name="Path 7482" class="cls-10" d="M146.464,449a1.2,1.2,0,0,1-1.194,1.194H9.133A1.2,1.2,0,0,1,7.939,449v-4.273a1.2,1.2,0,0,1,1.194-1.194H145.27a1.2,1.2,0,0,1,1.194,1.194Z" transform="translate(-5.722 -293.255)"/>
    <rect id="Rectangle_1232" data-name="Rectangle 1232" class="cls-4" width="35.758" height="6.661" transform="translate(53.6 150.277)"/>
    <g id="Group_5388" data-name="Group 5388" transform="translate(15.039 140.173)">
      <path id="Path_7483" data-name="Path 7483" class="cls-11" d="M426.931,417.449a10.1,10.1,0,1,0-20.206,0Z" transform="translate(-308.2 -407.346)"/>
      <path id="Path_7484" data-name="Path 7484" class="cls-11" d="M74.069,417.449a10.1,10.1,0,0,0-20.206,0Z" transform="translate(-53.863 -407.346)"/>
    </g>
    <path id="Path_7485" data-name="Path 7485" class="cls-12" d="M105.09,112.792h-12.9a2.217,2.217,0,0,0-2.217,2.217v17.742a2.217,2.217,0,0,0,2.217,2.217h12.9a2.217,2.217,0,0,0,2.217-2.217V115.008A2.217,2.217,0,0,0,105.09,112.792Zm-2.217,17.742H94.411V126.1h8.462Zm0-8.871H94.411v-4.438h8.462Zm29.458-6.655a2.217,2.217,0,0,0-2.217-2.217h-12.9A2.217,2.217,0,0,0,115,115.008V132.75a2.217,2.217,0,0,0,2.217,2.217h12.9a2.217,2.217,0,0,0,2.217-2.217ZM127.9,130.534h-8.462V126.1H127.9Zm0-8.871h-8.462v-4.438H127.9ZM25.143,112.792h-12.9a2.217,2.217,0,0,0-2.217,2.217v17.742a2.217,2.217,0,0,0,2.217,2.217h12.9a2.217,2.217,0,0,0,2.217-2.217V115.008A2.216,2.216,0,0,0,25.143,112.792Zm-2.216,17.742H14.464V126.1h8.462v4.438Zm0-8.871H14.464v-4.438h8.462v4.438Zm116.622,26.4h-.393V99.267a4.213,4.213,0,0,0,3.206-4.084v-3.8a4.213,4.213,0,0,0-3.557-4.154l-7.473-12.549a7.889,7.889,0,0,0-6.295-3.578H80.157L75.705,64A6.171,6.171,0,0,0,73.4,61.777V57.82H96.784A2.217,2.217,0,0,0,99,55.6V40.93a2.217,2.217,0,0,0-2.217-2.217h-23.4a2.216,2.216,0,0,0-4.424.18V61.777A6.18,6.18,0,0,0,66.656,64L62.2,71.1H17.921a7.888,7.888,0,0,0-6.3,3.578L4.186,87.172A4.214,4.214,0,0,0,0,91.38v3.8a4.213,4.213,0,0,0,3.207,4.084v48.8A3.412,3.412,0,0,0,0,151.47v4.273a3.415,3.415,0,0,0,3.411,3.411H139.548a3.414,3.414,0,0,0,3.41-3.411V151.47A3.414,3.414,0,0,0,139.548,148.06ZM73.4,43.146H94.568V53.387H73.4V43.146Zm51.64,32.387a3.538,3.538,0,0,1,2.486,1.413l6.089,10.224H90.994a1.936,1.936,0,0,1-1.174-.65L82.935,75.533Zm-109.6,1.413a3.537,3.537,0,0,1,2.486-1.413H59.427L52.542,86.521a1.94,1.94,0,0,1-1.174.65H9.347ZM4.433,91.6H51.368a6.2,6.2,0,0,0,4.93-2.729L70.413,66.352c.323-.515.636-.7.768-.7s.445.187.768.7L86.064,88.874A6.2,6.2,0,0,0,91,91.6h46.934V94.96H88.52a1.735,1.735,0,0,1-1.079-.621L75.584,76.179a4.848,4.848,0,0,0-8.806,0l-11.8,18.063-.06.1a1.737,1.737,0,0,1-1.079.621H4.433Zm119.234,46.353a12.337,12.337,0,0,0-12.116,10.1H84.367V117.88H57.994v30.18H37.259a12.317,12.317,0,0,0-24.232,0H7.64V99.393h46.2a6.03,6.03,0,0,0,4.877-2.768l11.8-18.064.056-.091a1.723,1.723,0,0,1,.593-.679c.067.015.326.173.622.679L83.642,96.624a6.029,6.029,0,0,0,4.877,2.768h46.2v45.453A12.333,12.333,0,0,0,123.667,137.957Zm7.567,10.1H116.1a7.885,7.885,0,0,1,15.134,0Zm-51.3-25.747V148.06H62.427V122.313ZM32.71,148.06H17.575a7.885,7.885,0,0,1,15.135,0Zm18.674,6.66H4.433v-2.228h46.95Zm35.758,0H55.817v-2.228H87.142Zm51.384,0H91.575v-2.228h46.95v2.228Zm-67.344-63A12.279,12.279,0,1,0,83.46,103.995,12.293,12.293,0,0,0,71.181,91.716Zm0,20.125a7.846,7.846,0,1,1,7.846-7.846A7.855,7.855,0,0,1,71.181,111.841Zm3.855-10.063H73.4V100.14a2.217,2.217,0,1,0-4.433,0v3.855a2.217,2.217,0,0,0,2.217,2.217h3.855a2.217,2.217,0,1,0,0-4.433ZM50.167,112.792h-12.9a2.217,2.217,0,0,0-2.217,2.217v17.742a2.217,2.217,0,0,0,2.217,2.217h12.9a2.217,2.217,0,0,0,2.217-2.217V115.008A2.216,2.216,0,0,0,50.167,112.792Zm-2.216,17.742H39.489V126.1h8.462Zm0-8.871H39.489v-4.438h8.462Z"/>
  </g>
</svg>
