<svg xmlns="http://www.w3.org/2000/svg" viewBox="-3538 -5974 121.744 140.58">
  <defs>
    <style>
      .cls-1 {
        fill: #636a75;
      }

      .cls-2 {
        fill: #f63d53;
      }

      .cls-3 {
        fill: #e1e6e9;
      }
    </style>
  </defs>
  <g id="megaphone" transform="translate(-3538 -5974)">
    <g id="Group_5392" data-name="Group 5392" transform="translate(2.749 2.746)">
      <path id="Path_7504" data-name="Path 7504" class="cls-1" d="M338.144,81.622,350,93.479l3.952-3.952a5.605,5.605,0,0,0,0-7.9L350,77.67a5.606,5.606,0,0,0-7.9,0Z" transform="translate(-257.467 -57.907)"/>
      <path id="Path_7505" data-name="Path 7505" class="cls-2" d="M193.366,45.572,181.509,33.715,157.794,10l-35.57,75.1,19.762,19.762,75.1-35.57Z" transform="translate(-100.832 -10)"/>
      <path id="Path_7506" data-name="Path 7506" class="cls-1" d="M89.773,303.265,70.011,283.5,50.249,303.265l3.952,3.952,11.858,11.858,3.952,3.952,3.952-3.952L85.82,307.217Z" transform="translate(-48.619 -208.408)"/>
      <path id="Path_7507" data-name="Path 7507" class="cls-2" d="M61.751,381.729,49.894,369.871l-3.952,3.953a5.606,5.606,0,0,0,0,7.9l3.952,3.952a5.606,5.606,0,0,0,7.9,0Z" transform="translate(-44.311 -271.062)"/>
      <path id="Path_7508" data-name="Path 7508" class="cls-3" d="M136.618,381.729l19.508,23.461a3.07,3.07,0,0,0,4.461,0l13.579-13.579-25.691-21.738Z" transform="translate(-111.273 -271.062)"/>
    </g>
    <path id="Path_7509" data-name="Path 7509" d="M155.24,60.091,133.466,38.317l2.01-2.01a8.351,8.351,0,0,0,0-11.788l-3.953-3.953a8.352,8.352,0,0,0-11.788,0l-2.01,2.011L95.953.8a2.746,2.746,0,0,0-4.423.766L56.164,76.235,36.737,95.661a2.746,2.746,0,0,0,0,3.883l2.011,2.011-2.011,2.011a8.345,8.345,0,0,0,0,11.788l3.953,3.952a8.351,8.351,0,0,0,11.788,0l2.011-2.011,2.011,2.011a2.746,2.746,0,0,0,3.883,0l1.824-1.824L79.79,138.629a5.489,5.489,0,0,0,4.246,1.951,6.076,6.076,0,0,0,4.267-1.765l13.579-13.579a2.745,2.745,0,0,0-.168-4.037L78.3,101.388l1.507-1.507,74.665-35.367a2.746,2.746,0,0,0,.766-4.423ZM123.62,24.45a2.86,2.86,0,0,1,4.022,0l3.953,3.953a2.86,2.86,0,0,1,0,4.022l-2.01,2.011L121.61,26.46ZM50.606,113.413l-2.011,2.011a2.86,2.86,0,0,1-4.021,0l-3.953-3.952a2.847,2.847,0,0,1,0-4.022l2.011-2.011Zm5.825-1.941h0L44.573,99.614h0l-2.01-2.01L58.441,81.724l7.939,7.939,7.94,7.94-2.006,2.006-.005,0L60.451,111.471l0,0-2.008,2.008ZM95.89,123.462,84.42,134.931a.577.577,0,0,1-.384.156.307.307,0,0,1-.052,0l-17.879-21.5,8.3-8.3ZM78.776,94.293,61.751,77.268,94.825,7.442,115.779,28.4l.006.007,11.857,11.857.007.007L148.6,61.219Z" transform="translate(-34.3 0)"/>
    <path id="Path_7510" data-name="Path 7510" d="M307.448,114.067a2.746,2.746,0,0,0-3.877,3.889l.046.046a2.746,2.746,0,0,0,3.877-3.889Z" transform="translate(-229.052 -82.167)"/>
    <path id="Path_7511" data-name="Path 7511" d="M258.121,64.736a2.746,2.746,0,1,0-3.883,3.883l7.967,7.967a2.746,2.746,0,0,0,3.883-3.883Z" transform="translate(-193.266 -46.378)"/>
  </g>
</svg>
