<svg xmlns="http://www.w3.org/2000/svg" viewBox="-3621 -4741.208 128.722 107.653">
  <defs>
    <style>
      .cls-1 {
        fill: #ff755c;
      }

      .cls-2 {
        fill: #ffb14e;
      }

      .cls-3 {
        fill: #01121c;
      }
    </style>
  </defs>
  <g id="advertisement" transform="translate(-3621 -4741.208)">
    <path id="Path_7532" data-name="Path 7532" class="cls-1" d="M374.185,179.548l-5.824,35.238,5.824,35.238h11.649V179.548Z" transform="translate(-275.751 -144.942)"/>
    <rect id="Rectangle_1234" data-name="Rectangle 1234" class="cls-2" width="95.523" height="70.477" transform="translate(2.912 34.606)"/>
    <g id="Group_5400" data-name="Group 5400">
      <path id="Path_7533" data-name="Path 7533" class="cls-3" d="M64.234,283.506h65.61a2.912,2.912,0,1,0,0-5.825H64.234a2.912,2.912,0,1,0,0,5.825Z" transform="translate(-45.905 -218.404)"/>
      <path id="Path_7534" data-name="Path 7534" class="cls-3" d="M154.461,335.183H113.746a2.912,2.912,0,1,0,0,5.825h40.715a2.912,2.912,0,1,0,0-5.825Z" transform="translate(-82.969 -261.449)"/>
      <path id="Path_7535" data-name="Path 7535" class="cls-3" d="M125.81,41.9a2.913,2.913,0,0,0-2.912,2.912V57.166H89.67v-.038a2.912,2.912,0,1,0-5.825,0v.038H18.423v-.038a2.912,2.912,0,1,0-5.825,0v.038H2.912a2.912,2.912,0,1,0,0,5.824H12.6V73.085H2.912A2.912,2.912,0,0,0,0,76v70.646a2.913,2.913,0,0,0,2.912,2.912H110.174a2.913,2.913,0,0,0,2.912-2.912V76a2.913,2.913,0,0,0-2.912-2.912H89.67V62.99H122.9V75.341a2.912,2.912,0,1,0,5.825,0V44.814A2.912,2.912,0,0,0,125.81,41.9ZM107.261,143.731h-4.992V78.909h4.992Zm-10.817,0H5.824V78.909h90.62v64.821Zm-12.6-70.646H18.423V62.99H83.846V73.085Z" transform="translate(0 -41.902)"/>
    </g>
  </g>
</svg>
