<?xml version="1.0" encoding="utf-8"?>
<!-- Generator: Adobe Illustrator 21.1.0, SVG Export Plug-In . SVG Version: 6.00 Build 0)  -->
<svg version="1.1" id="Layer_1" xmlns="http://www.w3.org/2000/svg" xmlns:xlink="http://www.w3.org/1999/xlink" x="0px" y="0px"
	 viewBox="0 0 112 118" style="enable-background:new 0 0 112 118;" xml:space="preserve">
<style type="text/css">
	.st0{fill:#E4E4E4;}
	.st1{fill:#3E5D90;}
	.st2{fill:#FFFFFF;}
</style>
<g>
	<ellipse class="st0" cx="56" cy="111.1" rx="55" ry="5.7"/>
	<g>
		<path class="st1" d="M84.4,103.3c1.4-0.8,2.7-1.7,4-2.7c11-8,18.7-20,21.5-33.4c1.4-6.8,1.5-14,0.2-21.3
			c-3.9-20.3-18.5-35.9-36.8-42c-6.2-2.1-12.9-3-19.7-2.7l0,0c-0.1,0-0.1,0-0.2,0c-2.5,0.1-5,0.4-7.5,0.9c-4.2,0.8-8.1,2-11.8,3.7
			c-1.5,0.6-2.9,1.3-4.3,2.1c-3.1,1.7-6.1,3.7-8.8,6l0,0l-0.7,0.6c-14.4,12.4-22,32-18.2,52c1.1,6,3.2,11.6,6.1,16.7
			c0.1,0.2,0.2,0.3,0.3,0.5c11.4,19.7,34.3,31.1,57.9,26.6c0.7-0.1,1.3-0.3,2-0.4c0.3-0.1,0.6-0.2,1-0.2c0.1,0,0.1,0,0.2,0
			C74.8,108.2,79.9,106,84.4,103.3z M86.6,97.4c-1.3,0.9-2.6,1.8-3.9,2.7c-2.7,1.6-5.6,3.1-8.6,4.2c-1.1,0.4-2.1,0.8-3.2,1.1
			c0.1-0.1,0.1-0.2,0.2-0.3c1.1-0.4,2.1-0.8,3.1-1.2c3.1-1.3,5.9-2.7,8.4-4.1c1.5-0.8,2.8-1.7,4-2.5c0.6-0.4,1.2-0.8,1.8-1.2
			C87.7,96.6,87.2,97,86.6,97.4z M15.1,87.2c-1.4-2.6-2.2-4.6-2.5-6c0-0.2-0.1-0.4-0.1-0.6c-0.1-0.6-0.2-1.1-0.2-1.5
			c0.3,0.3,0.8,0.6,1.2,0.9c0.2,0.1,0.3,0.2,0.5,0.4c2.5,1.8,6,4.2,8.3,5.4c1.2,1.8,8.9,12.8,19.5,17.7v2
			C31.2,102.5,21.8,96,15.1,87.2z M24,20.9c0.1,2,0.4,6.1,1.8,9.6c0.1-0.1,0.1-0.2,0.1-0.2l0.3,1.4l2-0.7c0,0-0.1,0.1-0.2,0.4
			c1.3-0.3,3.3-0.6,5.5-1c2.8-0.5,5.9-1,8.4-1.4c1.5-0.2,2.7-0.3,3.6-0.4C47.2,31.3,53.1,41,57,47c-0.6,0.9-1.3,2.5-2.1,4.4
			s-1.5,4.1-2.3,6.2c0,0,0,0,0,0.1c-0.1,0.3-0.2,0.5-0.3,0.8c-1.2,3.7-2.1,7.1-2.4,8.9c-2.7,0.4-10.4,1.4-17.1,2.3
			c-0.5,0.1-1,0.1-1.4,0.2c-1.1,0.1-2.2,0.3-3.2,0.4c-1.6-1.4-5.8-5.8-10.3-15.2C18.5,48.2,26.5,34,28,31.5
			c-1.1,0.2-1.7,0.4-1.7,0.4c-0.2-0.4-0.3-0.8-0.5-1.2c-1.2,2-8.7,15.3-9.9,23.1c-1.3,0.7-3.6,1.9-5.5,3.1c-1,0.6-1.9,1.1-2.6,1.5
			C6,55,5.4,51.2,5.2,48.6c0.4-2.4,0.9-4.7,1.5-7c2-6.8,5.4-13.1,10-18.5C18.7,22.3,21.6,21.5,24,20.9z M6.9,60.9
			c0.6,3.6,2.1,11.8,3.5,15.9C10.2,77.3,10,78,10,79.1C8,75,6.4,70.5,5.5,65.8c-0.6-3.1-0.9-6.2-0.9-9.2C5.2,58.1,5.9,59.5,6.9,60.9
			z M45,102.4c-10-3.5-17.9-13.7-20.3-17c0.1-1.7,0.5-5.1,1.5-8.5c0.5-1.6,1-3.2,1.8-4.6l0,0c0,0,0,0,0.1,0c7.7-1,20.9-2.7,23-3
			C53.7,72,60.9,79.4,64.4,82c-0.2,1.1-0.5,2.5-0.8,4.1c-1,4.6-2.3,10.4-3.5,13.9C55,102.1,48.7,102.4,45,102.4z M92.9,89.7
			c-0.1,0.1-2.8,2.6-7.5,5.7c-1.2,0.8-2.6,1.6-4,2.5c-2.2,1.3-4.6,2.5-7.3,3.7c-1.4,0.6-3,1.2-4.5,1.8c0,0-5.6-2.2-7.3-3.3
			c1.4-4.1,2.7-10.3,3.5-14.4c0.2-1.2,0.4-2.2,0.6-3c0.2-0.1,0.5-0.3,0.9-0.6c0.9-0.5,2.3-1.3,3.8-2.3c1.2-0.7,2.5-1.5,3.9-2.3
			c3.9-2.4,8.1-5,9.9-6.3c1.3,0.7,2.8,1.4,4.3,2.1c3,1.4,6.1,2.9,8.1,3.7C96.5,80,92.9,89.7,92.9,89.7z M104.5,39.4
			c0.8,2.3,1.5,4.8,1.9,7.2c0.9,5,1.1,9.9,0.6,14.7c0,0.1,0,0.1,0,0.2c-0.2,0-0.4-0.1-0.6-0.1c0-0.4,0-0.9,0-1.3
			c0-5.9-1.2-12.1-2.3-16.6c-0.9-3.6-1.8-6.1-1.8-6.3l0,0l0.1-3.1C103.2,35.9,103.9,37.6,104.5,39.4z M100.3,38
			c0,0.1,1.7,5,2.9,11.2c0.4,1.9,0.7,4,0.9,6.1c0.3,2.8,0.3,5.7,0.1,8.4c-1.1,3.4-3.2,9-5.7,11.4c-2.3-1-5-2.3-7.5-3.4
			c-1.8-0.9-3.5-1.7-4.9-2.4c0.1-4-1.7-16.7-3.8-20.6c4.2-5.4,8-12.7,9.5-15.9v-0.1C94.2,33.7,100.3,38,100.3,38z M90,31.4
			c-1.4,2.9-5.4,10.8-9.7,16.1C76.2,47.2,63,45.9,59,45.8c-3.9-6-10.1-16-11.7-18.6c1.2-2.7,4.2-8.8,6.6-11.6
			c11-2.2,21.7-0.1,24.8,0.6C81.6,19.1,88,26.1,90,31.4z M76.9,9.3c1.4,0.6,2.8,1.3,4.1,2.1l-1.7,1.5l-1,0.9
			c-4-0.8-13.5-2.4-23.7-0.6c-2-1.3-6.2-3.7-9.9-4.6c0.8-1,1.9-2.2,3.6-3.2C58.3,3.9,68.2,5.4,76.9,9.3z M35.8,9
			c2.6-1.1,5.2-2,8-2.7C43,7.2,42.5,8,42.1,8.6c-1.1,0.4-3.1,1-5.4,2c-1.3,0.6-2.8,1.3-4.2,2.1c-2.7,1.5-5.5,3.4-7.4,5.6
			c-0.2,0-0.3,0.1-0.5,0.1c-1.2,0.3-2.9,0.7-4.7,1.3c1.1-1.1,2.2-2.1,3.3-3c2.6-2.1,5.3-4,8.3-5.7C32.9,10.3,34.3,9.6,35.8,9z"/>
		<path class="st2" d="M67.7,48.7c0,0,12.4,1.2,12.9,2.8c1.1,3.5,3,16.1,2.2,17.6C82,70.7,72,77,72,77s9.5-7.8,9.4-8.6
			c-0.3-5.7-1.9-15.5-3.8-16.3C70,48.9,69.4,49.7,67.7,48.7z"/>
		<path class="st2" d="M19,61.9c0.2,0.6,6.4,8.5,6.1,9.6s-2.2,8.9-2.2,8.9s0.9-7.3,0.4-8.9C23,69.9,19,61.9,19,61.9z"/>
		<path class="st2" d="M45.8,10.7c0,0,7,2.5,6.6,3.3s-5.7,11.3-6.5,11.6c-0.9,0.3-6.4,2-6.4,2s5.5-2.7,6-3.4c1-1.2,5.1-9.7,4.8-10.2
			C50,13.5,45.8,10.7,45.8,10.7z"/>
	</g>
</g>
</svg>
