<?xml version="1.0" encoding="utf-8"?>
<!-- Generator: Adobe Illustrator 21.1.0, SVG Export Plug-In . SVG Version: 6.00 Build 0)  -->
<svg version="1.1" id="Layer_1" xmlns="http://www.w3.org/2000/svg" xmlns:xlink="http://www.w3.org/1999/xlink" x="0px" y="0px"
	 viewBox="0 0 24 24" style="enable-background:new 0 0 24 24;" xml:space="preserve">
<style type="text/css">
	.st0{fill:#2E3090;}
</style>
<g>
	<path class="st0" d="M17.9,23H6.1C3.3,23,1,20.7,1,17.9V6.1C1,3.3,3.3,1,6.1,1h11.9C20.7,1,23,3.3,23,6.1v11.9
		C23,20.7,20.7,23,17.9,23z M6.1,1.9c-2.3,0-4.1,1.9-4.1,4.1v11.9c0,2.3,1.9,4.1,4.1,4.1h11.9c2.3,0,4.1-1.9,4.1-4.1V6.1
		c0-2.3-1.9-4.1-4.1-4.1H6.1z"/>
	<polygon class="st0" points="16.6,7.7 14.4,7.7 12,10.7 9.6,7.7 7.4,7.7 10.9,12.1 7.4,16.5 9.6,16.5 12,13.4 14.4,16.5 16.6,16.5 
		13.1,12.1 	"/>
</g>
</svg>
