<?xml version="1.0" encoding="utf-8"?>
<!-- Generator: Adobe Illustrator 21.1.0, SVG Export Plug-In . SVG Version: 6.00 Build 0)  -->
<svg version="1.1" id="Layer_1" xmlns="http://www.w3.org/2000/svg" xmlns:xlink="http://www.w3.org/1999/xlink" x="0px" y="0px"
	 viewBox="0 0 170 205" style="enable-background:new 0 0 170 205;" xml:space="preserve">
<style type="text/css">
	.st0{fill:#FFFFFF;}
	.st1{fill:url(#SVGID_1_);}
	.st2{fill:#1B1464;}
	.st3{fill:#1EC0B4;}
</style>
<g>
	<g>
		<g>
			<path class="st0" d="M169,48.9c-36.2-0.6-32.8-36.2-32.8-36.2C101.7,17.3,85,1.8,85,1.8S68.3,17.3,33.8,12.7
				c0,0,3.5,35.7-32.8,36.2c0,0-2.9,111.6,84,154.3C171.9,160.5,169,48.9,169,48.9z"/>
			<linearGradient id="SVGID_1_" gradientUnits="userSpaceOnUse" x1="85" y1="198.7421" x2="85" y2="6.8425">
				<stop  offset="0" style="stop-color:#1B1464"/>
				<stop  offset="1" style="stop-color:#1EC0B4"/>
			</linearGradient>
			<path class="st1" d="M85,198.7c-18.4-9.4-34-22.8-46.4-39.9c-10.3-14.2-18.5-30.9-24.2-49.7C6.6,83.8,5.3,61.3,5.1,52.7
				c10-0.9,18-4.5,23.7-10.9c7.3-8.1,8.9-18.6,9.1-24.6c2.8,0.3,5.7,0.4,8.4,0.4h0c20.7,0,33.5-7.1,38.7-10.7
				c5.3,3.7,18.1,10.7,38.7,10.7c2.7,0,5.6-0.1,8.4-0.4c0.3,6,1.9,16.5,9.1,24.6c5.7,6.4,13.6,10,23.7,10.9
				c-0.2,8.6-1.5,31-9.3,56.4c-5.8,18.8-13.9,35.6-24.2,49.7C119,175.9,103.4,189.3,85,198.7z"/>
			<path class="st2" d="M85,194.2c-17-9-31.6-21.7-43.2-37.7c-10-13.8-18-30.1-23.6-48.5c-6.7-21.9-8.5-41.5-9-51.7
				c9.3-1.5,16.9-5.5,22.5-11.8c6.6-7.4,9-16.5,9.8-23c1.6,0.1,3.2,0.1,4.7,0.1c19.1,0,31.8-5.7,38.7-9.9c6.9,4.3,19.7,9.9,38.7,9.9
				c1.5,0,3.1,0,4.7-0.1c0.8,6.5,3.2,15.6,9.8,23c5.6,6.3,13.2,10.3,22.5,11.8c-0.5,10.1-2.3,29.8-9,51.7
				c-5.6,18.4-13.6,34.7-23.6,48.5C116.6,172.5,102,185.2,85,194.2z"/>
			<g>
				<g>
					<g>
						<path class="st3" d="M28.5,121.5c16.4-11,35.8-17.3,56.5-17.3s40.1,6.3,56.5,17.3c2-4.8,3.7-9.8,5.3-15
							c5.7-18.6,7.8-35.5,8.5-46c-8.4-2.2-15.5-6.3-20.9-12.5c-6-6.8-8.9-14.7-10.3-21.2c-0.1,0-0.2,0-0.4,0
							c-17.8,0-30.6-4.6-38.7-9.1c-8.2,4.5-20.9,9.1-38.7,9.1c-0.1,0-0.2,0-0.4,0c-1.4,6.5-4.3,14.4-10.3,21.2
							c-5.5,6.1-12.5,10.3-20.9,12.5c0.7,10.5,2.8,27.4,8.5,46C24.7,111.6,26.5,116.6,28.5,121.5z"/>
					</g>
				</g>
			</g>
		</g>
		<path class="st2" d="M29.4,123.6c0.4,0.9,0.8,1.8,1.2,2.7c15.9-10.2,34.5-16.1,54.4-16.1s38.5,5.9,54.4,16.1
			c0.4-0.9,0.8-1.8,1.2-2.7c-16.1-10.9-35.2-17.2-55.6-17.2S45.5,112.8,29.4,123.6z"/>
	</g>
	<g>
		<g>
			<path class="st2" d="M49.1,59.2c0,1-0.2,2-0.5,2.9c-0.4,0.9-0.9,1.6-1.5,2.3c-0.6,0.6-1.4,1.1-2.3,1.5c-0.9,0.4-1.9,0.5-3,0.5
				c-2.2,0-3.3,0-5.6,0c0-5.7,0-8.6,0-14.3c2.2,0,3.3,0,5.6,0c1.1,0,2.1,0.2,3,0.5c0.9,0.4,1.7,0.9,2.3,1.5c0.6,0.6,1.1,1.4,1.5,2.3
				C48.9,57.2,49.1,58.2,49.1,59.2z M45.7,59.2c0-0.7-0.1-1.3-0.3-1.9c-0.2-0.6-0.4-1.1-0.8-1.4c-0.3-0.4-0.8-0.7-1.3-0.9
				c-0.5-0.2-1.1-0.3-1.7-0.3c-0.9,0-1.3,0-2.2,0c0,3.7,0,5.5,0,9.2c0.9,0,1.3,0,2.2,0c0.6,0,1.2-0.1,1.7-0.3
				c0.5-0.2,0.9-0.5,1.3-0.9c0.3-0.4,0.6-0.9,0.8-1.4C45.6,60.5,45.7,59.9,45.7,59.2z"/>
			<path class="st2" d="M62.5,66.3c-1,0-1.5,0-2.6,0c-0.3,0-0.5-0.1-0.7-0.2c-0.2-0.1-0.3-0.3-0.4-0.5c-0.3-1-0.5-1.5-0.8-2.5
				c-2.2,0-3.3,0-5.4,0c-0.3,1-0.5,1.5-0.8,2.5c-0.1,0.2-0.2,0.3-0.4,0.5c-0.2,0.1-0.4,0.2-0.7,0.2c-1,0-1.6,0-2.6,0
				c2.2-5.7,3.3-8.6,5.5-14.3c1.4,0,2,0,3.4,0C59.2,57.8,60.3,60.6,62.5,66.3z M53.4,60.9c1.6,0,2.3,0,3.9,0
				c-0.5-1.6-0.8-2.3-1.3-3.9c-0.1-0.2-0.2-0.5-0.3-0.9c-0.1-0.3-0.2-0.7-0.3-1.1c-0.1,0.4-0.2,0.8-0.3,1.1
				c-0.1,0.3-0.2,0.6-0.3,0.9C54.1,58.5,53.9,59.3,53.4,60.9z"/>
			<path class="st2" d="M75.8,59.2c0,1-0.2,2-0.5,2.9c-0.4,0.9-0.9,1.6-1.5,2.3c-0.6,0.6-1.4,1.1-2.3,1.5c-0.9,0.4-1.9,0.5-3,0.5
				c-2.2,0-3.3,0-5.6,0c0-5.7,0-8.6,0-14.3c2.2,0,3.3,0,5.6,0c1.1,0,2.1,0.2,3,0.5c0.9,0.4,1.7,0.9,2.3,1.5c0.6,0.6,1.1,1.4,1.5,2.3
				C75.6,57.2,75.8,58.2,75.8,59.2z M72.4,59.2c0-0.7-0.1-1.3-0.3-1.9c-0.2-0.6-0.4-1.1-0.8-1.4c-0.3-0.4-0.8-0.7-1.3-0.9
				c-0.5-0.2-1.1-0.3-1.7-0.3c-0.9,0-1.3,0-2.2,0c0,3.7,0,5.5,0,9.2c0.9,0,1.3,0,2.2,0c0.6,0,1.2-0.1,1.7-0.3
				c0.5-0.2,0.9-0.5,1.3-0.9c0.3-0.4,0.6-0.9,0.8-1.4C72.3,60.5,72.4,59.9,72.4,59.2z"/>
			<path class="st2" d="M90.9,59.2c0,1-0.2,2-0.5,2.9c-0.4,0.9-0.9,1.7-1.5,2.3c-0.6,0.7-1.4,1.2-2.3,1.5c-0.9,0.4-1.9,0.6-3,0.6
				c-1.1,0-2.1-0.2-3-0.6c-0.9-0.4-1.7-0.9-2.3-1.5c-0.7-0.7-1.2-1.4-1.5-2.3c-0.4-0.9-0.5-1.9-0.5-2.9c0-1,0.2-2,0.5-2.9
				c0.4-0.9,0.9-1.7,1.5-2.3c0.7-0.7,1.4-1.2,2.3-1.5c0.9-0.4,1.9-0.6,3-0.6c1.1,0,2.1,0.2,3,0.6s1.7,0.9,2.3,1.5
				c0.6,0.7,1.1,1.4,1.5,2.3C90.8,57.2,90.9,58.2,90.9,59.2z M87.5,59.2c0-0.7-0.1-1.3-0.3-1.9c-0.2-0.6-0.4-1-0.8-1.4
				c-0.3-0.4-0.8-0.7-1.3-0.9c-0.5-0.2-1.1-0.3-1.7-0.3c-0.6,0-1.2,0.1-1.7,0.3c-0.5,0.2-0.9,0.5-1.3,0.9c-0.3,0.4-0.6,0.9-0.8,1.4
				c-0.2,0.6-0.3,1.2-0.3,1.9c0,0.7,0.1,1.4,0.3,1.9c0.2,0.6,0.4,1,0.8,1.4c0.3,0.4,0.8,0.7,1.3,0.9c0.5,0.2,1.1,0.3,1.7,0.3
				c0.6,0,1.2-0.1,1.7-0.3c0.5-0.2,0.9-0.5,1.3-0.9c0.3-0.4,0.6-0.9,0.8-1.4C87.5,60.5,87.5,59.9,87.5,59.2z"/>
			<path class="st2" d="M99.9,54.9c-0.1,0.2-0.2,0.3-0.3,0.4c-0.1,0.1-0.2,0.1-0.4,0.1c-0.2,0-0.3,0-0.5-0.1
				c-0.2-0.1-0.4-0.2-0.6-0.3c-0.2-0.1-0.5-0.2-0.8-0.3c-0.3-0.1-0.6-0.1-1-0.1c-0.6,0-1.1,0.1-1.4,0.4c-0.3,0.3-0.5,0.6-0.5,1.1
				c0,0.3,0.1,0.5,0.3,0.7c0.2,0.2,0.4,0.4,0.7,0.5c0.3,0.1,0.6,0.3,1,0.4c0.4,0.1,0.8,0.2,1.2,0.4c0.4,0.1,0.8,0.3,1.2,0.5
				c0.4,0.2,0.7,0.4,1,0.7c0.3,0.3,0.5,0.7,0.7,1.1s0.3,0.9,0.3,1.5c0,0.7-0.1,1.3-0.3,1.9c-0.2,0.6-0.6,1.1-1,1.5
				c-0.4,0.4-1,0.8-1.6,1c-0.6,0.2-1.4,0.4-2.2,0.4c-0.4,0-0.9,0-1.4-0.1c-0.5-0.1-0.9-0.2-1.3-0.4c-0.4-0.2-0.8-0.4-1.2-0.6
				c-0.4-0.2-0.7-0.5-1-0.8c0.4-0.6,0.6-0.9,1-1.5c0.1-0.1,0.2-0.2,0.3-0.3c0.1-0.1,0.3-0.1,0.4-0.1c0.2,0,0.4,0.1,0.6,0.2
				c0.2,0.1,0.4,0.3,0.7,0.4c0.3,0.2,0.5,0.3,0.9,0.4c0.3,0.1,0.7,0.2,1.2,0.2c0.6,0,1.1-0.1,1.4-0.4c0.3-0.3,0.5-0.7,0.5-1.3
				c0-0.3-0.1-0.6-0.3-0.8c-0.2-0.2-0.4-0.4-0.7-0.5c-0.3-0.1-0.6-0.3-1-0.4c-0.4-0.1-0.8-0.2-1.2-0.3c-0.4-0.1-0.8-0.3-1.2-0.5
				c-0.4-0.2-0.7-0.4-1-0.7c-0.3-0.3-0.5-0.7-0.7-1.1c-0.2-0.5-0.3-1-0.3-1.7c0-0.5,0.1-1.1,0.3-1.6c0.2-0.5,0.5-1,1-1.4
				c0.4-0.4,0.9-0.7,1.5-1c0.6-0.2,1.3-0.4,2.1-0.4c0.4,0,0.9,0,1.3,0.1c0.4,0.1,0.8,0.2,1.2,0.3c0.4,0.1,0.7,0.3,1,0.5
				c0.3,0.2,0.6,0.4,0.9,0.6C100.4,54,100.3,54.3,99.9,54.9z"/>
			<path class="st2" d="M118.7,59.2c0,1-0.2,2-0.5,2.9c-0.4,0.9-0.9,1.6-1.5,2.3c-0.6,0.6-1.4,1.1-2.3,1.5c-0.9,0.4-1.9,0.5-3,0.5
				c-2.2,0-3.3,0-5.6,0c0-5.7,0-8.6,0-14.3c2.2,0,3.3,0,5.6,0c1.1,0,2.1,0.2,3,0.5c0.9,0.4,1.7,0.9,2.3,1.5c0.6,0.6,1.1,1.4,1.5,2.3
				C118.6,57.2,118.7,58.2,118.7,59.2z M115.3,59.2c0-0.7-0.1-1.3-0.3-1.9c-0.2-0.6-0.4-1.1-0.8-1.4c-0.3-0.4-0.8-0.7-1.3-0.9
				c-0.5-0.2-1.1-0.3-1.7-0.3c-0.9,0-1.3,0-2.2,0c0,3.7,0,5.5,0,9.2c0.9,0,1.3,0,2.2,0c0.6,0,1.2-0.1,1.7-0.3
				c0.5-0.2,0.9-0.5,1.3-0.9c0.3-0.4,0.6-0.9,0.8-1.4C115.2,60.5,115.3,59.9,115.3,59.2z"/>
			<path class="st2" d="M133.9,59.2c0,1-0.2,2-0.5,2.9c-0.4,0.9-0.9,1.7-1.5,2.3c-0.6,0.7-1.4,1.2-2.3,1.5c-0.9,0.4-1.9,0.6-3,0.6
				c-1.1,0-2.1-0.2-3-0.6c-0.9-0.4-1.7-0.9-2.3-1.5c-0.7-0.7-1.2-1.4-1.5-2.3c-0.4-0.9-0.5-1.9-0.5-2.9c0-1,0.2-2,0.5-2.9
				c0.4-0.9,0.9-1.7,1.5-2.3c0.7-0.7,1.4-1.2,2.3-1.5c0.9-0.4,1.9-0.6,3-0.6c1.1,0,2.1,0.2,3,0.6s1.7,0.9,2.3,1.5
				c0.6,0.7,1.1,1.4,1.5,2.3C133.7,57.2,133.9,58.2,133.9,59.2z M130.5,59.2c0-0.7-0.1-1.3-0.3-1.9c-0.2-0.6-0.4-1-0.8-1.4
				c-0.3-0.4-0.8-0.7-1.3-0.9c-0.5-0.2-1.1-0.3-1.7-0.3c-0.6,0-1.2,0.1-1.7,0.3c-0.5,0.2-0.9,0.5-1.3,0.9c-0.3,0.4-0.6,0.9-0.8,1.4
				c-0.2,0.6-0.3,1.2-0.3,1.9c0,0.7,0.1,1.4,0.3,1.9c0.2,0.6,0.4,1,0.8,1.4c0.3,0.4,0.8,0.7,1.3,0.9c0.5,0.2,1.1,0.3,1.7,0.3
				c0.6,0,1.2-0.1,1.7-0.3c0.5-0.2,0.9-0.5,1.3-0.9c0.3-0.4,0.6-0.9,0.8-1.4C130.4,60.5,130.5,59.9,130.5,59.2z"/>
		</g>
	</g>
	<g>
		<g>
			<path class="st2" d="M49.1,93.2c0.3,0,0.6,0.1,0.8,0.3c0.9,1,1.3,1.4,2.2,2.4c-1.1,1.4-2.5,2.5-4.1,3.2c-1.6,0.7-3.6,1.1-5.8,1.1
				c-2,0-3.9-0.3-5.5-1c-1.6-0.7-3-1.7-4.2-2.9c-1.1-1.2-2-2.7-2.6-4.4c-0.6-1.7-0.9-3.6-0.9-5.6c0-1.4,0.1-2.6,0.4-3.9
				s0.7-2.4,1.3-3.4c0.6-1,1.2-2,2-2.8c0.8-0.8,1.7-1.5,2.7-2.1c1-0.6,2.1-1,3.3-1.3c1.2-0.3,2.5-0.5,3.8-0.5c1,0,2,0.1,2.9,0.3
				c0.9,0.2,1.7,0.4,2.5,0.7c0.8,0.3,1.5,0.7,2.2,1.1s1.3,0.9,1.8,1.5c-0.8,1-1.1,1.6-1.9,2.6c-0.1,0.2-0.3,0.3-0.4,0.4
				c-0.2,0.1-0.4,0.2-0.7,0.2c-0.3,0-0.6-0.1-0.9-0.3c-0.3-0.2-0.7-0.5-1.1-0.7c-0.4-0.3-1-0.5-1.7-0.7c-0.7-0.2-1.5-0.3-2.6-0.3
				c-1.1,0-2.2,0.2-3.1,0.6s-1.8,1-2.5,1.8c-0.7,0.8-1.2,1.7-1.6,2.9c-0.4,1.1-0.6,2.4-0.6,3.9c0,1.5,0.2,2.8,0.6,3.9
				c0.4,1.1,1,2.1,1.7,2.9c0.7,0.8,1.5,1.4,2.5,1.8c0.9,0.4,2,0.6,3,0.6c0.6,0,1.2,0,1.7-0.1c0.5-0.1,1-0.2,1.5-0.3
				c0.4-0.2,0.9-0.3,1.3-0.6c0.4-0.2,0.8-0.5,1.2-0.9c0.1-0.1,0.3-0.2,0.4-0.3C48.8,93.3,48.9,93.2,49.1,93.2z"/>
			<path class="st2" d="M70,95.4c0,1.8,0,2.8,0,4.6c-6.5,0-9.7,0-16.2,0c0-10.9,0-16.4,0-27.3c2.3,0,3.4,0,5.7,0
				c0,9.1,0,13.6,0,22.7C63.7,95.4,65.8,95.4,70,95.4z"/>
			<path class="st2" d="M82.5,95.4c0.9,0,1.7-0.2,2.5-0.5c0.7-0.3,1.3-0.7,1.8-1.3c0.5-0.6,0.9-1.2,1.1-2.1c0.3-0.8,0.4-1.7,0.4-2.7
				c0-6.5,0-9.8,0-16.3c2.3,0,3.4,0,5.7,0c0,6.5,0,9.8,0,16.3c0,1.7-0.3,3.2-0.8,4.6c-0.5,1.4-1.3,2.6-2.3,3.6c-1,1-2.2,1.8-3.6,2.4
				c-1.4,0.6-3,0.8-4.8,0.8c-1.8,0-3.4-0.3-4.8-0.8c-1.4-0.6-2.6-1.3-3.6-2.4c-1-1-1.8-2.2-2.3-3.6c-0.5-1.4-0.8-2.9-0.8-4.6
				c0-6.5,0-9.8,0-16.3c2.3,0,3.4,0,5.7,0c0,6.5,0,9.8,0,16.3c0,1,0.1,1.9,0.4,2.7c0.3,0.8,0.6,1.5,1.1,2.1c0.5,0.6,1.1,1,1.8,1.3
				C80.7,95.3,81.6,95.4,82.5,95.4z"/>
			<path class="st2" d="M107.6,72.6c1.8,0,3.4,0.2,4.7,0.5c1.3,0.3,2.4,0.8,3.2,1.5c0.8,0.6,1.4,1.4,1.8,2.3c0.4,0.9,0.6,1.9,0.6,3
				c0,0.6-0.1,1.2-0.3,1.8c-0.2,0.6-0.5,1.1-0.8,1.6c-0.4,0.5-0.9,1-1.5,1.4c-0.6,0.4-1.3,0.8-2.1,1.1c1.9,0.4,3.2,1.2,4.1,2.1
				c0.9,1,1.3,2.3,1.3,3.9c0,1.2-0.2,2.2-0.7,3.2c-0.4,1-1.1,1.9-1.9,2.6c-0.9,0.7-1.9,1.3-3.2,1.7c-1.2,0.4-2.7,0.6-4.3,0.6
				c-4.2,0-6.4,0-10.6,0c0-10.9,0-16.4,0-27.3C101.8,72.6,103.7,72.6,107.6,72.6z M103.5,76.9c0,3,0,4.4,0,7.4c1.5,0,2.2,0,3.7,0
				c0.8,0,1.5-0.1,2.1-0.2c0.6-0.1,1.1-0.3,1.5-0.6c0.4-0.3,0.7-0.7,1-1.1c0.2-0.5,0.3-1,0.3-1.7c0-0.7-0.1-1.3-0.3-1.7
				c-0.2-0.5-0.5-0.9-0.8-1.1c-0.4-0.3-0.9-0.5-1.4-0.6c-0.6-0.1-1.3-0.2-2.1-0.2C106,76.9,105.2,76.9,103.5,76.9z M108.4,95.6
				c0.9,0,1.6-0.1,2.2-0.3c0.6-0.2,1.1-0.5,1.4-0.9c0.4-0.4,0.6-0.8,0.7-1.3s0.2-1,0.2-1.5c0-0.6-0.1-1-0.2-1.5
				c-0.2-0.4-0.4-0.8-0.8-1.1c-0.4-0.3-0.8-0.5-1.4-0.7c-0.6-0.2-1.3-0.2-2.2-0.2c-1.9,0-2.9,0-4.8,0c0,3,0,4.5,0,7.5
				C105.5,95.6,106.4,95.6,108.4,95.6z"/>
			<path class="st2" d="M127.1,77c0,2.8,0,4.2,0,7c3.6,0,5.5,0,9.1,0c0,1.7,0,2.6,0,4.3c-3.6,0-5.5,0-9.1,0c0,2.9,0,4.3,0,7.2
				c4.7,0,7,0,11.7,0c0,1.8,0,2.7,0,4.4c-7,0-10.4,0-17.4,0c0-10.9,0-16.4,0-27.3c7,0,10.4,0,17.4,0c0,1.8,0,2.7,0,4.4
				C134.1,77,131.7,77,127.1,77z"/>
		</g>
	</g>
	<g>
		<polygon class="st2" points="61.4,33.6 63.2,37.3 67.3,37.9 64.3,40.8 65,44.8 61.4,42.9 57.7,44.8 58.4,40.8 55.5,37.9 
			59.5,37.3 		"/>
		<polygon class="st2" points="108.6,33.6 110.5,37.3 114.5,37.9 111.6,40.8 112.3,44.8 108.6,42.9 105,44.8 105.7,40.8 102.7,37.9 
			106.8,37.3 		"/>
		<polygon class="st2" points="84.9,25.2 87.7,30.7 93.8,31.6 89.4,35.9 90.4,42 84.9,39.1 79.5,42 80.5,35.9 76.1,31.6 82.2,30.7 
					"/>
	</g>
	<g>
		<g>
			<path class="st3" d="M111.7,157.9c3.2-7.4,3.2-15.7,0-23.1l-11.2-4l-4-11.1c-7.4-3.2-15.7-3.2-23.1,0l-4,11.2l-11.1,4
				c-3.2,7.4-3.2,15.7,0,23.1l11.2,4l4,11.1c7.4,3.2,15.7,3.2,23.1,0l4-11.2L111.7,157.9z M82.3,159.2l-10.1-10.1l6.5-12.7l14.1,2.2
				l2.2,14.1L82.3,159.2z"/>
			<path class="st2" d="M94.6,150l-1.8-11.3l-14.1-2.2l-5.2,10.2C79.6,151.1,87,153,94.6,150z"/>
			<path class="st2" d="M94.6,150c-7.6,3-14.9,1.2-21.1-3.3l-1.3,2.5l10.1,10.1l12.7-6.5L94.6,150z"/>
			<path class="st2" d="M58.3,158c1.4,3.3,3.5,6.4,6.1,9c2.7,2.7,5.8,4.7,9,6.1l-4-11.1L58.3,158z"/>
			<path class="st2" d="M109.5,130.7c-1.1-1.7-2.4-3.4-3.9-4.9c-2.7-2.7-5.8-4.7-9-6.1l4,11.1l6.1,2.2
				C107.7,132.4,108.7,131.6,109.5,130.7z"/>
			<path class="st2" d="M109.5,130.7c-0.8,0.9-1.8,1.7-2.8,2.3l5,1.8C111.1,133.4,110.3,132,109.5,130.7z"/>
			<path class="st2" d="M73.4,119.7c-3.3,1.4-6.4,3.5-9,6.1c-1,1-2,2.1-2.8,3.3c3.1,0,6.2-0.6,9.1-1.7L73.4,119.7z"/>
			<path class="st2" d="M61.6,129.1c-1.3,1.8-2.4,3.7-3.3,5.7l11.1-4l1.2-3.4C67.7,128.5,64.7,129.2,61.6,129.1z"/>
			<path class="st2" d="M111.7,157.9l-11.1,4l-4,11.2c3.3-1.4,6.4-3.5,9-6.1C108.3,164.3,110.3,161.2,111.7,157.9z"/>
		</g>
	</g>
</g>
</svg>
